ISO-10303-21;
HEADER;
FILE_DESCRIPTION((''),'2;1');
FILE_NAME('model.ifc','2026-08-22T03:46:20',('Skanna'),('Skanna'),'skanna-web bim 0.1','skanna-web bim 0.1','');
FILE_SCHEMA(('IFC4'));
ENDSEC;
DATA;
#1=IFCPERSON($,$,'Skanna',$,$,$,$,$);
#2=IFCORGANIZATION($,'Skanna',$,$,$);
#3=IFCPERSONANDORGANIZATION(#1,#2,$);
#4=IFCAPPLICATION(#2,'0.1','Skanna Web BIM Author','skanna-web');
#5=IFCOWNERHISTORY(#3,#4,$,.ADDED.,$,$,$,1787370380);
#6=IFCSIUNIT(*,.LENGTHUNIT.,$,.METRE.);
#7=IFCSIUNIT(*,.AREAUNIT.,$,.SQUARE_METRE.);
#8=IFCSIUNIT(*,.VOLUMEUNIT.,$,.CUBIC_METRE.);
#9=IFCUNITASSIGNMENT((#6,#7,#8));
#10=IFCCARTESIANPOINT((0.,0.,0.));
#11=IFCAXIS2PLACEMENT3D(#10,$,$);
#12=IFCGEOMETRICREPRESENTATIONCONTEXT($,'Model',3,1.E-05,#11,$);
#13=IFCPROJECT('2ZqtP$LSLdt_0HWWe0QFSh',#5,'Baan C&L','Authored in Skanna Web',$,$,$,(#12),#9);
#14=IFCCARTESIANPOINT((0.,0.,0.));
#15=IFCAXIS2PLACEMENT3D(#14,$,$);
#16=IFCLOCALPLACEMENT($,#15);
#17=IFCSITE('05bvmSgn1xNw7vclvDgZfb',#5,'Site',$,$,#16,$,$,.ELEMENT.,$,$,$,$,$);
#18=IFCCARTESIANPOINT((0.,0.,0.));
#19=IFCAXIS2PLACEMENT3D(#18,$,$);
#20=IFCLOCALPLACEMENT(#16,#19);
#21=IFCBUILDING('2ue6ig2PmR1krrMlhl4Min',#5,'Building',$,$,#20,$,$,.ELEMENT.,$,$,$);
#22=IFCRELAGGREGATES('3Iya1kHnOJRBm9T0zaHV0m',#5,$,$,#13,(#17));
#23=IFCRELAGGREGATES('2n$k_ZcrrHhYN3lwTp68tM',#5,$,$,#17,(#21));
#24=IFCCARTESIANPOINT((0.,0.,0.));
#25=IFCAXIS2PLACEMENT3D(#24,$,$);
#26=IFCLOCALPLACEMENT(#20,#25);
#27=IFCBUILDINGSTOREY('1vCFt65OybFLnc1zBB7BTg',#5,'Ground floor',$,$,#26,$,$,.ELEMENT.,0.);
#28=IFCCARTESIANPOINT((0.,0.,0.));
#29=IFCDIRECTION((0.,0.,1.));
#30=IFCDIRECTION((1.,0.,0.));
#31=IFCAXIS2PLACEMENT3D(#28,#29,#30);
#32=IFCLOCALPLACEMENT(#26,#31);
#33=IFCCARTESIANPOINT((-7.623403,-8.872242));
#34=IFCCARTESIANPOINT((-7.776597,-9.027758));
#35=IFCCARTESIANPOINT((33.334485,-7.572765));
#36=IFCCARTESIANPOINT((33.205515,-7.427235));
#37=IFCPOLYLINE((#33,#34,#35,#36,#33));
#38=IFCARBITRARYCLOSEDPROFILEDEF(.AREA.,$,#37);
#39=IFCCARTESIANPOINT((0.,0.,0.));
#40=IFCAXIS2PLACEMENT3D(#39,$,$);
#41=IFCDIRECTION((0.,0.,1.));
#42=IFCEXTRUDEDAREASOLID(#38,#40,#41,2.7);
#43=IFCSHAPEREPRESENTATION(#12,'Body','SweptSolid',(#42));
#44=IFCPRODUCTDEFINITIONSHAPE($,$,(#43));
#45=IFCWALL('1EUqBTI7wcc$nLahSEFml3',#5,'Wall 1',$,$,#32,#44,$,.POLYGONAL.);
#46=IFCCARTESIANPOINT((0.,0.,0.));
#47=IFCDIRECTION((0.,0.,1.));
#48=IFCDIRECTION((1.,0.,0.));
#49=IFCAXIS2PLACEMENT3D(#46,#47,#48);
#50=IFCLOCALPLACEMENT(#26,#49);
#51=IFCCARTESIANPOINT((33.205515,-7.427235));
#52=IFCCARTESIANPOINT((33.334485,-7.572765));
#53=IFCCARTESIANPOINT((38.537776,25.535433));
#54=IFCCARTESIANPOINT((38.36236,25.385433));
#55=IFCPOLYLINE((#51,#52,#53,#54,#51));
#56=IFCARBITRARYCLOSEDPROFILEDEF(.AREA.,$,#55);
#57=IFCCARTESIANPOINT((0.,0.,0.));
#58=IFCAXIS2PLACEMENT3D(#57,$,$);
#59=IFCDIRECTION((0.,0.,1.));
#60=IFCEXTRUDEDAREASOLID(#56,#58,#59,2.7);
#61=IFCSHAPEREPRESENTATION(#12,'Body','SweptSolid',(#60));
#62=IFCPRODUCTDEFINITIONSHAPE($,$,(#61));
#63=IFCWALL('0Nltn$3IqNNgtuDb4x10OM',#5,'Wall 2',$,$,#50,#62,$,.POLYGONAL.);
#64=IFCCARTESIANPOINT((0.,0.,0.));
#65=IFCDIRECTION((0.,0.,1.));
#66=IFCDIRECTION((1.,0.,0.));
#67=IFCAXIS2PLACEMENT3D(#64,#65,#66);
#68=IFCLOCALPLACEMENT(#26,#67);
#69=IFCCARTESIANPOINT((38.36236,25.385433));
#70=IFCCARTESIANPOINT((38.537776,25.535433));
#71=IFCCARTESIANPOINT((-7.073422,25.535433));
#72=IFCCARTESIANPOINT((-6.926442,25.385433));
#73=IFCPOLYLINE((#69,#70,#71,#72,#69));
#74=IFCARBITRARYCLOSEDPROFILEDEF(.AREA.,$,#73);
#75=IFCCARTESIANPOINT((0.,0.,0.));
#76=IFCAXIS2PLACEMENT3D(#75,$,$);
#77=IFCDIRECTION((0.,0.,1.));
#78=IFCEXTRUDEDAREASOLID(#74,#76,#77,2.7);
#79=IFCSHAPEREPRESENTATION(#12,'Body','SweptSolid',(#78));
#80=IFCPRODUCTDEFINITIONSHAPE($,$,(#79));
#81=IFCWALL('3CSkcxN4Jvz0ElE7cAg0_e',#5,'Wall 3',$,$,#68,#80,$,.POLYGONAL.);
#82=IFCCARTESIANPOINT((0.,0.,0.));
#83=IFCDIRECTION((0.,0.,1.));
#84=IFCDIRECTION((1.,0.,0.));
#85=IFCAXIS2PLACEMENT3D(#82,#83,#84);
#86=IFCLOCALPLACEMENT(#26,#85);
#87=IFCCARTESIANPOINT((-6.926442,25.385433));
#88=IFCCARTESIANPOINT((-7.073422,25.535433));
#89=IFCCARTESIANPOINT((-7.776597,-9.027758));
#90=IFCCARTESIANPOINT((-7.623403,-8.872242));
#91=IFCPOLYLINE((#87,#88,#89,#90,#87));
#92=IFCARBITRARYCLOSEDPROFILEDEF(.AREA.,$,#91);
#93=IFCCARTESIANPOINT((0.,0.,0.));
#94=IFCAXIS2PLACEMENT3D(#93,$,$);
#95=IFCDIRECTION((0.,0.,1.));
#96=IFCEXTRUDEDAREASOLID(#92,#94,#95,2.7);
#97=IFCSHAPEREPRESENTATION(#12,'Body','SweptSolid',(#96));
#98=IFCPRODUCTDEFINITIONSHAPE($,$,(#97));
#99=IFCWALL('0e8bXkkY2Myg9l8uc01FWr',#5,'Wall 4',$,$,#86,#98,$,.POLYGONAL.);
#100=IFCCARTESIANPOINT((0.,0.,0.7));
#101=IFCDIRECTION((0.,0.,1.));
#102=IFCDIRECTION((1.,0.,0.));
#103=IFCAXIS2PLACEMENT3D(#100,#101,#102);
#104=IFCLOCALPLACEMENT(#26,#103);
#105=IFCCARTESIANPOINT((6.365,4.925073));
#106=IFCCARTESIANPOINT((6.115,4.674927));
#107=IFCCARTESIANPOINT((23.515124,4.685073));
#108=IFCCARTESIANPOINT((23.264876,4.934927));
#109=IFCPOLYLINE((#105,#106,#107,#108,#105));
#110=IFCARBITRARYCLOSEDPROFILEDEF(.AREA.,$,#109);
#111=IFCCARTESIANPOINT((0.,0.,0.));
#112=IFCAXIS2PLACEMENT3D(#111,$,$);
#113=IFCDIRECTION((0.,0.,1.));
#114=IFCEXTRUDEDAREASOLID(#110,#112,#113,4.);
#115=IFCSHAPEREPRESENTATION(#12,'Body','SweptSolid',(#114));
#116=IFCPRODUCTDEFINITIONSHAPE($,$,(#115));
#117=IFCWALL('1Ue0pMaBMwriv5T2CAa4jo',#5,'Wall 5',$,$,#104,#116,$,.POLYGONAL.);
#118=IFCCARTESIANPOINT((0.,0.,0.7));
#119=IFCDIRECTION((0.,0.,1.));
#120=IFCDIRECTION((1.,0.,0.));
#121=IFCAXIS2PLACEMENT3D(#118,#119,#120);
#122=IFCLOCALPLACEMENT(#26,#121);
#123=IFCCARTESIANPOINT((6.115,4.674927));
#124=IFCCARTESIANPOINT((6.365,4.925073));
#125=IFCCARTESIANPOINT((6.365,19.805));
#126=IFCCARTESIANPOINT((6.115,20.055));
#127=IFCPOLYLINE((#123,#124,#125,#126,#123));
#128=IFCARBITRARYCLOSEDPROFILEDEF(.AREA.,$,#127);
#129=IFCCARTESIANPOINT((0.,0.,0.));
#130=IFCAXIS2PLACEMENT3D(#129,$,$);
#131=IFCDIRECTION((0.,0.,1.));
#132=IFCEXTRUDEDAREASOLID(#128,#130,#131,4.);
#133=IFCSHAPEREPRESENTATION(#12,'Body','SweptSolid',(#132));
#134=IFCPRODUCTDEFINITIONSHAPE($,$,(#133));
#135=IFCWALL('2OMiDuBEsiypRzgIFTPCnx',#5,'Wall 6',$,$,#122,#134,$,.POLYGONAL.);
#136=IFCCARTESIANPOINT((0.,0.,0.7));
#137=IFCDIRECTION((0.,0.,1.));
#138=IFCDIRECTION((1.,0.,0.));
#139=IFCAXIS2PLACEMENT3D(#136,#137,#138);
#140=IFCLOCALPLACEMENT(#26,#139);
#141=IFCCARTESIANPOINT((16.445495,19.805));
#142=IFCCARTESIANPOINT((16.194505,20.055));
#143=IFCCARTESIANPOINT((6.115,20.055));
#144=IFCCARTESIANPOINT((6.365,19.805));
#145=IFCPOLYLINE((#141,#142,#143,#144,#141));
#146=IFCARBITRARYCLOSEDPROFILEDEF(.AREA.,$,#145);
#147=IFCCARTESIANPOINT((0.,0.,0.));
#148=IFCAXIS2PLACEMENT3D(#147,$,$);
#149=IFCDIRECTION((0.,0.,1.));
#150=IFCEXTRUDEDAREASOLID(#146,#148,#149,4.);
#151=IFCSHAPEREPRESENTATION(#12,'Body','SweptSolid',(#150));
#152=IFCPRODUCTDEFINITIONSHAPE($,$,(#151));
#153=IFCWALL('39vZmQdUnnoetxuj9cNRF4',#5,'Wall 7',$,$,#140,#152,$,.POLYGONAL.);
#154=IFCCARTESIANPOINT((0.,0.,0.7));
#155=IFCDIRECTION((0.,0.,1.));
#156=IFCDIRECTION((1.,0.,0.));
#157=IFCAXIS2PLACEMENT3D(#154,#155,#156);
#158=IFCLOCALPLACEMENT(#26,#157);
#159=IFCCARTESIANPOINT((16.194505,20.055));
#160=IFCCARTESIANPOINT((16.445495,19.805));
#161=IFCCARTESIANPOINT((16.435494,22.335262));
#162=IFCCARTESIANPOINT((16.184506,22.584738));
#163=IFCPOLYLINE((#159,#160,#161,#162,#159));
#164=IFCARBITRARYCLOSEDPROFILEDEF(.AREA.,$,#163);
#165=IFCCARTESIANPOINT((0.,0.,0.));
#166=IFCAXIS2PLACEMENT3D(#165,$,$);
#167=IFCDIRECTION((0.,0.,1.));
#168=IFCEXTRUDEDAREASOLID(#164,#166,#167,4.);
#169=IFCSHAPEREPRESENTATION(#12,'Body','SweptSolid',(#168));
#170=IFCPRODUCTDEFINITIONSHAPE($,$,(#169));
#171=IFCWALL('2cBC0SeTK5IJyYTOd$Z1id',#5,'Wall 8',$,$,#158,#170,$,.POLYGONAL.);
#172=IFCCARTESIANPOINT((0.,0.,0.7));
#173=IFCDIRECTION((0.,0.,1.));
#174=IFCDIRECTION((1.,0.,0.));
#175=IFCAXIS2PLACEMENT3D(#172,#173,#174);
#176=IFCLOCALPLACEMENT(#26,#175);
#177=IFCCARTESIANPOINT((25.764507,22.354738));
#178=IFCCARTESIANPOINT((26.015493,22.605262));
#179=IFCCARTESIANPOINT((16.184506,22.584738));
#180=IFCCARTESIANPOINT((16.435494,22.335262));
#181=IFCPOLYLINE((#177,#178,#179,#180,#177));
#182=IFCARBITRARYCLOSEDPROFILEDEF(.AREA.,$,#181);
#183=IFCCARTESIANPOINT((0.,0.,0.));
#184=IFCAXIS2PLACEMENT3D(#183,$,$);
#185=IFCDIRECTION((0.,0.,1.));
#186=IFCEXTRUDEDAREASOLID(#182,#184,#185,4.);
#187=IFCSHAPEREPRESENTATION(#12,'Body','SweptSolid',(#186));
#188=IFCPRODUCTDEFINITIONSHAPE($,$,(#187));
#189=IFCWALL('3l9MiXrKVkCBNIHiG3$YD9',#5,'Wall 9',$,$,#176,#188,$,.POLYGONAL.);
#190=IFCCARTESIANPOINT((0.,0.,0.7));
#191=IFCDIRECTION((0.,0.,1.));
#192=IFCDIRECTION((1.,0.,0.));
#193=IFCAXIS2PLACEMENT3D(#190,#191,#192);
#194=IFCLOCALPLACEMENT(#26,#193);
#195=IFCCARTESIANPOINT((26.015493,22.605262));
#196=IFCCARTESIANPOINT((25.764507,22.354738));
#197=IFCCARTESIANPOINT((25.735494,14.976008));
#198=IFCCARTESIANPOINT((25.984506,14.723992));
#199=IFCPOLYLINE((#195,#196,#197,#198,#195));
#200=IFCARBITRARYCLOSEDPROFILEDEF(.AREA.,$,#199);
#201=IFCCARTESIANPOINT((0.,0.,0.));
#202=IFCAXIS2PLACEMENT3D(#201,$,$);
#203=IFCDIRECTION((0.,0.,1.));
#204=IFCEXTRUDEDAREASOLID(#200,#202,#203,4.);
#205=IFCSHAPEREPRESENTATION(#12,'Body','SweptSolid',(#204));
#206=IFCPRODUCTDEFINITIONSHAPE($,$,(#205));
#207=IFCWALL('2LcMzYItS1yhn4$CsELB67',#5,'Wall 10',$,$,#194,#206,$,.POLYGONAL.);
#208=IFCCARTESIANPOINT((0.,0.,0.7));
#209=IFCDIRECTION((0.,0.,1.));
#210=IFCDIRECTION((1.,0.,0.));
#211=IFCAXIS2PLACEMENT3D(#208,#209,#210);
#212=IFCLOCALPLACEMENT(#26,#211);
#213=IFCCARTESIANPOINT((25.984506,14.723992));
#214=IFCCARTESIANPOINT((25.735494,14.976008));
#215=IFCCARTESIANPOINT((23.254875,14.996013));
#216=IFCCARTESIANPOINT((23.505125,14.743987));
#217=IFCPOLYLINE((#213,#214,#215,#216,#213));
#218=IFCARBITRARYCLOSEDPROFILEDEF(.AREA.,$,#217);
#219=IFCCARTESIANPOINT((0.,0.,0.));
#220=IFCAXIS2PLACEMENT3D(#219,$,$);
#221=IFCDIRECTION((0.,0.,1.));
#222=IFCEXTRUDEDAREASOLID(#218,#220,#221,4.);
#223=IFCSHAPEREPRESENTATION(#12,'Body','SweptSolid',(#222));
#224=IFCPRODUCTDEFINITIONSHAPE($,$,(#223));
#225=IFCWALL('30dJFphsAUWF9fgPMCgJtI',#5,'Wall 11',$,$,#212,#224,$,.POLYGONAL.);
#226=IFCCARTESIANPOINT((0.,0.,0.7));
#227=IFCDIRECTION((0.,0.,1.));
#228=IFCDIRECTION((1.,0.,0.));
#229=IFCAXIS2PLACEMENT3D(#226,#227,#228);
#230=IFCLOCALPLACEMENT(#26,#229);
#231=IFCCARTESIANPOINT((23.264876,4.934927));
#232=IFCCARTESIANPOINT((23.515124,4.685073));
#233=IFCCARTESIANPOINT((23.505125,14.743987));
#234=IFCCARTESIANPOINT((23.254875,14.996013));
#235=IFCPOLYLINE((#231,#232,#233,#234,#231));
#236=IFCARBITRARYCLOSEDPROFILEDEF(.AREA.,$,#235);
#237=IFCCARTESIANPOINT((0.,0.,0.));
#238=IFCAXIS2PLACEMENT3D(#237,$,$);
#239=IFCDIRECTION((0.,0.,1.));
#240=IFCEXTRUDEDAREASOLID(#236,#238,#239,4.);
#241=IFCSHAPEREPRESENTATION(#12,'Body','SweptSolid',(#240));
#242=IFCPRODUCTDEFINITIONSHAPE($,$,(#241));
#243=IFCWALL('39rZ266LaK6Z7jNWVQG9d6',#5,'Wall 12',$,$,#230,#242,$,.POLYGONAL.);
#244=IFCCARTESIANPOINT((0.,0.,0.1));
#245=IFCDIRECTION((0.,0.,1.));
#246=IFCDIRECTION((1.,0.,0.));
#247=IFCAXIS2PLACEMENT3D(#244,#245,#246);
#248=IFCLOCALPLACEMENT(#26,#247);
#249=IFCCARTESIANPOINT((27.84488,18.79537));
#250=IFCCARTESIANPOINT((27.99512,18.94463));
#251=IFCCARTESIANPOINT((27.999879,21.90463));
#252=IFCCARTESIANPOINT((27.850121,22.05537));
#253=IFCPOLYLINE((#249,#250,#251,#252,#249));
#254=IFCARBITRARYCLOSEDPROFILEDEF(.AREA.,$,#253);
#255=IFCCARTESIANPOINT((0.,0.,0.));
#256=IFCAXIS2PLACEMENT3D(#255,$,$);
#257=IFCDIRECTION((0.,0.,1.));
#258=IFCEXTRUDEDAREASOLID(#254,#256,#257,3.4);
#259=IFCSHAPEREPRESENTATION(#12,'Body','SweptSolid',(#258));
#260=IFCPRODUCTDEFINITIONSHAPE($,$,(#259));
#261=IFCWALL('38lkP4CRGvS7H9zsQaq3a7',#5,'Wall 13',$,$,#248,#260,$,.POLYGONAL.);
#262=IFCCARTESIANPOINT((0.,0.,0.1));
#263=IFCDIRECTION((0.,0.,1.));
#264=IFCDIRECTION((1.,0.,0.));
#265=IFCAXIS2PLACEMENT3D(#262,#263,#264);
#266=IFCLOCALPLACEMENT(#26,#265);
#267=IFCCARTESIANPOINT((31.89,18.935371));
#268=IFCCARTESIANPOINT((32.04,18.784629));
#269=IFCCARTESIANPOINT((32.04,22.054631));
#270=IFCCARTESIANPOINT((31.89,21.905369));
#271=IFCPOLYLINE((#267,#268,#269,#270,#267));
#272=IFCARBITRARYCLOSEDPROFILEDEF(.AREA.,$,#271);
#273=IFCCARTESIANPOINT((0.,0.,0.));
#274=IFCAXIS2PLACEMENT3D(#273,$,$);
#275=IFCDIRECTION((0.,0.,1.));
#276=IFCEXTRUDEDAREASOLID(#272,#274,#275,3.4);
#277=IFCSHAPEREPRESENTATION(#12,'Body','SweptSolid',(#276));
#278=IFCPRODUCTDEFINITIONSHAPE($,$,(#277));
#279=IFCWALL('2EtCUqauJMvcJgqaa01JKo',#5,'Wall 14',$,$,#266,#278,$,.POLYGONAL.);
#280=IFCCARTESIANPOINT((0.,0.,0.1));
#281=IFCDIRECTION((0.,0.,1.));
#282=IFCDIRECTION((1.,0.,0.));
#283=IFCAXIS2PLACEMENT3D(#280,#281,#282);
#284=IFCLOCALPLACEMENT(#26,#283);
#285=IFCCARTESIANPOINT((32.04,18.784629));
#286=IFCCARTESIANPOINT((31.89,18.935371));
#287=IFCCARTESIANPOINT((27.98512,18.95463));
#288=IFCCARTESIANPOINT((27.83488,18.80537));
#289=IFCPOLYLINE((#285,#286,#287,#288,#285));
#290=IFCARBITRARYCLOSEDPROFILEDEF(.AREA.,$,#289);
#291=IFCCARTESIANPOINT((0.,0.,0.));
#292=IFCAXIS2PLACEMENT3D(#291,$,$);
#293=IFCDIRECTION((0.,0.,1.));
#294=IFCEXTRUDEDAREASOLID(#290,#292,#293,3.4);
#295=IFCSHAPEREPRESENTATION(#12,'Body','SweptSolid',(#294));
#296=IFCPRODUCTDEFINITIONSHAPE($,$,(#295));
#297=IFCWALL('1GZBaawGJ01m$rhcaTd5zD',#5,'Wall 15',$,$,#284,#296,$,.POLYGONAL.);
#298=IFCCARTESIANPOINT((30.7,18.791238,0.1));
#299=IFCDIRECTION((0.,0.,1.));
#300=IFCDIRECTION((0.,1.,0.));
#301=IFCAXIS2PLACEMENT3D(#298,#299,#300);
#302=IFCLOCALPLACEMENT(#26,#301);
#303=IFCCARTESIANPOINT((1.549997,0.));
#304=IFCAXIS2PLACEMENT2D(#303,$);
#305=IFCRECTANGLEPROFILEDEF(.AREA.,$,#304,3.099995,0.15);
#306=IFCCARTESIANPOINT((0.,0.,0.));
#307=IFCAXIS2PLACEMENT3D(#306,$,$);
#308=IFCDIRECTION((0.,0.,1.));
#309=IFCEXTRUDEDAREASOLID(#305,#307,#308,3.4);
#310=IFCSHAPEREPRESENTATION(#12,'Body','SweptSolid',(#309));
#311=IFCPRODUCTDEFINITIONSHAPE($,$,(#310));
#312=IFCWALL('0CYOuYSD7k9ab5IrCjgAgN',#5,'Wall 16',$,$,#302,#311,$,.STANDARD.);
#313=IFCCARTESIANPOINT((0.,0.,0.1));
#314=IFCDIRECTION((0.,0.,1.));
#315=IFCDIRECTION((1.,0.,0.));
#316=IFCAXIS2PLACEMENT3D(#313,#314,#315);
#317=IFCLOCALPLACEMENT(#26,#316);
#318=IFCCARTESIANPOINT((31.887781,21.885374));
#319=IFCCARTESIANPOINT((32.037781,22.034636));
#320=IFCCARTESIANPOINT((27.832902,22.055376));
#321=IFCCARTESIANPOINT((27.982659,21.904635));
#322=IFCPOLYLINE((#318,#319,#320,#321,#318));
#323=IFCARBITRARYCLOSEDPROFILEDEF(.AREA.,$,#322);
#324=IFCCARTESIANPOINT((0.,0.,0.));
#325=IFCAXIS2PLACEMENT3D(#324,$,$);
#326=IFCDIRECTION((0.,0.,1.));
#327=IFCEXTRUDEDAREASOLID(#323,#325,#326,3.4);
#328=IFCSHAPEREPRESENTATION(#12,'Body','SweptSolid',(#327));
#329=IFCPRODUCTDEFINITIONSHAPE($,$,(#328));
#330=IFCWALL('3EbvIS26lwowgEiBPhFhth',#5,'Wall 17',$,$,#317,#329,$,.POLYGONAL.);
#331=IFCCARTESIANPOINT((11.33,19.06,0.7));
#332=IFCDIRECTION((0.,0.,1.));
#333=IFCDIRECTION((0.,1.,0.));
#334=IFCAXIS2PLACEMENT3D(#331,#332,#333);
#335=IFCLOCALPLACEMENT(#26,#334);
#336=IFCCARTESIANPOINT((0.375,0.));
#337=IFCAXIS2PLACEMENT2D(#336,$);
#338=IFCRECTANGLEPROFILEDEF(.AREA.,$,#337,0.75,0.15);
#339=IFCCARTESIANPOINT((0.,0.,0.));
#340=IFCAXIS2PLACEMENT3D(#339,$,$);
#341=IFCDIRECTION((0.,0.,1.));
#342=IFCEXTRUDEDAREASOLID(#338,#340,#341,3.4);
#343=IFCSHAPEREPRESENTATION(#12,'Body','SweptSolid',(#342));
#344=IFCPRODUCTDEFINITIONSHAPE($,$,(#343));
#345=IFCWALL('0_YRdf0Tl46EMXftFpMozW',#5,'Wall 18',$,$,#335,#344,$,.STANDARD.);
#346=IFCCARTESIANPOINT((11.34,14.97,0.7));
#347=IFCDIRECTION((0.,0.,1.));
#348=IFCDIRECTION((-0.004525,0.99999,0.));
#349=IFCAXIS2PLACEMENT3D(#346,#347,#348);
#350=IFCLOCALPLACEMENT(#26,#349);
#351=IFCCARTESIANPOINT((1.105011,0.));
#352=IFCAXIS2PLACEMENT2D(#351,$);
#353=IFCRECTANGLEPROFILEDEF(.AREA.,$,#352,2.210023,0.15);
#354=IFCCARTESIANPOINT((0.,0.,0.));
#355=IFCAXIS2PLACEMENT3D(#354,$,$);
#356=IFCDIRECTION((0.,0.,1.));
#357=IFCEXTRUDEDAREASOLID(#353,#355,#356,3.4);
#358=IFCSHAPEREPRESENTATION(#12,'Body','SweptSolid',(#357));
#359=IFCPRODUCTDEFINITIONSHAPE($,$,(#358));
#360=IFCWALL('1ETBpwHL1_aTkIdhbqATxX',#5,'Wall 19',$,$,#350,#359,$,.STANDARD.);
#361=IFCCARTESIANPOINT((21.45,14.88,0.7));
#362=IFCDIRECTION((0.,0.,1.));
#363=IFCDIRECTION((-0.999998,-0.001993,0.));
#364=IFCAXIS2PLACEMENT3D(#361,#362,#363);
#365=IFCLOCALPLACEMENT(#26,#364);
#366=IFCCARTESIANPOINT((7.525015,0.));
#367=IFCAXIS2PLACEMENT2D(#366,$);
#368=IFCRECTANGLEPROFILEDEF(.AREA.,$,#367,15.05003,0.15);
#369=IFCCARTESIANPOINT((0.,0.,0.));
#370=IFCAXIS2PLACEMENT3D(#369,$,$);
#371=IFCDIRECTION((0.,0.,1.));
#372=IFCEXTRUDEDAREASOLID(#368,#370,#371,3.4);
#373=IFCSHAPEREPRESENTATION(#12,'Body','SweptSolid',(#372));
#374=IFCPRODUCTDEFINITIONSHAPE($,$,(#373));
#375=IFCWALL('060KWlwUEYSnlKutHCYv8E',#5,'Wall 20',$,$,#365,#374,$,.STANDARD.);
#376=IFCCARTESIANPOINT((21.45,14.88,0.7));
#377=IFCDIRECTION((0.,0.,1.));
#378=IFCDIRECTION((-0.003961,0.999992,0.));
#379=IFCAXIS2PLACEMENT3D(#376,#377,#378);
#380=IFCLOCALPLACEMENT(#26,#379);
#381=IFCCARTESIANPOINT((2.524002,0.));
#382=IFCAXIS2PLACEMENT2D(#381,$);
#383=IFCRECTANGLEPROFILEDEF(.AREA.,$,#382,5.048003,0.15);
#384=IFCCARTESIANPOINT((0.,0.,0.));
#385=IFCAXIS2PLACEMENT3D(#384,$,$);
#386=IFCDIRECTION((0.,0.,1.));
#387=IFCEXTRUDEDAREASOLID(#383,#385,#386,3.4);
#388=IFCSHAPEREPRESENTATION(#12,'Body','SweptSolid',(#387));
#389=IFCPRODUCTDEFINITIONSHAPE($,$,(#388));
#390=IFCWALL('2lvfEmX8duzpwTUZWBDfVy',#5,'Wall 21',$,$,#380,#389,$,.STANDARD.);
#391=IFCCARTESIANPOINT((16.32,19.93,0.7));
#392=IFCDIRECTION((0.,0.,1.));
#393=IFCDIRECTION((1.,-0.000398,0.));
#394=IFCAXIS2PLACEMENT3D(#391,#392,#393);
#395=IFCLOCALPLACEMENT(#26,#394);
#396=IFCCARTESIANPOINT((2.555003,0.));
#397=IFCAXIS2PLACEMENT2D(#396,$);
#398=IFCRECTANGLEPROFILEDEF(.AREA.,$,#397,5.110005,0.25);
#399=IFCCARTESIANPOINT((0.,0.,0.));
#400=IFCAXIS2PLACEMENT3D(#399,$,$);
#401=IFCDIRECTION((0.,0.,1.));
#402=IFCEXTRUDEDAREASOLID(#398,#400,#401,3.4);
#403=IFCSHAPEREPRESENTATION(#12,'Body','SweptSolid',(#402));
#404=IFCPRODUCTDEFINITIONSHAPE($,$,(#403));
#405=IFCWALL('1eE$ks3_JFt50W0I0n5Ou3',#5,'Wall 22',$,$,#395,#404,$,.STANDARD.);
#406=IFCCARTESIANPOINT((11.4,16.42,0.7));
#407=IFCDIRECTION((0.,0.,1.));
#408=IFCDIRECTION((0.999978,0.006579,0.));
#409=IFCAXIS2PLACEMENT3D(#406,#407,#408);
#410=IFCLOCALPLACEMENT(#26,#409);
#411=IFCCARTESIANPOINT((1.520033,0.));
#412=IFCAXIS2PLACEMENT2D(#411,$);
#413=IFCRECTANGLEPROFILEDEF(.AREA.,$,#412,3.040066,0.1);
#414=IFCCARTESIANPOINT((0.,0.,0.));
#415=IFCAXIS2PLACEMENT3D(#414,$,$);
#416=IFCDIRECTION((0.,0.,1.));
#417=IFCEXTRUDEDAREASOLID(#413,#415,#416,3.4);
#418=IFCSHAPEREPRESENTATION(#12,'Body','SweptSolid',(#417));
#419=IFCPRODUCTDEFINITIONSHAPE($,$,(#418));
#420=IFCWALL('1bmgr3zto5plWcx0t68TY0',#5,'Wall 23',$,$,#410,#419,$,.STANDARD.);
#421=IFCCARTESIANPOINT((14.44,14.94,0.7));
#422=IFCDIRECTION((0.,0.,1.));
#423=IFCDIRECTION((0.,1.,0.));
#424=IFCAXIS2PLACEMENT3D(#421,#422,#423);
#425=IFCLOCALPLACEMENT(#26,#424);
#426=IFCCARTESIANPOINT((0.75,0.));
#427=IFCAXIS2PLACEMENT2D(#426,$);
#428=IFCRECTANGLEPROFILEDEF(.AREA.,$,#427,1.5,0.1);
#429=IFCCARTESIANPOINT((0.,0.,0.));
#430=IFCAXIS2PLACEMENT3D(#429,$,$);
#431=IFCDIRECTION((0.,0.,1.));
#432=IFCEXTRUDEDAREASOLID(#428,#430,#431,3.4);
#433=IFCSHAPEREPRESENTATION(#12,'Body','SweptSolid',(#432));
#434=IFCPRODUCTDEFINITIONSHAPE($,$,(#433));
#435=IFCWALL('34CFoBIxoHSOFHj85AEymc',#5,'Wall 24',$,$,#425,#434,$,.STANDARD.);
#436=IFCCARTESIANPOINT((7.68,15.99,0.7));
#437=IFCDIRECTION((0.,0.,1.));
#438=IFCDIRECTION((0.000002,1.,0.));
#439=IFCAXIS2PLACEMENT3D(#436,#437,#438);
#440=IFCLOCALPLACEMENT(#26,#439);
#441=IFCCARTESIANPOINT((1.368982,0.));
#442=IFCAXIS2PLACEMENT2D(#441,$);
#443=IFCRECTANGLEPROFILEDEF(.AREA.,$,#442,2.737964,0.15);
#444=IFCCARTESIANPOINT((0.,0.,0.));
#445=IFCAXIS2PLACEMENT3D(#444,$,$);
#446=IFCDIRECTION((0.,0.,1.));
#447=IFCEXTRUDEDAREASOLID(#443,#445,#446,3.4);
#448=IFCSHAPEREPRESENTATION(#12,'Body','SweptSolid',(#447));
#449=IFCPRODUCTDEFINITIONSHAPE($,$,(#448));
#450=IFCWALL('3TNzUkmBPtIsjbNoKnm9qg',#5,'Wall 25',$,$,#440,#449,$,.STANDARD.);
#451=IFCCARTESIANPOINT((6.357368,17.039991,0.7));
#452=IFCDIRECTION((0.,0.,1.));
#453=IFCDIRECTION((0.999968,0.008054,0.));
#454=IFCAXIS2PLACEMENT3D(#451,#452,#453);
#455=IFCLOCALPLACEMENT(#26,#454);
#456=IFCCARTESIANPOINT((0.621336,0.));
#457=IFCAXIS2PLACEMENT2D(#456,$);
#458=IFCRECTANGLEPROFILEDEF(.AREA.,$,#457,1.242672,0.1);
#459=IFCCARTESIANPOINT((0.,0.,0.));
#460=IFCAXIS2PLACEMENT3D(#459,$,$);
#461=IFCDIRECTION((0.,0.,1.));
#462=IFCEXTRUDEDAREASOLID(#458,#460,#461,3.4);
#463=IFCSHAPEREPRESENTATION(#12,'Body','SweptSolid',(#462));
#464=IFCPRODUCTDEFINITIONSHAPE($,$,(#463));
#465=IFCWALL('3u9pntTVFtEVTn28OfsMre',#5,'Wall 26',$,$,#455,#464,$,.STANDARD.);
#466=IFCCARTESIANPOINT((21.430005,19.927964,0.7));
#467=IFCDIRECTION((0.,0.,1.));
#468=IFCDIRECTION((1.,0.000469,0.));
#469=IFCAXIS2PLACEMENT3D(#466,#467,#468);
#470=IFCLOCALPLACEMENT(#26,#469);
#471=IFCCARTESIANPOINT((2.163682,0.));
#472=IFCAXIS2PLACEMENT2D(#471,$);
#473=IFCRECTANGLEPROFILEDEF(.AREA.,$,#472,4.327364,0.1);
#474=IFCCARTESIANPOINT((0.,0.,0.));
#475=IFCAXIS2PLACEMENT3D(#474,$,$);
#476=IFCDIRECTION((0.,0.,1.));
#477=IFCEXTRUDEDAREASOLID(#473,#475,#476,3.4);
#478=IFCSHAPEREPRESENTATION(#12,'Body','SweptSolid',(#477));
#479=IFCPRODUCTDEFINITIONSHAPE($,$,(#478));
#480=IFCWALL('1lyxhSN_z0QI$4MXSOCOM0',#5,'Wall 27',$,$,#470,#479,$,.STANDARD.);
#481=IFCCARTESIANPOINT((23.35,22.35,0.7));
#482=IFCDIRECTION((0.,0.,1.));
#483=IFCDIRECTION((-0.003289,-0.999995,0.));
#484=IFCAXIS2PLACEMENT3D(#481,#482,#483);
#485=IFCLOCALPLACEMENT(#26,#484);
#486=IFCCARTESIANPOINT((3.040016,0.));
#487=IFCAXIS2PLACEMENT2D(#486,$);
#488=IFCRECTANGLEPROFILEDEF(.AREA.,$,#487,6.080033,0.1);
#489=IFCCARTESIANPOINT((0.,0.,0.));
#490=IFCAXIS2PLACEMENT3D(#489,$,$);
#491=IFCDIRECTION((0.,0.,1.));
#492=IFCEXTRUDEDAREASOLID(#488,#490,#491,3.4);
#493=IFCSHAPEREPRESENTATION(#12,'Body','SweptSolid',(#492));
#494=IFCPRODUCTDEFINITIONSHAPE($,$,(#493));
#495=IFCWALL('3HA6VVB51hmj6RA$72Kjrr',#5,'Wall 28',$,$,#485,#494,$,.STANDARD.);
#496=IFCCARTESIANPOINT((16.93,18.62,0.7));
#497=IFCDIRECTION((0.,0.,1.));
#498=IFCDIRECTION((0.,-1.,0.));
#499=IFCAXIS2PLACEMENT3D(#496,#497,#498);
#500=IFCLOCALPLACEMENT(#26,#499);
#501=IFCCARTESIANPOINT((1.25,0.));
#502=IFCAXIS2PLACEMENT2D(#501,$);
#503=IFCRECTANGLEPROFILEDEF(.AREA.,$,#502,2.5,0.1);
#504=IFCCARTESIANPOINT((0.,0.,0.));
#505=IFCAXIS2PLACEMENT3D(#504,$,$);
#506=IFCDIRECTION((0.,0.,1.));
#507=IFCEXTRUDEDAREASOLID(#503,#505,#506,3.4);
#508=IFCSHAPEREPRESENTATION(#12,'Body','SweptSolid',(#507));
#509=IFCPRODUCTDEFINITIONSHAPE($,$,(#508));
#510=IFCWALL('2vaDXeokbUgvCof7qvgfBd',#5,'Wall 29',$,$,#500,#509,$,.STANDARD.);
#511=IFCCARTESIANPOINT((24.58,18.56,0.7));
#512=IFCDIRECTION((0.,0.,1.));
#513=IFCDIRECTION((-0.004785,-0.999989,0.));
#514=IFCAXIS2PLACEMENT3D(#511,#512,#513);
#515=IFCLOCALPLACEMENT(#26,#514);
#516=IFCCARTESIANPOINT((1.045012,0.));
#517=IFCAXIS2PLACEMENT2D(#516,$);
#518=IFCRECTANGLEPROFILEDEF(.AREA.,$,#517,2.090024,0.1);
#519=IFCCARTESIANPOINT((0.,0.,0.));
#520=IFCAXIS2PLACEMENT3D(#519,$,$);
#521=IFCDIRECTION((0.,0.,1.));
#522=IFCEXTRUDEDAREASOLID(#518,#520,#521,3.4);
#523=IFCSHAPEREPRESENTATION(#12,'Body','SweptSolid',(#522));
#524=IFCPRODUCTDEFINITIONSHAPE($,$,(#523));
#525=IFCWALL('3Ko1TQomNlzu5LmCRKThEk',#5,'Wall 30',$,$,#515,#524,$,.STANDARD.);
#526=IFCCARTESIANPOINT((24.62,16.52,0.7));
#527=IFCDIRECTION((0.,0.,1.));
#528=IFCDIRECTION((1.,0.,0.));
#529=IFCAXIS2PLACEMENT3D(#526,#527,#528);
#530=IFCLOCALPLACEMENT(#26,#529);
#531=IFCCARTESIANPOINT((0.561,0.));
#532=IFCAXIS2PLACEMENT2D(#531,$);
#533=IFCRECTANGLEPROFILEDEF(.AREA.,$,#532,1.122,0.1);
#534=IFCCARTESIANPOINT((0.,0.,0.));
#535=IFCAXIS2PLACEMENT3D(#534,$,$);
#536=IFCDIRECTION((0.,0.,1.));
#537=IFCEXTRUDEDAREASOLID(#533,#535,#536,3.4);
#538=IFCSHAPEREPRESENTATION(#12,'Body','SweptSolid',(#537));
#539=IFCPRODUCTDEFINITIONSHAPE($,$,(#538));
#540=IFCWALL('2RGh1zCTvNpMkQEr0V6hEf',#5,'Wall 31',$,$,#530,#539,$,.STANDARD.);
#541=IFCCARTESIANPOINT((0.,0.,-0.1));
#542=IFCDIRECTION((0.,0.,1.));
#543=IFCDIRECTION((1.,0.,0.));
#544=IFCAXIS2PLACEMENT3D(#541,#542,#543);
#545=IFCLOCALPLACEMENT(#26,#544);
#546=IFCCARTESIANPOINT((-7.7,-8.95));
#547=IFCCARTESIANPOINT((-6.999932,25.460433));
#548=IFCCARTESIANPOINT((38.450068,25.460433));
#549=IFCCARTESIANPOINT((33.27,-7.5));
#550=IFCPOLYLINE((#546,#547,#548,#549,#546));
#551=IFCCARTESIANPOINT((-6.4,-7.75));
#552=IFCCARTESIANPOINT((11.6,-7.75));
#553=IFCCARTESIANPOINT((11.6,-1.75));
#554=IFCCARTESIANPOINT((-6.4,-1.75));
#555=IFCPOLYLINE((#551,#552,#553,#554,#551));
#556=IFCARBITRARYPROFILEDEFWITHVOIDS(.AREA.,$,#550,(#555));
#557=IFCCARTESIANPOINT((0.,0.,0.));
#558=IFCAXIS2PLACEMENT3D(#557,$,$);
#559=IFCDIRECTION((0.,0.,1.));
#560=IFCEXTRUDEDAREASOLID(#556,#558,#559,0.1);
#561=IFCSHAPEREPRESENTATION(#12,'Body','SweptSolid',(#560));
#562=IFCPRODUCTDEFINITIONSHAPE($,$,(#561));
#563=IFCSLAB('04P48VO4v1AGJpo9Bz59$f',#5,'Ground 1',$,$,#545,#562,$,.BASESLAB.);
#564=IFCCARTESIANPOINT((0.,0.,0.));
#565=IFCDIRECTION((0.,0.,1.));
#566=IFCDIRECTION((1.,0.,0.));
#567=IFCAXIS2PLACEMENT3D(#564,#565,#566);
#568=IFCLOCALPLACEMENT(#26,#567);
#569=IFCCARTESIANPOINT((6.12,4.75));
#570=IFCCARTESIANPOINT((6.11,19.99));
#571=IFCCARTESIANPOINT((16.11,19.99));
#572=IFCCARTESIANPOINT((16.11,22.46));
#573=IFCCARTESIANPOINT((25.85,22.48));
#574=IFCCARTESIANPOINT((25.86,14.75));
#575=IFCCARTESIANPOINT((23.35,14.75));
#576=IFCCARTESIANPOINT((23.35,4.75));
#577=IFCPOLYLINE((#569,#570,#571,#572,#573,#574,#575,#576,#569));
#578=IFCARBITRARYCLOSEDPROFILEDEF(.AREA.,$,#577);
#579=IFCCARTESIANPOINT((0.,0.,0.));
#580=IFCAXIS2PLACEMENT3D(#579,$,$);
#581=IFCDIRECTION((0.,0.,1.));
#582=IFCEXTRUDEDAREASOLID(#578,#580,#581,0.7);
#583=IFCSHAPEREPRESENTATION(#12,'Body','SweptSolid',(#582));
#584=IFCPRODUCTDEFINITIONSHAPE($,$,(#583));
#585=IFCSLAB('0sC71MOTQuiW09A9erWtB4',#5,'Floor 1',$,$,#568,#584,$,.FLOOR.);
#586=IFCCARTESIANPOINT((0.,0.,0.));
#587=IFCDIRECTION((0.,0.,1.));
#588=IFCDIRECTION((1.,0.,0.));
#589=IFCAXIS2PLACEMENT3D(#586,#587,#588);
#590=IFCLOCALPLACEMENT(#26,#589);
#591=IFCCARTESIANPOINT((25.86,14.75));
#592=IFCCARTESIANPOINT((25.86,2.92));
#593=IFCCARTESIANPOINT((1.4,2.95));
#594=IFCCARTESIANPOINT((1.4,9.67));
#595=IFCCARTESIANPOINT((6.12,9.67));
#596=IFCCARTESIANPOINT((6.12,4.75));
#597=IFCCARTESIANPOINT((23.35,4.75));
#598=IFCCARTESIANPOINT((23.35,14.75));
#599=IFCPOLYLINE((#591,#592,#593,#594,#595,#596,#597,#598,#591));
#600=IFCARBITRARYCLOSEDPROFILEDEF(.AREA.,$,#599);
#601=IFCCARTESIANPOINT((0.,0.,0.));
#602=IFCAXIS2PLACEMENT3D(#601,$,$);
#603=IFCDIRECTION((0.,0.,1.));
#604=IFCEXTRUDEDAREASOLID(#600,#602,#603,0.3);
#605=IFCSHAPEREPRESENTATION(#12,'Body','SweptSolid',(#604));
#606=IFCPRODUCTDEFINITIONSHAPE($,$,(#605));
#607=IFCSLAB('2OhQVeXTS1qKjhD3LGD2u1',#5,'Floor 2',$,$,#590,#606,$,.FLOOR.);
#608=IFCCARTESIANPOINT((0.,0.,-0.1));
#609=IFCDIRECTION((0.,0.,1.));
#610=IFCDIRECTION((1.,0.,0.));
#611=IFCAXIS2PLACEMENT3D(#608,#609,#610);
#612=IFCLOCALPLACEMENT(#26,#611);
#613=IFCCARTESIANPOINT((25.85,21.97));
#614=IFCCARTESIANPOINT((31.84,21.98));
#615=IFCCARTESIANPOINT((31.88,18.73));
#616=IFCCARTESIANPOINT((25.86,18.73));
#617=IFCPOLYLINE((#613,#614,#615,#616,#613));
#618=IFCARBITRARYCLOSEDPROFILEDEF(.AREA.,$,#617);
#619=IFCCARTESIANPOINT((0.,0.,0.));
#620=IFCAXIS2PLACEMENT3D(#619,$,$);
#621=IFCDIRECTION((0.,0.,1.));
#622=IFCEXTRUDEDAREASOLID(#618,#620,#621,0.2);
#623=IFCSHAPEREPRESENTATION(#12,'Body','SweptSolid',(#622));
#624=IFCPRODUCTDEFINITIONSHAPE($,$,(#623));
#625=IFCSLAB('3nYWnCNue3$0KY9okRYlXk',#5,'Floor 3',$,$,#612,#624,$,.FLOOR.);
#626=IFCCARTESIANPOINT((0.,0.,0.));
#627=IFCDIRECTION((0.,0.,1.));
#628=IFCDIRECTION((1.,0.,0.));
#629=IFCAXIS2PLACEMENT3D(#626,#627,#628);
#630=IFCLOCALPLACEMENT(#26,#629);
#631=IFCCARTESIANPOINT((35.34,5.74));
#632=IFCCARTESIANPOINT((32.85,5.75));
#633=IFCCARTESIANPOINT((32.745875,5.724783));
#634=IFCCARTESIANPOINT((32.644162,5.691132));
#635=IFCCARTESIANPOINT((32.545545,5.64927));
#636=IFCCARTESIANPOINT((32.450683,5.599479));
#637=IFCCARTESIANPOINT((32.360213,5.542094));
#638=IFCCARTESIANPOINT((32.274742,5.477498));
#639=IFCCARTESIANPOINT((32.194843,5.406126));
#640=IFCCARTESIANPOINT((32.121052,5.328455));
#641=IFCCARTESIANPOINT((32.053863,5.245006));
#642=IFCCARTESIANPOINT((31.993728,5.15634));
#643=IFCCARTESIANPOINT((31.94105,5.063051));
#644=IFCCARTESIANPOINT((31.896182,4.965764));
#645=IFCCARTESIANPOINT((31.859424,4.865132));
#646=IFCCARTESIANPOINT((31.831024,4.76183));
#647=IFCCARTESIANPOINT((31.811172,4.656551));
#648=IFCCARTESIANPOINT((31.8,4.55));
#649=IFCCARTESIANPOINT((31.85,2.55));
#650=IFCCARTESIANPOINT((26.62,2.55));
#651=IFCCARTESIANPOINT((26.65,14.78));
#652=IFCCARTESIANPOINT((25.86,14.78));
#653=IFCCARTESIANPOINT((25.86,18.73));
#654=IFCCARTESIANPOINT((31.88,18.73));
#655=IFCCARTESIANPOINT((31.83,10.96));
#656=IFCCARTESIANPOINT((31.82832,10.86128));
#657=IFCCARTESIANPOINT((31.835236,10.762788));
#658=IFCCARTESIANPOINT((31.850696,10.665272));
#659=IFCCARTESIANPOINT((31.874582,10.569471));
#660=IFCCARTESIANPOINT((31.906714,10.476112));
#661=IFCCARTESIANPOINT((31.946848,10.385902));
#662=IFCCARTESIANPOINT((31.994678,10.299527));
#663=IFCCARTESIANPOINT((32.049843,10.217641));
#664=IFCCARTESIANPOINT((32.111924,10.140867));
#665=IFCCARTESIANPOINT((32.18045,10.069785));
#666=IFCCARTESIANPOINT((32.254901,10.004935));
#667=IFCCARTESIANPOINT((32.334713,9.94681));
#668=IFCCARTESIANPOINT((32.419279,9.895849));
#669=IFCCARTESIANPOINT((32.507959,9.852441));
#670=IFCCARTESIANPOINT((32.60008,9.816913));
#671=IFCCARTESIANPOINT((32.694942,9.789536));
#672=IFCCARTESIANPOINT((32.791828,9.770517));
#673=IFCCARTESIANPOINT((32.89,9.76));
#674=IFCCARTESIANPOINT((35.99,9.76));
#675=IFCPOLYLINE((#631,#632,#633,#634,#635,#636,#637,#638,#639,#640,#641,#642,#643,#644,#645,#646,#647,#648,#649,#650,#651,#652,#653,#654,#655,#656,#657,#658,#659,#660,#661,#662,#663,#664,#665,#666,#667,#668,#669,#670,#671,#672,#673,#674,#631));
#676=IFCARBITRARYCLOSEDPROFILEDEF(.AREA.,$,#675);
#677=IFCCARTESIANPOINT((0.,0.,0.));
#678=IFCAXIS2PLACEMENT3D(#677,$,$);
#679=IFCDIRECTION((0.,0.,1.));
#680=IFCEXTRUDEDAREASOLID(#676,#678,#679,0.012);
#681=IFCCOLOURRGB($,0.647059,0.647059,0.647059);
#682=IFCSURFACESTYLESHADING(#681,0.);
#683=IFCSURFACESTYLE('White aluminium',.BOTH.,(#682));
#684=IFCSTYLEDITEM(#680,(#683),$);
#685=IFCSHAPEREPRESENTATION(#12,'Body','SweptSolid',(#680));
#686=IFCPRODUCTDEFINITIONSHAPE($,$,(#685));
#687=IFCCOVERING('0p$2ixh4a_XZeSJuZJwzne',#5,'Floor finish 1 (concrete)','concrete, 12 mm',$,#630,#686,$,.FLOORING.);
#688=IFCCARTESIANPOINT((0.,0.,0.));
#689=IFCDIRECTION((0.,0.,1.));
#690=IFCDIRECTION((1.,0.,0.));
#691=IFCAXIS2PLACEMENT3D(#688,#689,#690);
#692=IFCLOCALPLACEMENT(#26,#691);
#693=IFCCARTESIANPOINT((0.,0.,0.));
#694=IFCDIRECTION((0.,0.,1.));
#695=IFCDIRECTION((1.,0.,0.));
#696=IFCAXIS2PLACEMENT3D(#693,#694,#695);
#697=IFCLOCALPLACEMENT(#26,#696);
#698=IFCCARTESIANPOINT((0.,0.,0.));
#699=IFCDIRECTION((0.,0.,1.));
#700=IFCDIRECTION((1.,0.,0.));
#701=IFCAXIS2PLACEMENT3D(#698,#699,#700);
#702=IFCLOCALPLACEMENT(#26,#701);
#703=IFCCARTESIANPOINT((0.,0.,0.));
#704=IFCDIRECTION((0.,0.,1.));
#705=IFCDIRECTION((1.,0.,0.));
#706=IFCAXIS2PLACEMENT3D(#703,#704,#705);
#707=IFCLOCALPLACEMENT(#26,#706);
#708=IFCCARTESIANPOINT((0.,0.,0.7));
#709=IFCDIRECTION((0.,0.,1.));
#710=IFCDIRECTION((1.,0.,0.));
#711=IFCAXIS2PLACEMENT3D(#708,#709,#710);
#712=IFCLOCALPLACEMENT(#26,#711);
#713=IFCCARTESIANPOINT((0.,0.,0.7));
#714=IFCDIRECTION((0.,0.,1.));
#715=IFCDIRECTION((1.,0.,0.));
#716=IFCAXIS2PLACEMENT3D(#713,#714,#715);
#717=IFCLOCALPLACEMENT(#26,#716);
#718=IFCCARTESIANPOINT((0.,0.,0.7));
#719=IFCDIRECTION((0.,0.,1.));
#720=IFCDIRECTION((1.,0.,0.));
#721=IFCAXIS2PLACEMENT3D(#718,#719,#720);
#722=IFCLOCALPLACEMENT(#26,#721);
#723=IFCCARTESIANPOINT((0.,0.,0.7));
#724=IFCDIRECTION((0.,0.,1.));
#725=IFCDIRECTION((1.,0.,0.));
#726=IFCAXIS2PLACEMENT3D(#723,#724,#725);
#727=IFCLOCALPLACEMENT(#26,#726);
#728=IFCCARTESIANPOINT((0.,0.,0.7));
#729=IFCDIRECTION((0.,0.,1.));
#730=IFCDIRECTION((1.,0.,0.));
#731=IFCAXIS2PLACEMENT3D(#728,#729,#730);
#732=IFCLOCALPLACEMENT(#26,#731);
#733=IFCCARTESIANPOINT((0.,0.,0.7));
#734=IFCDIRECTION((0.,0.,1.));
#735=IFCDIRECTION((1.,0.,0.));
#736=IFCAXIS2PLACEMENT3D(#733,#734,#735);
#737=IFCLOCALPLACEMENT(#26,#736);
#738=IFCCARTESIANPOINT((0.,0.,0.7));
#739=IFCDIRECTION((0.,0.,1.));
#740=IFCDIRECTION((1.,0.,0.));
#741=IFCAXIS2PLACEMENT3D(#738,#739,#740);
#742=IFCLOCALPLACEMENT(#26,#741);
#743=IFCCARTESIANPOINT((0.,0.,0.7));
#744=IFCDIRECTION((0.,0.,1.));
#745=IFCDIRECTION((1.,0.,0.));
#746=IFCAXIS2PLACEMENT3D(#743,#744,#745);
#747=IFCLOCALPLACEMENT(#26,#746);
#748=IFCCARTESIANPOINT((0.,0.,0.1));
#749=IFCDIRECTION((0.,0.,1.));
#750=IFCDIRECTION((1.,0.,0.));
#751=IFCAXIS2PLACEMENT3D(#748,#749,#750);
#752=IFCLOCALPLACEMENT(#26,#751);
#753=IFCCARTESIANPOINT((0.,0.,0.1));
#754=IFCDIRECTION((0.,0.,1.));
#755=IFCDIRECTION((1.,0.,0.));
#756=IFCAXIS2PLACEMENT3D(#753,#754,#755);
#757=IFCLOCALPLACEMENT(#26,#756);
#758=IFCCARTESIANPOINT((0.,0.,0.1));
#759=IFCDIRECTION((0.,0.,1.));
#760=IFCDIRECTION((1.,0.,0.));
#761=IFCAXIS2PLACEMENT3D(#758,#759,#760);
#762=IFCLOCALPLACEMENT(#26,#761);
#763=IFCCARTESIANPOINT((0.,0.,0.1));
#764=IFCDIRECTION((0.,0.,1.));
#765=IFCDIRECTION((1.,0.,0.));
#766=IFCAXIS2PLACEMENT3D(#763,#764,#765);
#767=IFCLOCALPLACEMENT(#26,#766);
#768=IFCCARTESIANPOINT((0.,0.,0.1));
#769=IFCDIRECTION((0.,0.,1.));
#770=IFCDIRECTION((1.,0.,0.));
#771=IFCAXIS2PLACEMENT3D(#768,#769,#770);
#772=IFCLOCALPLACEMENT(#26,#771);
#773=IFCCARTESIANPOINT((0.,0.,0.7));
#774=IFCDIRECTION((0.,0.,1.));
#775=IFCDIRECTION((1.,0.,0.));
#776=IFCAXIS2PLACEMENT3D(#773,#774,#775);
#777=IFCLOCALPLACEMENT(#26,#776);
#778=IFCCARTESIANPOINT((0.,0.,0.7));
#779=IFCDIRECTION((0.,0.,1.));
#780=IFCDIRECTION((1.,0.,0.));
#781=IFCAXIS2PLACEMENT3D(#778,#779,#780);
#782=IFCLOCALPLACEMENT(#26,#781);
#783=IFCCARTESIANPOINT((0.,0.,0.7));
#784=IFCDIRECTION((0.,0.,1.));
#785=IFCDIRECTION((1.,0.,0.));
#786=IFCAXIS2PLACEMENT3D(#783,#784,#785);
#787=IFCLOCALPLACEMENT(#26,#786);
#788=IFCCARTESIANPOINT((0.,0.,0.7));
#789=IFCDIRECTION((0.,0.,1.));
#790=IFCDIRECTION((1.,0.,0.));
#791=IFCAXIS2PLACEMENT3D(#788,#789,#790);
#792=IFCLOCALPLACEMENT(#26,#791);
#793=IFCCARTESIANPOINT((0.,0.,0.7));
#794=IFCDIRECTION((0.,0.,1.));
#795=IFCDIRECTION((1.,0.,0.));
#796=IFCAXIS2PLACEMENT3D(#793,#794,#795);
#797=IFCLOCALPLACEMENT(#26,#796);
#798=IFCCARTESIANPOINT((0.,0.,0.7));
#799=IFCDIRECTION((0.,0.,1.));
#800=IFCDIRECTION((1.,0.,0.));
#801=IFCAXIS2PLACEMENT3D(#798,#799,#800);
#802=IFCLOCALPLACEMENT(#26,#801);
#803=IFCCARTESIANPOINT((0.,0.,0.7));
#804=IFCDIRECTION((0.,0.,1.));
#805=IFCDIRECTION((1.,0.,0.));
#806=IFCAXIS2PLACEMENT3D(#803,#804,#805);
#807=IFCLOCALPLACEMENT(#26,#806);
#808=IFCCARTESIANPOINT((0.,0.,0.7));
#809=IFCDIRECTION((0.,0.,1.));
#810=IFCDIRECTION((1.,0.,0.));
#811=IFCAXIS2PLACEMENT3D(#808,#809,#810);
#812=IFCLOCALPLACEMENT(#26,#811);
#813=IFCCARTESIANPOINT((0.,0.,0.7));
#814=IFCDIRECTION((0.,0.,1.));
#815=IFCDIRECTION((1.,0.,0.));
#816=IFCAXIS2PLACEMENT3D(#813,#814,#815);
#817=IFCLOCALPLACEMENT(#26,#816);
#818=IFCCARTESIANPOINT((0.,0.,0.7));
#819=IFCDIRECTION((0.,0.,1.));
#820=IFCDIRECTION((1.,0.,0.));
#821=IFCAXIS2PLACEMENT3D(#818,#819,#820);
#822=IFCLOCALPLACEMENT(#26,#821);
#823=IFCCARTESIANPOINT((0.,0.,0.7));
#824=IFCDIRECTION((0.,0.,1.));
#825=IFCDIRECTION((1.,0.,0.));
#826=IFCAXIS2PLACEMENT3D(#823,#824,#825);
#827=IFCLOCALPLACEMENT(#26,#826);
#828=IFCCARTESIANPOINT((0.,0.,0.7));
#829=IFCDIRECTION((0.,0.,1.));
#830=IFCDIRECTION((1.,0.,0.));
#831=IFCAXIS2PLACEMENT3D(#828,#829,#830);
#832=IFCLOCALPLACEMENT(#26,#831);
#833=IFCCARTESIANPOINT((0.,0.,0.7));
#834=IFCDIRECTION((0.,0.,1.));
#835=IFCDIRECTION((1.,0.,0.));
#836=IFCAXIS2PLACEMENT3D(#833,#834,#835);
#837=IFCLOCALPLACEMENT(#26,#836);
#838=IFCCARTESIANPOINT((0.,0.,0.7));
#839=IFCDIRECTION((0.,0.,1.));
#840=IFCDIRECTION((1.,0.,0.));
#841=IFCAXIS2PLACEMENT3D(#838,#839,#840);
#842=IFCLOCALPLACEMENT(#26,#841);
#843=IFCCARTESIANPOINT((14.9,-0.05,0.));
#844=IFCDIRECTION((0.,0.,1.));
#845=IFCDIRECTION((0.,1.,0.));
#846=IFCAXIS2PLACEMENT3D(#843,#844,#845);
#847=IFCLOCALPLACEMENT(#26,#846);
#848=IFCCARTESIANPOINT((0.,-2.));
#849=IFCCARTESIANPOINT((0.75,-2.));
#850=IFCCARTESIANPOINT((0.75,2.));
#851=IFCCARTESIANPOINT((0.,2.));
#852=IFCPOLYLINE((#848,#849,#850,#851,#848));
#853=IFCARBITRARYCLOSEDPROFILEDEF(.AREA.,$,#852);
#854=IFCCARTESIANPOINT((0.,0.,0.));
#855=IFCAXIS2PLACEMENT3D(#854,$,$);
#856=IFCDIRECTION((0.,0.,1.));
#857=IFCEXTRUDEDAREASOLID(#853,#855,#856,0.15);
#858=IFCCARTESIANPOINT((0.75,-2.));
#859=IFCCARTESIANPOINT((1.5,-2.));
#860=IFCCARTESIANPOINT((1.5,2.));
#861=IFCCARTESIANPOINT((0.75,2.));
#862=IFCPOLYLINE((#858,#859,#860,#861,#858));
#863=IFCARBITRARYCLOSEDPROFILEDEF(.AREA.,$,#862);
#864=IFCCARTESIANPOINT((0.,0.,0.1));
#865=IFCAXIS2PLACEMENT3D(#864,$,$);
#866=IFCDIRECTION((0.,0.,1.));
#867=IFCEXTRUDEDAREASOLID(#863,#865,#866,0.2);
#868=IFCCARTESIANPOINT((1.5,-2.));
#869=IFCCARTESIANPOINT((2.25,-2.));
#870=IFCCARTESIANPOINT((2.25,2.));
#871=IFCCARTESIANPOINT((1.5,2.));
#872=IFCPOLYLINE((#868,#869,#870,#871,#868));
#873=IFCARBITRARYCLOSEDPROFILEDEF(.AREA.,$,#872);
#874=IFCCARTESIANPOINT((0.,0.,0.25));
#875=IFCAXIS2PLACEMENT3D(#874,$,$);
#876=IFCDIRECTION((0.,0.,1.));
#877=IFCEXTRUDEDAREASOLID(#873,#875,#876,0.2);
#878=IFCCARTESIANPOINT((2.25,-2.));
#879=IFCCARTESIANPOINT((3.,-2.));
#880=IFCCARTESIANPOINT((3.,2.));
#881=IFCCARTESIANPOINT((2.25,2.));
#882=IFCPOLYLINE((#878,#879,#880,#881,#878));
#883=IFCARBITRARYCLOSEDPROFILEDEF(.AREA.,$,#882);
#884=IFCCARTESIANPOINT((0.,0.,0.4));
#885=IFCAXIS2PLACEMENT3D(#884,$,$);
#886=IFCDIRECTION((0.,0.,1.));
#887=IFCEXTRUDEDAREASOLID(#883,#885,#886,0.2);
#888=IFCSHAPEREPRESENTATION(#12,'Body','SweptSolid',(#857,#867,#877,#887));
#889=IFCPRODUCTDEFINITIONSHAPE($,$,(#888));
#890=IFCSTAIR('2_5hxRqBk3hRmUhoU$yQTh',#5,'Stair 1','4 risers of 150 mm',$,#847,#889,$,.STRAIGHT_RUN_STAIR.);
#891=IFCCARTESIANPOINT((6.28,3.72,0.3));
#892=IFCDIRECTION((0.,0.,1.));
#893=IFCDIRECTION((1.,0.,0.));
#894=IFCAXIS2PLACEMENT3D(#891,#892,#893);
#895=IFCLOCALPLACEMENT(#26,#894);
#896=IFCCARTESIANPOINT((-0.15,-0.15));
#897=IFCCARTESIANPOINT((0.15,-0.15));
#898=IFCCARTESIANPOINT((0.15,0.15));
#899=IFCCARTESIANPOINT((-0.15,0.15));
#900=IFCPOLYLINE((#896,#897,#898,#899,#896));
#901=IFCARBITRARYCLOSEDPROFILEDEF(.AREA.,$,#900);
#902=IFCCARTESIANPOINT((0.,0.,0.));
#903=IFCAXIS2PLACEMENT3D(#902,$,$);
#904=IFCDIRECTION((0.,0.,1.));
#905=IFCEXTRUDEDAREASOLID(#901,#903,#904,4.);
#906=IFCSHAPEREPRESENTATION(#12,'Body','SweptSolid',(#905));
#907=IFCPRODUCTDEFINITIONSHAPE($,$,(#906));
#908=IFCCOLUMN('2dRcvR2O9uhX5dpjn4e1lB',#5,'Column 1','Rectangular 300×300 mm',$,#895,#907,$,.COLUMN.);
#909=IFCCARTESIANPOINT((11.91,3.72,0.3));
#910=IFCDIRECTION((0.,0.,1.));
#911=IFCDIRECTION((1.,0.,0.));
#912=IFCAXIS2PLACEMENT3D(#909,#910,#911);
#913=IFCLOCALPLACEMENT(#26,#912);
#914=IFCCARTESIANPOINT((-0.15,-0.15));
#915=IFCCARTESIANPOINT((0.15,-0.15));
#916=IFCCARTESIANPOINT((0.15,0.15));
#917=IFCCARTESIANPOINT((-0.15,0.15));
#918=IFCPOLYLINE((#914,#915,#916,#917,#914));
#919=IFCARBITRARYCLOSEDPROFILEDEF(.AREA.,$,#918);
#920=IFCCARTESIANPOINT((0.,0.,0.));
#921=IFCAXIS2PLACEMENT3D(#920,$,$);
#922=IFCDIRECTION((0.,0.,1.));
#923=IFCEXTRUDEDAREASOLID(#919,#921,#922,4.);
#924=IFCSHAPEREPRESENTATION(#12,'Body','SweptSolid',(#923));
#925=IFCPRODUCTDEFINITIONSHAPE($,$,(#924));
#926=IFCCOLUMN('1Pzd_8hYuZcsu7b3XR26u$',#5,'Column 2','Rectangular 300×300 mm',$,#913,#925,$,.COLUMN.);
#927=IFCCARTESIANPOINT((17.56,3.71,0.3));
#928=IFCDIRECTION((0.,0.,1.));
#929=IFCDIRECTION((1.,0.,0.));
#930=IFCAXIS2PLACEMENT3D(#927,#928,#929);
#931=IFCLOCALPLACEMENT(#26,#930);
#932=IFCCARTESIANPOINT((-0.15,-0.15));
#933=IFCCARTESIANPOINT((0.15,-0.15));
#934=IFCCARTESIANPOINT((0.15,0.15));
#935=IFCCARTESIANPOINT((-0.15,0.15));
#936=IFCPOLYLINE((#932,#933,#934,#935,#932));
#937=IFCARBITRARYCLOSEDPROFILEDEF(.AREA.,$,#936);
#938=IFCCARTESIANPOINT((0.,0.,0.));
#939=IFCAXIS2PLACEMENT3D(#938,$,$);
#940=IFCDIRECTION((0.,0.,1.));
#941=IFCEXTRUDEDAREASOLID(#937,#939,#940,4.);
#942=IFCSHAPEREPRESENTATION(#12,'Body','SweptSolid',(#941));
#943=IFCPRODUCTDEFINITIONSHAPE($,$,(#942));
#944=IFCCOLUMN('3JDY4$z8jNreQw_x2lxWKN',#5,'Column 3','Rectangular 300×300 mm',$,#931,#943,$,.COLUMN.);
#945=IFCCARTESIANPOINT((23.18,3.72,0.3));
#946=IFCDIRECTION((0.,0.,1.));
#947=IFCDIRECTION((1.,0.,0.));
#948=IFCAXIS2PLACEMENT3D(#945,#946,#947);
#949=IFCLOCALPLACEMENT(#26,#948);
#950=IFCCARTESIANPOINT((-0.15,-0.15));
#951=IFCCARTESIANPOINT((0.15,-0.15));
#952=IFCCARTESIANPOINT((0.15,0.15));
#953=IFCCARTESIANPOINT((-0.15,0.15));
#954=IFCPOLYLINE((#950,#951,#952,#953,#950));
#955=IFCARBITRARYCLOSEDPROFILEDEF(.AREA.,$,#954);
#956=IFCCARTESIANPOINT((0.,0.,0.));
#957=IFCAXIS2PLACEMENT3D(#956,$,$);
#958=IFCDIRECTION((0.,0.,1.));
#959=IFCEXTRUDEDAREASOLID(#955,#957,#958,4.);
#960=IFCSHAPEREPRESENTATION(#12,'Body','SweptSolid',(#959));
#961=IFCPRODUCTDEFINITIONSHAPE($,$,(#960));
#962=IFCCOLUMN('3RzumSBRqHZVIT5S13dodj',#5,'Column 4','Rectangular 300×300 mm',$,#949,#961,$,.COLUMN.);
#963=IFCCARTESIANPOINT((25.69,4.86,0.3));
#964=IFCDIRECTION((0.,0.,1.));
#965=IFCDIRECTION((1.,0.,0.));
#966=IFCAXIS2PLACEMENT3D(#963,#964,#965);
#967=IFCLOCALPLACEMENT(#26,#966);
#968=IFCCARTESIANPOINT((-0.15,-0.15));
#969=IFCCARTESIANPOINT((0.15,-0.15));
#970=IFCCARTESIANPOINT((0.15,0.15));
#971=IFCCARTESIANPOINT((-0.15,0.15));
#972=IFCPOLYLINE((#968,#969,#970,#971,#968));
#973=IFCARBITRARYCLOSEDPROFILEDEF(.AREA.,$,#972);
#974=IFCCARTESIANPOINT((0.,0.,0.));
#975=IFCAXIS2PLACEMENT3D(#974,$,$);
#976=IFCDIRECTION((0.,0.,1.));
#977=IFCEXTRUDEDAREASOLID(#973,#975,#976,4.);
#978=IFCSHAPEREPRESENTATION(#12,'Body','SweptSolid',(#977));
#979=IFCPRODUCTDEFINITIONSHAPE($,$,(#978));
#980=IFCCOLUMN('3DQEag7EgosB_$Z0N11Pt3',#5,'Column 5','Rectangular 300×300 mm',$,#967,#979,$,.COLUMN.);
#981=IFCCARTESIANPOINT((25.69,8.49,0.3));
#982=IFCDIRECTION((0.,0.,1.));
#983=IFCDIRECTION((1.,0.,0.));
#984=IFCAXIS2PLACEMENT3D(#981,#982,#983);
#985=IFCLOCALPLACEMENT(#26,#984);
#986=IFCCARTESIANPOINT((-0.15,-0.15));
#987=IFCCARTESIANPOINT((0.15,-0.15));
#988=IFCCARTESIANPOINT((0.15,0.15));
#989=IFCCARTESIANPOINT((-0.15,0.15));
#990=IFCPOLYLINE((#986,#987,#988,#989,#986));
#991=IFCARBITRARYCLOSEDPROFILEDEF(.AREA.,$,#990);
#992=IFCCARTESIANPOINT((0.,0.,0.));
#993=IFCAXIS2PLACEMENT3D(#992,$,$);
#994=IFCDIRECTION((0.,0.,1.));
#995=IFCEXTRUDEDAREASOLID(#991,#993,#994,4.);
#996=IFCSHAPEREPRESENTATION(#12,'Body','SweptSolid',(#995));
#997=IFCPRODUCTDEFINITIONSHAPE($,$,(#996));
#998=IFCCOLUMN('0ED75n6YT7KbZMEF8KE_CA',#5,'Column 6','Rectangular 300×300 mm',$,#985,#997,$,.COLUMN.);
#999=IFCCARTESIANPOINT((25.68,12.09,0.3));
#1000=IFCDIRECTION((0.,0.,1.));
#1001=IFCDIRECTION((1.,0.,0.));
#1002=IFCAXIS2PLACEMENT3D(#999,#1000,#1001);
#1003=IFCLOCALPLACEMENT(#26,#1002);
#1004=IFCCARTESIANPOINT((-0.15,-0.15));
#1005=IFCCARTESIANPOINT((0.15,-0.15));
#1006=IFCCARTESIANPOINT((0.15,0.15));
#1007=IFCCARTESIANPOINT((-0.15,0.15));
#1008=IFCPOLYLINE((#1004,#1005,#1006,#1007,#1004));
#1009=IFCARBITRARYCLOSEDPROFILEDEF(.AREA.,$,#1008);
#1010=IFCCARTESIANPOINT((0.,0.,0.));
#1011=IFCAXIS2PLACEMENT3D(#1010,$,$);
#1012=IFCDIRECTION((0.,0.,1.));
#1013=IFCEXTRUDEDAREASOLID(#1009,#1011,#1012,4.);
#1014=IFCSHAPEREPRESENTATION(#12,'Body','SweptSolid',(#1013));
#1015=IFCPRODUCTDEFINITIONSHAPE($,$,(#1014));
#1016=IFCCOLUMN('17_3WtWq0Gwk6DOGqlj7Pi',#5,'Column 7','Rectangular 300×300 mm',$,#1003,#1015,$,.COLUMN.);
#1017=IFCCARTESIANPOINT((27.78,12.11,0.));
#1018=IFCDIRECTION((0.,0.,1.));
#1019=IFCDIRECTION((1.,0.,0.));
#1020=IFCAXIS2PLACEMENT3D(#1017,#1018,#1019);
#1021=IFCLOCALPLACEMENT(#26,#1020);
#1022=IFCCARTESIANPOINT((-0.15,-0.15));
#1023=IFCCARTESIANPOINT((0.15,-0.15));
#1024=IFCCARTESIANPOINT((0.15,0.15));
#1025=IFCCARTESIANPOINT((-0.15,0.15));
#1026=IFCPOLYLINE((#1022,#1023,#1024,#1025,#1022));
#1027=IFCARBITRARYCLOSEDPROFILEDEF(.AREA.,$,#1026);
#1028=IFCCARTESIANPOINT((0.,0.,0.));
#1029=IFCAXIS2PLACEMENT3D(#1028,$,$);
#1030=IFCDIRECTION((0.,0.,1.));
#1031=IFCEXTRUDEDAREASOLID(#1027,#1029,#1030,2.7);
#1032=IFCSHAPEREPRESENTATION(#12,'Body','SweptSolid',(#1031));
#1033=IFCPRODUCTDEFINITIONSHAPE($,$,(#1032));
#1034=IFCCOLUMN('3WRePXxRVjiVoY0Lz69CyS',#5,'Column 8','Rectangular 300×300 mm',$,#1021,#1033,$,.COLUMN.);
#1035=IFCCARTESIANPOINT((31.67,12.11,0.));
#1036=IFCDIRECTION((0.,0.,1.));
#1037=IFCDIRECTION((1.,0.,0.));
#1038=IFCAXIS2PLACEMENT3D(#1035,#1036,#1037);
#1039=IFCLOCALPLACEMENT(#26,#1038);
#1040=IFCCARTESIANPOINT((-0.15,-0.15));
#1041=IFCCARTESIANPOINT((0.15,-0.15));
#1042=IFCCARTESIANPOINT((0.15,0.15));
#1043=IFCCARTESIANPOINT((-0.15,0.15));
#1044=IFCPOLYLINE((#1040,#1041,#1042,#1043,#1040));
#1045=IFCARBITRARYCLOSEDPROFILEDEF(.AREA.,$,#1044);
#1046=IFCCARTESIANPOINT((0.,0.,0.));
#1047=IFCAXIS2PLACEMENT3D(#1046,$,$);
#1048=IFCDIRECTION((0.,0.,1.));
#1049=IFCEXTRUDEDAREASOLID(#1045,#1047,#1048,2.7);
#1050=IFCSHAPEREPRESENTATION(#12,'Body','SweptSolid',(#1049));
#1051=IFCPRODUCTDEFINITIONSHAPE($,$,(#1050));
#1052=IFCCOLUMN('35MMjmgRm09qBytQjt6xf5',#5,'Column 9','Rectangular 300×300 mm',$,#1039,#1051,$,.COLUMN.);
#1053=IFCCARTESIANPOINT((2.6,-4.75,-0.8));
#1054=IFCDIRECTION((0.,0.,1.));
#1055=IFCDIRECTION((1.,0.,0.));
#1056=IFCAXIS2PLACEMENT3D(#1053,#1054,#1055);
#1057=IFCLOCALPLACEMENT(#26,#1056);
#1058=IFCCARTESIANPOINT((0.,0.));
#1059=IFCAXIS2PLACEMENT2D(#1058,$);
#1060=IFCRECTANGLEPROFILEDEF(.AREA.,$,#1059,18.,6.);
#1061=IFCCARTESIANPOINT((0.,0.,0.));
#1062=IFCAXIS2PLACEMENT3D(#1061,$,$);
#1063=IFCDIRECTION((0.,0.,1.));
#1064=IFCEXTRUDEDAREASOLID(#1060,#1062,#1063,0.18);
#1065=IFCCOLOURRGB($,0.498039,0.72549,0.811765);
#1066=IFCSURFACESTYLESHADING(#1065,0.);
#1067=IFCSURFACESTYLE('tile',.BOTH.,(#1066));
#1068=IFCSTYLEDITEM(#1064,(#1067),$);
#1069=IFCCARTESIANPOINT((-9.,-3.));
#1070=IFCCARTESIANPOINT((9.,-3.));
#1071=IFCCARTESIANPOINT((9.,3.));
#1072=IFCCARTESIANPOINT((-9.,3.));
#1073=IFCPOLYLINE((#1069,#1070,#1071,#1072,#1069));
#1074=IFCCARTESIANPOINT((-8.8,-2.8));
#1075=IFCCARTESIANPOINT((8.8,-2.8));
#1076=IFCCARTESIANPOINT((8.8,2.8));
#1077=IFCCARTESIANPOINT((-8.8,2.8));
#1078=IFCPOLYLINE((#1074,#1075,#1076,#1077,#1074));
#1079=IFCARBITRARYPROFILEDEFWITHVOIDS(.AREA.,$,#1073,(#1078));
#1080=IFCCARTESIANPOINT((0.,0.,0.18));
#1081=IFCAXIS2PLACEMENT3D(#1080,$,$);
#1082=IFCDIRECTION((0.,0.,1.));
#1083=IFCEXTRUDEDAREASOLID(#1079,#1081,#1082,1.16);
#1084=IFCSTYLEDITEM(#1083,(#1067),$);
#1085=IFCCARTESIANPOINT((-9.,-3.));
#1086=IFCCARTESIANPOINT((9.,-3.));
#1087=IFCCARTESIANPOINT((9.,3.));
#1088=IFCCARTESIANPOINT((-9.,3.));
#1089=IFCPOLYLINE((#1085,#1086,#1087,#1088,#1085));
#1090=IFCCARTESIANPOINT((-8.74,-2.74));
#1091=IFCCARTESIANPOINT((8.74,-2.74));
#1092=IFCCARTESIANPOINT((8.74,2.74));
#1093=IFCCARTESIANPOINT((-8.74,2.74));
#1094=IFCPOLYLINE((#1090,#1091,#1092,#1093,#1090));
#1095=IFCARBITRARYPROFILEDEFWITHVOIDS(.AREA.,$,#1089,(#1094));
#1096=IFCCARTESIANPOINT((0.,0.,1.34));
#1097=IFCAXIS2PLACEMENT3D(#1096,$,$);
#1098=IFCDIRECTION((0.,0.,1.));
#1099=IFCEXTRUDEDAREASOLID(#1095,#1097,#1098,0.06);
#1100=IFCCOLOURRGB($,0.862745,0.85098,0.823529);
#1101=IFCSURFACESTYLESHADING(#1100,0.);
#1102=IFCSURFACESTYLE('#dcd9d2',.BOTH.,(#1101));
#1103=IFCSTYLEDITEM(#1099,(#1102),$);
#1104=IFCCARTESIANPOINT((0.,0.));
#1105=IFCAXIS2PLACEMENT2D(#1104,$);
#1106=IFCRECTANGLEPROFILEDEF(.AREA.,$,#1105,17.6,5.6);
#1107=IFCCARTESIANPOINT((0.,0.,0.18));
#1108=IFCAXIS2PLACEMENT3D(#1107,$,$);
#1109=IFCDIRECTION((0.,0.,1.));
#1110=IFCEXTRUDEDAREASOLID(#1106,#1108,#1109,1.11);
#1111=IFCCOLOURRGB($,0.121569,0.478431,0.580392);
#1112=IFCSURFACESTYLESHADING(#1111,0.65);
#1113=IFCSURFACESTYLE('water',.BOTH.,(#1112));
#1114=IFCSTYLEDITEM(#1110,(#1113),$);
#1115=IFCCARTESIANPOINT((-8.625,-1.12));
#1116=IFCAXIS2PLACEMENT2D(#1115,$);
#1117=IFCRECTANGLEPROFILEDEF(.AREA.,$,#1116,0.35,3.36);
#1118=IFCCARTESIANPOINT((0.,0.,0.18));
#1119=IFCAXIS2PLACEMENT3D(#1118,$,$);
#1120=IFCDIRECTION((0.,0.,1.));
#1121=IFCEXTRUDEDAREASOLID(#1117,#1119,#1120,0.8325);
#1122=IFCSTYLEDITEM(#1121,(#1067),$);
#1123=IFCCARTESIANPOINT((-8.275,-1.12));
#1124=IFCAXIS2PLACEMENT2D(#1123,$);
#1125=IFCRECTANGLEPROFILEDEF(.AREA.,$,#1124,0.35,3.36);
#1126=IFCCARTESIANPOINT((0.,0.,0.18));
#1127=IFCAXIS2PLACEMENT3D(#1126,$,$);
#1128=IFCDIRECTION((0.,0.,1.));
#1129=IFCEXTRUDEDAREASOLID(#1125,#1127,#1128,0.555);
#1130=IFCSTYLEDITEM(#1129,(#1067),$);
#1131=IFCCARTESIANPOINT((-7.925,-1.12));
#1132=IFCAXIS2PLACEMENT2D(#1131,$);
#1133=IFCRECTANGLEPROFILEDEF(.AREA.,$,#1132,0.35,3.36);
#1134=IFCCARTESIANPOINT((0.,0.,0.18));
#1135=IFCAXIS2PLACEMENT3D(#1134,$,$);
#1136=IFCDIRECTION((0.,0.,1.));
#1137=IFCEXTRUDEDAREASOLID(#1133,#1135,#1136,0.2775);
#1138=IFCSTYLEDITEM(#1137,(#1067),$);
#1139=IFCSHAPEREPRESENTATION(#12,'Body','SweptSolid',(#1064,#1083,#1099,#1110,#1121,#1129,#1137));
#1140=IFCPRODUCTDEFINITIONSHAPE($,$,(#1139));
#1141=IFCBUILDINGELEMENTPROXY('0MN4Zf39UYWPajYfpezfgu',#5,'Swimming pool','Skanna asset library',$,#1057,#1140,$,.NOTDEFINED.);
#1142=IFCRELCONTAINEDINSPATIALSTRUCTURE('1EFFTNgR7IWv6sG0JeFDZd',#5,$,$,(#45,#63,#81,#99,#117,#135,#153,#171,#189,#207,#225,#243,#261,#279,#297,#312,#330,#345,#360,#375,#390,#405,#420,#435,#450,#465,#480,#495,#510,#525,#540,#563,#585,#607,#625,#687,#890,#908,#926,#944,#962,#980,#998,#1016,#1034,#1052,#1141),#27);
#1143=IFCRELAGGREGATES('2V47RPuZe9w$DQow92ll6N',#5,$,$,#21,(#27));
#1144=IFCMATERIAL('concrete',$,$);
#1145=IFCRELASSOCIATESMATERIAL('3dTve29MdTOi7dQBmWAeCi',#5,'Material: concrete',$,(#687),#1144);
ENDSEC;
END-ISO-10303-21;
