ISO-10303-21;
HEADER;
FILE_DESCRIPTION((''),'2;1');
FILE_NAME('model.ifc','2026-08-04T02:17:23',('Skanna'),('LiDAR3D'),'skanna-web bim 0.1','skanna-web bim 0.1','');
FILE_SCHEMA(('IFC4'));
ENDSEC;
DATA;
#1=IFCPERSON($,$,'Skanna',$,$,$,$,$);
#2=IFCORGANIZATION($,'LiDAR3D',$,$,$);
#3=IFCPERSONANDORGANIZATION(#1,#2,$);
#4=IFCAPPLICATION(#2,'0.1','Skanna Web BIM Author','skanna-web');
#5=IFCOWNERHISTORY(#3,#4,$,.ADDED.,$,$,$,1785809843);
#6=IFCSIUNIT(*,.LENGTHUNIT.,$,.METRE.);
#7=IFCSIUNIT(*,.AREAUNIT.,$,.SQUARE_METRE.);
#8=IFCSIUNIT(*,.VOLUMEUNIT.,$,.CUBIC_METRE.);
#9=IFCUNITASSIGNMENT((#6,#7,#8));
#10=IFCCARTESIANPOINT((0.,0.,0.));
#11=IFCAXIS2PLACEMENT3D(#10,$,$);
#12=IFCGEOMETRICREPRESENTATIONCONTEXT($,'Model',3,1.E-05,#11,$);
#13=IFCPROJECT('32dQQWA7TE0TO79CKUrsHK',#5,'Trim + stone test','Authored in Skanna Web',$,$,$,(#12),#9);
#14=IFCCARTESIANPOINT((0.,0.,0.));
#15=IFCAXIS2PLACEMENT3D(#14,$,$);
#16=IFCLOCALPLACEMENT($,#15);
#17=IFCSITE('1Nr00i2X$Qyu5WUcs7BB75',#5,'Site',$,$,#16,$,$,.ELEMENT.,$,$,$,$,$);
#18=IFCCARTESIANPOINT((0.,0.,0.));
#19=IFCAXIS2PLACEMENT3D(#18,$,$);
#20=IFCLOCALPLACEMENT(#16,#19);
#21=IFCBUILDING('1sZ2QqXo461Vnri0DjT4Ag',#5,'Building',$,$,#20,$,$,.ELEMENT.,$,$,$);
#22=IFCRELAGGREGATES('1XZ7p$VS_pAai0L_kP2JRD',#5,$,$,#13,(#17));
#23=IFCRELAGGREGATES('0vBA1xTPYbnKs_a9PJjp4g',#5,$,$,#17,(#21));
#24=IFCCARTESIANPOINT((0.,0.,0.));
#25=IFCAXIS2PLACEMENT3D(#24,$,$);
#26=IFCLOCALPLACEMENT(#20,#25);
#27=IFCBUILDINGSTOREY('0C_zdsjVPfp1Hi$yLEzxm6',#5,'Ground floor',$,$,#26,$,$,.ELEMENT.,0.);
#28=IFCCARTESIANPOINT((0.,0.,0.));
#29=IFCDIRECTION((0.,0.,1.));
#30=IFCDIRECTION((1.,0.,0.));
#31=IFCAXIS2PLACEMENT3D(#28,#29,#30);
#32=IFCLOCALPLACEMENT(#26,#31);
#33=IFCCARTESIANPOINT((3.,0.));
#34=IFCAXIS2PLACEMENT2D(#33,$);
#35=IFCRECTANGLEPROFILEDEF(.AREA.,$,#34,6.,0.15);
#36=IFCCARTESIANPOINT((0.,0.,0.));
#37=IFCAXIS2PLACEMENT3D(#36,$,$);
#38=IFCDIRECTION((0.,0.,1.));
#39=IFCEXTRUDEDAREASOLID(#35,#37,#38,2.7);
#40=IFCSHAPEREPRESENTATION(#12,'Body','SweptSolid',(#39));
#41=IFCPRODUCTDEFINITIONSHAPE($,$,(#40));
#42=IFCWALL('2ORqDzZWaM$8PqBdc0waeh',#5,'Wall 1',$,$,#32,#41,$,.STANDARD.);
#43=IFCPROPERTYSINGLEVALUE('Material',$,IFCTEXT('brick'),$);
#44=IFCPROPERTYSINGLEVALUE('BrickType',$,IFCTEXT('red_common'),$);
#45=IFCPROPERTYSINGLEVALUE('Bond',$,IFCTEXT('flemish'),$);
#46=IFCPROPERTYSINGLEVALUE('BrickLength',$,IFCTEXT('250 mm'),$);
#47=IFCPROPERTYSINGLEVALUE('BrickHeight',$,IFCTEXT('62 mm'),$);
#48=IFCPROPERTYSINGLEVALUE('JointWidth',$,IFCTEXT('13 mm'),$);
#49=IFCPROPERTYSINGLEVALUE('BrickColour',$,IFCTEXT('#9D4F3C'),$);
#50=IFCPROPERTYSINGLEVALUE('JointColour',$,IFCTEXT('#B5ACA0'),$);
#51=IFCPROPERTYSINGLEVALUE('ReliefDepth',$,IFCTEXT('8 mm'),$);
#52=IFCPROPERTYSET('05Z5XW$g0BYlmEy2h71AgS',#5,'Pset_SkannaFinish','Surface finish specification (Skanna)',(#43,#44,#45,#46,#47,#48,#49,#50,#51));
#53=IFCRELDEFINESBYPROPERTIES('3D8_y2ss72jHW1a8PFbD_D',#5,$,$,(#42),#52);
#54=IFCCARTESIANPOINT((1.05,0.,0.));
#55=IFCDIRECTION((0.,0.,1.));
#56=IFCDIRECTION((1.,0.,0.));
#57=IFCAXIS2PLACEMENT3D(#54,#55,#56);
#58=IFCLOCALPLACEMENT(#26,#57);
#59=IFCCARTESIANPOINT((0.45,0.));
#60=IFCAXIS2PLACEMENT2D(#59,$);
#61=IFCRECTANGLEPROFILEDEF(.AREA.,$,#60,0.9,0.21);
#62=IFCCARTESIANPOINT((0.,0.,0.));
#63=IFCAXIS2PLACEMENT3D(#62,$,$);
#64=IFCDIRECTION((0.,0.,1.));
#65=IFCEXTRUDEDAREASOLID(#61,#63,#64,2.1);
#66=IFCSHAPEREPRESENTATION(#12,'Body','SweptSolid',(#65));
#67=IFCPRODUCTDEFINITIONSHAPE($,$,(#66));
#68=IFCOPENINGELEMENT('1yCaCJpBljvztWk9b01oeM',#5,'Opening (door)',$,$,#58,#67,$,.OPENING.);
#69=IFCRELVOIDSELEMENT('0F2jkz4HfM84$EOZmkw8CK',#5,$,$,#42,#68);
#70=IFCCARTESIANPOINT((1.05,0.,0.));
#71=IFCDIRECTION((0.,0.,1.));
#72=IFCDIRECTION((1.,0.,0.));
#73=IFCAXIS2PLACEMENT3D(#70,#71,#72);
#74=IFCLOCALPLACEMENT(#26,#73);
#75=IFCCARTESIANPOINT((0.0275,0.));
#76=IFCAXIS2PLACEMENT2D(#75,$);
#77=IFCRECTANGLEPROFILEDEF(.AREA.,$,#76,0.055,0.08);
#78=IFCCARTESIANPOINT((0.,0.,0.));
#79=IFCAXIS2PLACEMENT3D(#78,$,$);
#80=IFCDIRECTION((0.,0.,1.));
#81=IFCEXTRUDEDAREASOLID(#77,#79,#80,2.1);
#82=IFCCARTESIANPOINT((0.8725,0.));
#83=IFCAXIS2PLACEMENT2D(#82,$);
#84=IFCRECTANGLEPROFILEDEF(.AREA.,$,#83,0.055,0.08);
#85=IFCCARTESIANPOINT((0.,0.,0.));
#86=IFCAXIS2PLACEMENT3D(#85,$,$);
#87=IFCDIRECTION((0.,0.,1.));
#88=IFCEXTRUDEDAREASOLID(#84,#86,#87,2.1);
#89=IFCCARTESIANPOINT((0.45,0.));
#90=IFCAXIS2PLACEMENT2D(#89,$);
#91=IFCRECTANGLEPROFILEDEF(.AREA.,$,#90,0.79,0.08);
#92=IFCCARTESIANPOINT((0.,0.,2.045));
#93=IFCAXIS2PLACEMENT3D(#92,$,$);
#94=IFCDIRECTION((0.,0.,1.));
#95=IFCEXTRUDEDAREASOLID(#91,#93,#94,0.055);
#96=IFCCARTESIANPOINT((0.45,0.));
#97=IFCAXIS2PLACEMENT2D(#96,$);
#98=IFCRECTANGLEPROFILEDEF(.AREA.,$,#97,0.79,0.06);
#99=IFCCARTESIANPOINT((0.,0.,0.));
#100=IFCAXIS2PLACEMENT3D(#99,$,$);
#101=IFCDIRECTION((0.,0.,1.));
#102=IFCEXTRUDEDAREASOLID(#98,#100,#101,2.045);
#103=IFCCOLOURRGB($,0.956863,0.94902,0.933333);
#104=IFCSURFACESTYLESHADING(#103,0.);
#105=IFCSURFACESTYLE('Frame',.BOTH.,(#104));
#106=IFCSTYLEDITEM(#81,(#105),$);
#107=IFCSTYLEDITEM(#88,(#105),$);
#108=IFCSTYLEDITEM(#95,(#105),$);
#109=IFCCOLOURRGB($,0.690196,0.470588,0.25098);
#110=IFCSURFACESTYLESHADING(#109,0.);
#111=IFCSURFACESTYLE('Door leaf',.BOTH.,(#110));
#112=IFCSTYLEDITEM(#102,(#111),$);
#113=IFCSHAPEREPRESENTATION(#12,'Body','SweptSolid',(#81,#88,#95,#102));
#114=IFCPRODUCTDEFINITIONSHAPE($,$,(#113));
#115=IFCDOOR('3XUM51PIonr1qaVJvIFa20',#5,'Door 1',$,$,#74,#114,$,2.1,0.9,.DOOR.,.SINGLE_SWING_LEFT.,$);
#116=IFCRELFILLSELEMENT('1MNpypOrK4MRAJ1JB4vre2',#5,$,$,#68,#115);
#117=IFCCARTESIANPOINT((3.5,0.,0.9));
#118=IFCDIRECTION((0.,0.,1.));
#119=IFCDIRECTION((1.,0.,0.));
#120=IFCAXIS2PLACEMENT3D(#117,#118,#119);
#121=IFCLOCALPLACEMENT(#26,#120);
#122=IFCCARTESIANPOINT((0.7,0.));
#123=IFCAXIS2PLACEMENT2D(#122,$);
#124=IFCRECTANGLEPROFILEDEF(.AREA.,$,#123,1.4,0.21);
#125=IFCCARTESIANPOINT((0.,0.,0.));
#126=IFCAXIS2PLACEMENT3D(#125,$,$);
#127=IFCDIRECTION((0.,0.,1.));
#128=IFCEXTRUDEDAREASOLID(#124,#126,#127,1.3);
#129=IFCSHAPEREPRESENTATION(#12,'Body','SweptSolid',(#128));
#130=IFCPRODUCTDEFINITIONSHAPE($,$,(#129));
#131=IFCOPENINGELEMENT('2DB$H0GxnFasZQ4gW6iPBt',#5,'Opening (window)',$,$,#121,#130,$,.OPENING.);
#132=IFCRELVOIDSELEMENT('172O2rHAjf3xvN3DaX5I8G',#5,$,$,#42,#131);
#133=IFCCARTESIANPOINT((3.5,0.,0.9));
#134=IFCDIRECTION((0.,0.,1.));
#135=IFCDIRECTION((1.,0.,0.));
#136=IFCAXIS2PLACEMENT3D(#133,#134,#135);
#137=IFCLOCALPLACEMENT(#26,#136);
#138=IFCCARTESIANPOINT((0.0275,0.));
#139=IFCAXIS2PLACEMENT2D(#138,$);
#140=IFCRECTANGLEPROFILEDEF(.AREA.,$,#139,0.055,0.08);
#141=IFCCARTESIANPOINT((0.,0.,0.));
#142=IFCAXIS2PLACEMENT3D(#141,$,$);
#143=IFCDIRECTION((0.,0.,1.));
#144=IFCEXTRUDEDAREASOLID(#140,#142,#143,1.3);
#145=IFCCARTESIANPOINT((1.3725,0.));
#146=IFCAXIS2PLACEMENT2D(#145,$);
#147=IFCRECTANGLEPROFILEDEF(.AREA.,$,#146,0.055,0.08);
#148=IFCCARTESIANPOINT((0.,0.,0.));
#149=IFCAXIS2PLACEMENT3D(#148,$,$);
#150=IFCDIRECTION((0.,0.,1.));
#151=IFCEXTRUDEDAREASOLID(#147,#149,#150,1.3);
#152=IFCCARTESIANPOINT((0.7,0.));
#153=IFCAXIS2PLACEMENT2D(#152,$);
#154=IFCRECTANGLEPROFILEDEF(.AREA.,$,#153,1.29,0.08);
#155=IFCCARTESIANPOINT((0.,0.,1.245));
#156=IFCAXIS2PLACEMENT3D(#155,$,$);
#157=IFCDIRECTION((0.,0.,1.));
#158=IFCEXTRUDEDAREASOLID(#154,#156,#157,0.055);
#159=IFCCARTESIANPOINT((0.7,0.));
#160=IFCAXIS2PLACEMENT2D(#159,$);
#161=IFCRECTANGLEPROFILEDEF(.AREA.,$,#160,1.29,0.08);
#162=IFCCARTESIANPOINT((0.,0.,0.));
#163=IFCAXIS2PLACEMENT3D(#162,$,$);
#164=IFCDIRECTION((0.,0.,1.));
#165=IFCEXTRUDEDAREASOLID(#161,#163,#164,0.055);
#166=IFCCARTESIANPOINT((0.074,0.));
#167=IFCAXIS2PLACEMENT2D(#166,$);
#168=IFCRECTANGLEPROFILEDEF(.AREA.,$,#167,0.038,0.08);
#169=IFCCARTESIANPOINT((0.,0.,0.055));
#170=IFCAXIS2PLACEMENT3D(#169,$,$);
#171=IFCDIRECTION((0.,0.,1.));
#172=IFCEXTRUDEDAREASOLID(#168,#170,#171,1.19);
#173=IFCCARTESIANPOINT((1.326,0.));
#174=IFCAXIS2PLACEMENT2D(#173,$);
#175=IFCRECTANGLEPROFILEDEF(.AREA.,$,#174,0.038,0.08);
#176=IFCCARTESIANPOINT((0.,0.,0.055));
#177=IFCAXIS2PLACEMENT3D(#176,$,$);
#178=IFCDIRECTION((0.,0.,1.));
#179=IFCEXTRUDEDAREASOLID(#175,#177,#178,1.19);
#180=IFCCARTESIANPOINT((0.7,0.));
#181=IFCAXIS2PLACEMENT2D(#180,$);
#182=IFCRECTANGLEPROFILEDEF(.AREA.,$,#181,1.214,0.08);
#183=IFCCARTESIANPOINT((0.,0.,1.207));
#184=IFCAXIS2PLACEMENT3D(#183,$,$);
#185=IFCDIRECTION((0.,0.,1.));
#186=IFCEXTRUDEDAREASOLID(#182,#184,#185,0.038);
#187=IFCCARTESIANPOINT((0.7,0.));
#188=IFCAXIS2PLACEMENT2D(#187,$);
#189=IFCRECTANGLEPROFILEDEF(.AREA.,$,#188,1.214,0.08);
#190=IFCCARTESIANPOINT((0.,0.,0.055));
#191=IFCAXIS2PLACEMENT3D(#190,$,$);
#192=IFCDIRECTION((0.,0.,1.));
#193=IFCEXTRUDEDAREASOLID(#189,#191,#192,0.038);
#194=IFCCARTESIANPOINT((0.7,0.));
#195=IFCAXIS2PLACEMENT2D(#194,$);
#196=IFCRECTANGLEPROFILEDEF(.AREA.,$,#195,1.214,0.06);
#197=IFCCARTESIANPOINT((0.,0.,0.093));
#198=IFCAXIS2PLACEMENT3D(#197,$,$);
#199=IFCDIRECTION((0.,0.,1.));
#200=IFCEXTRUDEDAREASOLID(#196,#198,#199,1.114);
#201=IFCSTYLEDITEM(#144,(#105),$);
#202=IFCSTYLEDITEM(#151,(#105),$);
#203=IFCSTYLEDITEM(#158,(#105),$);
#204=IFCSTYLEDITEM(#165,(#105),$);
#205=IFCSTYLEDITEM(#172,(#105),$);
#206=IFCSTYLEDITEM(#179,(#105),$);
#207=IFCSTYLEDITEM(#186,(#105),$);
#208=IFCSTYLEDITEM(#193,(#105),$);
#209=IFCCOLOURRGB($,0.611765,0.768627,0.831373);
#210=IFCSURFACESTYLESHADING(#209,0.7);
#211=IFCSURFACESTYLE('Glass',.BOTH.,(#210));
#212=IFCSTYLEDITEM(#200,(#211),$);
#213=IFCSHAPEREPRESENTATION(#12,'Body','SweptSolid',(#144,#151,#158,#165,#172,#179,#186,#193,#200));
#214=IFCPRODUCTDEFINITIONSHAPE($,$,(#213));
#215=IFCWINDOW('2uax_1GItqymQo2eT3T8Ox',#5,'Window 1','Clear glazing',$,#137,#214,$,1.3,1.4,.WINDOW.,.SINGLE_PANEL.,$);
#216=IFCRELFILLSELEMENT('1euOT4GnvGYSJ5SaoJ9HK8',#5,$,$,#131,#215);
#217=IFCCARTESIANPOINT((6.,0.,0.));
#218=IFCDIRECTION((0.,0.,1.));
#219=IFCDIRECTION((0.,1.,0.));
#220=IFCAXIS2PLACEMENT3D(#217,#218,#219);
#221=IFCLOCALPLACEMENT(#26,#220);
#222=IFCCARTESIANPOINT((2.5,0.));
#223=IFCAXIS2PLACEMENT2D(#222,$);
#224=IFCRECTANGLEPROFILEDEF(.AREA.,$,#223,5.,0.15);
#225=IFCCARTESIANPOINT((0.,0.,0.));
#226=IFCAXIS2PLACEMENT3D(#225,$,$);
#227=IFCDIRECTION((0.,0.,1.));
#228=IFCEXTRUDEDAREASOLID(#224,#226,#227,2.7);
#229=IFCSHAPEREPRESENTATION(#12,'Body','SweptSolid',(#228));
#230=IFCPRODUCTDEFINITIONSHAPE($,$,(#229));
#231=IFCWALL('0rLTDFNXzl96fzTTq3X_ed',#5,'Wall 2',$,$,#221,#230,$,.STANDARD.);
#232=IFCPROPERTYSINGLEVALUE('Material',$,IFCTEXT('stone'),$);
#233=IFCPROPERTYSINGLEVALUE('StonePattern',$,IFCTEXT('large'),$);
#234=IFCPROPERTYSINGLEVALUE('JointWidth',$,IFCTEXT('30 mm'),$);
#235=IFCPROPERTYSINGLEVALUE('ReliefDepth',$,IFCTEXT('6 mm'),$);
#236=IFCPROPERTYSET('2TGfVhxGW0IB7XB4Xts_LK',#5,'Pset_SkannaFinish','Surface finish specification (Skanna)',(#232,#233,#234,#235));
#237=IFCRELDEFINESBYPROPERTIES('3O920KDLNSvpNEzPevuozQ',#5,$,$,(#231),#236);
#238=IFCCARTESIANPOINT((6.,5.,0.));
#239=IFCDIRECTION((0.,0.,1.));
#240=IFCDIRECTION((-1.,0.,0.));
#241=IFCAXIS2PLACEMENT3D(#238,#239,#240);
#242=IFCLOCALPLACEMENT(#26,#241);
#243=IFCCARTESIANPOINT((3.,0.));
#244=IFCAXIS2PLACEMENT2D(#243,$);
#245=IFCRECTANGLEPROFILEDEF(.AREA.,$,#244,6.,0.15);
#246=IFCCARTESIANPOINT((0.,0.,0.));
#247=IFCAXIS2PLACEMENT3D(#246,$,$);
#248=IFCDIRECTION((0.,0.,1.));
#249=IFCEXTRUDEDAREASOLID(#245,#247,#248,2.7);
#250=IFCSHAPEREPRESENTATION(#12,'Body','SweptSolid',(#249));
#251=IFCPRODUCTDEFINITIONSHAPE($,$,(#250));
#252=IFCWALL('3YuAoYq3NP1PyVjXdeGAgB',#5,'Wall 3',$,$,#242,#251,$,.STANDARD.);
#253=IFCPROPERTYSINGLEVALUE('Material',$,IFCTEXT('stone'),$);
#254=IFCPROPERTYSINGLEVALUE('StonePattern',$,IFCTEXT('small'),$);
#255=IFCPROPERTYSINGLEVALUE('JointWidth',$,IFCTEXT('30 mm'),$);
#256=IFCPROPERTYSINGLEVALUE('ReliefDepth',$,IFCTEXT('6 mm'),$);
#257=IFCPROPERTYSET('3Fbp45EgInNGFyXCvQ9Ai$',#5,'Pset_SkannaFinish','Surface finish specification (Skanna)',(#253,#254,#255,#256));
#258=IFCRELDEFINESBYPROPERTIES('0NjaMnISkjhLmqRxbFXujZ',#5,$,$,(#252),#257);
#259=IFCCARTESIANPOINT((0.,5.,0.));
#260=IFCDIRECTION((0.,0.,1.));
#261=IFCDIRECTION((0.,-1.,0.));
#262=IFCAXIS2PLACEMENT3D(#259,#260,#261);
#263=IFCLOCALPLACEMENT(#26,#262);
#264=IFCCARTESIANPOINT((2.5,0.));
#265=IFCAXIS2PLACEMENT2D(#264,$);
#266=IFCRECTANGLEPROFILEDEF(.AREA.,$,#265,5.,0.15);
#267=IFCCARTESIANPOINT((0.,0.,0.));
#268=IFCAXIS2PLACEMENT3D(#267,$,$);
#269=IFCDIRECTION((0.,0.,1.));
#270=IFCEXTRUDEDAREASOLID(#266,#268,#269,2.7);
#271=IFCSHAPEREPRESENTATION(#12,'Body','SweptSolid',(#270));
#272=IFCPRODUCTDEFINITIONSHAPE($,$,(#271));
#273=IFCWALL('0cs5ROA2lUh_q7JfvIhsbI',#5,'Wall 4',$,$,#263,#272,$,.STANDARD.);
#274=IFCPROPERTYSINGLEVALUE('Material',$,IFCTEXT('wood'),$);
#275=IFCPROPERTYSINGLEVALUE('WoodStyle',$,IFCTEXT('slats'),$);
#276=IFCPROPERTYSINGLEVALUE('WoodTone',$,IFCTEXT('walnut'),$);
#277=IFCPROPERTYSINGLEVALUE('SlatWidth',$,IFCTEXT('50 mm'),$);
#278=IFCPROPERTYSINGLEVALUE('SlatGap',$,IFCTEXT('12 mm'),$);
#279=IFCPROPERTYSINGLEVALUE('SlatThickness',$,IFCTEXT('12 mm'),$);
#280=IFCPROPERTYSINGLEVALUE('SlatBackColour',$,IFCTEXT('#141416'),$);
#281=IFCPROPERTYSINGLEVALUE('SlatDirection',$,IFCTEXT('vertical'),$);
#282=IFCPROPERTYSINGLEVALUE('ReliefDepth',$,IFCTEXT('12 mm'),$);
#283=IFCPROPERTYSET('3IkzYxSSRcqIBezOJVcYIl',#5,'Pset_SkannaFinish','Surface finish specification (Skanna)',(#274,#275,#276,#277,#278,#279,#280,#281,#282));
#284=IFCRELDEFINESBYPROPERTIES('3_4G7SxMwfGjYoIhMc5Osp',#5,$,$,(#273),#283);
#285=IFCCARTESIANPOINT((0.,0.,-0.2));
#286=IFCDIRECTION((0.,0.,1.));
#287=IFCDIRECTION((1.,0.,0.));
#288=IFCAXIS2PLACEMENT3D(#285,#286,#287);
#289=IFCLOCALPLACEMENT(#26,#288);
#290=IFCCARTESIANPOINT((0.,0.));
#291=IFCCARTESIANPOINT((6.,0.));
#292=IFCCARTESIANPOINT((6.,5.));
#293=IFCCARTESIANPOINT((0.,5.));
#294=IFCPOLYLINE((#290,#291,#292,#293,#290));
#295=IFCARBITRARYCLOSEDPROFILEDEF(.AREA.,$,#294);
#296=IFCCARTESIANPOINT((0.,0.,0.));
#297=IFCAXIS2PLACEMENT3D(#296,$,$);
#298=IFCDIRECTION((0.,0.,1.));
#299=IFCEXTRUDEDAREASOLID(#295,#297,#298,0.2);
#300=IFCSHAPEREPRESENTATION(#12,'Body','SweptSolid',(#299));
#301=IFCPRODUCTDEFINITIONSHAPE($,$,(#300));
#302=IFCSLAB('3C9e3FakB5WrUhP03oI84U',#5,'Floor 1',$,$,#289,#301,$,.FLOOR.);
#303=IFCPROPERTYSINGLEVALUE('Material',$,IFCTEXT('tile'),$);
#304=IFCPROPERTYSINGLEVALUE('TilePattern',$,IFCTEXT('grid'),$);
#305=IFCPROPERTYSINGLEVALUE('TileWidth',$,IFCTEXT('600 mm'),$);
#306=IFCPROPERTYSINGLEVALUE('TileHeight',$,IFCTEXT('600 mm'),$);
#307=IFCPROPERTYSINGLEVALUE('JointWidth',$,IFCTEXT('3 mm'),$);
#308=IFCPROPERTYSINGLEVALUE('TileStone',$,IFCTEXT('travertine'),$);
#309=IFCPROPERTYSINGLEVALUE('ReliefDepth',$,IFCTEXT('3 mm'),$);
#310=IFCPROPERTYSET('3xuCVVosgpH4crWSBso2lE',#5,'Pset_SkannaFinish','Surface finish specification (Skanna)',(#303,#304,#305,#306,#307,#308,#309));
#311=IFCRELDEFINESBYPROPERTIES('26bP7QTaFD1yJWZNZH2PoO',#5,$,$,(#302),#310);
#312=IFCCARTESIANPOINT((0.,0.,-0.1));
#313=IFCDIRECTION((0.,0.,1.));
#314=IFCDIRECTION((1.,0.,0.));
#315=IFCAXIS2PLACEMENT3D(#312,#313,#314);
#316=IFCLOCALPLACEMENT(#26,#315);
#317=IFCCARTESIANPOINT((0.4,0.4));
#318=IFCCARTESIANPOINT((2.4,0.4));
#319=IFCCARTESIANPOINT((2.4,2.4));
#320=IFCCARTESIANPOINT((0.4,2.4));
#321=IFCPOLYLINE((#317,#318,#319,#320,#317));
#322=IFCARBITRARYCLOSEDPROFILEDEF(.AREA.,$,#321);
#323=IFCCARTESIANPOINT((0.,0.,0.));
#324=IFCAXIS2PLACEMENT3D(#323,$,$);
#325=IFCDIRECTION((0.,0.,1.));
#326=IFCEXTRUDEDAREASOLID(#322,#324,#325,0.012);
#327=IFCCOLOURRGB($,0.498039,0.698039,0.788235);
#328=IFCSURFACESTYLESHADING(#327,0.);
#329=IFCSURFACESTYLE('tile',.BOTH.,(#328));
#330=IFCSTYLEDITEM(#326,(#329),$);
#331=IFCSHAPEREPRESENTATION(#12,'Body','SweptSolid',(#326));
#332=IFCPRODUCTDEFINITIONSHAPE($,$,(#331));
#333=IFCCOVERING('2IdAw0_lPMesxw38ioEQ4g',#5,'Floor finish 1 (tile)','#7FB2C9 tile, 12 mm',$,#316,#332,$,.FLOORING.);
#334=IFCPROPERTYSINGLEVALUE('Material',$,IFCTEXT('tile'),$);
#335=IFCPROPERTYSINGLEVALUE('TilePattern',$,IFCTEXT('grid'),$);
#336=IFCPROPERTYSINGLEVALUE('TileWidth',$,IFCTEXT('200 mm'),$);
#337=IFCPROPERTYSINGLEVALUE('TileHeight',$,IFCTEXT('200 mm'),$);
#338=IFCPROPERTYSINGLEVALUE('JointWidth',$,IFCTEXT('3 mm'),$);
#339=IFCPROPERTYSINGLEVALUE('TileColour',$,IFCTEXT('#7FB2C9'),$);
#340=IFCPROPERTYSINGLEVALUE('ReliefDepth',$,IFCTEXT('3 mm'),$);
#341=IFCPROPERTYSET('1g$VdAJkUXVXwpPubzL24c',#5,'Pset_SkannaFinish','Surface finish specification (Skanna)',(#334,#335,#336,#337,#338,#339,#340));
#342=IFCRELDEFINESBYPROPERTIES('3okHNC4aV9gGyXU_nw6sYx',#5,$,$,(#333),#341);
#343=IFCCARTESIANPOINT((0.,0.,0.));
#344=IFCDIRECTION((0.,0.,1.));
#345=IFCDIRECTION((1.,0.,0.));
#346=IFCAXIS2PLACEMENT3D(#343,#344,#345);
#347=IFCLOCALPLACEMENT(#26,#346);
#348=IFCCARTESIANPOINT((3.,0.4));
#349=IFCCARTESIANPOINT((5.6,0.4));
#350=IFCCARTESIANPOINT((5.6,4.6));
#351=IFCCARTESIANPOINT((3.,4.6));
#352=IFCPOLYLINE((#348,#349,#350,#351,#348));
#353=IFCARBITRARYCLOSEDPROFILEDEF(.AREA.,$,#352);
#354=IFCCARTESIANPOINT((0.,0.,0.));
#355=IFCAXIS2PLACEMENT3D(#354,$,$);
#356=IFCDIRECTION((0.,0.,1.));
#357=IFCEXTRUDEDAREASOLID(#353,#355,#356,0.03);
#358=IFCCOLOURRGB($,0.603922,0.584314,0.54902);
#359=IFCSURFACESTYLESHADING(#358,0.);
#360=IFCSURFACESTYLE('stone',.BOTH.,(#359));
#361=IFCSTYLEDITEM(#357,(#360),$);
#362=IFCSHAPEREPRESENTATION(#12,'Body','SweptSolid',(#357));
#363=IFCPRODUCTDEFINITIONSHAPE($,$,(#362));
#364=IFCCOVERING('1eCQcklIAUXTPSaMffPJht',#5,'Floor finish 2 (stone)','stone, 30 mm',$,#347,#363,$,.FLOORING.);
#365=IFCPROPERTYSINGLEVALUE('Material',$,IFCTEXT('stone'),$);
#366=IFCPROPERTYSINGLEVALUE('StonePattern',$,IFCTEXT('small'),$);
#367=IFCPROPERTYSINGLEVALUE('JointWidth',$,IFCTEXT('30 mm'),$);
#368=IFCPROPERTYSINGLEVALUE('ReliefDepth',$,IFCTEXT('6 mm'),$);
#369=IFCPROPERTYSET('1hMwvdAMAw7pahVPya0Fm8',#5,'Pset_SkannaFinish','Surface finish specification (Skanna)',(#365,#366,#367,#368));
#370=IFCRELDEFINESBYPROPERTIES('3VP554TiDq6QmZkVp48OVO',#5,$,$,(#364),#369);
#371=IFCCARTESIANPOINT((0.,0.,0.));
#372=IFCDIRECTION((0.,0.,1.));
#373=IFCDIRECTION((1.,0.,0.));
#374=IFCAXIS2PLACEMENT3D(#371,#372,#373);
#375=IFCLOCALPLACEMENT(#26,#374);
#376=IFCCARTESIANPOINT((5.925,0.2));
#377=IFCCARTESIANPOINT((5.925,3.4));
#378=IFCCARTESIANPOINT((5.905,3.4));
#379=IFCCARTESIANPOINT((5.905,0.2));
#380=IFCPOLYLINE((#376,#377,#378,#379,#376));
#381=IFCARBITRARYCLOSEDPROFILEDEF(.AREA.,$,#380);
#382=IFCCARTESIANPOINT((0.,0.,0.));
#383=IFCAXIS2PLACEMENT3D(#382,$,$);
#384=IFCDIRECTION((0.,0.,1.));
#385=IFCEXTRUDEDAREASOLID(#381,#383,#384,2.4);
#386=IFCCOLOURRGB($,0.207843,0.203922,0.227451);
#387=IFCSURFACESTYLESHADING(#386,0.);
#388=IFCSURFACESTYLE('brick',.BOTH.,(#387));
#389=IFCSTYLEDITEM(#385,(#388),$);
#390=IFCSHAPEREPRESENTATION(#12,'Body','SweptSolid',(#385));
#391=IFCPRODUCTDEFINITIONSHAPE($,$,(#390));
#392=IFCCOVERING('3Gwt2scmbD_GfYy3Jq3myM',#5,'Wall finish 1 (brick)','brick, 20 mm',$,#375,#391,$,.CLADDING.);
#393=IFCPROPERTYSINGLEVALUE('Material',$,IFCTEXT('brick'),$);
#394=IFCPROPERTYSINGLEVALUE('BrickType',$,IFCTEXT('charcoal'),$);
#395=IFCPROPERTYSINGLEVALUE('Bond',$,IFCTEXT('stack'),$);
#396=IFCPROPERTYSINGLEVALUE('BrickLength',$,IFCTEXT('250 mm'),$);
#397=IFCPROPERTYSINGLEVALUE('BrickHeight',$,IFCTEXT('62 mm'),$);
#398=IFCPROPERTYSINGLEVALUE('JointWidth',$,IFCTEXT('8 mm'),$);
#399=IFCPROPERTYSINGLEVALUE('BrickColour',$,IFCTEXT('#35343A'),$);
#400=IFCPROPERTYSINGLEVALUE('JointColour',$,IFCTEXT('#57565A'),$);
#401=IFCPROPERTYSINGLEVALUE('ReliefDepth',$,IFCTEXT('8 mm'),$);
#402=IFCPROPERTYSET('0nOh_Ezet4Esj6ztM8QEGh',#5,'Pset_SkannaFinish','Surface finish specification (Skanna)',(#393,#394,#395,#396,#397,#398,#399,#400,#401));
#403=IFCRELDEFINESBYPROPERTIES('1YrnYYJVnknlfG$0vkcdno',#5,$,$,(#392),#402);
#404=IFCRELCOVERSBLDGELEMENTS('3QLcPSq$sLpBiJhLrKqY0a',#5,$,$,#231,(#392));
#405=IFCCARTESIANPOINT((0.,0.,0.));
#406=IFCDIRECTION((0.,0.,1.));
#407=IFCDIRECTION((1.,0.,0.));
#408=IFCAXIS2PLACEMENT3D(#405,#406,#407);
#409=IFCLOCALPLACEMENT(#26,#408);
#410=IFCCARTESIANPOINT((0.,0.075));
#411=IFCCARTESIANPOINT((1.05,0.075));
#412=IFCCARTESIANPOINT((1.05,0.09));
#413=IFCCARTESIANPOINT((0.,0.09));
#414=IFCPOLYLINE((#410,#411,#412,#413,#410));
#415=IFCARBITRARYCLOSEDPROFILEDEF(.AREA.,$,#414);
#416=IFCCARTESIANPOINT((0.,0.,0.));
#417=IFCAXIS2PLACEMENT3D(#416,$,$);
#418=IFCDIRECTION((0.,0.,1.));
#419=IFCEXTRUDEDAREASOLID(#415,#417,#418,0.07);
#420=IFCCARTESIANPOINT((1.95,0.075));
#421=IFCCARTESIANPOINT((6.,0.075));
#422=IFCCARTESIANPOINT((6.,0.09));
#423=IFCCARTESIANPOINT((1.95,0.09));
#424=IFCPOLYLINE((#420,#421,#422,#423,#420));
#425=IFCARBITRARYCLOSEDPROFILEDEF(.AREA.,$,#424);
#426=IFCCARTESIANPOINT((0.,0.,0.));
#427=IFCAXIS2PLACEMENT3D(#426,$,$);
#428=IFCDIRECTION((0.,0.,1.));
#429=IFCEXTRUDEDAREASOLID(#425,#427,#428,0.07);
#430=IFCCARTESIANPOINT((0.,-0.09));
#431=IFCCARTESIANPOINT((1.05,-0.09));
#432=IFCCARTESIANPOINT((1.05,-0.075));
#433=IFCCARTESIANPOINT((0.,-0.075));
#434=IFCPOLYLINE((#430,#431,#432,#433,#430));
#435=IFCARBITRARYCLOSEDPROFILEDEF(.AREA.,$,#434);
#436=IFCCARTESIANPOINT((0.,0.,0.));
#437=IFCAXIS2PLACEMENT3D(#436,$,$);
#438=IFCDIRECTION((0.,0.,1.));
#439=IFCEXTRUDEDAREASOLID(#435,#437,#438,0.07);
#440=IFCCARTESIANPOINT((1.95,-0.09));
#441=IFCCARTESIANPOINT((6.,-0.09));
#442=IFCCARTESIANPOINT((6.,-0.075));
#443=IFCCARTESIANPOINT((1.95,-0.075));
#444=IFCPOLYLINE((#440,#441,#442,#443,#440));
#445=IFCARBITRARYCLOSEDPROFILEDEF(.AREA.,$,#444);
#446=IFCCARTESIANPOINT((0.,0.,0.));
#447=IFCAXIS2PLACEMENT3D(#446,$,$);
#448=IFCDIRECTION((0.,0.,1.));
#449=IFCEXTRUDEDAREASOLID(#445,#447,#448,0.07);
#450=IFCSTYLEDITEM(#419,(#105),$);
#451=IFCSTYLEDITEM(#429,(#105),$);
#452=IFCSTYLEDITEM(#439,(#105),$);
#453=IFCSTYLEDITEM(#449,(#105),$);
#454=IFCSHAPEREPRESENTATION(#12,'Body','SweptSolid',(#419,#429,#439,#449));
#455=IFCPRODUCTDEFINITIONSHAPE($,$,(#454));
#456=IFCCOVERING('0bdBFvoak16F8IWtl7X1vB',#5,'Skirting 1','70 × 15 mm',$,#409,#455,$,.SKIRTINGBOARD.);
#457=IFCRELCOVERSBLDGELEMENTS('3qn3po3AyviB3h9sSpfCz6',#5,$,$,#42,(#456));
#458=IFCCARTESIANPOINT((0.98,0.075));
#459=IFCCARTESIANPOINT((1.05,0.075));
#460=IFCCARTESIANPOINT((1.05,0.09));
#461=IFCCARTESIANPOINT((0.98,0.09));
#462=IFCPOLYLINE((#458,#459,#460,#461,#458));
#463=IFCARBITRARYCLOSEDPROFILEDEF(.AREA.,$,#462);
#464=IFCCARTESIANPOINT((0.,0.,0.));
#465=IFCAXIS2PLACEMENT3D(#464,$,$);
#466=IFCDIRECTION((0.,0.,1.));
#467=IFCEXTRUDEDAREASOLID(#463,#465,#466,2.1);
#468=IFCCARTESIANPOINT((1.95,0.075));
#469=IFCCARTESIANPOINT((2.02,0.075));
#470=IFCCARTESIANPOINT((2.02,0.09));
#471=IFCCARTESIANPOINT((1.95,0.09));
#472=IFCPOLYLINE((#468,#469,#470,#471,#468));
#473=IFCARBITRARYCLOSEDPROFILEDEF(.AREA.,$,#472);
#474=IFCCARTESIANPOINT((0.,0.,0.));
#475=IFCAXIS2PLACEMENT3D(#474,$,$);
#476=IFCDIRECTION((0.,0.,1.));
#477=IFCEXTRUDEDAREASOLID(#473,#475,#476,2.1);
#478=IFCCARTESIANPOINT((0.98,0.075));
#479=IFCCARTESIANPOINT((2.02,0.075));
#480=IFCCARTESIANPOINT((2.02,0.09));
#481=IFCCARTESIANPOINT((0.98,0.09));
#482=IFCPOLYLINE((#478,#479,#480,#481,#478));
#483=IFCARBITRARYCLOSEDPROFILEDEF(.AREA.,$,#482);
#484=IFCCARTESIANPOINT((0.,0.,2.1));
#485=IFCAXIS2PLACEMENT3D(#484,$,$);
#486=IFCDIRECTION((0.,0.,1.));
#487=IFCEXTRUDEDAREASOLID(#483,#485,#486,0.07);
#488=IFCCARTESIANPOINT((0.98,-0.09));
#489=IFCCARTESIANPOINT((1.05,-0.09));
#490=IFCCARTESIANPOINT((1.05,-0.075));
#491=IFCCARTESIANPOINT((0.98,-0.075));
#492=IFCPOLYLINE((#488,#489,#490,#491,#488));
#493=IFCARBITRARYCLOSEDPROFILEDEF(.AREA.,$,#492);
#494=IFCCARTESIANPOINT((0.,0.,0.));
#495=IFCAXIS2PLACEMENT3D(#494,$,$);
#496=IFCDIRECTION((0.,0.,1.));
#497=IFCEXTRUDEDAREASOLID(#493,#495,#496,2.1);
#498=IFCCARTESIANPOINT((1.95,-0.09));
#499=IFCCARTESIANPOINT((2.02,-0.09));
#500=IFCCARTESIANPOINT((2.02,-0.075));
#501=IFCCARTESIANPOINT((1.95,-0.075));
#502=IFCPOLYLINE((#498,#499,#500,#501,#498));
#503=IFCARBITRARYCLOSEDPROFILEDEF(.AREA.,$,#502);
#504=IFCCARTESIANPOINT((0.,0.,0.));
#505=IFCAXIS2PLACEMENT3D(#504,$,$);
#506=IFCDIRECTION((0.,0.,1.));
#507=IFCEXTRUDEDAREASOLID(#503,#505,#506,2.1);
#508=IFCCARTESIANPOINT((0.98,-0.09));
#509=IFCCARTESIANPOINT((2.02,-0.09));
#510=IFCCARTESIANPOINT((2.02,-0.075));
#511=IFCCARTESIANPOINT((0.98,-0.075));
#512=IFCPOLYLINE((#508,#509,#510,#511,#508));
#513=IFCARBITRARYCLOSEDPROFILEDEF(.AREA.,$,#512);
#514=IFCCARTESIANPOINT((0.,0.,2.1));
#515=IFCAXIS2PLACEMENT3D(#514,$,$);
#516=IFCDIRECTION((0.,0.,1.));
#517=IFCEXTRUDEDAREASOLID(#513,#515,#516,0.07);
#518=IFCSTYLEDITEM(#467,(#105),$);
#519=IFCSTYLEDITEM(#477,(#105),$);
#520=IFCSTYLEDITEM(#487,(#105),$);
#521=IFCSTYLEDITEM(#497,(#105),$);
#522=IFCSTYLEDITEM(#507,(#105),$);
#523=IFCSTYLEDITEM(#517,(#105),$);
#524=IFCSHAPEREPRESENTATION(#12,'Body','SweptSolid',(#467,#477,#487,#497,#507,#517));
#525=IFCPRODUCTDEFINITIONSHAPE($,$,(#524));
#526=IFCCOVERING('0cstJsxPHC6BCO8_9DUP7P',#5,'Door casing 1','70 mm wide',$,#409,#525,$,.MOLDING.);
#527=IFCRELCOVERSBLDGELEMENTS('0JtPM42chEclpFxytSTtAo',#5,$,$,#42,(#526));
#528=IFCCARTESIANPOINT((3.41,0.075));
#529=IFCCARTESIANPOINT((3.5,0.075));
#530=IFCCARTESIANPOINT((3.5,0.095));
#531=IFCCARTESIANPOINT((3.41,0.095));
#532=IFCPOLYLINE((#528,#529,#530,#531,#528));
#533=IFCARBITRARYCLOSEDPROFILEDEF(.AREA.,$,#532);
#534=IFCCARTESIANPOINT((0.,0.,0.9));
#535=IFCAXIS2PLACEMENT3D(#534,$,$);
#536=IFCDIRECTION((0.,0.,1.));
#537=IFCEXTRUDEDAREASOLID(#533,#535,#536,1.3);
#538=IFCCARTESIANPOINT((4.9,0.075));
#539=IFCCARTESIANPOINT((4.99,0.075));
#540=IFCCARTESIANPOINT((4.99,0.095));
#541=IFCCARTESIANPOINT((4.9,0.095));
#542=IFCPOLYLINE((#538,#539,#540,#541,#538));
#543=IFCARBITRARYCLOSEDPROFILEDEF(.AREA.,$,#542);
#544=IFCCARTESIANPOINT((0.,0.,0.9));
#545=IFCAXIS2PLACEMENT3D(#544,$,$);
#546=IFCDIRECTION((0.,0.,1.));
#547=IFCEXTRUDEDAREASOLID(#543,#545,#546,1.3);
#548=IFCCARTESIANPOINT((3.41,0.075));
#549=IFCCARTESIANPOINT((4.99,0.075));
#550=IFCCARTESIANPOINT((4.99,0.095));
#551=IFCCARTESIANPOINT((3.41,0.095));
#552=IFCPOLYLINE((#548,#549,#550,#551,#548));
#553=IFCARBITRARYCLOSEDPROFILEDEF(.AREA.,$,#552);
#554=IFCCARTESIANPOINT((0.,0.,2.2));
#555=IFCAXIS2PLACEMENT3D(#554,$,$);
#556=IFCDIRECTION((0.,0.,1.));
#557=IFCEXTRUDEDAREASOLID(#553,#555,#556,0.09);
#558=IFCCARTESIANPOINT((3.41,0.075));
#559=IFCCARTESIANPOINT((4.99,0.075));
#560=IFCCARTESIANPOINT((4.99,0.095));
#561=IFCCARTESIANPOINT((3.41,0.095));
#562=IFCPOLYLINE((#558,#559,#560,#561,#558));
#563=IFCARBITRARYCLOSEDPROFILEDEF(.AREA.,$,#562);
#564=IFCCARTESIANPOINT((0.,0.,0.81));
#565=IFCAXIS2PLACEMENT3D(#564,$,$);
#566=IFCDIRECTION((0.,0.,1.));
#567=IFCEXTRUDEDAREASOLID(#563,#565,#566,0.09);
#568=IFCCARTESIANPOINT((3.41,-0.095));
#569=IFCCARTESIANPOINT((3.5,-0.095));
#570=IFCCARTESIANPOINT((3.5,-0.075));
#571=IFCCARTESIANPOINT((3.41,-0.075));
#572=IFCPOLYLINE((#568,#569,#570,#571,#568));
#573=IFCARBITRARYCLOSEDPROFILEDEF(.AREA.,$,#572);
#574=IFCCARTESIANPOINT((0.,0.,0.9));
#575=IFCAXIS2PLACEMENT3D(#574,$,$);
#576=IFCDIRECTION((0.,0.,1.));
#577=IFCEXTRUDEDAREASOLID(#573,#575,#576,1.3);
#578=IFCCARTESIANPOINT((4.9,-0.095));
#579=IFCCARTESIANPOINT((4.99,-0.095));
#580=IFCCARTESIANPOINT((4.99,-0.075));
#581=IFCCARTESIANPOINT((4.9,-0.075));
#582=IFCPOLYLINE((#578,#579,#580,#581,#578));
#583=IFCARBITRARYCLOSEDPROFILEDEF(.AREA.,$,#582);
#584=IFCCARTESIANPOINT((0.,0.,0.9));
#585=IFCAXIS2PLACEMENT3D(#584,$,$);
#586=IFCDIRECTION((0.,0.,1.));
#587=IFCEXTRUDEDAREASOLID(#583,#585,#586,1.3);
#588=IFCCARTESIANPOINT((3.41,-0.095));
#589=IFCCARTESIANPOINT((4.99,-0.095));
#590=IFCCARTESIANPOINT((4.99,-0.075));
#591=IFCCARTESIANPOINT((3.41,-0.075));
#592=IFCPOLYLINE((#588,#589,#590,#591,#588));
#593=IFCARBITRARYCLOSEDPROFILEDEF(.AREA.,$,#592);
#594=IFCCARTESIANPOINT((0.,0.,2.2));
#595=IFCAXIS2PLACEMENT3D(#594,$,$);
#596=IFCDIRECTION((0.,0.,1.));
#597=IFCEXTRUDEDAREASOLID(#593,#595,#596,0.09);
#598=IFCCARTESIANPOINT((3.41,-0.095));
#599=IFCCARTESIANPOINT((4.99,-0.095));
#600=IFCCARTESIANPOINT((4.99,-0.075));
#601=IFCCARTESIANPOINT((3.41,-0.075));
#602=IFCPOLYLINE((#598,#599,#600,#601,#598));
#603=IFCARBITRARYCLOSEDPROFILEDEF(.AREA.,$,#602);
#604=IFCCARTESIANPOINT((0.,0.,0.81));
#605=IFCAXIS2PLACEMENT3D(#604,$,$);
#606=IFCDIRECTION((0.,0.,1.));
#607=IFCEXTRUDEDAREASOLID(#603,#605,#606,0.09);
#608=IFCCOLOURRGB($,0.356863,0.227451,0.141176);
#609=IFCSURFACESTYLESHADING(#608,0.);
#610=IFCSURFACESTYLE('Casing',.BOTH.,(#609));
#611=IFCSTYLEDITEM(#537,(#610),$);
#612=IFCSTYLEDITEM(#547,(#610),$);
#613=IFCSTYLEDITEM(#557,(#610),$);
#614=IFCSTYLEDITEM(#567,(#610),$);
#615=IFCSTYLEDITEM(#577,(#610),$);
#616=IFCSTYLEDITEM(#587,(#610),$);
#617=IFCSTYLEDITEM(#597,(#610),$);
#618=IFCSTYLEDITEM(#607,(#610),$);
#619=IFCSHAPEREPRESENTATION(#12,'Body','SweptSolid',(#537,#547,#557,#567,#577,#587,#597,#607));
#620=IFCPRODUCTDEFINITIONSHAPE($,$,(#619));
#621=IFCCOVERING('30POZPuxKiM2Ws9uiJwoko',#5,'Window casing 2','90 mm wide',$,#409,#620,$,.MOLDING.);
#622=IFCRELCOVERSBLDGELEMENTS('2WRAHLSL1dMWwVkdMqLDU6',#5,$,$,#42,(#621));
#623=IFCCARTESIANPOINT((0.,0.,0.));
#624=IFCDIRECTION((0.,0.,1.));
#625=IFCDIRECTION((1.,0.,0.));
#626=IFCAXIS2PLACEMENT3D(#623,#624,#625);
#627=IFCLOCALPLACEMENT(#26,#626);
#628=IFCCARTESIANPOINT((0.,0.,0.));
#629=IFCDIRECTION((0.,0.,1.));
#630=IFCDIRECTION((1.,0.,0.));
#631=IFCAXIS2PLACEMENT3D(#628,#629,#630);
#632=IFCLOCALPLACEMENT(#26,#631);
#633=IFCCARTESIANPOINT((0.,0.,0.));
#634=IFCDIRECTION((0.,0.,1.));
#635=IFCDIRECTION((1.,0.,0.));
#636=IFCAXIS2PLACEMENT3D(#633,#634,#635);
#637=IFCLOCALPLACEMENT(#26,#636);
#638=IFCCARTESIANPOINT((0.075,5.));
#639=IFCCARTESIANPOINT((0.075,0.));
#640=IFCCARTESIANPOINT((0.095,0.));
#641=IFCCARTESIANPOINT((0.095,5.));
#642=IFCPOLYLINE((#638,#639,#640,#641,#638));
#643=IFCARBITRARYCLOSEDPROFILEDEF(.AREA.,$,#642);
#644=IFCCARTESIANPOINT((0.,0.,0.));
#645=IFCAXIS2PLACEMENT3D(#644,$,$);
#646=IFCDIRECTION((0.,0.,1.));
#647=IFCEXTRUDEDAREASOLID(#643,#645,#646,0.12);
#648=IFCCOLOURRGB($,0.227451,0.227451,0.227451);
#649=IFCSURFACESTYLESHADING(#648,0.);
#650=IFCSURFACESTYLE('Skirting',.BOTH.,(#649));
#651=IFCSTYLEDITEM(#647,(#650),$);
#652=IFCSHAPEREPRESENTATION(#12,'Body','SweptSolid',(#647));
#653=IFCPRODUCTDEFINITIONSHAPE($,$,(#652));
#654=IFCCOVERING('2bWCPkDAhmBszFz5SWCPYj',#5,'Skirting 2','120 × 20 mm',$,#637,#653,$,.SKIRTINGBOARD.);
#655=IFCRELCOVERSBLDGELEMENTS('3IyI3wtJLBmdKlngSe7iiB',#5,$,$,#273,(#654));
#656=IFCCARTESIANPOINT((0.5,4.6,2.4));
#657=IFCDIRECTION((1.,0.,0.));
#658=IFCDIRECTION((0.,0.,1.));
#659=IFCAXIS2PLACEMENT3D(#656,#657,#658);
#660=IFCLOCALPLACEMENT(#26,#659);
#661=IFCCARTESIANPOINT((0.,0.));
#662=IFCAXIS2PLACEMENT2D(#661,$);
#663=IFCCIRCLEPROFILEDEF(.AREA.,$,#662,0.08);
#664=IFCCARTESIANPOINT((0.,0.,0.));
#665=IFCAXIS2PLACEMENT3D(#664,$,$);
#666=IFCDIRECTION((0.,0.,1.));
#667=IFCEXTRUDEDAREASOLID(#663,#665,#666,5.);
#668=IFCCOLOURRGB($,0.290196,0.615686,0.431373);
#669=IFCSURFACESTYLESHADING(#668,0.);
#670=IFCSURFACESTYLE('Ventilation',.BOTH.,(#669));
#671=IFCSTYLEDITEM(#667,(#670),$);
#672=IFCSHAPEREPRESENTATION(#12,'Body','SweptSolid',(#667));
#673=IFCPRODUCTDEFINITIONSHAPE($,$,(#672));
#674=IFCDUCTSEGMENT('02ilrvbT9su2zUdX8Xb5y2',#5,'Ventilation','Exposed',$,#660,#673,$,.RIGIDSEGMENT.);
#675=IFCCARTESIANPOINT((5.5,4.6,2.4));
#676=IFCDIRECTION((0.,-1.,0.));
#677=IFCDIRECTION((0.,0.,1.));
#678=IFCAXIS2PLACEMENT3D(#675,#676,#677);
#679=IFCLOCALPLACEMENT(#26,#678);
#680=IFCCARTESIANPOINT((0.,0.));
#681=IFCAXIS2PLACEMENT2D(#680,$);
#682=IFCCIRCLEPROFILEDEF(.AREA.,$,#681,0.08);
#683=IFCCARTESIANPOINT((0.,0.,0.));
#684=IFCAXIS2PLACEMENT3D(#683,$,$);
#685=IFCDIRECTION((0.,0.,1.));
#686=IFCEXTRUDEDAREASOLID(#682,#684,#685,3.6);
#687=IFCSTYLEDITEM(#686,(#670),$);
#688=IFCSHAPEREPRESENTATION(#12,'Body','SweptSolid',(#686));
#689=IFCPRODUCTDEFINITIONSHAPE($,$,(#688));
#690=IFCDUCTSEGMENT('2vh$_o0G4I9xoCTxEC3ou1',#5,'Ventilation','Exposed',$,#679,#689,$,.RIGIDSEGMENT.);
#691=IFCCARTESIANPOINT((2.,2.5,2.61));
#692=IFCDIRECTION((0.,0.,1.));
#693=IFCDIRECTION((1.,0.,0.));
#694=IFCAXIS2PLACEMENT3D(#691,#692,#693);
#695=IFCLOCALPLACEMENT(#26,#694);
#696=IFCCARTESIANPOINT((0.,0.));
#697=IFCAXIS2PLACEMENT2D(#696,$);
#698=IFCCIRCLEPROFILEDEF(.AREA.,$,#697,0.17);
#699=IFCCARTESIANPOINT((0.,0.,0.0315));
#700=IFCAXIS2PLACEMENT3D(#699,$,$);
#701=IFCDIRECTION((0.,0.,1.));
#702=IFCEXTRUDEDAREASOLID(#698,#700,#701,0.0585);
#703=IFCCOLOURRGB($,0.909804,0.909804,0.901961);
#704=IFCSURFACESTYLESHADING(#703,0.);
#705=IFCSURFACESTYLE('#e8e8e6',.BOTH.,(#704));
#706=IFCSTYLEDITEM(#702,(#705),$);
#707=IFCCARTESIANPOINT((0.,0.));
#708=IFCAXIS2PLACEMENT2D(#707,$);
#709=IFCCIRCLEPROFILEDEF(.AREA.,$,#708,0.1462);
#710=IFCCARTESIANPOINT((0.,0.,0.));
#711=IFCAXIS2PLACEMENT3D(#710,$,$);
#712=IFCDIRECTION((0.,0.,1.));
#713=IFCEXTRUDEDAREASOLID(#709,#711,#712,0.0324);
#714=IFCCOLOURRGB($,0.960784,0.85098,0.478431);
#715=IFCSURFACESTYLESHADING(#714,0.);
#716=IFCSURFACESTYLE('#f5d97a',.BOTH.,(#715));
#717=IFCSTYLEDITEM(#713,(#716),$);
#718=IFCSHAPEREPRESENTATION(#12,'Body','SweptSolid',(#702,#713));
#719=IFCPRODUCTDEFINITIONSHAPE($,$,(#718));
#720=IFCLIGHTFIXTURE('1dKAoB3B$rXpjm3myIdqut',#5,'Ceiling light','Skanna asset library',$,#695,#719,$,.POINTSOURCE.);
#721=IFCCARTESIANPOINT((4.2,2.5,1.8));
#722=IFCDIRECTION((0.,0.,1.));
#723=IFCDIRECTION((1.,0.,0.));
#724=IFCAXIS2PLACEMENT3D(#721,#722,#723);
#725=IFCLOCALPLACEMENT(#26,#724);
#726=IFCCARTESIANPOINT((0.,0.));
#727=IFCAXIS2PLACEMENT2D(#726,$);
#728=IFCCIRCLEPROFILEDEF(.AREA.,$,#727,0.009);
#729=IFCCARTESIANPOINT((0.,0.,0.315));
#730=IFCAXIS2PLACEMENT3D(#729,$,$);
#731=IFCDIRECTION((0.,0.,1.));
#732=IFCEXTRUDEDAREASOLID(#728,#730,#731,0.585);
#733=IFCCOLOURRGB($,0.603922,0.627451,0.658824);
#734=IFCSURFACESTYLESHADING(#733,0.);
#735=IFCSURFACESTYLE('#9aa0a8',.BOTH.,(#734));
#736=IFCSTYLEDITEM(#732,(#735),$);
#737=IFCCARTESIANPOINT((0.,0.));
#738=IFCAXIS2PLACEMENT2D(#737,$);
#739=IFCCIRCLEPROFILEDEF(.AREA.,$,#738,0.15);
#740=IFCCARTESIANPOINT((0.,0.,0.072));
#741=IFCAXIS2PLACEMENT3D(#740,$,$);
#742=IFCDIRECTION((0.,0.,1.));
#743=IFCEXTRUDEDAREASOLID(#739,#741,#742,0.252);
#744=IFCCOLOURRGB($,0.227451,0.239216,0.258824);
#745=IFCSURFACESTYLESHADING(#744,0.);
#746=IFCSURFACESTYLE('#3a3d42',.BOTH.,(#745));
#747=IFCSTYLEDITEM(#743,(#746),$);
#748=IFCCARTESIANPOINT((0.,0.));
#749=IFCAXIS2PLACEMENT2D(#748,$);
#750=IFCCIRCLEPROFILEDEF(.AREA.,$,#749,0.108);
#751=IFCCARTESIANPOINT((0.,0.,0.));
#752=IFCAXIS2PLACEMENT3D(#751,$,$);
#753=IFCDIRECTION((0.,0.,1.));
#754=IFCEXTRUDEDAREASOLID(#750,#752,#753,0.081);
#755=IFCSTYLEDITEM(#754,(#716),$);
#756=IFCSHAPEREPRESENTATION(#12,'Body','SweptSolid',(#732,#743,#754));
#757=IFCPRODUCTDEFINITIONSHAPE($,$,(#756));
#758=IFCLIGHTFIXTURE('2fykh3cHkaTw2nzSlAeX3X',#5,'Pendant over table','Skanna asset library',$,#725,#757,$,.POINTSOURCE.);
#759=IFCCARTESIANPOINT((0.12,3.5,1.8));
#760=IFCDIRECTION((0.,0.,1.));
#761=IFCDIRECTION((1.,0.,0.));
#762=IFCAXIS2PLACEMENT3D(#759,#760,#761);
#763=IFCLOCALPLACEMENT(#26,#762);
#764=IFCCARTESIANPOINT((0.,0.0588));
#765=IFCAXIS2PLACEMENT2D(#764,$);
#766=IFCRECTANGLEPROFILEDEF(.AREA.,$,#765,0.112,0.0224);
#767=IFCCARTESIANPOINT((0.,0.,0.12));
#768=IFCAXIS2PLACEMENT3D(#767,$,$);
#769=IFCDIRECTION((0.,0.,1.));
#770=IFCEXTRUDEDAREASOLID(#766,#768,#769,0.24);
#771=IFCSTYLEDITEM(#770,(#705),$);
#772=IFCCARTESIANPOINT((0.,0.));
#773=IFCAXIS2PLACEMENT2D(#772,$);
#774=IFCELLIPSEPROFILEDEF(.AREA.,$,#773,0.08,0.07);
#775=IFCCARTESIANPOINT((0.,0.,0.0768));
#776=IFCAXIS2PLACEMENT3D(#775,$,$);
#777=IFCDIRECTION((0.,0.,1.));
#778=IFCEXTRUDEDAREASOLID(#774,#776,#777,0.1392);
#779=IFCSTYLEDITEM(#778,(#705),$);
#780=IFCCARTESIANPOINT((0.,0.));
#781=IFCAXIS2PLACEMENT2D(#780,$);
#782=IFCELLIPSEPROFILEDEF(.AREA.,$,#781,0.0656,0.0574);
#783=IFCCARTESIANPOINT((0.,0.,0.216));
#784=IFCAXIS2PLACEMENT3D(#783,$,$);
#785=IFCDIRECTION((0.,0.,1.));
#786=IFCEXTRUDEDAREASOLID(#782,#784,#785,0.024);
#787=IFCSTYLEDITEM(#786,(#716),$);
#788=IFCSHAPEREPRESENTATION(#12,'Body','SweptSolid',(#770,#778,#786));
#789=IFCPRODUCTDEFINITIONSHAPE($,$,(#788));
#790=IFCLIGHTFIXTURE('1JUSKPTNNvgXvC709FMtr5',#5,'Sconce','Skanna asset library',$,#763,#789,$,.DIRECTIONSOURCE.);
#791=IFCCARTESIANPOINT((1.,1.,2.65));
#792=IFCDIRECTION((0.,0.,1.));
#793=IFCDIRECTION((1.,0.,0.));
#794=IFCAXIS2PLACEMENT3D(#791,#792,#793);
#795=IFCLOCALPLACEMENT(#26,#794);
#796=IFCCARTESIANPOINT((0.,0.));
#797=IFCAXIS2PLACEMENT2D(#796,$);
#798=IFCCIRCLEPROFILEDEF(.AREA.,$,#797,0.05);
#799=IFCCARTESIANPOINT((0.,0.,0.015));
#800=IFCAXIS2PLACEMENT3D(#799,$,$);
#801=IFCDIRECTION((0.,0.,1.));
#802=IFCEXTRUDEDAREASOLID(#798,#800,#801,0.035);
#803=IFCSTYLEDITEM(#802,(#735),$);
#804=IFCCARTESIANPOINT((0.,0.));
#805=IFCAXIS2PLACEMENT2D(#804,$);
#806=IFCCIRCLEPROFILEDEF(.AREA.,$,#805,0.035);
#807=IFCCARTESIANPOINT((0.,0.,0.));
#808=IFCAXIS2PLACEMENT3D(#807,$,$);
#809=IFCDIRECTION((0.,0.,1.));
#810=IFCEXTRUDEDAREASOLID(#806,#808,#809,0.0155);
#811=IFCSTYLEDITEM(#810,(#716),$);
#812=IFCSHAPEREPRESENTATION(#12,'Body','SweptSolid',(#802,#810));
#813=IFCPRODUCTDEFINITIONSHAPE($,$,(#812));
#814=IFCLIGHTFIXTURE('3f01OYhtIWvYIhFHFqzxNU',#5,'Spot 1','Skanna asset library',$,#795,#813,$,.POINTSOURCE.);
#815=IFCCARTESIANPOINT((3.,4.7,2.6));
#816=IFCDIRECTION((0.,0.,1.));
#817=IFCDIRECTION((1.,0.,0.));
#818=IFCAXIS2PLACEMENT3D(#815,#816,#817);
#819=IFCLOCALPLACEMENT(#26,#818);
#820=IFCCARTESIANPOINT((0.,0.));
#821=IFCAXIS2PLACEMENT2D(#820,$);
#822=IFCRECTANGLEPROFILEDEF(.AREA.,$,#821,1.5,0.03);
#823=IFCCARTESIANPOINT((0.,0.,0.0135));
#824=IFCAXIS2PLACEMENT3D(#823,$,$);
#825=IFCDIRECTION((0.,0.,1.));
#826=IFCEXTRUDEDAREASOLID(#822,#824,#825,0.0165);
#827=IFCSTYLEDITEM(#826,(#735),$);
#828=IFCCARTESIANPOINT((0.,0.));
#829=IFCAXIS2PLACEMENT2D(#828,$);
#830=IFCRECTANGLEPROFILEDEF(.AREA.,$,#829,1.47,0.027);
#831=IFCCARTESIANPOINT((0.,0.,0.));
#832=IFCAXIS2PLACEMENT3D(#831,$,$);
#833=IFCDIRECTION((0.,0.,1.));
#834=IFCEXTRUDEDAREASOLID(#830,#832,#833,0.0138);
#835=IFCSTYLEDITEM(#834,(#716),$);
#836=IFCSHAPEREPRESENTATION(#12,'Body','SweptSolid',(#826,#834));
#837=IFCPRODUCTDEFINITIONSHAPE($,$,(#836));
#838=IFCLIGHTFIXTURE('2lyDznBMEalUHU9GEdcKVe',#5,'LED strip','Skanna asset library',$,#819,#837,$,.SECURITYLIGHTING.);
#839=IFCCARTESIANPOINT((4.2,2.5,0.));
#840=IFCDIRECTION((0.,0.,1.));
#841=IFCDIRECTION((1.,0.,0.));
#842=IFCAXIS2PLACEMENT3D(#839,#840,#841);
#843=IFCLOCALPLACEMENT(#26,#842);
#844=IFCCARTESIANPOINT((0.,0.));
#845=IFCAXIS2PLACEMENT2D(#844,$);
#846=IFCRECTANGLEPROFILEDEF(.AREA.,$,#845,1.4,0.8);
#847=IFCCARTESIANPOINT((0.,0.,0.6975));
#848=IFCAXIS2PLACEMENT3D(#847,$,$);
#849=IFCDIRECTION((0.,0.,1.));
#850=IFCEXTRUDEDAREASOLID(#846,#848,#849,0.0525);
#851=IFCCOLOURRGB($,0.647059,0.47451,0.294118);
#852=IFCSURFACESTYLESHADING(#851,0.);
#853=IFCSURFACESTYLE('#a5794b',.BOTH.,(#852));
#854=IFCSTYLEDITEM(#850,(#853),$);
#855=IFCCARTESIANPOINT((-0.616,-0.32));
#856=IFCAXIS2PLACEMENT2D(#855,$);
#857=IFCRECTANGLEPROFILEDEF(.AREA.,$,#856,0.07,0.072);
#858=IFCCARTESIANPOINT((0.,0.,0.));
#859=IFCAXIS2PLACEMENT3D(#858,$,$);
#860=IFCDIRECTION((0.,0.,1.));
#861=IFCEXTRUDEDAREASOLID(#857,#859,#860,0.6975);
#862=IFCSTYLEDITEM(#861,(#853),$);
#863=IFCCARTESIANPOINT((0.616,-0.32));
#864=IFCAXIS2PLACEMENT2D(#863,$);
#865=IFCRECTANGLEPROFILEDEF(.AREA.,$,#864,0.07,0.072);
#866=IFCCARTESIANPOINT((0.,0.,0.));
#867=IFCAXIS2PLACEMENT3D(#866,$,$);
#868=IFCDIRECTION((0.,0.,1.));
#869=IFCEXTRUDEDAREASOLID(#865,#867,#868,0.6975);
#870=IFCSTYLEDITEM(#869,(#853),$);
#871=IFCCARTESIANPOINT((-0.616,0.32));
#872=IFCAXIS2PLACEMENT2D(#871,$);
#873=IFCRECTANGLEPROFILEDEF(.AREA.,$,#872,0.07,0.072);
#874=IFCCARTESIANPOINT((0.,0.,0.));
#875=IFCAXIS2PLACEMENT3D(#874,$,$);
#876=IFCDIRECTION((0.,0.,1.));
#877=IFCEXTRUDEDAREASOLID(#873,#875,#876,0.6975);
#878=IFCSTYLEDITEM(#877,(#853),$);
#879=IFCCARTESIANPOINT((0.616,0.32));
#880=IFCAXIS2PLACEMENT2D(#879,$);
#881=IFCRECTANGLEPROFILEDEF(.AREA.,$,#880,0.07,0.072);
#882=IFCCARTESIANPOINT((0.,0.,0.));
#883=IFCAXIS2PLACEMENT3D(#882,$,$);
#884=IFCDIRECTION((0.,0.,1.));
#885=IFCEXTRUDEDAREASOLID(#881,#883,#884,0.6975);
#886=IFCSTYLEDITEM(#885,(#853),$);
#887=IFCSHAPEREPRESENTATION(#12,'Body','SweptSolid',(#850,#861,#869,#877,#885));
#888=IFCPRODUCTDEFINITIONSHAPE($,$,(#887));
#889=IFCFURNITURE('3GH24NhWjwtPWdBP0mvUpE',#5,'Table','Skanna asset library',$,#843,#888,$,.TABLE.);
#890=IFCCARTESIANPOINT((2.5,0.2,0.15));
#891=IFCDIRECTION((0.,0.,1.));
#892=IFCDIRECTION((1.,0.,0.));
#893=IFCAXIS2PLACEMENT3D(#890,#891,#892);
#894=IFCLOCALPLACEMENT(#26,#893);
#895=IFCCARTESIANPOINT((0.,0.028));
#896=IFCAXIS2PLACEMENT2D(#895,$);
#897=IFCRECTANGLEPROFILEDEF(.AREA.,$,#896,1.,0.036);
#898=IFCCARTESIANPOINT((0.,0.,0.));
#899=IFCAXIS2PLACEMENT3D(#898,$,$);
#900=IFCDIRECTION((0.,0.,1.));
#901=IFCEXTRUDEDAREASOLID(#897,#899,#900,0.5);
#902=IFCSTYLEDITEM(#901,(#705),$);
#903=IFCCARTESIANPOINT((0.,-0.028));
#904=IFCAXIS2PLACEMENT2D(#903,$);
#905=IFCRECTANGLEPROFILEDEF(.AREA.,$,#904,1.,0.036);
#906=IFCCARTESIANPOINT((0.,0.,0.));
#907=IFCAXIS2PLACEMENT3D(#906,$,$);
#908=IFCDIRECTION((0.,0.,1.));
#909=IFCEXTRUDEDAREASOLID(#905,#907,#908,0.48);
#910=IFCSTYLEDITEM(#909,(#705),$);
#911=IFCCARTESIANPOINT((0.,0.));
#912=IFCAXIS2PLACEMENT2D(#911,$);
#913=IFCRECTANGLEPROFILEDEF(.AREA.,$,#912,0.96,0.085);
#914=IFCCARTESIANPOINT((0.,0.,0.46));
#915=IFCAXIS2PLACEMENT3D(#914,$,$);
#916=IFCDIRECTION((0.,0.,1.));
#917=IFCEXTRUDEDAREASOLID(#913,#915,#916,0.04);
#918=IFCCOLOURRGB($,0.760784,0.776471,0.768627);
#919=IFCSURFACESTYLESHADING(#918,0.);
#920=IFCSURFACESTYLE('#c2c6c4',.BOTH.,(#919));
#921=IFCSTYLEDITEM(#917,(#920),$);
#922=IFCCARTESIANPOINT((0.46,0.028));
#923=IFCAXIS2PLACEMENT2D(#922,$);
#924=IFCCIRCLEPROFILEDEF(.AREA.,$,#923,0.03);
#925=IFCCARTESIANPOINT((0.,0.,0.5));
#926=IFCAXIS2PLACEMENT3D(#925,$,$);
#927=IFCDIRECTION((0.,0.,1.));
#928=IFCEXTRUDEDAREASOLID(#924,#926,#927,0.06);
#929=IFCSTYLEDITEM(#928,(#735),$);
#930=IFCSHAPEREPRESENTATION(#12,'Body','SweptSolid',(#901,#909,#917,#928));
#931=IFCPRODUCTDEFINITIONSHAPE($,$,(#930));
#932=IFCSPACEHEATER('24qTNJgNBVofHmdO2oo1_C',#5,'Radiator','Skanna asset library',$,#894,#931,$,.RADIATOR.);
#933=IFCCARTESIANPOINT((1.5,4.,2.63));
#934=IFCDIRECTION((0.,0.,1.));
#935=IFCDIRECTION((1.,0.,0.));
#936=IFCAXIS2PLACEMENT3D(#933,#934,#935);
#937=IFCLOCALPLACEMENT(#26,#936);
#938=IFCCARTESIANPOINT((0.,0.));
#939=IFCAXIS2PLACEMENT2D(#938,$);
#940=IFCRECTANGLEPROFILEDEF(.AREA.,$,#939,0.3,0.3);
#941=IFCCARTESIANPOINT((0.,0.,0.015));
#942=IFCAXIS2PLACEMENT3D(#941,$,$);
#943=IFCDIRECTION((0.,0.,1.));
#944=IFCEXTRUDEDAREASOLID(#940,#942,#943,0.035);
#945=IFCCOLOURRGB($,0.341176,0.690196,0.478431);
#946=IFCSURFACESTYLESHADING(#945,0.);
#947=IFCSURFACESTYLE('#57b07a',.BOTH.,(#946));
#948=IFCSTYLEDITEM(#944,(#947),$);
#949=IFCCARTESIANPOINT((0.,0.));
#950=IFCAXIS2PLACEMENT2D(#949,$);
#951=IFCRECTANGLEPROFILEDEF(.AREA.,$,#950,0.21,0.21);
#952=IFCCARTESIANPOINT((0.,0.,0.));
#953=IFCAXIS2PLACEMENT3D(#952,$,$);
#954=IFCDIRECTION((0.,0.,1.));
#955=IFCEXTRUDEDAREASOLID(#951,#953,#954,0.0155);
#956=IFCCOLOURRGB($,0.164706,0.34902,0.258824);
#957=IFCSURFACESTYLESHADING(#956,0.);
#958=IFCSURFACESTYLE('#2a5942',.BOTH.,(#957));
#959=IFCSTYLEDITEM(#955,(#958),$);
#960=IFCSHAPEREPRESENTATION(#12,'Body','SweptSolid',(#944,#955));
#961=IFCPRODUCTDEFINITIONSHAPE($,$,(#960));
#962=IFCAIRTERMINAL('1h8eiSr5tP0vN8IxE9RFMk',#5,'Supply vent','Skanna asset library',$,#937,#961,$,.DIFFUSER.);
#963=IFCCARTESIANPOINT((4.5,4.,2.63));
#964=IFCDIRECTION((0.,0.,1.));
#965=IFCDIRECTION((1.,0.,0.));
#966=IFCAXIS2PLACEMENT3D(#963,#964,#965);
#967=IFCLOCALPLACEMENT(#26,#966);
#968=IFCCARTESIANPOINT((0.,0.));
#969=IFCAXIS2PLACEMENT2D(#968,$);
#970=IFCRECTANGLEPROFILEDEF(.AREA.,$,#969,0.3,0.3);
#971=IFCCARTESIANPOINT((0.,0.,0.015));
#972=IFCAXIS2PLACEMENT3D(#971,$,$);
#973=IFCDIRECTION((0.,0.,1.));
#974=IFCEXTRUDEDAREASOLID(#970,#972,#973,0.035);
#975=IFCCOLOURRGB($,0.180392,0.490196,0.329412);
#976=IFCSURFACESTYLESHADING(#975,0.);
#977=IFCSURFACESTYLE('#2e7d54',.BOTH.,(#976));
#978=IFCSTYLEDITEM(#974,(#977),$);
#979=IFCCARTESIANPOINT((0.,0.));
#980=IFCAXIS2PLACEMENT2D(#979,$);
#981=IFCRECTANGLEPROFILEDEF(.AREA.,$,#980,0.21,0.21);
#982=IFCCARTESIANPOINT((0.,0.,0.));
#983=IFCAXIS2PLACEMENT3D(#982,$,$);
#984=IFCDIRECTION((0.,0.,1.));
#985=IFCEXTRUDEDAREASOLID(#981,#983,#984,0.0155);
#986=IFCCOLOURRGB($,0.090196,0.25098,0.180392);
#987=IFCSURFACESTYLESHADING(#986,0.);
#988=IFCSURFACESTYLE('#17402e',.BOTH.,(#987));
#989=IFCSTYLEDITEM(#985,(#988),$);
#990=IFCSHAPEREPRESENTATION(#12,'Body','SweptSolid',(#974,#985));
#991=IFCPRODUCTDEFINITIONSHAPE($,$,(#990));
#992=IFCAIRTERMINAL('2r$Ap5yip9zwo_cUmWjqjy',#5,'Extract vent','Skanna asset library',$,#967,#991,$,.GRILLE.);
#993=IFCRELCONTAINEDINSPATIALSTRUCTURE('2fndilGfYAwDlwVWjbid$c',#5,$,$,(#42,#115,#215,#231,#252,#273,#302,#333,#364,#392,#456,#526,#621,#654,#674,#690,#720,#758,#790,#814,#838,#889,#932,#962,#992),#27);
#994=IFCRELAGGREGATES('2Y0F$KVXC3Dra7dOryC6fR',#5,$,$,#21,(#27));
#995=IFCDOORTYPE('3zXkzkw4oCFMkY27t1WEvE',#5,'Door — single swing',$,$,$,$,$,$,.DOOR.,.SINGLE_SWING_LEFT.,.F.,$);
#996=IFCRELDEFINESBYTYPE('2OEogm79wqJWUfY7IOr1iB',#5,$,$,(#115),#995);
#997=IFCWINDOWTYPE('1LytW$5el4kBdA_lGpEtjh',#5,'Window — single panel',$,$,$,$,$,$,.WINDOW.,.SINGLE_PANEL.,.F.,$);
#998=IFCRELDEFINESBYTYPE('0RQtqs8ZBFcM5GwWxAElh_',#5,$,$,(#215),#997);
#999=IFCMATERIAL('brick',$,$);
#1000=IFCRELASSOCIATESMATERIAL('2ZbTmg0JC7vE_PK_P1ZBP8',#5,'Material: brick',$,(#42,#392),#999);
#1001=IFCMATERIAL('stone',$,$);
#1002=IFCRELASSOCIATESMATERIAL('2_$YefLd2CslbPJ_24CUcO',#5,'Material: stone',$,(#231,#252,#364),#1001);
#1003=IFCMATERIAL('wood',$,$);
#1004=IFCRELASSOCIATESMATERIAL('07Idrpb2SLtM6iNRUuzJSF',#5,'Material: wood',$,(#273),#1003);
#1005=IFCMATERIAL('tile',$,$);
#1006=IFCRELASSOCIATESMATERIAL('0QXc$aaOwJvwIkV5UDhAcI',#5,'Material: tile',$,(#302,#333),#1005);
ENDSEC;
END-ISO-10303-21;
