ISO-10303-21;
HEADER;
FILE_DESCRIPTION((''),'2;1');
FILE_NAME('model.ifc','2026-08-04T02:32:05',('Skanna'),('LiDAR3D'),'skanna-web bim 0.1','skanna-web bim 0.1','');
FILE_SCHEMA(('IFC4'));
ENDSEC;
DATA;
#1=IFCPERSON($,$,'Skanna',$,$,$,$,$);
#2=IFCORGANIZATION($,'LiDAR3D',$,$,$);
#3=IFCPERSONANDORGANIZATION(#1,#2,$);
#4=IFCAPPLICATION(#2,'0.1','Skanna Web BIM Author','skanna-web');
#5=IFCOWNERHISTORY(#3,#4,$,.ADDED.,$,$,$,1785810725);
#6=IFCSIUNIT(*,.LENGTHUNIT.,$,.METRE.);
#7=IFCSIUNIT(*,.AREAUNIT.,$,.SQUARE_METRE.);
#8=IFCSIUNIT(*,.VOLUMEUNIT.,$,.CUBIC_METRE.);
#9=IFCUNITASSIGNMENT((#6,#7,#8));
#10=IFCCARTESIANPOINT((0.,0.,0.));
#11=IFCAXIS2PLACEMENT3D(#10,$,$);
#12=IFCGEOMETRICREPRESENTATIONCONTEXT($,'Model',3,1.E-05,#11,$);
#13=IFCPROJECT('078ACzVv3sH9dorrl6I1kw',#5,'My home 🏡','Authored in Skanna Web',$,$,$,(#12),#9);
#14=IFCCARTESIANPOINT((0.,0.,0.));
#15=IFCAXIS2PLACEMENT3D(#14,$,$);
#16=IFCLOCALPLACEMENT($,#15);
#17=IFCSITE('3m0OMQ5kUuEUrWUnB5pflY',#5,'Site',$,$,#16,$,$,.ELEMENT.,$,$,$,$,$);
#18=IFCCARTESIANPOINT((0.,0.,0.));
#19=IFCAXIS2PLACEMENT3D(#18,$,$);
#20=IFCLOCALPLACEMENT(#16,#19);
#21=IFCBUILDING('3vzk65niJMOcgtCoB3ZzDB',#5,'Building',$,$,#20,$,$,.ELEMENT.,$,$,$);
#22=IFCRELAGGREGATES('2nSaLoZ9yphVjqQ65MZXNM',#5,$,$,#13,(#17));
#23=IFCRELAGGREGATES('2W8KW10FweOzhazb6l33yG',#5,$,$,#17,(#21));
#24=IFCCARTESIANPOINT((0.,0.,0.));
#25=IFCAXIS2PLACEMENT3D(#24,$,$);
#26=IFCLOCALPLACEMENT(#20,#25);
#27=IFCBUILDINGSTOREY('1gm1GukAFSBJci2bijQrGF',#5,'Ground floor',$,$,#26,$,$,.ELEMENT.,0.);
#28=IFCCARTESIANPOINT((-0.05,-6.95,0.));
#29=IFCDIRECTION((0.,0.,1.));
#30=IFCDIRECTION((-1.,0.,0.));
#31=IFCAXIS2PLACEMENT3D(#28,#29,#30);
#32=IFCLOCALPLACEMENT(#26,#31);
#33=IFCCARTESIANPOINT((7.025,0.));
#34=IFCAXIS2PLACEMENT2D(#33,$);
#35=IFCRECTANGLEPROFILEDEF(.AREA.,$,#34,14.05,0.15);
#36=IFCCARTESIANPOINT((0.,0.,0.));
#37=IFCAXIS2PLACEMENT3D(#36,$,$);
#38=IFCDIRECTION((0.,0.,1.));
#39=IFCEXTRUDEDAREASOLID(#35,#37,#38,2.7);
#40=IFCSHAPEREPRESENTATION(#12,'Body','SweptSolid',(#39));
#41=IFCPRODUCTDEFINITIONSHAPE($,$,(#40));
#42=IFCWALL('3gfq0zeZeUW4PCD_mXR3rX',#5,'Wall 1',$,$,#32,#41,$,.STANDARD.);
#43=IFCCARTESIANPOINT((-3.604488,-6.95,0.9));
#44=IFCDIRECTION((0.,0.,1.));
#45=IFCDIRECTION((-1.,0.,0.));
#46=IFCAXIS2PLACEMENT3D(#43,#44,#45);
#47=IFCLOCALPLACEMENT(#26,#46);
#48=IFCCARTESIANPOINT((0.6,0.));
#49=IFCAXIS2PLACEMENT2D(#48,$);
#50=IFCRECTANGLEPROFILEDEF(.AREA.,$,#49,1.2,0.21);
#51=IFCCARTESIANPOINT((0.,0.,0.));
#52=IFCAXIS2PLACEMENT3D(#51,$,$);
#53=IFCDIRECTION((0.,0.,1.));
#54=IFCEXTRUDEDAREASOLID(#50,#52,#53,1.2);
#55=IFCSHAPEREPRESENTATION(#12,'Body','SweptSolid',(#54));
#56=IFCPRODUCTDEFINITIONSHAPE($,$,(#55));
#57=IFCOPENINGELEMENT('3hZubkwfn3l2cuuxrdq8ya',#5,'Opening (window)',$,$,#47,#56,$,.OPENING.);
#58=IFCRELVOIDSELEMENT('0irKtDs$UI0t4V45UVX_Or',#5,$,$,#42,#57);
#59=IFCCARTESIANPOINT((-3.604488,-6.95,0.9));
#60=IFCDIRECTION((0.,0.,1.));
#61=IFCDIRECTION((-1.,0.,0.));
#62=IFCAXIS2PLACEMENT3D(#59,#60,#61);
#63=IFCLOCALPLACEMENT(#26,#62);
#64=IFCCARTESIANPOINT((0.0275,0.));
#65=IFCAXIS2PLACEMENT2D(#64,$);
#66=IFCRECTANGLEPROFILEDEF(.AREA.,$,#65,0.055,0.08);
#67=IFCCARTESIANPOINT((0.,0.,0.));
#68=IFCAXIS2PLACEMENT3D(#67,$,$);
#69=IFCDIRECTION((0.,0.,1.));
#70=IFCEXTRUDEDAREASOLID(#66,#68,#69,1.2);
#71=IFCCARTESIANPOINT((1.1725,0.));
#72=IFCAXIS2PLACEMENT2D(#71,$);
#73=IFCRECTANGLEPROFILEDEF(.AREA.,$,#72,0.055,0.08);
#74=IFCCARTESIANPOINT((0.,0.,0.));
#75=IFCAXIS2PLACEMENT3D(#74,$,$);
#76=IFCDIRECTION((0.,0.,1.));
#77=IFCEXTRUDEDAREASOLID(#73,#75,#76,1.2);
#78=IFCCARTESIANPOINT((0.6,0.));
#79=IFCAXIS2PLACEMENT2D(#78,$);
#80=IFCRECTANGLEPROFILEDEF(.AREA.,$,#79,1.09,0.08);
#81=IFCCARTESIANPOINT((0.,0.,1.145));
#82=IFCAXIS2PLACEMENT3D(#81,$,$);
#83=IFCDIRECTION((0.,0.,1.));
#84=IFCEXTRUDEDAREASOLID(#80,#82,#83,0.055);
#85=IFCCARTESIANPOINT((0.6,0.));
#86=IFCAXIS2PLACEMENT2D(#85,$);
#87=IFCRECTANGLEPROFILEDEF(.AREA.,$,#86,1.09,0.08);
#88=IFCCARTESIANPOINT((0.,0.,0.));
#89=IFCAXIS2PLACEMENT3D(#88,$,$);
#90=IFCDIRECTION((0.,0.,1.));
#91=IFCEXTRUDEDAREASOLID(#87,#89,#90,0.055);
#92=IFCCARTESIANPOINT((0.074,0.));
#93=IFCAXIS2PLACEMENT2D(#92,$);
#94=IFCRECTANGLEPROFILEDEF(.AREA.,$,#93,0.038,0.08);
#95=IFCCARTESIANPOINT((0.,0.,0.055));
#96=IFCAXIS2PLACEMENT3D(#95,$,$);
#97=IFCDIRECTION((0.,0.,1.));
#98=IFCEXTRUDEDAREASOLID(#94,#96,#97,1.09);
#99=IFCCARTESIANPOINT((1.126,0.));
#100=IFCAXIS2PLACEMENT2D(#99,$);
#101=IFCRECTANGLEPROFILEDEF(.AREA.,$,#100,0.038,0.08);
#102=IFCCARTESIANPOINT((0.,0.,0.055));
#103=IFCAXIS2PLACEMENT3D(#102,$,$);
#104=IFCDIRECTION((0.,0.,1.));
#105=IFCEXTRUDEDAREASOLID(#101,#103,#104,1.09);
#106=IFCCARTESIANPOINT((0.6,0.));
#107=IFCAXIS2PLACEMENT2D(#106,$);
#108=IFCRECTANGLEPROFILEDEF(.AREA.,$,#107,1.014,0.08);
#109=IFCCARTESIANPOINT((0.,0.,1.107));
#110=IFCAXIS2PLACEMENT3D(#109,$,$);
#111=IFCDIRECTION((0.,0.,1.));
#112=IFCEXTRUDEDAREASOLID(#108,#110,#111,0.038);
#113=IFCCARTESIANPOINT((0.6,0.));
#114=IFCAXIS2PLACEMENT2D(#113,$);
#115=IFCRECTANGLEPROFILEDEF(.AREA.,$,#114,1.014,0.08);
#116=IFCCARTESIANPOINT((0.,0.,0.055));
#117=IFCAXIS2PLACEMENT3D(#116,$,$);
#118=IFCDIRECTION((0.,0.,1.));
#119=IFCEXTRUDEDAREASOLID(#115,#117,#118,0.038);
#120=IFCCARTESIANPOINT((0.6,0.));
#121=IFCAXIS2PLACEMENT2D(#120,$);
#122=IFCRECTANGLEPROFILEDEF(.AREA.,$,#121,1.014,0.06);
#123=IFCCARTESIANPOINT((0.,0.,0.093));
#124=IFCAXIS2PLACEMENT3D(#123,$,$);
#125=IFCDIRECTION((0.,0.,1.));
#126=IFCEXTRUDEDAREASOLID(#122,#124,#125,1.014);
#127=IFCCOLOURRGB($,0.956863,0.94902,0.933333);
#128=IFCSURFACESTYLESHADING(#127,0.);
#129=IFCSURFACESTYLE('Frame',.BOTH.,(#128));
#130=IFCSTYLEDITEM(#70,(#129),$);
#131=IFCSTYLEDITEM(#77,(#129),$);
#132=IFCSTYLEDITEM(#84,(#129),$);
#133=IFCSTYLEDITEM(#91,(#129),$);
#134=IFCSTYLEDITEM(#98,(#129),$);
#135=IFCSTYLEDITEM(#105,(#129),$);
#136=IFCSTYLEDITEM(#112,(#129),$);
#137=IFCSTYLEDITEM(#119,(#129),$);
#138=IFCCOLOURRGB($,0.611765,0.768627,0.831373);
#139=IFCSURFACESTYLESHADING(#138,0.7);
#140=IFCSURFACESTYLE('Glass',.BOTH.,(#139));
#141=IFCSTYLEDITEM(#126,(#140),$);
#142=IFCSHAPEREPRESENTATION(#12,'Body','SweptSolid',(#70,#77,#84,#91,#98,#105,#112,#119,#126));
#143=IFCPRODUCTDEFINITIONSHAPE($,$,(#142));
#144=IFCWINDOW('3B1eiaf0XAGbHcl$$VQGex',#5,'Window 1','Clear glazing',$,#63,#143,$,1.2,1.2,.WINDOW.,.SINGLE_PANEL.,$);
#145=IFCRELFILLSELEMENT('3RRFpBfhWsy9P2qTz2kTUA',#5,$,$,#57,#144);
#146=IFCCARTESIANPOINT((-2.197972,-6.95,0.));
#147=IFCDIRECTION((0.,0.,1.));
#148=IFCDIRECTION((-1.,0.,0.));
#149=IFCAXIS2PLACEMENT3D(#146,#147,#148);
#150=IFCLOCALPLACEMENT(#26,#149);
#151=IFCCARTESIANPOINT((0.45,0.));
#152=IFCAXIS2PLACEMENT2D(#151,$);
#153=IFCRECTANGLEPROFILEDEF(.AREA.,$,#152,0.9,0.21);
#154=IFCCARTESIANPOINT((0.,0.,0.));
#155=IFCAXIS2PLACEMENT3D(#154,$,$);
#156=IFCDIRECTION((0.,0.,1.));
#157=IFCEXTRUDEDAREASOLID(#153,#155,#156,2.1);
#158=IFCSHAPEREPRESENTATION(#12,'Body','SweptSolid',(#157));
#159=IFCPRODUCTDEFINITIONSHAPE($,$,(#158));
#160=IFCOPENINGELEMENT('14yIFz0wcZW8Orvq1hqEcP',#5,'Opening (door)',$,$,#150,#159,$,.OPENING.);
#161=IFCRELVOIDSELEMENT('1gpVUmjtEHzk$CyZBgQXT4',#5,$,$,#42,#160);
#162=IFCCARTESIANPOINT((-2.197972,-6.95,0.));
#163=IFCDIRECTION((0.,0.,1.));
#164=IFCDIRECTION((-1.,0.,0.));
#165=IFCAXIS2PLACEMENT3D(#162,#163,#164);
#166=IFCLOCALPLACEMENT(#26,#165);
#167=IFCCARTESIANPOINT((0.0275,0.));
#168=IFCAXIS2PLACEMENT2D(#167,$);
#169=IFCRECTANGLEPROFILEDEF(.AREA.,$,#168,0.055,0.08);
#170=IFCCARTESIANPOINT((0.,0.,0.));
#171=IFCAXIS2PLACEMENT3D(#170,$,$);
#172=IFCDIRECTION((0.,0.,1.));
#173=IFCEXTRUDEDAREASOLID(#169,#171,#172,2.1);
#174=IFCCARTESIANPOINT((0.8725,0.));
#175=IFCAXIS2PLACEMENT2D(#174,$);
#176=IFCRECTANGLEPROFILEDEF(.AREA.,$,#175,0.055,0.08);
#177=IFCCARTESIANPOINT((0.,0.,0.));
#178=IFCAXIS2PLACEMENT3D(#177,$,$);
#179=IFCDIRECTION((0.,0.,1.));
#180=IFCEXTRUDEDAREASOLID(#176,#178,#179,2.1);
#181=IFCCARTESIANPOINT((0.45,0.));
#182=IFCAXIS2PLACEMENT2D(#181,$);
#183=IFCRECTANGLEPROFILEDEF(.AREA.,$,#182,0.79,0.08);
#184=IFCCARTESIANPOINT((0.,0.,2.045));
#185=IFCAXIS2PLACEMENT3D(#184,$,$);
#186=IFCDIRECTION((0.,0.,1.));
#187=IFCEXTRUDEDAREASOLID(#183,#185,#186,0.055);
#188=IFCCARTESIANPOINT((0.45,0.));
#189=IFCAXIS2PLACEMENT2D(#188,$);
#190=IFCRECTANGLEPROFILEDEF(.AREA.,$,#189,0.79,0.06);
#191=IFCCARTESIANPOINT((0.,0.,0.));
#192=IFCAXIS2PLACEMENT3D(#191,$,$);
#193=IFCDIRECTION((0.,0.,1.));
#194=IFCEXTRUDEDAREASOLID(#190,#192,#193,2.045);
#195=IFCSTYLEDITEM(#173,(#129),$);
#196=IFCSTYLEDITEM(#180,(#129),$);
#197=IFCSTYLEDITEM(#187,(#129),$);
#198=IFCCOLOURRGB($,0.690196,0.470588,0.25098);
#199=IFCSURFACESTYLESHADING(#198,0.);
#200=IFCSURFACESTYLE('Door leaf',.BOTH.,(#199));
#201=IFCSTYLEDITEM(#194,(#200),$);
#202=IFCSHAPEREPRESENTATION(#12,'Body','SweptSolid',(#173,#180,#187,#194));
#203=IFCPRODUCTDEFINITIONSHAPE($,$,(#202));
#204=IFCDOOR('0fK1PoT9D4P550RTPv3HVx',#5,'Door 1',$,$,#166,#203,$,2.1,0.9,.DOOR.,.SINGLE_SWING_LEFT.,$);
#205=IFCRELFILLSELEMENT('3Rp2ykZN0gyf046GHUPObu',#5,$,$,#160,#204);
#206=IFCCARTESIANPOINT((0.,0.,0.));
#207=IFCDIRECTION((0.,0.,1.));
#208=IFCDIRECTION((1.,0.,0.));
#209=IFCAXIS2PLACEMENT3D(#206,#207,#208);
#210=IFCLOCALPLACEMENT(#26,#209);
#211=IFCCARTESIANPOINT((-14.175,-6.95));
#212=IFCCARTESIANPOINT((-14.025,-6.95));
#213=IFCCARTESIANPOINT((-14.025,2.725));
#214=IFCCARTESIANPOINT((-14.175,2.875));
#215=IFCPOLYLINE((#211,#212,#213,#214,#211));
#216=IFCARBITRARYCLOSEDPROFILEDEF(.AREA.,$,#215);
#217=IFCCARTESIANPOINT((0.,0.,0.));
#218=IFCAXIS2PLACEMENT3D(#217,$,$);
#219=IFCDIRECTION((0.,0.,1.));
#220=IFCEXTRUDEDAREASOLID(#216,#218,#219,2.7);
#221=IFCSHAPEREPRESENTATION(#12,'Body','SweptSolid',(#220));
#222=IFCPRODUCTDEFINITIONSHAPE($,$,(#221));
#223=IFCWALL('3iIsF8hM39jcYZQ6ijZm3f',#5,'Wall 2',$,$,#210,#222,$,.POLYGONAL.);
#224=IFCCARTESIANPOINT((-14.1,-3.898919,0.9));
#225=IFCDIRECTION((0.,0.,1.));
#226=IFCDIRECTION((0.,1.,0.));
#227=IFCAXIS2PLACEMENT3D(#224,#225,#226);
#228=IFCLOCALPLACEMENT(#26,#227);
#229=IFCCARTESIANPOINT((0.6,0.));
#230=IFCAXIS2PLACEMENT2D(#229,$);
#231=IFCRECTANGLEPROFILEDEF(.AREA.,$,#230,1.2,0.21);
#232=IFCCARTESIANPOINT((0.,0.,0.));
#233=IFCAXIS2PLACEMENT3D(#232,$,$);
#234=IFCDIRECTION((0.,0.,1.));
#235=IFCEXTRUDEDAREASOLID(#231,#233,#234,1.2);
#236=IFCSHAPEREPRESENTATION(#12,'Body','SweptSolid',(#235));
#237=IFCPRODUCTDEFINITIONSHAPE($,$,(#236));
#238=IFCOPENINGELEMENT('0uxpFs_UGZ9e8XGEjNjefW',#5,'Opening (opening)',$,$,#228,#237,$,.OPENING.);
#239=IFCRELVOIDSELEMENT('3ZfJssz8skqzYJRd2kpfyG',#5,$,$,#223,#238);
#240=IFCCARTESIANPOINT((-14.1,-0.337098,0.));
#241=IFCDIRECTION((0.,0.,1.));
#242=IFCDIRECTION((0.,1.,0.));
#243=IFCAXIS2PLACEMENT3D(#240,#241,#242);
#244=IFCLOCALPLACEMENT(#26,#243);
#245=IFCCARTESIANPOINT((0.45,0.));
#246=IFCAXIS2PLACEMENT2D(#245,$);
#247=IFCRECTANGLEPROFILEDEF(.AREA.,$,#246,0.9,0.21);
#248=IFCCARTESIANPOINT((0.,0.,0.));
#249=IFCAXIS2PLACEMENT3D(#248,$,$);
#250=IFCDIRECTION((0.,0.,1.));
#251=IFCEXTRUDEDAREASOLID(#247,#249,#250,2.1);
#252=IFCSHAPEREPRESENTATION(#12,'Body','SweptSolid',(#251));
#253=IFCPRODUCTDEFINITIONSHAPE($,$,(#252));
#254=IFCOPENINGELEMENT('0kj4x$T146hsf6KOrfgtqm',#5,'Opening (door)',$,$,#244,#253,$,.OPENING.);
#255=IFCRELVOIDSELEMENT('3WgxFzuOq1iKCCtYdxXoJR',#5,$,$,#223,#254);
#256=IFCCARTESIANPOINT((-14.1,-0.337098,0.));
#257=IFCDIRECTION((0.,0.,1.));
#258=IFCDIRECTION((0.,1.,0.));
#259=IFCAXIS2PLACEMENT3D(#256,#257,#258);
#260=IFCLOCALPLACEMENT(#26,#259);
#261=IFCCARTESIANPOINT((0.0275,0.));
#262=IFCAXIS2PLACEMENT2D(#261,$);
#263=IFCRECTANGLEPROFILEDEF(.AREA.,$,#262,0.055,0.08);
#264=IFCCARTESIANPOINT((0.,0.,0.));
#265=IFCAXIS2PLACEMENT3D(#264,$,$);
#266=IFCDIRECTION((0.,0.,1.));
#267=IFCEXTRUDEDAREASOLID(#263,#265,#266,2.1);
#268=IFCCARTESIANPOINT((0.8725,0.));
#269=IFCAXIS2PLACEMENT2D(#268,$);
#270=IFCRECTANGLEPROFILEDEF(.AREA.,$,#269,0.055,0.08);
#271=IFCCARTESIANPOINT((0.,0.,0.));
#272=IFCAXIS2PLACEMENT3D(#271,$,$);
#273=IFCDIRECTION((0.,0.,1.));
#274=IFCEXTRUDEDAREASOLID(#270,#272,#273,2.1);
#275=IFCCARTESIANPOINT((0.45,0.));
#276=IFCAXIS2PLACEMENT2D(#275,$);
#277=IFCRECTANGLEPROFILEDEF(.AREA.,$,#276,0.79,0.08);
#278=IFCCARTESIANPOINT((0.,0.,2.045));
#279=IFCAXIS2PLACEMENT3D(#278,$,$);
#280=IFCDIRECTION((0.,0.,1.));
#281=IFCEXTRUDEDAREASOLID(#277,#279,#280,0.055);
#282=IFCCARTESIANPOINT((0.45,0.));
#283=IFCAXIS2PLACEMENT2D(#282,$);
#284=IFCRECTANGLEPROFILEDEF(.AREA.,$,#283,0.79,0.06);
#285=IFCCARTESIANPOINT((0.,0.,0.));
#286=IFCAXIS2PLACEMENT3D(#285,$,$);
#287=IFCDIRECTION((0.,0.,1.));
#288=IFCEXTRUDEDAREASOLID(#284,#286,#287,2.045);
#289=IFCSTYLEDITEM(#267,(#129),$);
#290=IFCSTYLEDITEM(#274,(#129),$);
#291=IFCSTYLEDITEM(#281,(#129),$);
#292=IFCSTYLEDITEM(#288,(#200),$);
#293=IFCSHAPEREPRESENTATION(#12,'Body','SweptSolid',(#267,#274,#281,#288));
#294=IFCPRODUCTDEFINITIONSHAPE($,$,(#293));
#295=IFCDOOR('0aeXRvMshT4eMsdyCeSOIn',#5,'Door 2',$,$,#260,#294,$,2.1,0.9,.DOOR.,.SINGLE_SWING_LEFT.,$);
#296=IFCRELFILLSELEMENT('1Ph4FLBjQGhLkrXDGIzbby',#5,$,$,#254,#295);
#297=IFCCARTESIANPOINT((0.,0.,0.));
#298=IFCDIRECTION((0.,0.,1.));
#299=IFCDIRECTION((1.,0.,0.));
#300=IFCAXIS2PLACEMENT3D(#297,#298,#299);
#301=IFCLOCALPLACEMENT(#26,#300);
#302=IFCCARTESIANPOINT((-14.175,2.875));
#303=IFCCARTESIANPOINT((-14.025,2.725));
#304=IFCCARTESIANPOINT((-0.3,2.725));
#305=IFCCARTESIANPOINT((-0.3,2.875));
#306=IFCPOLYLINE((#302,#303,#304,#305,#302));
#307=IFCARBITRARYCLOSEDPROFILEDEF(.AREA.,$,#306);
#308=IFCCARTESIANPOINT((0.,0.,0.));
#309=IFCAXIS2PLACEMENT3D(#308,$,$);
#310=IFCDIRECTION((0.,0.,1.));
#311=IFCEXTRUDEDAREASOLID(#307,#309,#310,2.7);
#312=IFCSHAPEREPRESENTATION(#12,'Body','SweptSolid',(#311));
#313=IFCPRODUCTDEFINITIONSHAPE($,$,(#312));
#314=IFCWALL('0C5iMkN$xkhugmzZeyCBwz',#5,'Wall 3',$,$,#301,#313,$,.POLYGONAL.);
#315=IFCCARTESIANPOINT((-11.899627,2.8,0.9));
#316=IFCDIRECTION((0.,0.,1.));
#317=IFCDIRECTION((1.,0.,0.));
#318=IFCAXIS2PLACEMENT3D(#315,#316,#317);
#319=IFCLOCALPLACEMENT(#26,#318);
#320=IFCCARTESIANPOINT((1.5,0.));
#321=IFCAXIS2PLACEMENT2D(#320,$);
#322=IFCRECTANGLEPROFILEDEF(.AREA.,$,#321,3.,0.21);
#323=IFCCARTESIANPOINT((0.,0.,0.));
#324=IFCAXIS2PLACEMENT3D(#323,$,$);
#325=IFCDIRECTION((0.,0.,1.));
#326=IFCEXTRUDEDAREASOLID(#322,#324,#325,1.2);
#327=IFCSHAPEREPRESENTATION(#12,'Body','SweptSolid',(#326));
#328=IFCPRODUCTDEFINITIONSHAPE($,$,(#327));
#329=IFCOPENINGELEMENT('22$rIb3veQA2difgW4yqnX',#5,'Opening (window)',$,$,#319,#328,$,.OPENING.);
#330=IFCRELVOIDSELEMENT('1VDj5$n8D1X1fjd2Hi0Vex',#5,$,$,#314,#329);
#331=IFCCARTESIANPOINT((-11.899627,2.8,0.9));
#332=IFCDIRECTION((0.,0.,1.));
#333=IFCDIRECTION((1.,0.,0.));
#334=IFCAXIS2PLACEMENT3D(#331,#332,#333);
#335=IFCLOCALPLACEMENT(#26,#334);
#336=IFCCARTESIANPOINT((0.0275,0.));
#337=IFCAXIS2PLACEMENT2D(#336,$);
#338=IFCRECTANGLEPROFILEDEF(.AREA.,$,#337,0.055,0.08);
#339=IFCCARTESIANPOINT((0.,0.,0.));
#340=IFCAXIS2PLACEMENT3D(#339,$,$);
#341=IFCDIRECTION((0.,0.,1.));
#342=IFCEXTRUDEDAREASOLID(#338,#340,#341,1.2);
#343=IFCCARTESIANPOINT((2.9725,0.));
#344=IFCAXIS2PLACEMENT2D(#343,$);
#345=IFCRECTANGLEPROFILEDEF(.AREA.,$,#344,0.055,0.08);
#346=IFCCARTESIANPOINT((0.,0.,0.));
#347=IFCAXIS2PLACEMENT3D(#346,$,$);
#348=IFCDIRECTION((0.,0.,1.));
#349=IFCEXTRUDEDAREASOLID(#345,#347,#348,1.2);
#350=IFCCARTESIANPOINT((1.5,0.));
#351=IFCAXIS2PLACEMENT2D(#350,$);
#352=IFCRECTANGLEPROFILEDEF(.AREA.,$,#351,2.89,0.08);
#353=IFCCARTESIANPOINT((0.,0.,1.145));
#354=IFCAXIS2PLACEMENT3D(#353,$,$);
#355=IFCDIRECTION((0.,0.,1.));
#356=IFCEXTRUDEDAREASOLID(#352,#354,#355,0.055);
#357=IFCCARTESIANPOINT((1.5,0.));
#358=IFCAXIS2PLACEMENT2D(#357,$);
#359=IFCRECTANGLEPROFILEDEF(.AREA.,$,#358,2.89,0.08);
#360=IFCCARTESIANPOINT((0.,0.,0.));
#361=IFCAXIS2PLACEMENT3D(#360,$,$);
#362=IFCDIRECTION((0.,0.,1.));
#363=IFCEXTRUDEDAREASOLID(#359,#361,#362,0.055);
#364=IFCCARTESIANPOINT((1.009167,0.));
#365=IFCAXIS2PLACEMENT2D(#364,$);
#366=IFCRECTANGLEPROFILEDEF(.AREA.,$,#365,0.055,0.08);
#367=IFCCARTESIANPOINT((0.,0.,0.055));
#368=IFCAXIS2PLACEMENT3D(#367,$,$);
#369=IFCDIRECTION((0.,0.,1.));
#370=IFCEXTRUDEDAREASOLID(#366,#368,#369,1.09);
#371=IFCCARTESIANPOINT((1.990833,0.));
#372=IFCAXIS2PLACEMENT2D(#371,$);
#373=IFCRECTANGLEPROFILEDEF(.AREA.,$,#372,0.055,0.08);
#374=IFCCARTESIANPOINT((0.,0.,0.055));
#375=IFCAXIS2PLACEMENT3D(#374,$,$);
#376=IFCDIRECTION((0.,0.,1.));
#377=IFCEXTRUDEDAREASOLID(#373,#375,#376,1.09);
#378=IFCCARTESIANPOINT((0.074,0.));
#379=IFCAXIS2PLACEMENT2D(#378,$);
#380=IFCRECTANGLEPROFILEDEF(.AREA.,$,#379,0.038,0.08);
#381=IFCCARTESIANPOINT((0.,0.,0.055));
#382=IFCAXIS2PLACEMENT3D(#381,$,$);
#383=IFCDIRECTION((0.,0.,1.));
#384=IFCEXTRUDEDAREASOLID(#380,#382,#383,1.09);
#385=IFCCARTESIANPOINT((0.962667,0.));
#386=IFCAXIS2PLACEMENT2D(#385,$);
#387=IFCRECTANGLEPROFILEDEF(.AREA.,$,#386,0.038,0.08);
#388=IFCCARTESIANPOINT((0.,0.,0.055));
#389=IFCAXIS2PLACEMENT3D(#388,$,$);
#390=IFCDIRECTION((0.,0.,1.));
#391=IFCEXTRUDEDAREASOLID(#387,#389,#390,1.09);
#392=IFCCARTESIANPOINT((0.518333,0.));
#393=IFCAXIS2PLACEMENT2D(#392,$);
#394=IFCRECTANGLEPROFILEDEF(.AREA.,$,#393,0.850667,0.08);
#395=IFCCARTESIANPOINT((0.,0.,1.107));
#396=IFCAXIS2PLACEMENT3D(#395,$,$);
#397=IFCDIRECTION((0.,0.,1.));
#398=IFCEXTRUDEDAREASOLID(#394,#396,#397,0.038);
#399=IFCCARTESIANPOINT((0.518333,0.));
#400=IFCAXIS2PLACEMENT2D(#399,$);
#401=IFCRECTANGLEPROFILEDEF(.AREA.,$,#400,0.850667,0.08);
#402=IFCCARTESIANPOINT((0.,0.,0.055));
#403=IFCAXIS2PLACEMENT3D(#402,$,$);
#404=IFCDIRECTION((0.,0.,1.));
#405=IFCEXTRUDEDAREASOLID(#401,#403,#404,0.038);
#406=IFCCARTESIANPOINT((1.055667,0.));
#407=IFCAXIS2PLACEMENT2D(#406,$);
#408=IFCRECTANGLEPROFILEDEF(.AREA.,$,#407,0.038,0.08);
#409=IFCCARTESIANPOINT((0.,0.,0.055));
#410=IFCAXIS2PLACEMENT3D(#409,$,$);
#411=IFCDIRECTION((0.,0.,1.));
#412=IFCEXTRUDEDAREASOLID(#408,#410,#411,1.09);
#413=IFCCARTESIANPOINT((1.944333,0.));
#414=IFCAXIS2PLACEMENT2D(#413,$);
#415=IFCRECTANGLEPROFILEDEF(.AREA.,$,#414,0.038,0.08);
#416=IFCCARTESIANPOINT((0.,0.,0.055));
#417=IFCAXIS2PLACEMENT3D(#416,$,$);
#418=IFCDIRECTION((0.,0.,1.));
#419=IFCEXTRUDEDAREASOLID(#415,#417,#418,1.09);
#420=IFCCARTESIANPOINT((1.5,0.));
#421=IFCAXIS2PLACEMENT2D(#420,$);
#422=IFCRECTANGLEPROFILEDEF(.AREA.,$,#421,0.850667,0.08);
#423=IFCCARTESIANPOINT((0.,0.,1.107));
#424=IFCAXIS2PLACEMENT3D(#423,$,$);
#425=IFCDIRECTION((0.,0.,1.));
#426=IFCEXTRUDEDAREASOLID(#422,#424,#425,0.038);
#427=IFCCARTESIANPOINT((1.5,0.));
#428=IFCAXIS2PLACEMENT2D(#427,$);
#429=IFCRECTANGLEPROFILEDEF(.AREA.,$,#428,0.850667,0.08);
#430=IFCCARTESIANPOINT((0.,0.,0.055));
#431=IFCAXIS2PLACEMENT3D(#430,$,$);
#432=IFCDIRECTION((0.,0.,1.));
#433=IFCEXTRUDEDAREASOLID(#429,#431,#432,0.038);
#434=IFCCARTESIANPOINT((2.037333,0.));
#435=IFCAXIS2PLACEMENT2D(#434,$);
#436=IFCRECTANGLEPROFILEDEF(.AREA.,$,#435,0.038,0.08);
#437=IFCCARTESIANPOINT((0.,0.,0.055));
#438=IFCAXIS2PLACEMENT3D(#437,$,$);
#439=IFCDIRECTION((0.,0.,1.));
#440=IFCEXTRUDEDAREASOLID(#436,#438,#439,1.09);
#441=IFCCARTESIANPOINT((2.926,0.));
#442=IFCAXIS2PLACEMENT2D(#441,$);
#443=IFCRECTANGLEPROFILEDEF(.AREA.,$,#442,0.038,0.08);
#444=IFCCARTESIANPOINT((0.,0.,0.055));
#445=IFCAXIS2PLACEMENT3D(#444,$,$);
#446=IFCDIRECTION((0.,0.,1.));
#447=IFCEXTRUDEDAREASOLID(#443,#445,#446,1.09);
#448=IFCCARTESIANPOINT((2.481667,0.));
#449=IFCAXIS2PLACEMENT2D(#448,$);
#450=IFCRECTANGLEPROFILEDEF(.AREA.,$,#449,0.850667,0.08);
#451=IFCCARTESIANPOINT((0.,0.,1.107));
#452=IFCAXIS2PLACEMENT3D(#451,$,$);
#453=IFCDIRECTION((0.,0.,1.));
#454=IFCEXTRUDEDAREASOLID(#450,#452,#453,0.038);
#455=IFCCARTESIANPOINT((2.481667,0.));
#456=IFCAXIS2PLACEMENT2D(#455,$);
#457=IFCRECTANGLEPROFILEDEF(.AREA.,$,#456,0.850667,0.08);
#458=IFCCARTESIANPOINT((0.,0.,0.055));
#459=IFCAXIS2PLACEMENT3D(#458,$,$);
#460=IFCDIRECTION((0.,0.,1.));
#461=IFCEXTRUDEDAREASOLID(#457,#459,#460,0.038);
#462=IFCCARTESIANPOINT((0.518333,0.));
#463=IFCAXIS2PLACEMENT2D(#462,$);
#464=IFCRECTANGLEPROFILEDEF(.AREA.,$,#463,0.850667,0.06);
#465=IFCCARTESIANPOINT((0.,0.,0.093));
#466=IFCAXIS2PLACEMENT3D(#465,$,$);
#467=IFCDIRECTION((0.,0.,1.));
#468=IFCEXTRUDEDAREASOLID(#464,#466,#467,1.014);
#469=IFCCARTESIANPOINT((1.5,0.));
#470=IFCAXIS2PLACEMENT2D(#469,$);
#471=IFCRECTANGLEPROFILEDEF(.AREA.,$,#470,0.850667,0.06);
#472=IFCCARTESIANPOINT((0.,0.,0.093));
#473=IFCAXIS2PLACEMENT3D(#472,$,$);
#474=IFCDIRECTION((0.,0.,1.));
#475=IFCEXTRUDEDAREASOLID(#471,#473,#474,1.014);
#476=IFCCARTESIANPOINT((2.481667,0.));
#477=IFCAXIS2PLACEMENT2D(#476,$);
#478=IFCRECTANGLEPROFILEDEF(.AREA.,$,#477,0.850667,0.06);
#479=IFCCARTESIANPOINT((0.,0.,0.093));
#480=IFCAXIS2PLACEMENT3D(#479,$,$);
#481=IFCDIRECTION((0.,0.,1.));
#482=IFCEXTRUDEDAREASOLID(#478,#480,#481,1.014);
#483=IFCSTYLEDITEM(#342,(#129),$);
#484=IFCSTYLEDITEM(#349,(#129),$);
#485=IFCSTYLEDITEM(#356,(#129),$);
#486=IFCSTYLEDITEM(#363,(#129),$);
#487=IFCSTYLEDITEM(#370,(#129),$);
#488=IFCSTYLEDITEM(#377,(#129),$);
#489=IFCSTYLEDITEM(#384,(#129),$);
#490=IFCSTYLEDITEM(#391,(#129),$);
#491=IFCSTYLEDITEM(#398,(#129),$);
#492=IFCSTYLEDITEM(#405,(#129),$);
#493=IFCSTYLEDITEM(#412,(#129),$);
#494=IFCSTYLEDITEM(#419,(#129),$);
#495=IFCSTYLEDITEM(#426,(#129),$);
#496=IFCSTYLEDITEM(#433,(#129),$);
#497=IFCSTYLEDITEM(#440,(#129),$);
#498=IFCSTYLEDITEM(#447,(#129),$);
#499=IFCSTYLEDITEM(#454,(#129),$);
#500=IFCSTYLEDITEM(#461,(#129),$);
#501=IFCCOLOURRGB($,0.866667,0.901961,0.909804);
#502=IFCSURFACESTYLESHADING(#501,0.35);
#503=IFCSURFACESTYLE('Frosted glass',.BOTH.,(#502));
#504=IFCSTYLEDITEM(#468,(#503),$);
#505=IFCSTYLEDITEM(#475,(#503),$);
#506=IFCSTYLEDITEM(#482,(#503),$);
#507=IFCSHAPEREPRESENTATION(#12,'Body','SweptSolid',(#342,#349,#356,#363,#370,#377,#384,#391,#398,#405,#412,#419,#426,#433,#440,#447,#454,#461,#468,#475,#482));
#508=IFCPRODUCTDEFINITIONSHAPE($,$,(#507));
#509=IFCWINDOW('0EitZ$wlw3MH_VpkY98V$b',#5,'Window 2','Frosted glazing',$,#335,#508,$,1.2,3.,.WINDOW.,.TRIPLE_PANEL_VERTICAL.,$);
#510=IFCRELFILLSELEMENT('2M0nNctcbffmgcGetIYk9X',#5,$,$,#329,#509);
#511=IFCCARTESIANPOINT((-0.3,2.8,0.));
#512=IFCDIRECTION((0.,0.,1.));
#513=IFCDIRECTION((0.,-1.,0.));
#514=IFCAXIS2PLACEMENT3D(#511,#512,#513);
#515=IFCLOCALPLACEMENT(#26,#514);
#516=IFCCARTESIANPOINT((4.875,0.));
#517=IFCAXIS2PLACEMENT2D(#516,$);
#518=IFCRECTANGLEPROFILEDEF(.AREA.,$,#517,9.75,0.15);
#519=IFCCARTESIANPOINT((0.,0.,0.));
#520=IFCAXIS2PLACEMENT3D(#519,$,$);
#521=IFCDIRECTION((0.,0.,1.));
#522=IFCEXTRUDEDAREASOLID(#518,#520,#521,2.7);
#523=IFCSHAPEREPRESENTATION(#12,'Body','SweptSolid',(#522));
#524=IFCPRODUCTDEFINITIONSHAPE($,$,(#523));
#525=IFCWALL('2Q65ThQHb_PIdlkRVzQvpT',#5,'Wall 4',$,$,#515,#524,$,.STANDARD.);
#526=IFCCARTESIANPOINT((-0.3,1.284604,0.9));
#527=IFCDIRECTION((0.,0.,1.));
#528=IFCDIRECTION((0.,-1.,0.));
#529=IFCAXIS2PLACEMENT3D(#526,#527,#528);
#530=IFCLOCALPLACEMENT(#26,#529);
#531=IFCCARTESIANPOINT((0.6,0.));
#532=IFCAXIS2PLACEMENT2D(#531,$);
#533=IFCRECTANGLEPROFILEDEF(.AREA.,$,#532,1.2,0.21);
#534=IFCCARTESIANPOINT((0.,0.,0.));
#535=IFCAXIS2PLACEMENT3D(#534,$,$);
#536=IFCDIRECTION((0.,0.,1.));
#537=IFCEXTRUDEDAREASOLID(#533,#535,#536,1.2);
#538=IFCSHAPEREPRESENTATION(#12,'Body','SweptSolid',(#537));
#539=IFCPRODUCTDEFINITIONSHAPE($,$,(#538));
#540=IFCOPENINGELEMENT('1rnaIPRAFtxCb_oH5dVl2c',#5,'Opening (window)',$,$,#530,#539,$,.OPENING.);
#541=IFCRELVOIDSELEMENT('0XAPiqMywPwBnbPKggcvD3',#5,$,$,#525,#540);
#542=IFCCARTESIANPOINT((-0.3,1.284604,0.9));
#543=IFCDIRECTION((0.,0.,1.));
#544=IFCDIRECTION((0.,-1.,0.));
#545=IFCAXIS2PLACEMENT3D(#542,#543,#544);
#546=IFCLOCALPLACEMENT(#26,#545);
#547=IFCCARTESIANPOINT((0.0275,0.));
#548=IFCAXIS2PLACEMENT2D(#547,$);
#549=IFCRECTANGLEPROFILEDEF(.AREA.,$,#548,0.055,0.08);
#550=IFCCARTESIANPOINT((0.,0.,0.));
#551=IFCAXIS2PLACEMENT3D(#550,$,$);
#552=IFCDIRECTION((0.,0.,1.));
#553=IFCEXTRUDEDAREASOLID(#549,#551,#552,1.2);
#554=IFCCARTESIANPOINT((1.1725,0.));
#555=IFCAXIS2PLACEMENT2D(#554,$);
#556=IFCRECTANGLEPROFILEDEF(.AREA.,$,#555,0.055,0.08);
#557=IFCCARTESIANPOINT((0.,0.,0.));
#558=IFCAXIS2PLACEMENT3D(#557,$,$);
#559=IFCDIRECTION((0.,0.,1.));
#560=IFCEXTRUDEDAREASOLID(#556,#558,#559,1.2);
#561=IFCCARTESIANPOINT((0.6,0.));
#562=IFCAXIS2PLACEMENT2D(#561,$);
#563=IFCRECTANGLEPROFILEDEF(.AREA.,$,#562,1.09,0.08);
#564=IFCCARTESIANPOINT((0.,0.,1.145));
#565=IFCAXIS2PLACEMENT3D(#564,$,$);
#566=IFCDIRECTION((0.,0.,1.));
#567=IFCEXTRUDEDAREASOLID(#563,#565,#566,0.055);
#568=IFCCARTESIANPOINT((0.6,0.));
#569=IFCAXIS2PLACEMENT2D(#568,$);
#570=IFCRECTANGLEPROFILEDEF(.AREA.,$,#569,1.09,0.08);
#571=IFCCARTESIANPOINT((0.,0.,0.));
#572=IFCAXIS2PLACEMENT3D(#571,$,$);
#573=IFCDIRECTION((0.,0.,1.));
#574=IFCEXTRUDEDAREASOLID(#570,#572,#573,0.055);
#575=IFCCARTESIANPOINT((0.074,0.));
#576=IFCAXIS2PLACEMENT2D(#575,$);
#577=IFCRECTANGLEPROFILEDEF(.AREA.,$,#576,0.038,0.08);
#578=IFCCARTESIANPOINT((0.,0.,0.055));
#579=IFCAXIS2PLACEMENT3D(#578,$,$);
#580=IFCDIRECTION((0.,0.,1.));
#581=IFCEXTRUDEDAREASOLID(#577,#579,#580,1.09);
#582=IFCCARTESIANPOINT((1.126,0.));
#583=IFCAXIS2PLACEMENT2D(#582,$);
#584=IFCRECTANGLEPROFILEDEF(.AREA.,$,#583,0.038,0.08);
#585=IFCCARTESIANPOINT((0.,0.,0.055));
#586=IFCAXIS2PLACEMENT3D(#585,$,$);
#587=IFCDIRECTION((0.,0.,1.));
#588=IFCEXTRUDEDAREASOLID(#584,#586,#587,1.09);
#589=IFCCARTESIANPOINT((0.6,0.));
#590=IFCAXIS2PLACEMENT2D(#589,$);
#591=IFCRECTANGLEPROFILEDEF(.AREA.,$,#590,1.014,0.08);
#592=IFCCARTESIANPOINT((0.,0.,1.107));
#593=IFCAXIS2PLACEMENT3D(#592,$,$);
#594=IFCDIRECTION((0.,0.,1.));
#595=IFCEXTRUDEDAREASOLID(#591,#593,#594,0.038);
#596=IFCCARTESIANPOINT((0.6,0.));
#597=IFCAXIS2PLACEMENT2D(#596,$);
#598=IFCRECTANGLEPROFILEDEF(.AREA.,$,#597,1.014,0.08);
#599=IFCCARTESIANPOINT((0.,0.,0.055));
#600=IFCAXIS2PLACEMENT3D(#599,$,$);
#601=IFCDIRECTION((0.,0.,1.));
#602=IFCEXTRUDEDAREASOLID(#598,#600,#601,0.038);
#603=IFCCARTESIANPOINT((0.6,0.));
#604=IFCAXIS2PLACEMENT2D(#603,$);
#605=IFCRECTANGLEPROFILEDEF(.AREA.,$,#604,1.014,0.06);
#606=IFCCARTESIANPOINT((0.,0.,0.093));
#607=IFCAXIS2PLACEMENT3D(#606,$,$);
#608=IFCDIRECTION((0.,0.,1.));
#609=IFCEXTRUDEDAREASOLID(#605,#607,#608,1.014);
#610=IFCSTYLEDITEM(#553,(#129),$);
#611=IFCSTYLEDITEM(#560,(#129),$);
#612=IFCSTYLEDITEM(#567,(#129),$);
#613=IFCSTYLEDITEM(#574,(#129),$);
#614=IFCSTYLEDITEM(#581,(#129),$);
#615=IFCSTYLEDITEM(#588,(#129),$);
#616=IFCSTYLEDITEM(#595,(#129),$);
#617=IFCSTYLEDITEM(#602,(#129),$);
#618=IFCSTYLEDITEM(#609,(#140),$);
#619=IFCSHAPEREPRESENTATION(#12,'Body','SweptSolid',(#553,#560,#567,#574,#581,#588,#595,#602,#609));
#620=IFCPRODUCTDEFINITIONSHAPE($,$,(#619));
#621=IFCWINDOW('1eNwa6Ng8fQQZ4KEvXSBEI',#5,'Window 3','Clear glazing',$,#546,#620,$,1.2,1.2,.WINDOW.,.SINGLE_PANEL.,$);
#622=IFCRELFILLSELEMENT('22H8Kijincik2AWtDdvDup',#5,$,$,#540,#621);
#623=IFCCARTESIANPOINT((-0.3,-2.821421,0.));
#624=IFCDIRECTION((0.,0.,1.));
#625=IFCDIRECTION((0.,-1.,0.));
#626=IFCAXIS2PLACEMENT3D(#623,#624,#625);
#627=IFCLOCALPLACEMENT(#26,#626);
#628=IFCCARTESIANPOINT((0.45,0.));
#629=IFCAXIS2PLACEMENT2D(#628,$);
#630=IFCRECTANGLEPROFILEDEF(.AREA.,$,#629,0.9,0.21);
#631=IFCCARTESIANPOINT((0.,0.,0.));
#632=IFCAXIS2PLACEMENT3D(#631,$,$);
#633=IFCDIRECTION((0.,0.,1.));
#634=IFCEXTRUDEDAREASOLID(#630,#632,#633,2.1);
#635=IFCSHAPEREPRESENTATION(#12,'Body','SweptSolid',(#634));
#636=IFCPRODUCTDEFINITIONSHAPE($,$,(#635));
#637=IFCOPENINGELEMENT('0FXW0cZztUpkZ4sVgee08N',#5,'Opening (door)',$,$,#627,#636,$,.OPENING.);
#638=IFCRELVOIDSELEMENT('0tIBTyyTTYyRj1xMysdS$y',#5,$,$,#525,#637);
#639=IFCCARTESIANPOINT((-0.3,-2.821421,0.));
#640=IFCDIRECTION((0.,0.,1.));
#641=IFCDIRECTION((0.,-1.,0.));
#642=IFCAXIS2PLACEMENT3D(#639,#640,#641);
#643=IFCLOCALPLACEMENT(#26,#642);
#644=IFCCARTESIANPOINT((0.0275,0.));
#645=IFCAXIS2PLACEMENT2D(#644,$);
#646=IFCRECTANGLEPROFILEDEF(.AREA.,$,#645,0.055,0.08);
#647=IFCCARTESIANPOINT((0.,0.,0.));
#648=IFCAXIS2PLACEMENT3D(#647,$,$);
#649=IFCDIRECTION((0.,0.,1.));
#650=IFCEXTRUDEDAREASOLID(#646,#648,#649,2.1);
#651=IFCCARTESIANPOINT((0.8725,0.));
#652=IFCAXIS2PLACEMENT2D(#651,$);
#653=IFCRECTANGLEPROFILEDEF(.AREA.,$,#652,0.055,0.08);
#654=IFCCARTESIANPOINT((0.,0.,0.));
#655=IFCAXIS2PLACEMENT3D(#654,$,$);
#656=IFCDIRECTION((0.,0.,1.));
#657=IFCEXTRUDEDAREASOLID(#653,#655,#656,2.1);
#658=IFCCARTESIANPOINT((0.45,0.));
#659=IFCAXIS2PLACEMENT2D(#658,$);
#660=IFCRECTANGLEPROFILEDEF(.AREA.,$,#659,0.79,0.08);
#661=IFCCARTESIANPOINT((0.,0.,2.045));
#662=IFCAXIS2PLACEMENT3D(#661,$,$);
#663=IFCDIRECTION((0.,0.,1.));
#664=IFCEXTRUDEDAREASOLID(#660,#662,#663,0.055);
#665=IFCCARTESIANPOINT((0.45,0.));
#666=IFCAXIS2PLACEMENT2D(#665,$);
#667=IFCRECTANGLEPROFILEDEF(.AREA.,$,#666,0.79,0.06);
#668=IFCCARTESIANPOINT((0.,0.,0.));
#669=IFCAXIS2PLACEMENT3D(#668,$,$);
#670=IFCDIRECTION((0.,0.,1.));
#671=IFCEXTRUDEDAREASOLID(#667,#669,#670,2.045);
#672=IFCSTYLEDITEM(#650,(#129),$);
#673=IFCSTYLEDITEM(#657,(#129),$);
#674=IFCSTYLEDITEM(#664,(#129),$);
#675=IFCSTYLEDITEM(#671,(#200),$);
#676=IFCSHAPEREPRESENTATION(#12,'Body','SweptSolid',(#650,#657,#664,#671));
#677=IFCPRODUCTDEFINITIONSHAPE($,$,(#676));
#678=IFCDOOR('1vPXEWTZ9ItAUKb3u5v3Uq',#5,'Door 3',$,$,#643,#677,$,2.1,0.9,.DOOR.,.SINGLE_SWING_LEFT.,$);
#679=IFCRELFILLSELEMENT('3vJfturfHmZGNhgYhSkgpG',#5,$,$,#637,#678);
#680=IFCCARTESIANPOINT((0.,0.,-0.2));
#681=IFCDIRECTION((0.,0.,1.));
#682=IFCDIRECTION((1.,0.,0.));
#683=IFCAXIS2PLACEMENT3D(#680,#681,#682);
#684=IFCLOCALPLACEMENT(#26,#683);
#685=IFCCARTESIANPOINT((-14.1,2.8));
#686=IFCCARTESIANPOINT((-14.1,-6.95));
#687=IFCCARTESIANPOINT((-0.05,-6.95));
#688=IFCCARTESIANPOINT((-0.3,2.8));
#689=IFCPOLYLINE((#685,#686,#687,#688,#685));
#690=IFCARBITRARYCLOSEDPROFILEDEF(.AREA.,$,#689);
#691=IFCCARTESIANPOINT((0.,0.,0.));
#692=IFCAXIS2PLACEMENT3D(#691,$,$);
#693=IFCDIRECTION((0.,0.,1.));
#694=IFCEXTRUDEDAREASOLID(#690,#692,#693,0.2);
#695=IFCSHAPEREPRESENTATION(#12,'Body','SweptSolid',(#694));
#696=IFCPRODUCTDEFINITIONSHAPE($,$,(#695));
#697=IFCSLAB('1W55RLdAZQ4pn_z7761F6l',#5,'Floor 1',$,$,#684,#696,$,.FLOOR.);
#698=IFCCARTESIANPOINT((0.,0.,-0.2));
#699=IFCDIRECTION((0.,0.,1.));
#700=IFCDIRECTION((1.,0.,0.));
#701=IFCAXIS2PLACEMENT3D(#698,#699,#700);
#702=IFCLOCALPLACEMENT(#26,#701);
#703=IFCCARTESIANPOINT((-4.9,0.65));
#704=IFCCARTESIANPOINT((-5.05,-2.95));
#705=IFCCARTESIANPOINT((-1.75,-3.));
#706=IFCCARTESIANPOINT((-1.8,0.7));
#707=IFCPOLYLINE((#703,#704,#705,#706,#703));
#708=IFCARBITRARYCLOSEDPROFILEDEF(.AREA.,$,#707);
#709=IFCCARTESIANPOINT((0.,0.,0.1));
#710=IFCAXIS2PLACEMENT3D(#709,$,$);
#711=IFCDIRECTION((0.,0.,1.));
#712=IFCEXTRUDEDAREASOLID(#708,#710,#711,0.12);
#713=IFCSHAPEREPRESENTATION(#12,'Body','SweptSolid',(#712));
#714=IFCPRODUCTDEFINITIONSHAPE($,$,(#713));
#715=IFCOPENINGELEMENT('1ukQiqIoGtqHIRL08_znzk',#5,'Recess (100 mm)',$,$,#702,#714,$,.RECESS.);
#716=IFCRELVOIDSELEMENT('25V87vvEXE78lzjEuqkkpr',#5,$,$,#697,#715);
#717=IFCCARTESIANPOINT((8.73296,8.682399));
#718=IFCCARTESIANPOINT((8.73296,-3.017707));
#719=IFCCARTESIANPOINT((12.918711,0.607259));
#720=IFCCARTESIANPOINT((12.918711,5.057432));
#721=IFCPOLYLINE((#717,#718,#719,#720,#717));
#722=IFCARBITRARYCLOSEDPROFILEDEF(.AREA.,$,#721);
#723=IFCCARTESIANPOINT((0.,0.,-4.36648));
#724=IFCDIRECTION((0.499995,-0.002137,0.866025));
#725=IFCDIRECTION((-0.866017,0.003701,0.5));
#726=IFCAXIS2PLACEMENT3D(#723,#724,#725);
#727=IFCDIRECTION((0.,0.,1.));
#728=IFCEXTRUDEDAREASOLID(#722,#726,#727,0.2);
#729=IFCCARTESIANPOINT((-17.104462,-8.682399));
#730=IFCCARTESIANPOINT((-17.104462,3.017707));
#731=IFCCARTESIANPOINT((-12.918711,-0.607259));
#732=IFCCARTESIANPOINT((-12.918711,-5.057432));
#733=IFCPOLYLINE((#729,#730,#731,#732,#729));
#734=IFCCARTESIANPOINT((-16.018464,-3.446815));
#735=IFCCARTESIANPOINT((-15.094712,-3.443396));
#736=IFCCARTESIANPOINT((-15.100634,-2.243407));
#737=IFCCARTESIANPOINT((-16.024386,-2.246826));
#738=IFCPOLYLINE((#734,#735,#736,#737,#734));
#739=IFCARBITRARYPROFILEDEFWITHVOIDS(.AREA.,$,#733,(#738));
#740=IFCCARTESIANPOINT((0.,0.,8.552231));
#741=IFCDIRECTION((-0.499995,0.002137,0.866025));
#742=IFCDIRECTION((0.866017,-0.003701,0.5));
#743=IFCAXIS2PLACEMENT3D(#740,#741,#742);
#744=IFCDIRECTION((0.,0.,1.));
#745=IFCEXTRUDEDAREASOLID(#739,#743,#744,0.2);
#746=IFCCARTESIANPOINT((-10.025571,7.562965));
#747=IFCCARTESIANPOINT((-10.025571,14.812899));
#748=IFCCARTESIANPOINT((-5.83982,11.187932));
#749=IFCPOLYLINE((#746,#747,#748,#746));
#750=IFCARBITRARYCLOSEDPROFILEDEF(.AREA.,$,#749);
#751=IFCCARTESIANPOINT((0.,0.,5.012786));
#752=IFCDIRECTION((-0.002137,-0.499995,0.866025));
#753=IFCDIRECTION((0.003701,0.866017,0.5));
#754=IFCAXIS2PLACEMENT3D(#751,#752,#753);
#755=IFCDIRECTION((0.,0.,1.));
#756=IFCEXTRUDEDAREASOLID(#750,#754,#755,0.2);
#757=IFCCARTESIANPOINT((-3.484548,-7.562965));
#758=IFCCARTESIANPOINT((-3.484548,-14.812899));
#759=IFCCARTESIANPOINT((0.701203,-11.187932));
#760=IFCPOLYLINE((#757,#758,#759,#757));
#761=IFCARBITRARYCLOSEDPROFILEDEF(.AREA.,$,#760);
#762=IFCCARTESIANPOINT((0.,0.,1.742274));
#763=IFCDIRECTION((0.002137,0.499995,0.866025));
#764=IFCDIRECTION((-0.003701,-0.866017,0.5));
#765=IFCAXIS2PLACEMENT3D(#762,#763,#764);
#766=IFCDIRECTION((0.,0.,1.));
#767=IFCEXTRUDEDAREASOLID(#761,#765,#766,0.2);
#768=IFCCOLOURRGB($,0.227451,0.247059,0.270588);
#769=IFCSURFACESTYLESHADING(#768,0.);
#770=IFCSURFACESTYLE('Slate',.BOTH.,(#769));
#771=IFCSTYLEDITEM(#728,(#770),$);
#772=IFCSTYLEDITEM(#745,(#770),$);
#773=IFCSTYLEDITEM(#756,(#770),$);
#774=IFCSTYLEDITEM(#767,(#770),$);
#775=IFCCARTESIANPOINT((0.,0.,2.7));
#776=IFCDIRECTION((0.,0.,1.));
#777=IFCDIRECTION((1.,0.,0.));
#778=IFCAXIS2PLACEMENT3D(#775,#776,#777);
#779=IFCLOCALPLACEMENT(#26,#778);
#780=IFCSHAPEREPRESENTATION(#12,'Body','SweptSolid',(#728,#745,#756,#767));
#781=IFCPRODUCTDEFINITIONSHAPE($,$,(#780));
#782=IFCROOF('1sqPcz9sVvpM0tzgJDsS4w',#5,'Roof 1','Hip, 30° pitch, Slate',$,#779,#781,$,.HIP_ROOF.);
#783=IFCCARTESIANPOINT((0.,0.,2.92));
#784=IFCDIRECTION((0.,0.,1.));
#785=IFCDIRECTION((1.,0.,0.));
#786=IFCAXIS2PLACEMENT3D(#783,#784,#785);
#787=IFCLOCALPLACEMENT(#26,#786);
#788=IFCCARTESIANPOINT((-16.018464,-3.446815));
#789=IFCCARTESIANPOINT((-15.094712,-3.443396));
#790=IFCCARTESIANPOINT((-15.100634,-2.243407));
#791=IFCCARTESIANPOINT((-16.024386,-2.246826));
#792=IFCPOLYLINE((#788,#789,#790,#791,#788));
#793=IFCARBITRARYCLOSEDPROFILEDEF(.AREA.,$,#792);
#794=IFCCARTESIANPOINT((0.,0.,8.012193));
#795=IFCDIRECTION((-0.499995,0.002137,0.866025));
#796=IFCDIRECTION((0.866017,-0.003701,0.5));
#797=IFCAXIS2PLACEMENT3D(#794,#795,#796);
#798=IFCDIRECTION((0.,0.,1.));
#799=IFCEXTRUDEDAREASOLID(#793,#797,#798,0.04);
#800=IFCSTYLEDITEM(#799,(#503),$);
#801=IFCSHAPEREPRESENTATION(#12,'Body','SweptSolid',(#799));
#802=IFCPRODUCTDEFINITIONSHAPE($,$,(#801));
#803=IFCWINDOW('3EIziz$Om0E8SlLQsYxWzb',#5,'Skylight 1','Frosted glazing',$,#787,#802,$,1.2,0.8,.SKYLIGHT.,.SINGLE_PANEL.,$);
#804=IFCCARTESIANPOINT((-12.75,2.6,0.));
#805=IFCDIRECTION((0.,0.,1.));
#806=IFCDIRECTION((1.,0.,0.));
#807=IFCAXIS2PLACEMENT3D(#804,#805,#806);
#808=IFCLOCALPLACEMENT(#26,#807);
#809=IFCCARTESIANPOINT((0.,0.));
#810=IFCAXIS2PLACEMENT2D(#809,$);
#811=IFCCIRCLEPROFILEDEF(.AREA.,$,#810,0.25);
#812=IFCCARTESIANPOINT((0.,0.,0.));
#813=IFCAXIS2PLACEMENT3D(#812,$,$);
#814=IFCDIRECTION((0.,0.,1.));
#815=IFCEXTRUDEDAREASOLID(#811,#813,#814,3.772635);
#816=IFCSHAPEREPRESENTATION(#12,'Body','SweptSolid',(#815));
#817=IFCPRODUCTDEFINITIONSHAPE($,$,(#816));
#818=IFCCHIMNEY('3H_mtPCxCgOwvXgWIrjpi2',#5,'Chimney 1',$,$,#808,#817,$,.NOTDEFINED.);
#819=IFCCARTESIANPOINT((-7.6,-8.65,2.7));
#820=IFCDIRECTION((0.,0.,1.));
#821=IFCDIRECTION((0.004273,0.999991,0.));
#822=IFCAXIS2PLACEMENT3D(#819,#820,#821);
#823=IFCLOCALPLACEMENT(#26,#822);
#824=IFCCARTESIANPOINT((5.850053,0.));
#825=IFCAXIS2PLACEMENT2D(#824,$);
#826=IFCRECTANGLEPROFILEDEF(.AREA.,$,#825,11.700107,0.08);
#827=IFCCARTESIANPOINT((0.,0.,0.));
#828=IFCAXIS2PLACEMENT3D(#827,$,$);
#829=IFCDIRECTION((0.,0.,1.));
#830=IFCEXTRUDEDAREASOLID(#826,#828,#829,0.08);
#831=IFCCOLOURRGB($,0.709804,0.721569,0.737255);
#832=IFCSURFACESTYLESHADING(#831,0.);
#833=IFCSURFACESTYLE('Gutter',.BOTH.,(#832));
#834=IFCSTYLEDITEM(#830,(#833),$);
#835=IFCSHAPEREPRESENTATION(#12,'Body','SweptSolid',(#830));
#836=IFCPRODUCTDEFINITIONSHAPE($,$,(#835));
#837=IFCBUILDINGELEMENTPROXY('35dduKbDJZdmSU1YocpCgh',#5,'Gutter 1',$,$,#823,#836,$,.NOTDEFINED.);
#838=IFCCARTESIANPOINT((-7.55,3.05,2.7));
#839=IFCDIRECTION((0.,0.,1.));
#840=IFCDIRECTION((-0.999991,0.004273,0.));
#841=IFCAXIS2PLACEMENT3D(#838,#839,#840);
#842=IFCLOCALPLACEMENT(#26,#841);
#843=IFCCARTESIANPOINT((3.624967,0.));
#844=IFCAXIS2PLACEMENT2D(#843,$);
#845=IFCRECTANGLEPROFILEDEF(.AREA.,$,#844,7.249934,0.08);
#846=IFCCARTESIANPOINT((0.,0.,0.));
#847=IFCAXIS2PLACEMENT3D(#846,$,$);
#848=IFCDIRECTION((0.,0.,1.));
#849=IFCEXTRUDEDAREASOLID(#845,#847,#848,0.08);
#850=IFCSTYLEDITEM(#849,(#833),$);
#851=IFCSHAPEREPRESENTATION(#12,'Body','SweptSolid',(#849));
#852=IFCPRODUCTDEFINITIONSHAPE($,$,(#851));
#853=IFCBUILDINGELEMENTPROXY('1pMuNeebQ3rLm4QyXKmVtg',#5,'Gutter 2',$,$,#842,#852,$,.NOTDEFINED.);
#854=IFCCARTESIANPOINT((-14.799868,3.080982,2.7));
#855=IFCDIRECTION((0.,0.,1.));
#856=IFCDIRECTION((-0.004273,-0.999991,0.));
#857=IFCAXIS2PLACEMENT3D(#854,#855,#856);
#858=IFCLOCALPLACEMENT(#26,#857);
#859=IFCCARTESIANPOINT((5.850053,0.));
#860=IFCAXIS2PLACEMENT2D(#859,$);
#861=IFCRECTANGLEPROFILEDEF(.AREA.,$,#860,11.700107,0.08);
#862=IFCCARTESIANPOINT((0.,0.,0.));
#863=IFCAXIS2PLACEMENT3D(#862,$,$);
#864=IFCDIRECTION((0.,0.,1.));
#865=IFCEXTRUDEDAREASOLID(#861,#863,#864,0.08);
#866=IFCSTYLEDITEM(#865,(#833),$);
#867=IFCSHAPEREPRESENTATION(#12,'Body','SweptSolid',(#865));
#868=IFCPRODUCTDEFINITIONSHAPE($,$,(#867));
#869=IFCBUILDINGELEMENTPROXY('1TMsH$sLyuUPmjthXDw96k',#5,'Gutter 3',$,$,#858,#868,$,.NOTDEFINED.);
#870=IFCCARTESIANPOINT((-14.849868,-8.619018,2.7));
#871=IFCDIRECTION((0.,0.,1.));
#872=IFCDIRECTION((0.999991,-0.004273,0.));
#873=IFCAXIS2PLACEMENT3D(#870,#871,#872);
#874=IFCLOCALPLACEMENT(#26,#873);
#875=IFCCARTESIANPOINT((3.624967,0.));
#876=IFCAXIS2PLACEMENT2D(#875,$);
#877=IFCRECTANGLEPROFILEDEF(.AREA.,$,#876,7.249934,0.08);
#878=IFCCARTESIANPOINT((0.,0.,0.));
#879=IFCAXIS2PLACEMENT3D(#878,$,$);
#880=IFCDIRECTION((0.,0.,1.));
#881=IFCEXTRUDEDAREASOLID(#877,#879,#880,0.08);
#882=IFCSTYLEDITEM(#881,(#833),$);
#883=IFCSHAPEREPRESENTATION(#12,'Body','SweptSolid',(#881));
#884=IFCPRODUCTDEFINITIONSHAPE($,$,(#883));
#885=IFCBUILDINGELEMENTPROXY('1DMp2OU6euSmNrrPakKOPV',#5,'Gutter 4',$,$,#874,#884,$,.NOTDEFINED.);
#886=IFCCARTESIANPOINT((-7.6,-8.65,0.));
#887=IFCDIRECTION((0.,0.,1.));
#888=IFCDIRECTION((1.,0.,0.));
#889=IFCAXIS2PLACEMENT3D(#886,#887,#888);
#890=IFCLOCALPLACEMENT(#26,#889);
#891=IFCCARTESIANPOINT((0.,0.));
#892=IFCAXIS2PLACEMENT2D(#891,$);
#893=IFCCIRCLEPROFILEDEF(.AREA.,$,#892,0.04);
#894=IFCCARTESIANPOINT((0.,0.,0.));
#895=IFCAXIS2PLACEMENT3D(#894,$,$);
#896=IFCDIRECTION((0.,0.,1.));
#897=IFCEXTRUDEDAREASOLID(#893,#895,#896,2.7);
#898=IFCSTYLEDITEM(#897,(#833),$);
#899=IFCSHAPEREPRESENTATION(#12,'Body','SweptSolid',(#897));
#900=IFCPRODUCTDEFINITIONSHAPE($,$,(#899));
#901=IFCBUILDINGELEMENTPROXY('1FupDDIGXPhoDBaSZtqRvF',#5,'Downpipe 1',$,$,#890,#900,$,.NOTDEFINED.);
#902=IFCCARTESIANPOINT((-7.55,3.05,0.));
#903=IFCDIRECTION((0.,0.,1.));
#904=IFCDIRECTION((1.,0.,0.));
#905=IFCAXIS2PLACEMENT3D(#902,#903,#904);
#906=IFCLOCALPLACEMENT(#26,#905);
#907=IFCCARTESIANPOINT((0.,0.));
#908=IFCAXIS2PLACEMENT2D(#907,$);
#909=IFCCIRCLEPROFILEDEF(.AREA.,$,#908,0.04);
#910=IFCCARTESIANPOINT((0.,0.,0.));
#911=IFCAXIS2PLACEMENT3D(#910,$,$);
#912=IFCDIRECTION((0.,0.,1.));
#913=IFCEXTRUDEDAREASOLID(#909,#911,#912,2.7);
#914=IFCSTYLEDITEM(#913,(#833),$);
#915=IFCSHAPEREPRESENTATION(#12,'Body','SweptSolid',(#913));
#916=IFCPRODUCTDEFINITIONSHAPE($,$,(#915));
#917=IFCBUILDINGELEMENTPROXY('3nzIFEgdwa5Bei8K$kW8yX',#5,'Downpipe 2',$,$,#906,#916,$,.NOTDEFINED.);
#918=IFCCARTESIANPOINT((-14.799868,3.080982,0.));
#919=IFCDIRECTION((0.,0.,1.));
#920=IFCDIRECTION((1.,0.,0.));
#921=IFCAXIS2PLACEMENT3D(#918,#919,#920);
#922=IFCLOCALPLACEMENT(#26,#921);
#923=IFCCARTESIANPOINT((0.,0.));
#924=IFCAXIS2PLACEMENT2D(#923,$);
#925=IFCCIRCLEPROFILEDEF(.AREA.,$,#924,0.04);
#926=IFCCARTESIANPOINT((0.,0.,0.));
#927=IFCAXIS2PLACEMENT3D(#926,$,$);
#928=IFCDIRECTION((0.,0.,1.));
#929=IFCEXTRUDEDAREASOLID(#925,#927,#928,2.7);
#930=IFCSTYLEDITEM(#929,(#833),$);
#931=IFCSHAPEREPRESENTATION(#12,'Body','SweptSolid',(#929));
#932=IFCPRODUCTDEFINITIONSHAPE($,$,(#931));
#933=IFCBUILDINGELEMENTPROXY('05Vb0uWIW6zGH5P4$FVQJo',#5,'Downpipe 3',$,$,#922,#932,$,.NOTDEFINED.);
#934=IFCCARTESIANPOINT((-14.849868,-8.619018,0.));
#935=IFCDIRECTION((0.,0.,1.));
#936=IFCDIRECTION((1.,0.,0.));
#937=IFCAXIS2PLACEMENT3D(#934,#935,#936);
#938=IFCLOCALPLACEMENT(#26,#937);
#939=IFCCARTESIANPOINT((0.,0.));
#940=IFCAXIS2PLACEMENT2D(#939,$);
#941=IFCCIRCLEPROFILEDEF(.AREA.,$,#940,0.04);
#942=IFCCARTESIANPOINT((0.,0.,0.));
#943=IFCAXIS2PLACEMENT3D(#942,$,$);
#944=IFCDIRECTION((0.,0.,1.));
#945=IFCEXTRUDEDAREASOLID(#941,#943,#944,2.7);
#946=IFCSTYLEDITEM(#945,(#833),$);
#947=IFCSHAPEREPRESENTATION(#12,'Body','SweptSolid',(#945));
#948=IFCPRODUCTDEFINITIONSHAPE($,$,(#947));
#949=IFCBUILDINGELEMENTPROXY('1MzXUbsQPmTXvU4_EzPyhM',#5,'Downpipe 4',$,$,#938,#948,$,.NOTDEFINED.);
#950=IFCCARTESIANPOINT((12.085116,4.932271));
#951=IFCCARTESIANPOINT((9.544798,4.92287));
#952=IFCCARTESIANPOINT((9.565523,0.722908));
#953=IFCCARTESIANPOINT((12.105841,0.73231));
#954=IFCPOLYLINE((#950,#951,#952,#953,#950));
#955=IFCARBITRARYCLOSEDPROFILEDEF(.AREA.,$,#954);
#956=IFCCARTESIANPOINT((0.,0.,-4.772399));
#957=IFCDIRECTION((0.499995,-0.002137,0.866025));
#958=IFCDIRECTION((-0.866017,0.003701,0.5));
#959=IFCAXIS2PLACEMENT3D(#956,#957,#958);
#960=IFCDIRECTION((0.,0.,1.));
#961=IFCEXTRUDEDAREASOLID(#955,#959,#960,0.04);
#962=IFCCOLOURRGB($,0.047059,0.101961,0.180392);
#963=IFCSURFACESTYLESHADING(#962,0.);
#964=IFCSURFACESTYLE('Solar panel',.BOTH.,(#963));
#965=IFCSTYLEDITEM(#961,(#964),$);
#966=IFCCARTESIANPOINT((0.,0.,2.92));
#967=IFCDIRECTION((0.,0.,1.));
#968=IFCDIRECTION((1.,0.,0.));
#969=IFCAXIS2PLACEMENT3D(#966,#967,#968);
#970=IFCLOCALPLACEMENT(#26,#969);
#971=IFCSHAPEREPRESENTATION(#12,'Body','SweptSolid',(#961));
#972=IFCPRODUCTDEFINITIONSHAPE($,$,(#971));
#973=IFCBUILDINGELEMENTPROXY('37olfGaHTbfjdP0eciSva9',#5,'Solar array 1','2×2 panels (4 total)',$,#970,#972,$,.NOTDEFINED.);
#974=IFCCARTESIANPOINT((-3.9,-5.5,0.));
#975=IFCDIRECTION((0.,0.,1.));
#976=IFCDIRECTION((1.,0.,0.));
#977=IFCAXIS2PLACEMENT3D(#974,#975,#976);
#978=IFCLOCALPLACEMENT(#26,#977);
#979=IFCCARTESIANPOINT((0.,-0.152213));
#980=IFCCARTESIANPOINT((2.9,0.347787));
#981=IFCCARTESIANPOINT((2.9,0.5));
#982=IFCCARTESIANPOINT((0.,0.));
#983=IFCPOLYLINE((#979,#980,#981,#982,#979));
#984=IFCARBITRARYCLOSEDPROFILEDEF(.AREA.,$,#983);
#985=IFCCARTESIANPOINT((0.,0.6,0.));
#986=IFCDIRECTION((0.,-1.,0.));
#987=IFCDIRECTION((1.,0.,0.));
#988=IFCAXIS2PLACEMENT3D(#985,#986,#987);
#989=IFCDIRECTION((0.,0.,1.));
#990=IFCEXTRUDEDAREASOLID(#984,#988,#989,1.2);
#991=IFCSHAPEREPRESENTATION(#12,'Body','SweptSolid',(#990));
#992=IFCPRODUCTDEFINITIONSHAPE($,$,(#991));
#993=IFCRAMP('05T24MrS0Xm4BM3fnMU2IX',#5,'Ramp 1','500 mm rise over 2.90 m (17%)',$,#978,#992,$,.STRAIGHT_RUN_RAMP.);
#994=IFCCARTESIANPOINT((0.,0.575));
#995=IFCAXIS2PLACEMENT2D(#994,$);
#996=IFCRECTANGLEPROFILEDEF(.AREA.,$,#995,0.05,0.05);
#997=IFCCARTESIANPOINT((0.,0.,0.));
#998=IFCAXIS2PLACEMENT3D(#997,$,$);
#999=IFCDIRECTION((0.,0.,1.));
#1000=IFCEXTRUDEDAREASOLID(#996,#998,#999,0.85);
#1001=IFCCARTESIANPOINT((1.45,0.575));
#1002=IFCAXIS2PLACEMENT2D(#1001,$);
#1003=IFCRECTANGLEPROFILEDEF(.AREA.,$,#1002,0.05,0.05);
#1004=IFCCARTESIANPOINT((0.,0.,0.25));
#1005=IFCAXIS2PLACEMENT3D(#1004,$,$);
#1006=IFCDIRECTION((0.,0.,1.));
#1007=IFCEXTRUDEDAREASOLID(#1003,#1005,#1006,0.85);
#1008=IFCCARTESIANPOINT((2.9,0.575));
#1009=IFCAXIS2PLACEMENT2D(#1008,$);
#1010=IFCRECTANGLEPROFILEDEF(.AREA.,$,#1009,0.05,0.05);
#1011=IFCCARTESIANPOINT((0.,0.,0.5));
#1012=IFCAXIS2PLACEMENT3D(#1011,$,$);
#1013=IFCDIRECTION((0.,0.,1.));
#1014=IFCEXTRUDEDAREASOLID(#1010,#1012,#1013,0.85);
#1015=IFCCARTESIANPOINT((0.,0.85));
#1016=IFCCARTESIANPOINT((2.9,1.35));
#1017=IFCCARTESIANPOINT((2.9,1.4));
#1018=IFCCARTESIANPOINT((0.,0.9));
#1019=IFCPOLYLINE((#1015,#1016,#1017,#1018,#1015));
#1020=IFCARBITRARYCLOSEDPROFILEDEF(.AREA.,$,#1019);
#1021=IFCCARTESIANPOINT((0.,0.6,0.));
#1022=IFCDIRECTION((0.,-1.,0.));
#1023=IFCDIRECTION((1.,0.,0.));
#1024=IFCAXIS2PLACEMENT3D(#1021,#1022,#1023);
#1025=IFCDIRECTION((0.,0.,1.));
#1026=IFCEXTRUDEDAREASOLID(#1020,#1024,#1025,0.05);
#1027=IFCCARTESIANPOINT((0.,0.77));
#1028=IFCCARTESIANPOINT((2.9,1.27));
#1029=IFCCARTESIANPOINT((2.9,1.3));
#1030=IFCCARTESIANPOINT((0.,0.8));
#1031=IFCPOLYLINE((#1027,#1028,#1029,#1030,#1027));
#1032=IFCARBITRARYCLOSEDPROFILEDEF(.AREA.,$,#1031);
#1033=IFCCARTESIANPOINT((0.,0.59,0.));
#1034=IFCDIRECTION((0.,-1.,0.));
#1035=IFCDIRECTION((1.,0.,0.));
#1036=IFCAXIS2PLACEMENT3D(#1033,#1034,#1035);
#1037=IFCDIRECTION((0.,0.,1.));
#1038=IFCEXTRUDEDAREASOLID(#1032,#1036,#1037,0.03);
#1039=IFCCARTESIANPOINT((0.,0.67));
#1040=IFCCARTESIANPOINT((2.9,1.17));
#1041=IFCCARTESIANPOINT((2.9,1.2));
#1042=IFCCARTESIANPOINT((0.,0.7));
#1043=IFCPOLYLINE((#1039,#1040,#1041,#1042,#1039));
#1044=IFCARBITRARYCLOSEDPROFILEDEF(.AREA.,$,#1043);
#1045=IFCCARTESIANPOINT((0.,0.59,0.));
#1046=IFCDIRECTION((0.,-1.,0.));
#1047=IFCDIRECTION((1.,0.,0.));
#1048=IFCAXIS2PLACEMENT3D(#1045,#1046,#1047);
#1049=IFCDIRECTION((0.,0.,1.));
#1050=IFCEXTRUDEDAREASOLID(#1044,#1048,#1049,0.03);
#1051=IFCCARTESIANPOINT((0.,0.57));
#1052=IFCCARTESIANPOINT((2.9,1.07));
#1053=IFCCARTESIANPOINT((2.9,1.1));
#1054=IFCCARTESIANPOINT((0.,0.6));
#1055=IFCPOLYLINE((#1051,#1052,#1053,#1054,#1051));
#1056=IFCARBITRARYCLOSEDPROFILEDEF(.AREA.,$,#1055);
#1057=IFCCARTESIANPOINT((0.,0.59,0.));
#1058=IFCDIRECTION((0.,-1.,0.));
#1059=IFCDIRECTION((1.,0.,0.));
#1060=IFCAXIS2PLACEMENT3D(#1057,#1058,#1059);
#1061=IFCDIRECTION((0.,0.,1.));
#1062=IFCEXTRUDEDAREASOLID(#1056,#1060,#1061,0.03);
#1063=IFCCARTESIANPOINT((0.,0.47));
#1064=IFCCARTESIANPOINT((2.9,0.97));
#1065=IFCCARTESIANPOINT((2.9,1.));
#1066=IFCCARTESIANPOINT((0.,0.5));
#1067=IFCPOLYLINE((#1063,#1064,#1065,#1066,#1063));
#1068=IFCARBITRARYCLOSEDPROFILEDEF(.AREA.,$,#1067);
#1069=IFCCARTESIANPOINT((0.,0.59,0.));
#1070=IFCDIRECTION((0.,-1.,0.));
#1071=IFCDIRECTION((1.,0.,0.));
#1072=IFCAXIS2PLACEMENT3D(#1069,#1070,#1071);
#1073=IFCDIRECTION((0.,0.,1.));
#1074=IFCEXTRUDEDAREASOLID(#1068,#1072,#1073,0.03);
#1075=IFCCARTESIANPOINT((0.,0.37));
#1076=IFCCARTESIANPOINT((2.9,0.87));
#1077=IFCCARTESIANPOINT((2.9,0.9));
#1078=IFCCARTESIANPOINT((0.,0.4));
#1079=IFCPOLYLINE((#1075,#1076,#1077,#1078,#1075));
#1080=IFCARBITRARYCLOSEDPROFILEDEF(.AREA.,$,#1079);
#1081=IFCCARTESIANPOINT((0.,0.59,0.));
#1082=IFCDIRECTION((0.,-1.,0.));
#1083=IFCDIRECTION((1.,0.,0.));
#1084=IFCAXIS2PLACEMENT3D(#1081,#1082,#1083);
#1085=IFCDIRECTION((0.,0.,1.));
#1086=IFCEXTRUDEDAREASOLID(#1080,#1084,#1085,0.03);
#1087=IFCCARTESIANPOINT((0.,0.27));
#1088=IFCCARTESIANPOINT((2.9,0.77));
#1089=IFCCARTESIANPOINT((2.9,0.8));
#1090=IFCCARTESIANPOINT((0.,0.3));
#1091=IFCPOLYLINE((#1087,#1088,#1089,#1090,#1087));
#1092=IFCARBITRARYCLOSEDPROFILEDEF(.AREA.,$,#1091);
#1093=IFCCARTESIANPOINT((0.,0.59,0.));
#1094=IFCDIRECTION((0.,-1.,0.));
#1095=IFCDIRECTION((1.,0.,0.));
#1096=IFCAXIS2PLACEMENT3D(#1093,#1094,#1095);
#1097=IFCDIRECTION((0.,0.,1.));
#1098=IFCEXTRUDEDAREASOLID(#1092,#1096,#1097,0.03);
#1099=IFCCARTESIANPOINT((0.,0.17));
#1100=IFCCARTESIANPOINT((2.9,0.67));
#1101=IFCCARTESIANPOINT((2.9,0.7));
#1102=IFCCARTESIANPOINT((0.,0.2));
#1103=IFCPOLYLINE((#1099,#1100,#1101,#1102,#1099));
#1104=IFCARBITRARYCLOSEDPROFILEDEF(.AREA.,$,#1103);
#1105=IFCCARTESIANPOINT((0.,0.59,0.));
#1106=IFCDIRECTION((0.,-1.,0.));
#1107=IFCDIRECTION((1.,0.,0.));
#1108=IFCAXIS2PLACEMENT3D(#1105,#1106,#1107);
#1109=IFCDIRECTION((0.,0.,1.));
#1110=IFCEXTRUDEDAREASOLID(#1104,#1108,#1109,0.03);
#1111=IFCCARTESIANPOINT((0.,0.07));
#1112=IFCCARTESIANPOINT((2.9,0.57));
#1113=IFCCARTESIANPOINT((2.9,0.6));
#1114=IFCCARTESIANPOINT((0.,0.1));
#1115=IFCPOLYLINE((#1111,#1112,#1113,#1114,#1111));
#1116=IFCARBITRARYCLOSEDPROFILEDEF(.AREA.,$,#1115);
#1117=IFCCARTESIANPOINT((0.,0.59,0.));
#1118=IFCDIRECTION((0.,-1.,0.));
#1119=IFCDIRECTION((1.,0.,0.));
#1120=IFCAXIS2PLACEMENT3D(#1117,#1118,#1119);
#1121=IFCDIRECTION((0.,0.,1.));
#1122=IFCEXTRUDEDAREASOLID(#1116,#1120,#1121,0.03);
#1123=IFCCOLOURRGB($,0.117647,0.141176,0.376471);
#1124=IFCSURFACESTYLESHADING(#1123,0.);
#1125=IFCSURFACESTYLE('Signal blue',.BOTH.,(#1124));
#1126=IFCSTYLEDITEM(#1000,(#1125),$);
#1127=IFCSTYLEDITEM(#1007,(#1125),$);
#1128=IFCSTYLEDITEM(#1014,(#1125),$);
#1129=IFCSTYLEDITEM(#1026,(#1125),$);
#1130=IFCSTYLEDITEM(#1038,(#1125),$);
#1131=IFCSTYLEDITEM(#1050,(#1125),$);
#1132=IFCSTYLEDITEM(#1062,(#1125),$);
#1133=IFCSTYLEDITEM(#1074,(#1125),$);
#1134=IFCSTYLEDITEM(#1086,(#1125),$);
#1135=IFCSTYLEDITEM(#1098,(#1125),$);
#1136=IFCSTYLEDITEM(#1110,(#1125),$);
#1137=IFCSTYLEDITEM(#1122,(#1125),$);
#1138=IFCCARTESIANPOINT((-3.9,-5.5,0.));
#1139=IFCDIRECTION((0.,0.,1.));
#1140=IFCDIRECTION((1.,0.,0.));
#1141=IFCAXIS2PLACEMENT3D(#1138,#1139,#1140);
#1142=IFCLOCALPLACEMENT(#26,#1141);
#1143=IFCSHAPEREPRESENTATION(#12,'Body','SweptSolid',(#1000,#1007,#1014,#1026,#1038,#1050,#1062,#1074,#1086,#1098,#1110,#1122));
#1144=IFCPRODUCTDEFINITIONSHAPE($,$,(#1143));
#1145=IFCRAILING('38wPLgl8suiijUJDUR0_wL',#5,'Ramp railing 1','Signal blue',$,#1142,#1144,$,.HANDRAIL.);
#1146=IFCCARTESIANPOINT((0.,0.,0.));
#1147=IFCDIRECTION((0.,0.,1.));
#1148=IFCDIRECTION((1.,0.,0.));
#1149=IFCAXIS2PLACEMENT3D(#1146,#1147,#1148);
#1150=IFCLOCALPLACEMENT(#26,#1149);
#1151=IFCCARTESIANPOINT((-3.6,-2.1));
#1152=IFCCARTESIANPOINT((-4.65,-2.6));
#1153=IFCCARTESIANPOINT((-2.35,-2.55));
#1154=IFCCARTESIANPOINT((-2.3,-0.85));
#1155=IFCCARTESIANPOINT((-4.4,-1.15));
#1156=IFCPOLYLINE((#1151,#1152,#1153,#1154,#1155,#1151));
#1157=IFCARBITRARYCLOSEDPROFILEDEF(.AREA.,$,#1156);
#1158=IFCCARTESIANPOINT((0.,0.,0.));
#1159=IFCAXIS2PLACEMENT3D(#1158,$,$);
#1160=IFCDIRECTION((0.,0.,1.));
#1161=IFCEXTRUDEDAREASOLID(#1157,#1159,#1160,0.012);
#1162=IFCCOLOURRGB($,0.364706,0.607843,0.607843);
#1163=IFCSURFACESTYLESHADING(#1162,0.);
#1164=IFCSURFACESTYLE('tile',.BOTH.,(#1163));
#1165=IFCSTYLEDITEM(#1161,(#1164),$);
#1166=IFCSHAPEREPRESENTATION(#12,'Body','SweptSolid',(#1161));
#1167=IFCPRODUCTDEFINITIONSHAPE($,$,(#1166));
#1168=IFCCOVERING('0Dg8U6v8pg0azJisZi_NiO',#5,'Floor finish 1 (tile)','Pastel blue tile, 12 mm',$,#1150,#1167,$,.FLOORING.);
#1169=IFCPROPERTYSINGLEVALUE('Material',$,IFCTEXT('tile'),$);
#1170=IFCPROPERTYSINGLEVALUE('TilePattern',$,IFCTEXT('grid'),$);
#1171=IFCPROPERTYSINGLEVALUE('TileWidth',$,IFCTEXT('200 mm'),$);
#1172=IFCPROPERTYSINGLEVALUE('TileHeight',$,IFCTEXT('200 mm'),$);
#1173=IFCPROPERTYSINGLEVALUE('JointWidth',$,IFCTEXT('3 mm'),$);
#1174=IFCPROPERTYSINGLEVALUE('TileColour',$,IFCTEXT('#5D9B9B'),$);
#1175=IFCPROPERTYSINGLEVALUE('ReliefDepth',$,IFCTEXT('3 mm'),$);
#1176=IFCPROPERTYSET('3U4J_XzkK7DVgsJwNzrsIV',#5,'Pset_SkannaFinish','Surface finish specification (Skanna)',(#1169,#1170,#1171,#1172,#1173,#1174,#1175));
#1177=IFCRELDEFINESBYPROPERTIES('3k3g9IsefI9eUent4SDbdS',#5,$,$,(#1168),#1176);
#1178=IFCCARTESIANPOINT((0.,0.,0.));
#1179=IFCDIRECTION((0.,0.,1.));
#1180=IFCDIRECTION((1.,0.,0.));
#1181=IFCAXIS2PLACEMENT3D(#1178,#1179,#1180);
#1182=IFCLOCALPLACEMENT(#26,#1181);
#1183=IFCCARTESIANPOINT((-6.09,2.875));
#1184=IFCCARTESIANPOINT((-1.86,2.875));
#1185=IFCCARTESIANPOINT((-1.86,2.883));
#1186=IFCCARTESIANPOINT((-6.09,2.883));
#1187=IFCPOLYLINE((#1183,#1184,#1185,#1186,#1183));
#1188=IFCARBITRARYCLOSEDPROFILEDEF(.AREA.,$,#1187);
#1189=IFCCARTESIANPOINT((0.,0.,0.9));
#1190=IFCAXIS2PLACEMENT3D(#1189,$,$);
#1191=IFCDIRECTION((0.,0.,1.));
#1192=IFCEXTRUDEDAREASOLID(#1188,#1190,#1191,0.6);
#1193=IFCCOLOURRGB($,0.847059,0.831373,0.8);
#1194=IFCSURFACESTYLESHADING(#1193,0.);
#1195=IFCSURFACESTYLE('concrete',.BOTH.,(#1194));
#1196=IFCSTYLEDITEM(#1192,(#1195),$);
#1197=IFCSHAPEREPRESENTATION(#12,'Body','SweptSolid',(#1192));
#1198=IFCPRODUCTDEFINITIONSHAPE($,$,(#1197));
#1199=IFCCOVERING('0iGssGMMAAobtZe6FyaraU',#5,'Wall finish 1 (concrete)','concrete, 8 mm',$,#1182,#1198,$,.CLADDING.);
#1200=IFCRELCOVERSBLDGELEMENTS('02wPp7ahFWI9S599DwkyLi',#5,$,$,#314,(#1199));
#1201=IFCCARTESIANPOINT((0.,0.,0.));
#1202=IFCDIRECTION((0.,0.,1.));
#1203=IFCDIRECTION((1.,0.,0.));
#1204=IFCAXIS2PLACEMENT3D(#1201,#1202,#1203);
#1205=IFCLOCALPLACEMENT(#26,#1204);
#1206=IFCCARTESIANPOINT((-0.225,2.55));
#1207=IFCCARTESIANPOINT((-0.225,1.58));
#1208=IFCCARTESIANPOINT((-0.217,1.58));
#1209=IFCCARTESIANPOINT((-0.217,2.55));
#1210=IFCPOLYLINE((#1206,#1207,#1208,#1209,#1206));
#1211=IFCARBITRARYCLOSEDPROFILEDEF(.AREA.,$,#1210);
#1212=IFCCARTESIANPOINT((0.,0.,0.9));
#1213=IFCAXIS2PLACEMENT3D(#1212,$,$);
#1214=IFCDIRECTION((0.,0.,1.));
#1215=IFCEXTRUDEDAREASOLID(#1211,#1213,#1214,0.6);
#1216=IFCCOLOURRGB($,0.615686,0.309804,0.235294);
#1217=IFCSURFACESTYLESHADING(#1216,0.);
#1218=IFCSURFACESTYLE('brick',.BOTH.,(#1217));
#1219=IFCSTYLEDITEM(#1215,(#1218),$);
#1220=IFCSHAPEREPRESENTATION(#12,'Body','SweptSolid',(#1215));
#1221=IFCPRODUCTDEFINITIONSHAPE($,$,(#1220));
#1222=IFCCOVERING('22bkQq98SJ8Y8FiELvmvzv',#5,'Wall finish 2 (brick)','brick, 8 mm',$,#1205,#1221,$,.CLADDING.);
#1223=IFCPROPERTYSINGLEVALUE('Material',$,IFCTEXT('brick'),$);
#1224=IFCPROPERTYSINGLEVALUE('BrickType',$,IFCTEXT('red_common'),$);
#1225=IFCPROPERTYSINGLEVALUE('Bond',$,IFCTEXT('running'),$);
#1226=IFCPROPERTYSINGLEVALUE('BrickLength',$,IFCTEXT('250 mm'),$);
#1227=IFCPROPERTYSINGLEVALUE('BrickHeight',$,IFCTEXT('62 mm'),$);
#1228=IFCPROPERTYSINGLEVALUE('JointWidth',$,IFCTEXT('13 mm'),$);
#1229=IFCPROPERTYSINGLEVALUE('BrickColour',$,IFCTEXT('#9D4F3C'),$);
#1230=IFCPROPERTYSINGLEVALUE('JointColour',$,IFCTEXT('#B5ACA0'),$);
#1231=IFCPROPERTYSINGLEVALUE('ReliefDepth',$,IFCTEXT('8 mm'),$);
#1232=IFCPROPERTYSET('3utIsenFbrjLnNgZJZDrEV',#5,'Pset_SkannaFinish','Surface finish specification (Skanna)',(#1223,#1224,#1225,#1226,#1227,#1228,#1229,#1230,#1231));
#1233=IFCRELDEFINESBYPROPERTIES('1EbsMpzHe90SuSWE3YvoQ_',#5,$,$,(#1222),#1232);
#1234=IFCRELCOVERSBLDGELEMENTS('14FdUTZ0MV0Cvq$04nM6JL',#5,$,$,#525,(#1222));
#1235=IFCCARTESIANPOINT((0.,0.,0.));
#1236=IFCDIRECTION((0.,0.,1.));
#1237=IFCDIRECTION((1.,0.,0.));
#1238=IFCAXIS2PLACEMENT3D(#1235,#1236,#1237);
#1239=IFCLOCALPLACEMENT(#26,#1238);
#1240=IFCCARTESIANPOINT((-0.225,-0.34));
#1241=IFCCARTESIANPOINT((-0.225,-1.71));
#1242=IFCCARTESIANPOINT((-0.217,-1.71));
#1243=IFCCARTESIANPOINT((-0.217,-0.34));
#1244=IFCPOLYLINE((#1240,#1241,#1242,#1243,#1240));
#1245=IFCARBITRARYCLOSEDPROFILEDEF(.AREA.,$,#1244);
#1246=IFCCARTESIANPOINT((0.,0.,0.9));
#1247=IFCAXIS2PLACEMENT3D(#1246,$,$);
#1248=IFCDIRECTION((0.,0.,1.));
#1249=IFCEXTRUDEDAREASOLID(#1245,#1247,#1248,0.6);
#1250=IFCCOLOURRGB($,0.745098,0.560784,0.341176);
#1251=IFCSURFACESTYLESHADING(#1250,0.);
#1252=IFCSURFACESTYLE('wood',.BOTH.,(#1251));
#1253=IFCSTYLEDITEM(#1249,(#1252),$);
#1254=IFCSHAPEREPRESENTATION(#12,'Body','SweptSolid',(#1249));
#1255=IFCPRODUCTDEFINITIONSHAPE($,$,(#1254));
#1256=IFCCOVERING('3q8R8mymRtwqs4bopEilaU',#5,'Wall finish 3 (wood)','wood, 8 mm',$,#1239,#1255,$,.CLADDING.);
#1257=IFCPROPERTYSINGLEVALUE('Material',$,IFCTEXT('wood'),$);
#1258=IFCPROPERTYSINGLEVALUE('WoodStyle',$,IFCTEXT('boards'),$);
#1259=IFCPROPERTYSINGLEVALUE('WoodTone',$,IFCTEXT('oak'),$);
#1260=IFCPROPERTYSINGLEVALUE('BoardDirection',$,IFCTEXT('vertical'),$);
#1261=IFCPROPERTYSINGLEVALUE('BoardWidth',$,IFCTEXT('150 mm'),$);
#1262=IFCPROPERTYSINGLEVALUE('ReliefDepth',$,IFCTEXT('1 mm'),$);
#1263=IFCPROPERTYSET('2Z9rXlw411oTvKVDoH5C7V',#5,'Pset_SkannaFinish','Surface finish specification (Skanna)',(#1257,#1258,#1259,#1260,#1261,#1262));
#1264=IFCRELDEFINESBYPROPERTIES('2Q9Pc047raWMbJgYiMgPL_',#5,$,$,(#1256),#1263);
#1265=IFCRELCOVERSBLDGELEMENTS('0vQAuLhKJsDXvblJ9XY0RG',#5,$,$,#525,(#1256));
#1266=IFCCARTESIANPOINT((0.,0.,0.));
#1267=IFCDIRECTION((0.,0.,1.));
#1268=IFCDIRECTION((1.,0.,0.));
#1269=IFCAXIS2PLACEMENT3D(#1266,#1267,#1268);
#1270=IFCLOCALPLACEMENT(#26,#1269);
#1271=IFCCARTESIANPOINT((-0.225,-4.66));
#1272=IFCCARTESIANPOINT((-0.225,-6.14));
#1273=IFCCARTESIANPOINT((-0.217,-6.14));
#1274=IFCCARTESIANPOINT((-0.217,-4.66));
#1275=IFCPOLYLINE((#1271,#1272,#1273,#1274,#1271));
#1276=IFCARBITRARYCLOSEDPROFILEDEF(.AREA.,$,#1275);
#1277=IFCCARTESIANPOINT((0.,0.,0.9));
#1278=IFCAXIS2PLACEMENT3D(#1277,$,$);
#1279=IFCDIRECTION((0.,0.,1.));
#1280=IFCEXTRUDEDAREASOLID(#1276,#1278,#1279,0.6);
#1281=IFCCOLOURRGB($,0.615686,0.705882,0.768627);
#1282=IFCSURFACESTYLESHADING(#1281,0.);
#1283=IFCSURFACESTYLE('glass',.BOTH.,(#1282));
#1284=IFCSTYLEDITEM(#1280,(#1283),$);
#1285=IFCSHAPEREPRESENTATION(#12,'Body','SweptSolid',(#1280));
#1286=IFCPRODUCTDEFINITIONSHAPE($,$,(#1285));
#1287=IFCCOVERING('2MITchOFhu$BeHu94Eb4OZ',#5,'Wall finish 4 (glass)','glass, 8 mm',$,#1270,#1286,$,.CLADDING.);
#1288=IFCRELCOVERSBLDGELEMENTS('18$tUXvhaWd8gNJoN585zH',#5,$,$,#525,(#1287));
#1289=IFCCARTESIANPOINT((0.,0.,0.));
#1290=IFCDIRECTION((0.,0.,1.));
#1291=IFCDIRECTION((1.,0.,0.));
#1292=IFCAXIS2PLACEMENT3D(#1289,#1290,#1291);
#1293=IFCLOCALPLACEMENT(#26,#1292);
#1294=IFCCARTESIANPOINT((-8.28,2.875));
#1295=IFCCARTESIANPOINT((-6.97,2.875));
#1296=IFCCARTESIANPOINT((-6.97,2.883));
#1297=IFCCARTESIANPOINT((-8.28,2.883));
#1298=IFCPOLYLINE((#1294,#1295,#1296,#1297,#1294));
#1299=IFCARBITRARYCLOSEDPROFILEDEF(.AREA.,$,#1298);
#1300=IFCCARTESIANPOINT((0.,0.,0.9));
#1301=IFCAXIS2PLACEMENT3D(#1300,$,$);
#1302=IFCDIRECTION((0.,0.,1.));
#1303=IFCEXTRUDEDAREASOLID(#1299,#1301,#1302,0.6);
#1304=IFCCOLOURRGB($,0.270588,0.196078,0.180392);
#1305=IFCSURFACESTYLESHADING(#1304,0.);
#1306=IFCSURFACESTYLE('Chocolate brown',.BOTH.,(#1305));
#1307=IFCSTYLEDITEM(#1303,(#1306),$);
#1308=IFCSHAPEREPRESENTATION(#12,'Body','SweptSolid',(#1303));
#1309=IFCPRODUCTDEFINITIONSHAPE($,$,(#1308));
#1310=IFCCOVERING('0lX8rEjTgJRJslC9i2gjuT',#5,'Wall finish 5 (stone)','stone, 8 mm',$,#1293,#1309,$,.CLADDING.);
#1311=IFCRELCOVERSBLDGELEMENTS('1QP6TaC5C9xVLpKK$aBoqZ',#5,$,$,#314,(#1310));
#1312=IFCCARTESIANPOINT((0.,0.,0.));
#1313=IFCDIRECTION((0.,0.,1.));
#1314=IFCDIRECTION((1.,0.,0.));
#1315=IFCAXIS2PLACEMENT3D(#1312,#1313,#1314);
#1316=IFCLOCALPLACEMENT(#26,#1315);
#1317=IFCCARTESIANPOINT((-5.68,-7.025));
#1318=IFCCARTESIANPOINT((-6.94,-7.025));
#1319=IFCCARTESIANPOINT((-6.94,-7.033));
#1320=IFCCARTESIANPOINT((-5.68,-7.033));
#1321=IFCPOLYLINE((#1317,#1318,#1319,#1320,#1317));
#1322=IFCARBITRARYCLOSEDPROFILEDEF(.AREA.,$,#1321);
#1323=IFCCARTESIANPOINT((0.,0.,0.9));
#1324=IFCAXIS2PLACEMENT3D(#1323,$,$);
#1325=IFCDIRECTION((0.,0.,1.));
#1326=IFCEXTRUDEDAREASOLID(#1322,#1324,#1325,0.6);
#1327=IFCCOLOURRGB($,0.909804,0.901961,0.878431);
#1328=IFCSURFACESTYLESHADING(#1327,0.);
#1329=IFCSURFACESTYLE('tile',.BOTH.,(#1328));
#1330=IFCSTYLEDITEM(#1326,(#1329),$);
#1331=IFCSHAPEREPRESENTATION(#12,'Body','SweptSolid',(#1326));
#1332=IFCPRODUCTDEFINITIONSHAPE($,$,(#1331));
#1333=IFCCOVERING('3YX2NsYDY5e3rL7so9RaU3',#5,'Wall finish 6 (tile)','tile, 8 mm',$,#1316,#1332,$,.CLADDING.);
#1334=IFCPROPERTYSINGLEVALUE('Material',$,IFCTEXT('tile'),$);
#1335=IFCPROPERTYSINGLEVALUE('TilePattern',$,IFCTEXT('grid'),$);
#1336=IFCPROPERTYSINGLEVALUE('TileWidth',$,IFCTEXT('300 mm'),$);
#1337=IFCPROPERTYSINGLEVALUE('TileHeight',$,IFCTEXT('300 mm'),$);
#1338=IFCPROPERTYSINGLEVALUE('JointWidth',$,IFCTEXT('3 mm'),$);
#1339=IFCPROPERTYSINGLEVALUE('ReliefDepth',$,IFCTEXT('3 mm'),$);
#1340=IFCPROPERTYSET('2picMwcylsr_nlcoGFGvUg',#5,'Pset_SkannaFinish','Surface finish specification (Skanna)',(#1334,#1335,#1336,#1337,#1338,#1339));
#1341=IFCRELDEFINESBYPROPERTIES('2Iox6jmph39MOV0_LoF$eH',#5,$,$,(#1333),#1340);
#1342=IFCRELCOVERSBLDGELEMENTS('27i0iR6VzIPv5QCGFY7ulP',#5,$,$,#42,(#1333));
#1343=IFCCARTESIANPOINT((0.,0.,0.));
#1344=IFCDIRECTION((0.,0.,1.));
#1345=IFCDIRECTION((1.,0.,0.));
#1346=IFCAXIS2PLACEMENT3D(#1343,#1344,#1345);
#1347=IFCLOCALPLACEMENT(#26,#1346);
#1348=IFCCARTESIANPOINT((-9.57,-7.025));
#1349=IFCCARTESIANPOINT((-10.94,-7.025));
#1350=IFCCARTESIANPOINT((-10.94,-7.033));
#1351=IFCCARTESIANPOINT((-9.57,-7.033));
#1352=IFCPOLYLINE((#1348,#1349,#1350,#1351,#1348));
#1353=IFCARBITRARYCLOSEDPROFILEDEF(.AREA.,$,#1352);
#1354=IFCCARTESIANPOINT((0.,0.,0.9));
#1355=IFCAXIS2PLACEMENT3D(#1354,$,$);
#1356=IFCDIRECTION((0.,0.,1.));
#1357=IFCEXTRUDEDAREASOLID(#1353,#1355,#1356,0.6);
#1358=IFCCOLOURRGB($,0.952941,0.854902,0.043137);
#1359=IFCSURFACESTYLESHADING(#1358,0.);
#1360=IFCSURFACESTYLE('Rape yellow',.BOTH.,(#1359));
#1361=IFCSTYLEDITEM(#1357,(#1360),$);
#1362=IFCSHAPEREPRESENTATION(#12,'Body','SweptSolid',(#1357));
#1363=IFCPRODUCTDEFINITIONSHAPE($,$,(#1362));
#1364=IFCCOVERING('0tGZxHHqbu4ysz56uFQvog',#5,'Wall finish 7 (carpet)','carpet, 8 mm',$,#1347,#1363,$,.CLADDING.);
#1365=IFCRELCOVERSBLDGELEMENTS('0zAQ8AxxwxoArk8ftyuKHx',#5,$,$,#42,(#1364));
#1366=IFCCARTESIANPOINT((0.,0.,0.));
#1367=IFCDIRECTION((0.,0.,1.));
#1368=IFCDIRECTION((1.,0.,0.));
#1369=IFCAXIS2PLACEMENT3D(#1366,#1367,#1368);
#1370=IFCLOCALPLACEMENT(#26,#1369);
#1371=IFCCARTESIANPOINT((0.,0.,0.));
#1372=IFCDIRECTION((0.,0.,1.));
#1373=IFCDIRECTION((1.,0.,0.));
#1374=IFCAXIS2PLACEMENT3D(#1371,#1372,#1373);
#1375=IFCLOCALPLACEMENT(#26,#1374);
#1376=IFCCARTESIANPOINT((0.,0.,0.));
#1377=IFCDIRECTION((0.,0.,1.));
#1378=IFCDIRECTION((1.,0.,0.));
#1379=IFCAXIS2PLACEMENT3D(#1376,#1377,#1378);
#1380=IFCLOCALPLACEMENT(#26,#1379);
#1381=IFCCARTESIANPOINT((0.,0.,0.));
#1382=IFCDIRECTION((0.,0.,1.));
#1383=IFCDIRECTION((1.,0.,0.));
#1384=IFCAXIS2PLACEMENT3D(#1381,#1382,#1383);
#1385=IFCLOCALPLACEMENT(#26,#1384);
#1386=IFCCARTESIANPOINT((-6.35,-4.5,0.));
#1387=IFCDIRECTION((0.,0.,1.));
#1388=IFCDIRECTION((0.,1.,0.));
#1389=IFCAXIS2PLACEMENT3D(#1386,#1387,#1388);
#1390=IFCLOCALPLACEMENT(#26,#1389);
#1391=IFCCARTESIANPOINT((0.,-0.5));
#1392=IFCCARTESIANPOINT((0.156667,-0.5));
#1393=IFCCARTESIANPOINT((0.156667,0.5));
#1394=IFCCARTESIANPOINT((0.,0.5));
#1395=IFCPOLYLINE((#1391,#1392,#1393,#1394,#1391));
#1396=IFCARBITRARYCLOSEDPROFILEDEF(.AREA.,$,#1395);
#1397=IFCCARTESIANPOINT((0.,0.,0.));
#1398=IFCAXIS2PLACEMENT3D(#1397,$,$);
#1399=IFCDIRECTION((0.,0.,1.));
#1400=IFCEXTRUDEDAREASOLID(#1396,#1398,#1399,0.18);
#1401=IFCCARTESIANPOINT((0.156667,-0.5));
#1402=IFCCARTESIANPOINT((0.313333,-0.5));
#1403=IFCCARTESIANPOINT((0.313333,0.5));
#1404=IFCCARTESIANPOINT((0.156667,0.5));
#1405=IFCPOLYLINE((#1401,#1402,#1403,#1404,#1401));
#1406=IFCARBITRARYCLOSEDPROFILEDEF(.AREA.,$,#1405);
#1407=IFCCARTESIANPOINT((0.,0.,0.16));
#1408=IFCAXIS2PLACEMENT3D(#1407,$,$);
#1409=IFCDIRECTION((0.,0.,1.));
#1410=IFCEXTRUDEDAREASOLID(#1406,#1408,#1409,0.2);
#1411=IFCCARTESIANPOINT((0.313333,-0.5));
#1412=IFCCARTESIANPOINT((0.47,-0.5));
#1413=IFCCARTESIANPOINT((0.47,0.5));
#1414=IFCCARTESIANPOINT((0.313333,0.5));
#1415=IFCPOLYLINE((#1411,#1412,#1413,#1414,#1411));
#1416=IFCARBITRARYCLOSEDPROFILEDEF(.AREA.,$,#1415);
#1417=IFCCARTESIANPOINT((0.,0.,0.34));
#1418=IFCAXIS2PLACEMENT3D(#1417,$,$);
#1419=IFCDIRECTION((0.,0.,1.));
#1420=IFCEXTRUDEDAREASOLID(#1416,#1418,#1419,0.2);
#1421=IFCCARTESIANPOINT((0.47,-0.5));
#1422=IFCCARTESIANPOINT((0.626667,-0.5));
#1423=IFCCARTESIANPOINT((0.626667,0.5));
#1424=IFCCARTESIANPOINT((0.47,0.5));
#1425=IFCPOLYLINE((#1421,#1422,#1423,#1424,#1421));
#1426=IFCARBITRARYCLOSEDPROFILEDEF(.AREA.,$,#1425);
#1427=IFCCARTESIANPOINT((0.,0.,0.52));
#1428=IFCAXIS2PLACEMENT3D(#1427,$,$);
#1429=IFCDIRECTION((0.,0.,1.));
#1430=IFCEXTRUDEDAREASOLID(#1426,#1428,#1429,0.2);
#1431=IFCCARTESIANPOINT((0.626667,-0.5));
#1432=IFCCARTESIANPOINT((0.783333,-0.5));
#1433=IFCCARTESIANPOINT((0.783333,0.5));
#1434=IFCCARTESIANPOINT((0.626667,0.5));
#1435=IFCPOLYLINE((#1431,#1432,#1433,#1434,#1431));
#1436=IFCARBITRARYCLOSEDPROFILEDEF(.AREA.,$,#1435);
#1437=IFCCARTESIANPOINT((0.,0.,0.7));
#1438=IFCAXIS2PLACEMENT3D(#1437,$,$);
#1439=IFCDIRECTION((0.,0.,1.));
#1440=IFCEXTRUDEDAREASOLID(#1436,#1438,#1439,0.2);
#1441=IFCCARTESIANPOINT((0.783333,-0.5));
#1442=IFCCARTESIANPOINT((0.94,-0.5));
#1443=IFCCARTESIANPOINT((0.94,0.5));
#1444=IFCCARTESIANPOINT((0.783333,0.5));
#1445=IFCPOLYLINE((#1441,#1442,#1443,#1444,#1441));
#1446=IFCARBITRARYCLOSEDPROFILEDEF(.AREA.,$,#1445);
#1447=IFCCARTESIANPOINT((0.,0.,0.88));
#1448=IFCAXIS2PLACEMENT3D(#1447,$,$);
#1449=IFCDIRECTION((0.,0.,1.));
#1450=IFCEXTRUDEDAREASOLID(#1446,#1448,#1449,0.2);
#1451=IFCCARTESIANPOINT((0.94,-0.5));
#1452=IFCCARTESIANPOINT((1.096667,-0.5));
#1453=IFCCARTESIANPOINT((1.096667,0.5));
#1454=IFCCARTESIANPOINT((0.94,0.5));
#1455=IFCPOLYLINE((#1451,#1452,#1453,#1454,#1451));
#1456=IFCARBITRARYCLOSEDPROFILEDEF(.AREA.,$,#1455);
#1457=IFCCARTESIANPOINT((0.,0.,1.06));
#1458=IFCAXIS2PLACEMENT3D(#1457,$,$);
#1459=IFCDIRECTION((0.,0.,1.));
#1460=IFCEXTRUDEDAREASOLID(#1456,#1458,#1459,0.2);
#1461=IFCCARTESIANPOINT((1.096667,-0.5));
#1462=IFCCARTESIANPOINT((1.253333,-0.5));
#1463=IFCCARTESIANPOINT((1.253333,0.5));
#1464=IFCCARTESIANPOINT((1.096667,0.5));
#1465=IFCPOLYLINE((#1461,#1462,#1463,#1464,#1461));
#1466=IFCARBITRARYCLOSEDPROFILEDEF(.AREA.,$,#1465);
#1467=IFCCARTESIANPOINT((0.,0.,1.24));
#1468=IFCAXIS2PLACEMENT3D(#1467,$,$);
#1469=IFCDIRECTION((0.,0.,1.));
#1470=IFCEXTRUDEDAREASOLID(#1466,#1468,#1469,0.2);
#1471=IFCCARTESIANPOINT((1.253333,-0.5));
#1472=IFCCARTESIANPOINT((1.41,-0.5));
#1473=IFCCARTESIANPOINT((1.41,0.5));
#1474=IFCCARTESIANPOINT((1.253333,0.5));
#1475=IFCPOLYLINE((#1471,#1472,#1473,#1474,#1471));
#1476=IFCARBITRARYCLOSEDPROFILEDEF(.AREA.,$,#1475);
#1477=IFCCARTESIANPOINT((0.,0.,1.42));
#1478=IFCAXIS2PLACEMENT3D(#1477,$,$);
#1479=IFCDIRECTION((0.,0.,1.));
#1480=IFCEXTRUDEDAREASOLID(#1476,#1478,#1479,0.2);
#1481=IFCCARTESIANPOINT((1.41,-0.5));
#1482=IFCCARTESIANPOINT((1.566667,-0.5));
#1483=IFCCARTESIANPOINT((1.566667,0.5));
#1484=IFCCARTESIANPOINT((1.41,0.5));
#1485=IFCPOLYLINE((#1481,#1482,#1483,#1484,#1481));
#1486=IFCARBITRARYCLOSEDPROFILEDEF(.AREA.,$,#1485);
#1487=IFCCARTESIANPOINT((0.,0.,1.6));
#1488=IFCAXIS2PLACEMENT3D(#1487,$,$);
#1489=IFCDIRECTION((0.,0.,1.));
#1490=IFCEXTRUDEDAREASOLID(#1486,#1488,#1489,0.2);
#1491=IFCCARTESIANPOINT((1.566667,-0.5));
#1492=IFCCARTESIANPOINT((1.723333,-0.5));
#1493=IFCCARTESIANPOINT((1.723333,0.5));
#1494=IFCCARTESIANPOINT((1.566667,0.5));
#1495=IFCPOLYLINE((#1491,#1492,#1493,#1494,#1491));
#1496=IFCARBITRARYCLOSEDPROFILEDEF(.AREA.,$,#1495);
#1497=IFCCARTESIANPOINT((0.,0.,1.78));
#1498=IFCAXIS2PLACEMENT3D(#1497,$,$);
#1499=IFCDIRECTION((0.,0.,1.));
#1500=IFCEXTRUDEDAREASOLID(#1496,#1498,#1499,0.2);
#1501=IFCCARTESIANPOINT((1.723333,-0.5));
#1502=IFCCARTESIANPOINT((1.88,-0.5));
#1503=IFCCARTESIANPOINT((1.88,0.5));
#1504=IFCCARTESIANPOINT((1.723333,0.5));
#1505=IFCPOLYLINE((#1501,#1502,#1503,#1504,#1501));
#1506=IFCARBITRARYCLOSEDPROFILEDEF(.AREA.,$,#1505);
#1507=IFCCARTESIANPOINT((0.,0.,1.96));
#1508=IFCAXIS2PLACEMENT3D(#1507,$,$);
#1509=IFCDIRECTION((0.,0.,1.));
#1510=IFCEXTRUDEDAREASOLID(#1506,#1508,#1509,0.2);
#1511=IFCCARTESIANPOINT((1.88,-0.5));
#1512=IFCCARTESIANPOINT((2.036667,-0.5));
#1513=IFCCARTESIANPOINT((2.036667,0.5));
#1514=IFCCARTESIANPOINT((1.88,0.5));
#1515=IFCPOLYLINE((#1511,#1512,#1513,#1514,#1511));
#1516=IFCARBITRARYCLOSEDPROFILEDEF(.AREA.,$,#1515);
#1517=IFCCARTESIANPOINT((0.,0.,2.14));
#1518=IFCAXIS2PLACEMENT3D(#1517,$,$);
#1519=IFCDIRECTION((0.,0.,1.));
#1520=IFCEXTRUDEDAREASOLID(#1516,#1518,#1519,0.2);
#1521=IFCCARTESIANPOINT((2.036667,-0.5));
#1522=IFCCARTESIANPOINT((2.193333,-0.5));
#1523=IFCCARTESIANPOINT((2.193333,0.5));
#1524=IFCCARTESIANPOINT((2.036667,0.5));
#1525=IFCPOLYLINE((#1521,#1522,#1523,#1524,#1521));
#1526=IFCARBITRARYCLOSEDPROFILEDEF(.AREA.,$,#1525);
#1527=IFCCARTESIANPOINT((0.,0.,2.32));
#1528=IFCAXIS2PLACEMENT3D(#1527,$,$);
#1529=IFCDIRECTION((0.,0.,1.));
#1530=IFCEXTRUDEDAREASOLID(#1526,#1528,#1529,0.2);
#1531=IFCCARTESIANPOINT((2.193333,-0.5));
#1532=IFCCARTESIANPOINT((2.35,-0.5));
#1533=IFCCARTESIANPOINT((2.35,0.5));
#1534=IFCCARTESIANPOINT((2.193333,0.5));
#1535=IFCPOLYLINE((#1531,#1532,#1533,#1534,#1531));
#1536=IFCARBITRARYCLOSEDPROFILEDEF(.AREA.,$,#1535);
#1537=IFCCARTESIANPOINT((0.,0.,2.5));
#1538=IFCAXIS2PLACEMENT3D(#1537,$,$);
#1539=IFCDIRECTION((0.,0.,1.));
#1540=IFCEXTRUDEDAREASOLID(#1536,#1538,#1539,0.2);
#1541=IFCSHAPEREPRESENTATION(#12,'Body','SweptSolid',(#1400,#1410,#1420,#1430,#1440,#1450,#1460,#1470,#1480,#1490,#1500,#1510,#1520,#1530,#1540));
#1542=IFCPRODUCTDEFINITIONSHAPE($,$,(#1541));
#1543=IFCSTAIR('05IdHVpnC913aOJrBdRA51',#5,'Stair 1','15 risers of 180 mm',$,#1390,#1542,$,.STRAIGHT_RUN_STAIR.);
#1544=IFCCARTESIANPOINT((-5.5,1.6,0.));
#1545=IFCDIRECTION((0.,0.,1.));
#1546=IFCDIRECTION((1.,0.,0.));
#1547=IFCAXIS2PLACEMENT3D(#1544,#1545,#1546);
#1548=IFCLOCALPLACEMENT(#26,#1547);
#1549=IFCCARTESIANPOINT((-0.15,-0.15));
#1550=IFCCARTESIANPOINT((0.15,-0.15));
#1551=IFCCARTESIANPOINT((0.15,0.15));
#1552=IFCCARTESIANPOINT((-0.15,0.15));
#1553=IFCPOLYLINE((#1549,#1550,#1551,#1552,#1549));
#1554=IFCARBITRARYCLOSEDPROFILEDEF(.AREA.,$,#1553);
#1555=IFCCARTESIANPOINT((0.,0.,0.));
#1556=IFCAXIS2PLACEMENT3D(#1555,$,$);
#1557=IFCDIRECTION((0.,0.,1.));
#1558=IFCEXTRUDEDAREASOLID(#1554,#1556,#1557,2.7);
#1559=IFCSHAPEREPRESENTATION(#12,'Body','SweptSolid',(#1558));
#1560=IFCPRODUCTDEFINITIONSHAPE($,$,(#1559));
#1561=IFCCOLUMN('0p5HxQprXDkMtwSuFuf_pe',#5,'Column 1','Rectangular 300×300 mm',$,#1548,#1560,$,.COLUMN.);
#1562=IFCCARTESIANPOINT((-4.,1.55,0.));
#1563=IFCDIRECTION((0.,0.,1.));
#1564=IFCDIRECTION((1.,0.,0.));
#1565=IFCAXIS2PLACEMENT3D(#1562,#1563,#1564);
#1566=IFCLOCALPLACEMENT(#26,#1565);
#1567=IFCCARTESIANPOINT((-0.15,-0.15));
#1568=IFCCARTESIANPOINT((-0.138,-0.15));
#1569=IFCCARTESIANPOINT((-0.138,-0.004));
#1570=IFCCARTESIANPOINT((0.138,-0.004));
#1571=IFCCARTESIANPOINT((0.138,-0.15));
#1572=IFCCARTESIANPOINT((0.15,-0.15));
#1573=IFCCARTESIANPOINT((0.15,0.15));
#1574=IFCCARTESIANPOINT((0.138,0.15));
#1575=IFCCARTESIANPOINT((0.138,0.004));
#1576=IFCCARTESIANPOINT((-0.138,0.004));
#1577=IFCCARTESIANPOINT((-0.138,0.15));
#1578=IFCCARTESIANPOINT((-0.15,0.15));
#1579=IFCPOLYLINE((#1567,#1568,#1569,#1570,#1571,#1572,#1573,#1574,#1575,#1576,#1577,#1578,#1567));
#1580=IFCARBITRARYCLOSEDPROFILEDEF(.AREA.,$,#1579);
#1581=IFCCARTESIANPOINT((0.,0.,0.));
#1582=IFCAXIS2PLACEMENT3D(#1581,$,$);
#1583=IFCDIRECTION((0.,0.,1.));
#1584=IFCEXTRUDEDAREASOLID(#1580,#1582,#1583,2.7);
#1585=IFCSHAPEREPRESENTATION(#12,'Body','SweptSolid',(#1584));
#1586=IFCPRODUCTDEFINITIONSHAPE($,$,(#1585));
#1587=IFCCOLUMN('0IxQ5Js9BBn_CXtlDyx9L9',#5,'Column 2','H-profile 300×300 mm',$,#1566,#1586,$,.COLUMN.);
#1588=IFCCARTESIANPOINT((-2.5,1.85,0.));
#1589=IFCDIRECTION((0.,0.,1.));
#1590=IFCDIRECTION((1.,0.,0.));
#1591=IFCAXIS2PLACEMENT3D(#1588,#1589,#1590);
#1592=IFCLOCALPLACEMENT(#26,#1591);
#1593=IFCCARTESIANPOINT((0.,0.));
#1594=IFCAXIS2PLACEMENT2D(#1593,$);
#1595=IFCCIRCLEPROFILEDEF(.AREA.,$,#1594,0.15);
#1596=IFCCARTESIANPOINT((0.,0.,0.));
#1597=IFCAXIS2PLACEMENT3D(#1596,$,$);
#1598=IFCDIRECTION((0.,0.,1.));
#1599=IFCEXTRUDEDAREASOLID(#1595,#1597,#1598,2.7);
#1600=IFCCOLOURRGB($,0.12549,0.376471,0.239216);
#1601=IFCSURFACESTYLESHADING(#1600,0.);
#1602=IFCSURFACESTYLE('Mint green',.BOTH.,(#1601));
#1603=IFCSTYLEDITEM(#1599,(#1602),$);
#1604=IFCSHAPEREPRESENTATION(#12,'Body','SweptSolid',(#1599));
#1605=IFCPRODUCTDEFINITIONSHAPE($,$,(#1604));
#1606=IFCCOLUMN('1Viy_nQF3EE821qEb7jt7S',#5,'Column 3','Round Ø300 mm',$,#1592,#1605,$,.COLUMN.);
#1607=IFCCARTESIANPOINT((-7.15,2.75,2.575));
#1608=IFCDIRECTION((0.,-1.,0.));
#1609=IFCDIRECTION((1.,0.,0.));
#1610=IFCAXIS2PLACEMENT3D(#1607,#1608,#1609);
#1611=IFCLOCALPLACEMENT(#26,#1610);
#1612=IFCCARTESIANPOINT((-0.075,-0.125));
#1613=IFCCARTESIANPOINT((0.075,-0.125));
#1614=IFCCARTESIANPOINT((0.075,-0.115));
#1615=IFCCARTESIANPOINT((-0.069,-0.115));
#1616=IFCCARTESIANPOINT((-0.069,0.115));
#1617=IFCCARTESIANPOINT((0.075,0.115));
#1618=IFCCARTESIANPOINT((0.075,0.125));
#1619=IFCCARTESIANPOINT((-0.075,0.125));
#1620=IFCPOLYLINE((#1612,#1613,#1614,#1615,#1616,#1617,#1618,#1619,#1612));
#1621=IFCARBITRARYCLOSEDPROFILEDEF(.AREA.,$,#1620);
#1622=IFCCARTESIANPOINT((0.,0.,0.));
#1623=IFCAXIS2PLACEMENT3D(#1622,$,$);
#1624=IFCDIRECTION((0.,0.,1.));
#1625=IFCEXTRUDEDAREASOLID(#1621,#1623,#1624,9.65);
#1626=IFCSHAPEREPRESENTATION(#12,'Body','SweptSolid',(#1625));
#1627=IFCPRODUCTDEFINITIONSHAPE($,$,(#1626));
#1628=IFCBEAM('1mSKD79sB6FEgYWy6UGze5',#5,'Beam 1','C-channel 150×250 mm',$,#1611,#1627,$,.BEAM.);
#1629=IFCCARTESIANPOINT((-1.,2.35,0.3));
#1630=IFCDIRECTION((-0.866025,-0.5,0.));
#1631=IFCDIRECTION((0.,0.,1.));
#1632=IFCAXIS2PLACEMENT3D(#1629,#1630,#1631);
#1633=IFCLOCALPLACEMENT(#26,#1632);
#1634=IFCCARTESIANPOINT((0.,0.));
#1635=IFCAXIS2PLACEMENT2D(#1634,$);
#1636=IFCCIRCLEPROFILEDEF(.AREA.,$,#1635,0.011);
#1637=IFCCARTESIANPOINT((0.,0.,0.));
#1638=IFCAXIS2PLACEMENT3D(#1637,$,$);
#1639=IFCDIRECTION((0.,0.,1.));
#1640=IFCEXTRUDEDAREASOLID(#1636,#1638,#1639,1.8);
#1641=IFCCOLOURRGB($,0.231373,0.509804,0.815686);
#1642=IFCSURFACESTYLESHADING(#1641,0.5);
#1643=IFCSURFACESTYLE('Water',.BOTH.,(#1642));
#1644=IFCSTYLEDITEM(#1640,(#1643),$);
#1645=IFCSHAPEREPRESENTATION(#12,'Body','SweptSolid',(#1640));
#1646=IFCPRODUCTDEFINITIONSHAPE($,$,(#1645));
#1647=IFCPIPESEGMENT('0Xqz8NygNdRlscgwpbJWN7',#5,'Water','Concealed',$,#1633,#1646,$,.RIGIDSEGMENT.);
#1648=IFCCARTESIANPOINT((-2.558846,1.45,0.3));
#1649=IFCDIRECTION((0.707107,-0.707107,0.));
#1650=IFCDIRECTION((0.,0.,1.));
#1651=IFCAXIS2PLACEMENT3D(#1648,#1649,#1650);
#1652=IFCLOCALPLACEMENT(#26,#1651);
#1653=IFCCARTESIANPOINT((0.,0.));
#1654=IFCAXIS2PLACEMENT2D(#1653,$);
#1655=IFCCIRCLEPROFILEDEF(.AREA.,$,#1654,0.011);
#1656=IFCCARTESIANPOINT((0.,0.,0.));
#1657=IFCAXIS2PLACEMENT3D(#1656,$,$);
#1658=IFCDIRECTION((0.,0.,1.));
#1659=IFCEXTRUDEDAREASOLID(#1655,#1657,#1658,4.1);
#1660=IFCSTYLEDITEM(#1659,(#1643),$);
#1661=IFCSHAPEREPRESENTATION(#12,'Body','SweptSolid',(#1659));
#1662=IFCPRODUCTDEFINITIONSHAPE($,$,(#1661));
#1663=IFCPIPESEGMENT('1ldCuxYRBQaVK3ftV2I7oX',#5,'Water','Concealed',$,#1652,#1662,$,.RIGIDSEGMENT.);
#1664=IFCCARTESIANPOINT((-5.986866,2.8,0.3));
#1665=IFCDIRECTION((1.,0.,0.));
#1666=IFCDIRECTION((0.,0.,1.));
#1667=IFCAXIS2PLACEMENT3D(#1664,#1665,#1666);
#1668=IFCLOCALPLACEMENT(#26,#1667);
#1669=IFCCARTESIANPOINT((0.,0.));
#1670=IFCAXIS2PLACEMENT2D(#1669,$);
#1671=IFCCIRCLEPROFILEDEF(.AREA.,$,#1670,0.011);
#1672=IFCCARTESIANPOINT((0.,0.,0.));
#1673=IFCAXIS2PLACEMENT3D(#1672,$,$);
#1674=IFCDIRECTION((0.,0.,1.));
#1675=IFCEXTRUDEDAREASOLID(#1671,#1673,#1674,2.683434);
#1676=IFCSTYLEDITEM(#1675,(#1643),$);
#1677=IFCSHAPEREPRESENTATION(#12,'Body','SweptSolid',(#1675));
#1678=IFCPRODUCTDEFINITIONSHAPE($,$,(#1677));
#1679=IFCPIPESEGMENT('3PcdPbC$Xje$YNkGDY7mm0',#5,'Water','Concealed',$,#1668,#1678,$,.RIGIDSEGMENT.);
#1680=IFCCARTESIANPOINT((-3.303432,2.8,0.3));
#1681=IFCDIRECTION((0.,-1.,0.));
#1682=IFCDIRECTION((0.,0.,1.));
#1683=IFCAXIS2PLACEMENT3D(#1680,#1681,#1682);
#1684=IFCLOCALPLACEMENT(#26,#1683);
#1685=IFCCARTESIANPOINT((0.,0.));
#1686=IFCAXIS2PLACEMENT2D(#1685,$);
#1687=IFCCIRCLEPROFILEDEF(.AREA.,$,#1686,0.011);
#1688=IFCCARTESIANPOINT((0.,0.,0.));
#1689=IFCAXIS2PLACEMENT3D(#1688,$,$);
#1690=IFCDIRECTION((0.,0.,1.));
#1691=IFCEXTRUDEDAREASOLID(#1687,#1689,#1690,0.95);
#1692=IFCCOLOURRGB($,0.356863,0.478431,0.54902);
#1693=IFCSURFACESTYLESHADING(#1692,0.5);
#1694=IFCSURFACESTYLE('Drain / waste',.BOTH.,(#1693));
#1695=IFCSTYLEDITEM(#1691,(#1694),$);
#1696=IFCSHAPEREPRESENTATION(#12,'Body','SweptSolid',(#1691));
#1697=IFCPRODUCTDEFINITIONSHAPE($,$,(#1696));
#1698=IFCPIPESEGMENT('1XTUAb0iyUTYSPevxMPM9C',#5,'Drain / waste','Concealed',$,#1684,#1697,$,.RIGIDSEGMENT.);
#1699=IFCCARTESIANPOINT((-4.35,1.7,0.3));
#1700=IFCDIRECTION((-0.866025,0.5,0.));
#1701=IFCDIRECTION((0.,0.,1.));
#1702=IFCAXIS2PLACEMENT3D(#1699,#1700,#1701);
#1703=IFCLOCALPLACEMENT(#26,#1702);
#1704=IFCCARTESIANPOINT((0.,0.));
#1705=IFCAXIS2PLACEMENT2D(#1704,$);
#1706=IFCCIRCLEPROFILEDEF(.AREA.,$,#1705,0.011);
#1707=IFCCARTESIANPOINT((0.,0.,0.));
#1708=IFCAXIS2PLACEMENT3D(#1707,$,$);
#1709=IFCDIRECTION((0.,0.,1.));
#1710=IFCEXTRUDEDAREASOLID(#1706,#1708,#1709,1.7);
#1711=IFCCOLOURRGB($,0.878431,0.541176,0.235294);
#1712=IFCSURFACESTYLESHADING(#1711,0.5);
#1713=IFCSURFACESTYLE('Gas',.BOTH.,(#1712));
#1714=IFCSTYLEDITEM(#1710,(#1713),$);
#1715=IFCSHAPEREPRESENTATION(#12,'Body','SweptSolid',(#1710));
#1716=IFCPRODUCTDEFINITIONSHAPE($,$,(#1715));
#1717=IFCPIPESEGMENT('2ktDfqHRRGuYY0dPe1Hc64',#5,'Gas','Concealed',$,#1703,#1716,$,.RIGIDSEGMENT.);
#1718=IFCCARTESIANPOINT((-4.6,-3.6,0.3));
#1719=IFCDIRECTION((-1.,0.,0.));
#1720=IFCDIRECTION((0.,0.,1.));
#1721=IFCAXIS2PLACEMENT3D(#1718,#1719,#1720);
#1722=IFCLOCALPLACEMENT(#26,#1721);
#1723=IFCCARTESIANPOINT((0.,0.));
#1724=IFCAXIS2PLACEMENT2D(#1723,$);
#1725=IFCCIRCLEPROFILEDEF(.AREA.,$,#1724,0.011);
#1726=IFCCARTESIANPOINT((0.,0.,0.));
#1727=IFCAXIS2PLACEMENT3D(#1726,$,$);
#1728=IFCDIRECTION((0.,0.,1.));
#1729=IFCEXTRUDEDAREASOLID(#1725,#1727,#1728,0.9);
#1730=IFCCOLOURRGB($,0.890196,0.701961,0.164706);
#1731=IFCSURFACESTYLESHADING(#1730,0.5);
#1732=IFCSURFACESTYLE('Electrical',.BOTH.,(#1731));
#1733=IFCSTYLEDITEM(#1729,(#1732),$);
#1734=IFCSHAPEREPRESENTATION(#12,'Body','SweptSolid',(#1729));
#1735=IFCPRODUCTDEFINITIONSHAPE($,$,(#1734));
#1736=IFCCABLECARRIERSEGMENT('2JMN5NOeBRCOVZeHJPkBOs',#5,'Electrical','Concealed',$,#1722,#1735,$,.CABLELADDERSEGMENT.);
#1737=IFCCARTESIANPOINT((-1.3,-1.25,0.3));
#1738=IFCDIRECTION((0.,-1.,0.));
#1739=IFCDIRECTION((0.,0.,1.));
#1740=IFCAXIS2PLACEMENT3D(#1737,#1738,#1739);
#1741=IFCLOCALPLACEMENT(#26,#1740);
#1742=IFCCARTESIANPOINT((0.,0.));
#1743=IFCAXIS2PLACEMENT2D(#1742,$);
#1744=IFCCIRCLEPROFILEDEF(.AREA.,$,#1743,0.011);
#1745=IFCCARTESIANPOINT((0.,0.,0.));
#1746=IFCAXIS2PLACEMENT3D(#1745,$,$);
#1747=IFCDIRECTION((0.,0.,1.));
#1748=IFCEXTRUDEDAREASOLID(#1744,#1746,#1747,2.55);
#1749=IFCCOLOURRGB($,0.545098,0.360784,0.964706);
#1750=IFCSURFACESTYLESHADING(#1749,0.5);
#1751=IFCSURFACESTYLE('Data / low-voltage',.BOTH.,(#1750));
#1752=IFCSTYLEDITEM(#1748,(#1751),$);
#1753=IFCSHAPEREPRESENTATION(#12,'Body','SweptSolid',(#1748));
#1754=IFCPRODUCTDEFINITIONSHAPE($,$,(#1753));
#1755=IFCCABLECARRIERSEGMENT('21TLdGleBf7wlafzgj3lzS',#5,'Data / low-voltage','Concealed',$,#1741,#1754,$,.CABLELADDERSEGMENT.);
#1756=IFCCARTESIANPOINT((-6.1,1.25,0.3));
#1757=IFCDIRECTION((0.,-1.,0.));
#1758=IFCDIRECTION((0.,0.,1.));
#1759=IFCAXIS2PLACEMENT3D(#1756,#1757,#1758);
#1760=IFCLOCALPLACEMENT(#26,#1759);
#1761=IFCCARTESIANPOINT((0.,0.));
#1762=IFCAXIS2PLACEMENT2D(#1761,$);
#1763=IFCCIRCLEPROFILEDEF(.AREA.,$,#1762,0.011);
#1764=IFCCARTESIANPOINT((0.,0.,0.));
#1765=IFCAXIS2PLACEMENT3D(#1764,$,$);
#1766=IFCDIRECTION((0.,0.,1.));
#1767=IFCEXTRUDEDAREASOLID(#1763,#1765,#1766,2.4);
#1768=IFCCOLOURRGB($,0.290196,0.615686,0.431373);
#1769=IFCSURFACESTYLESHADING(#1768,0.5);
#1770=IFCSURFACESTYLE('Ventilation',.BOTH.,(#1769));
#1771=IFCSTYLEDITEM(#1767,(#1770),$);
#1772=IFCSHAPEREPRESENTATION(#12,'Body','SweptSolid',(#1767));
#1773=IFCPRODUCTDEFINITIONSHAPE($,$,(#1772));
#1774=IFCDUCTSEGMENT('1KmjwN4jXWBou_FqghEMar',#5,'Ventilation','Concealed',$,#1760,#1773,$,.RIGIDSEGMENT.);
#1775=IFCCARTESIANPOINT((-8.094927,2.8,0.3));
#1776=IFCDIRECTION((0.,-1.,0.));
#1777=IFCDIRECTION((0.,0.,1.));
#1778=IFCAXIS2PLACEMENT3D(#1775,#1776,#1777);
#1779=IFCLOCALPLACEMENT(#26,#1778);
#1780=IFCCARTESIANPOINT((0.,0.));
#1781=IFCAXIS2PLACEMENT2D(#1780,$);
#1782=IFCCIRCLEPROFILEDEF(.AREA.,$,#1781,0.011);
#1783=IFCCARTESIANPOINT((0.,0.,0.));
#1784=IFCAXIS2PLACEMENT3D(#1783,$,$);
#1785=IFCDIRECTION((0.,0.,1.));
#1786=IFCEXTRUDEDAREASOLID(#1782,#1784,#1785,3.05);
#1787=IFCSTYLEDITEM(#1786,(#1643),$);
#1788=IFCSHAPEREPRESENTATION(#12,'Body','SweptSolid',(#1786));
#1789=IFCPRODUCTDEFINITIONSHAPE($,$,(#1788));
#1790=IFCPIPESEGMENT('3oTJuSHaBO_YznsqiC4Tpr',#5,'Water','Concealed',$,#1779,#1789,$,.RIGIDSEGMENT.);
#1791=IFCCARTESIANPOINT((-12.75,2.6,0.));
#1792=IFCDIRECTION((0.,0.,1.));
#1793=IFCDIRECTION((1.,0.,0.));
#1794=IFCAXIS2PLACEMENT3D(#1791,#1792,#1793);
#1795=IFCLOCALPLACEMENT(#26,#1794);
#1796=IFCCARTESIANPOINT((0.,0.));
#1797=IFCAXIS2PLACEMENT2D(#1796,$);
#1798=IFCRECTANGLEPROFILEDEF(.AREA.,$,#1797,0.5,0.2);
#1799=IFCCARTESIANPOINT((0.,0.,0.));
#1800=IFCAXIS2PLACEMENT3D(#1799,$,$);
#1801=IFCDIRECTION((0.,0.,1.));
#1802=IFCEXTRUDEDAREASOLID(#1798,#1800,#1801,1.);
#1803=IFCCOLOURRGB($,0.756863,0.313725,0.180392);
#1804=IFCSURFACESTYLESHADING(#1803,0.);
#1805=IFCSURFACESTYLE('#c1502e',.BOTH.,(#1804));
#1806=IFCSTYLEDITEM(#1802,(#1805),$);
#1807=IFCSHAPEREPRESENTATION(#12,'Body','SweptSolid',(#1802));
#1808=IFCPRODUCTDEFINITIONSHAPE($,$,(#1807));
#1809=IFCSPACEHEATER('1m4vwt5GCJebsyPAmIAgvs',#5,'Fireplace','Skanna asset library',$,#1795,#1808,$,.NOTDEFINED.);
#1810=IFCCARTESIANPOINT((-8.05,-0.3,2.4));
#1811=IFCDIRECTION((0.,0.,1.));
#1812=IFCDIRECTION((1.,0.,0.));
#1813=IFCAXIS2PLACEMENT3D(#1810,#1811,#1812);
#1814=IFCLOCALPLACEMENT(#26,#1813);
#1815=IFCCARTESIANPOINT((0.,0.));
#1816=IFCAXIS2PLACEMENT2D(#1815,$);
#1817=IFCRECTANGLEPROFILEDEF(.AREA.,$,#1816,0.8,0.8);
#1818=IFCCARTESIANPOINT((0.,0.,0.015));
#1819=IFCAXIS2PLACEMENT3D(#1818,$,$);
#1820=IFCDIRECTION((0.,0.,1.));
#1821=IFCEXTRUDEDAREASOLID(#1817,#1819,#1820,0.285);
#1822=IFCCOLOURRGB($,0.909804,0.909804,0.901961);
#1823=IFCSURFACESTYLESHADING(#1822,0.);
#1824=IFCSURFACESTYLE('#e8e8e6',.BOTH.,(#1823));
#1825=IFCSTYLEDITEM(#1821,(#1824),$);
#1826=IFCCARTESIANPOINT((0.,0.));
#1827=IFCAXIS2PLACEMENT2D(#1826,$);
#1828=IFCRECTANGLEPROFILEDEF(.AREA.,$,#1827,0.752,0.752);
#1829=IFCCARTESIANPOINT((0.,0.,0.));
#1830=IFCAXIS2PLACEMENT3D(#1829,$,$);
#1831=IFCDIRECTION((0.,0.,1.));
#1832=IFCEXTRUDEDAREASOLID(#1828,#1830,#1831,0.018);
#1833=IFCCOLOURRGB($,0.760784,0.776471,0.768627);
#1834=IFCSURFACESTYLESHADING(#1833,0.);
#1835=IFCSURFACESTYLE('#c2c6c4',.BOTH.,(#1834));
#1836=IFCSTYLEDITEM(#1832,(#1835),$);
#1837=IFCSHAPEREPRESENTATION(#12,'Body','SweptSolid',(#1821,#1832));
#1838=IFCPRODUCTDEFINITIONSHAPE($,$,(#1837));
#1839=IFCUNITARYEQUIPMENT('2hmDOwveJFoiQqciykcpnf',#5,'Air conditioner (ceiling)','Skanna asset library',$,#1814,#1838,$,.AIRCONDITIONINGUNIT.);
#1840=IFCRELCONTAINEDINSPATIALSTRUCTURE('0lMnbibYFuNMK5bYe9gUCQ',#5,$,$,(#42,#144,#204,#223,#295,#314,#509,#525,#621,#678,#697,#782,#803,#818,#837,#853,#869,#885,#901,#917,#933,#949,#973,#993,#1145,#1168,#1199,#1222,#1256,#1287,#1310,#1333,#1364,#1543,#1561,#1587,#1606,#1628,#1647,#1663,#1679,#1698,#1717,#1736,#1755,#1774,#1790,#1809,#1839),#27);
#1841=IFCRELAGGREGATES('27KTQ336wQVsfwipU0PPAb',#5,$,$,#21,(#27));
#1842=IFCDOORTYPE('2Z32Z0ENTlzZS0YPri5s$V',#5,'Door — single swing',$,$,$,$,$,$,.DOOR.,.SINGLE_SWING_LEFT.,.F.,$);
#1843=IFCRELDEFINESBYTYPE('0BxZorHk5_cEe2spIE8z6g',#5,$,$,(#204,#295,#678),#1842);
#1844=IFCWINDOWTYPE('15OpklqMdHni_4D53VjWkN',#5,'Window — single panel',$,$,$,$,$,$,.WINDOW.,.SINGLE_PANEL.,.F.,$);
#1845=IFCRELDEFINESBYTYPE('1x7aNgOUU3yha3NEFEdlOH',#5,$,$,(#144,#621),#1844);
#1846=IFCWINDOWTYPE('0W$nFcbkqvUFkEXEkSxQHm',#5,'Window — triple panel',$,$,$,$,$,$,.WINDOW.,.TRIPLE_PANEL_VERTICAL.,.F.,$);
#1847=IFCRELDEFINESBYTYPE('156j07WloXt5wfRgTogIUr',#5,$,$,(#509),#1846);
#1848=IFCMATERIAL('stone',$,$);
#1849=IFCRELASSOCIATESMATERIAL('1xnSsNE0dEI7ndy7w5S_Tr',#5,'Material: stone',$,(#818,#1310),#1848);
#1850=IFCMATERIAL('concrete',$,$);
#1851=IFCRELASSOCIATESMATERIAL('22PL8qZcthXXTKHXsC07op',#5,'Material: concrete',$,(#993,#1199),#1850);
#1852=IFCMATERIAL('tile',$,$);
#1853=IFCRELASSOCIATESMATERIAL('3DTEf2IrKwKIgO5Kjfvda_',#5,'Material: tile',$,(#1168,#1333),#1852);
#1854=IFCMATERIAL('brick',$,$);
#1855=IFCRELASSOCIATESMATERIAL('2NNzO6U9$mslL55PwCMTUU',#5,'Material: brick',$,(#1222,#1543),#1854);
#1856=IFCMATERIAL('wood',$,$);
#1857=IFCRELASSOCIATESMATERIAL('0qC8ZrsQdf1SIDXRdadjQi',#5,'Material: wood',$,(#1256),#1856);
#1858=IFCMATERIAL('glass',$,$);
#1859=IFCRELASSOCIATESMATERIAL('1jFB_6gWb$CJWyjA$nczVo',#5,'Material: glass',$,(#1287),#1858);
#1860=IFCMATERIAL('carpet',$,$);
#1861=IFCRELASSOCIATESMATERIAL('1JmPWQAzX1ZVOdfIdTq1Ya',#5,'Material: carpet',$,(#1364),#1860);
#1862=IFCMATERIAL('steel',$,$);
#1863=IFCRELASSOCIATESMATERIAL('1iXUSt8sJJMW8gSePJ867n',#5,'Material: steel',$,(#1587,#1628),#1862);
ENDSEC;
END-ISO-10303-21;
