ISO-10303-21;
HEADER;
FILE_DESCRIPTION((''),'2;1');
FILE_NAME('model.ifc','2026-08-04T09:12:13',('Skanna'),('LiDAR3D'),'skanna-web bim 0.1','skanna-web bim 0.1','');
FILE_SCHEMA(('IFC4'));
ENDSEC;
DATA;
#1=IFCPERSON($,$,'Skanna',$,$,$,$,$);
#2=IFCORGANIZATION($,'LiDAR3D',$,$,$);
#3=IFCPERSONANDORGANIZATION(#1,#2,$);
#4=IFCAPPLICATION(#2,'0.1','Skanna Web BIM Author','skanna-web');
#5=IFCOWNERHISTORY(#3,#4,$,.ADDED.,$,$,$,1785834733);
#6=IFCSIUNIT(*,.LENGTHUNIT.,$,.METRE.);
#7=IFCSIUNIT(*,.AREAUNIT.,$,.SQUARE_METRE.);
#8=IFCSIUNIT(*,.VOLUMEUNIT.,$,.CUBIC_METRE.);
#9=IFCUNITASSIGNMENT((#6,#7,#8));
#10=IFCCARTESIANPOINT((0.,0.,0.));
#11=IFCAXIS2PLACEMENT3D(#10,$,$);
#12=IFCGEOMETRICREPRESENTATIONCONTEXT($,'Model',3,1.E-05,#11,$);
#13=IFCPROJECT('2Z8JYDjBVkwQ0hkauAbzR7',#5,'503 based on plans','Authored in Skanna Web',$,$,$,(#12),#9);
#14=IFCCARTESIANPOINT((0.,0.,0.));
#15=IFCAXIS2PLACEMENT3D(#14,$,$);
#16=IFCLOCALPLACEMENT($,#15);
#17=IFCSITE('11yL3afWymKf4aZpKhEcme',#5,'Site',$,$,#16,$,$,.ELEMENT.,$,$,$,$,$);
#18=IFCCARTESIANPOINT((0.,0.,0.));
#19=IFCAXIS2PLACEMENT3D(#18,$,$);
#20=IFCLOCALPLACEMENT(#16,#19);
#21=IFCBUILDING('3sCbZyzoztLmndAtn1FrmF',#5,'Building',$,$,#20,$,$,.ELEMENT.,$,$,$);
#22=IFCRELAGGREGATES('1jnI3vRTSDLpj55ezRRmmO',#5,$,$,#13,(#17));
#23=IFCRELAGGREGATES('187LK3uixeo_a1RW87Kss6',#5,$,$,#17,(#21));
#24=IFCCARTESIANPOINT((0.,0.,0.2));
#25=IFCAXIS2PLACEMENT3D(#24,$,$);
#26=IFCLOCALPLACEMENT(#20,#25);
#27=IFCBUILDINGSTOREY('3rDopJMX9carZWV0OpF2vk',#5,'Ground floor',$,$,#26,$,$,.ELEMENT.,0.2);
#28=IFCCARTESIANPOINT((0.,0.,0.));
#29=IFCDIRECTION((0.,0.,1.));
#30=IFCDIRECTION((1.,0.,0.));
#31=IFCAXIS2PLACEMENT3D(#28,#29,#30);
#32=IFCLOCALPLACEMENT(#26,#31);
#33=IFCCARTESIANPOINT((0.075,0.075));
#34=IFCCARTESIANPOINT((-0.075,-0.075));
#35=IFCCARTESIANPOINT((28.27419,-0.075));
#36=IFCCARTESIANPOINT((28.12581,0.075));
#37=IFCPOLYLINE((#33,#34,#35,#36,#33));
#38=IFCARBITRARYCLOSEDPROFILEDEF(.AREA.,$,#37);
#39=IFCCARTESIANPOINT((0.,0.,0.));
#40=IFCAXIS2PLACEMENT3D(#39,$,$);
#41=IFCDIRECTION((0.,0.,1.));
#42=IFCEXTRUDEDAREASOLID(#38,#40,#41,4.05);
#43=IFCSHAPEREPRESENTATION(#12,'Body','SweptSolid',(#42));
#44=IFCPRODUCTDEFINITIONSHAPE($,$,(#43));
#45=IFCWALL('132K3YvWvfRiTDYyj1zs7g',#5,'Wall 1',$,$,#32,#44,$,.POLYGONAL.);
#46=IFCCARTESIANPOINT((26.950006,0.,0.));
#47=IFCDIRECTION((0.,0.,1.));
#48=IFCDIRECTION((1.,0.,0.));
#49=IFCAXIS2PLACEMENT3D(#46,#47,#48);
#50=IFCLOCALPLACEMENT(#26,#49);
#51=IFCCARTESIANPOINT((0.55,0.));
#52=IFCAXIS2PLACEMENT2D(#51,$);
#53=IFCRECTANGLEPROFILEDEF(.AREA.,$,#52,1.1,0.21);
#54=IFCCARTESIANPOINT((0.,0.,0.));
#55=IFCAXIS2PLACEMENT3D(#54,$,$);
#56=IFCDIRECTION((0.,0.,1.));
#57=IFCEXTRUDEDAREASOLID(#53,#55,#56,2.1);
#58=IFCSHAPEREPRESENTATION(#12,'Body','SweptSolid',(#57));
#59=IFCPRODUCTDEFINITIONSHAPE($,$,(#58));
#60=IFCOPENINGELEMENT('2ospnMHOpYpI4Ez$KUlZiA',#5,'Opening (door)',$,$,#50,#59,$,.OPENING.);
#61=IFCRELVOIDSELEMENT('0vlz4_2r$boX2flg90lQCY',#5,$,$,#45,#60);
#62=IFCCARTESIANPOINT((26.950006,0.,0.));
#63=IFCDIRECTION((0.,0.,1.));
#64=IFCDIRECTION((1.,0.,0.));
#65=IFCAXIS2PLACEMENT3D(#62,#63,#64);
#66=IFCLOCALPLACEMENT(#26,#65);
#67=IFCCARTESIANPOINT((0.0275,0.));
#68=IFCAXIS2PLACEMENT2D(#67,$);
#69=IFCRECTANGLEPROFILEDEF(.AREA.,$,#68,0.055,0.08);
#70=IFCCARTESIANPOINT((0.,0.,0.));
#71=IFCAXIS2PLACEMENT3D(#70,$,$);
#72=IFCDIRECTION((0.,0.,1.));
#73=IFCEXTRUDEDAREASOLID(#69,#71,#72,2.1);
#74=IFCCARTESIANPOINT((1.0725,0.));
#75=IFCAXIS2PLACEMENT2D(#74,$);
#76=IFCRECTANGLEPROFILEDEF(.AREA.,$,#75,0.055,0.08);
#77=IFCCARTESIANPOINT((0.,0.,0.));
#78=IFCAXIS2PLACEMENT3D(#77,$,$);
#79=IFCDIRECTION((0.,0.,1.));
#80=IFCEXTRUDEDAREASOLID(#76,#78,#79,2.1);
#81=IFCCARTESIANPOINT((0.55,0.));
#82=IFCAXIS2PLACEMENT2D(#81,$);
#83=IFCRECTANGLEPROFILEDEF(.AREA.,$,#82,0.99,0.08);
#84=IFCCARTESIANPOINT((0.,0.,2.045));
#85=IFCAXIS2PLACEMENT3D(#84,$,$);
#86=IFCDIRECTION((0.,0.,1.));
#87=IFCEXTRUDEDAREASOLID(#83,#85,#86,0.055);
#88=IFCCARTESIANPOINT((0.55,0.));
#89=IFCAXIS2PLACEMENT2D(#88,$);
#90=IFCRECTANGLEPROFILEDEF(.AREA.,$,#89,0.99,0.06);
#91=IFCCARTESIANPOINT((0.,0.,0.));
#92=IFCAXIS2PLACEMENT3D(#91,$,$);
#93=IFCDIRECTION((0.,0.,1.));
#94=IFCEXTRUDEDAREASOLID(#90,#92,#93,2.045);
#95=IFCCOLOURRGB($,0.956863,0.94902,0.933333);
#96=IFCSURFACESTYLESHADING(#95,0.);
#97=IFCSURFACESTYLE('Frame',.BOTH.,(#96));
#98=IFCSTYLEDITEM(#73,(#97),$);
#99=IFCSTYLEDITEM(#80,(#97),$);
#100=IFCSTYLEDITEM(#87,(#97),$);
#101=IFCCOLOURRGB($,0.690196,0.470588,0.25098);
#102=IFCSURFACESTYLESHADING(#101,0.);
#103=IFCSURFACESTYLE('Door leaf',.BOTH.,(#102));
#104=IFCSTYLEDITEM(#94,(#103),$);
#105=IFCSHAPEREPRESENTATION(#12,'Body','SweptSolid',(#73,#80,#87,#94));
#106=IFCPRODUCTDEFINITIONSHAPE($,$,(#105));
#107=IFCDOOR('1ZMSSIQUnMaEWFgZwSImDY',#5,'Door 1',$,$,#66,#106,$,2.1,1.1,.DOOR.,.SINGLE_SWING_RIGHT.,$);
#108=IFCRELFILLSELEMENT('1lfHcf_8VNLbMrN$xzM7uc',#5,$,$,#60,#107);
#109=IFCCARTESIANPOINT((20.518334,0.,0.));
#110=IFCDIRECTION((0.,0.,1.));
#111=IFCDIRECTION((1.,0.,0.));
#112=IFCAXIS2PLACEMENT3D(#109,#110,#111);
#113=IFCLOCALPLACEMENT(#26,#112);
#114=IFCCARTESIANPOINT((2.5,0.));
#115=IFCAXIS2PLACEMENT2D(#114,$);
#116=IFCRECTANGLEPROFILEDEF(.AREA.,$,#115,5.,0.21);
#117=IFCCARTESIANPOINT((0.,0.,0.));
#118=IFCAXIS2PLACEMENT3D(#117,$,$);
#119=IFCDIRECTION((0.,0.,1.));
#120=IFCEXTRUDEDAREASOLID(#116,#118,#119,2.2);
#121=IFCSHAPEREPRESENTATION(#12,'Body','SweptSolid',(#120));
#122=IFCPRODUCTDEFINITIONSHAPE($,$,(#121));
#123=IFCOPENINGELEMENT('0sHCihR1Wj7dDdbEC1F34j',#5,'Opening (door)',$,$,#113,#122,$,.OPENING.);
#124=IFCRELVOIDSELEMENT('1cg8ToaTqnlqN1pT5gJ49_',#5,$,$,#45,#123);
#125=IFCCARTESIANPOINT((20.518334,0.,0.));
#126=IFCDIRECTION((0.,0.,1.));
#127=IFCDIRECTION((1.,0.,0.));
#128=IFCAXIS2PLACEMENT3D(#125,#126,#127);
#129=IFCLOCALPLACEMENT(#26,#128);
#130=IFCCARTESIANPOINT((0.0275,0.));
#131=IFCAXIS2PLACEMENT2D(#130,$);
#132=IFCRECTANGLEPROFILEDEF(.AREA.,$,#131,0.055,0.08);
#133=IFCCARTESIANPOINT((0.,0.,0.));
#134=IFCAXIS2PLACEMENT3D(#133,$,$);
#135=IFCDIRECTION((0.,0.,1.));
#136=IFCEXTRUDEDAREASOLID(#132,#134,#135,2.2);
#137=IFCCARTESIANPOINT((4.9725,0.));
#138=IFCAXIS2PLACEMENT2D(#137,$);
#139=IFCRECTANGLEPROFILEDEF(.AREA.,$,#138,0.055,0.08);
#140=IFCCARTESIANPOINT((0.,0.,0.));
#141=IFCAXIS2PLACEMENT3D(#140,$,$);
#142=IFCDIRECTION((0.,0.,1.));
#143=IFCEXTRUDEDAREASOLID(#139,#141,#142,2.2);
#144=IFCCARTESIANPOINT((2.5,0.));
#145=IFCAXIS2PLACEMENT2D(#144,$);
#146=IFCRECTANGLEPROFILEDEF(.AREA.,$,#145,4.89,0.08);
#147=IFCCARTESIANPOINT((0.,0.,2.145));
#148=IFCAXIS2PLACEMENT3D(#147,$,$);
#149=IFCDIRECTION((0.,0.,1.));
#150=IFCEXTRUDEDAREASOLID(#146,#148,#149,0.055);
#151=IFCCARTESIANPOINT((2.5,0.));
#152=IFCAXIS2PLACEMENT2D(#151,$);
#153=IFCRECTANGLEPROFILEDEF(.AREA.,$,#152,4.89,0.06);
#154=IFCCARTESIANPOINT((0.,0.,0.));
#155=IFCAXIS2PLACEMENT3D(#154,$,$);
#156=IFCDIRECTION((0.,0.,1.));
#157=IFCEXTRUDEDAREASOLID(#153,#155,#156,2.145);
#158=IFCCOLOURRGB($,0.14902,0.156863,0.168627);
#159=IFCSURFACESTYLESHADING(#158,0.);
#160=IFCSURFACESTYLE('Frame',.BOTH.,(#159));
#161=IFCSTYLEDITEM(#136,(#160),$);
#162=IFCSTYLEDITEM(#143,(#160),$);
#163=IFCSTYLEDITEM(#150,(#160),$);
#164=IFCCOLOURRGB($,0.478431,0.482353,0.478431);
#165=IFCSURFACESTYLESHADING(#164,0.);
#166=IFCSURFACESTYLE('Door leaf',.BOTH.,(#165));
#167=IFCSTYLEDITEM(#157,(#166),$);
#168=IFCSHAPEREPRESENTATION(#12,'Body','SweptSolid',(#136,#143,#150,#157));
#169=IFCPRODUCTDEFINITIONSHAPE($,$,(#168));
#170=IFCDOOR('3uxFunT7Kc9W_V0j6u42p8',#5,'Door 2',$,$,#129,#169,$,2.2,5.,.DOOR.,.ROLLINGUP.,$);
#171=IFCRELFILLSELEMENT('2oQ8H1BFC$1UzNGDvMQ2KA',#5,$,$,#123,#170);
#172=IFCCARTESIANPOINT((26.177442,0.,0.));
#173=IFCDIRECTION((0.,0.,1.));
#174=IFCDIRECTION((1.,0.,0.));
#175=IFCAXIS2PLACEMENT3D(#172,#173,#174);
#176=IFCLOCALPLACEMENT(#26,#175);
#177=IFCCARTESIANPOINT((0.3,0.));
#178=IFCAXIS2PLACEMENT2D(#177,$);
#179=IFCRECTANGLEPROFILEDEF(.AREA.,$,#178,0.6,0.21);
#180=IFCCARTESIANPOINT((0.,0.,0.));
#181=IFCAXIS2PLACEMENT3D(#180,$,$);
#182=IFCDIRECTION((0.,0.,1.));
#183=IFCEXTRUDEDAREASOLID(#179,#181,#182,1.);
#184=IFCSHAPEREPRESENTATION(#12,'Body','SweptSolid',(#183));
#185=IFCPRODUCTDEFINITIONSHAPE($,$,(#184));
#186=IFCOPENINGELEMENT('2U2Bl3MgTyfPkz$uLJSwfo',#5,'Opening (opening)',$,$,#176,#185,$,.OPENING.);
#187=IFCRELVOIDSELEMENT('32Uptoiz_hHK8$CjTao5Uy',#5,$,$,#45,#186);
#188=IFCCARTESIANPOINT((16.260023,0.,0.));
#189=IFCDIRECTION((0.,0.,1.));
#190=IFCDIRECTION((1.,0.,0.));
#191=IFCAXIS2PLACEMENT3D(#188,#189,#190);
#192=IFCLOCALPLACEMENT(#26,#191);
#193=IFCCARTESIANPOINT((1.5,0.));
#194=IFCAXIS2PLACEMENT2D(#193,$);
#195=IFCRECTANGLEPROFILEDEF(.AREA.,$,#194,3.,0.21);
#196=IFCCARTESIANPOINT((0.,0.,0.));
#197=IFCAXIS2PLACEMENT3D(#196,$,$);
#198=IFCDIRECTION((0.,0.,1.));
#199=IFCEXTRUDEDAREASOLID(#195,#197,#198,2.2);
#200=IFCSHAPEREPRESENTATION(#12,'Body','SweptSolid',(#199));
#201=IFCPRODUCTDEFINITIONSHAPE($,$,(#200));
#202=IFCOPENINGELEMENT('3rRUbiEo$NZWpOS22bia_O',#5,'Opening (door)',$,$,#192,#201,$,.OPENING.);
#203=IFCRELVOIDSELEMENT('35HFm34DHjk2OCIUelt7uj',#5,$,$,#45,#202);
#204=IFCCARTESIANPOINT((16.260023,0.,0.));
#205=IFCDIRECTION((0.,0.,1.));
#206=IFCDIRECTION((1.,0.,0.));
#207=IFCAXIS2PLACEMENT3D(#204,#205,#206);
#208=IFCLOCALPLACEMENT(#26,#207);
#209=IFCCARTESIANPOINT((0.0275,0.));
#210=IFCAXIS2PLACEMENT2D(#209,$);
#211=IFCRECTANGLEPROFILEDEF(.AREA.,$,#210,0.055,0.08);
#212=IFCCARTESIANPOINT((0.,0.,0.));
#213=IFCAXIS2PLACEMENT3D(#212,$,$);
#214=IFCDIRECTION((0.,0.,1.));
#215=IFCEXTRUDEDAREASOLID(#211,#213,#214,2.2);
#216=IFCCARTESIANPOINT((2.9725,0.));
#217=IFCAXIS2PLACEMENT2D(#216,$);
#218=IFCRECTANGLEPROFILEDEF(.AREA.,$,#217,0.055,0.08);
#219=IFCCARTESIANPOINT((0.,0.,0.));
#220=IFCAXIS2PLACEMENT3D(#219,$,$);
#221=IFCDIRECTION((0.,0.,1.));
#222=IFCEXTRUDEDAREASOLID(#218,#220,#221,2.2);
#223=IFCCARTESIANPOINT((1.5,0.));
#224=IFCAXIS2PLACEMENT2D(#223,$);
#225=IFCRECTANGLEPROFILEDEF(.AREA.,$,#224,2.89,0.08);
#226=IFCCARTESIANPOINT((0.,0.,2.145));
#227=IFCAXIS2PLACEMENT3D(#226,$,$);
#228=IFCDIRECTION((0.,0.,1.));
#229=IFCEXTRUDEDAREASOLID(#225,#227,#228,0.055);
#230=IFCCARTESIANPOINT((1.5,0.));
#231=IFCAXIS2PLACEMENT2D(#230,$);
#232=IFCRECTANGLEPROFILEDEF(.AREA.,$,#231,2.89,0.06);
#233=IFCCARTESIANPOINT((0.,0.,0.));
#234=IFCAXIS2PLACEMENT3D(#233,$,$);
#235=IFCDIRECTION((0.,0.,1.));
#236=IFCEXTRUDEDAREASOLID(#232,#234,#235,2.145);
#237=IFCSTYLEDITEM(#215,(#160),$);
#238=IFCSTYLEDITEM(#222,(#160),$);
#239=IFCSTYLEDITEM(#229,(#160),$);
#240=IFCCOLOURRGB($,0.647059,0.647059,0.647059);
#241=IFCSURFACESTYLESHADING(#240,0.);
#242=IFCSURFACESTYLE('Door leaf',.BOTH.,(#241));
#243=IFCSTYLEDITEM(#236,(#242),$);
#244=IFCSHAPEREPRESENTATION(#12,'Body','SweptSolid',(#215,#222,#229,#236));
#245=IFCPRODUCTDEFINITIONSHAPE($,$,(#244));
#246=IFCDOOR('2DtDp1Qg4I7VwSFvjMwL6i',#5,'Door 3',$,$,#208,#245,$,2.2,3.,.DOOR.,.ROLLINGUP.,$);
#247=IFCRELFILLSELEMENT('0tvV3WnwJQdkbyXtLLjjjn',#5,$,$,#202,#246);
#248=IFCCARTESIANPOINT((10.346615,0.,0.));
#249=IFCDIRECTION((0.,0.,1.));
#250=IFCDIRECTION((1.,0.,0.));
#251=IFCAXIS2PLACEMENT3D(#248,#249,#250);
#252=IFCLOCALPLACEMENT(#26,#251);
#253=IFCCARTESIANPOINT((2.,0.));
#254=IFCAXIS2PLACEMENT2D(#253,$);
#255=IFCRECTANGLEPROFILEDEF(.AREA.,$,#254,4.,0.21);
#256=IFCCARTESIANPOINT((0.,0.,0.));
#257=IFCAXIS2PLACEMENT3D(#256,$,$);
#258=IFCDIRECTION((0.,0.,1.));
#259=IFCEXTRUDEDAREASOLID(#255,#257,#258,2.1);
#260=IFCSHAPEREPRESENTATION(#12,'Body','SweptSolid',(#259));
#261=IFCPRODUCTDEFINITIONSHAPE($,$,(#260));
#262=IFCOPENINGELEMENT('0Glzna743xhYjdmdvgC3Vd',#5,'Opening (opening)',$,$,#252,#261,$,.OPENING.);
#263=IFCRELVOIDSELEMENT('3ZXFaeweB42zQQqXARqgw6',#5,$,$,#45,#262);
#264=IFCCARTESIANPOINT((7.748455,0.,0.5));
#265=IFCDIRECTION((0.,0.,1.));
#266=IFCDIRECTION((1.,0.,0.));
#267=IFCAXIS2PLACEMENT3D(#264,#265,#266);
#268=IFCLOCALPLACEMENT(#26,#267);
#269=IFCCARTESIANPOINT((0.3,0.));
#270=IFCAXIS2PLACEMENT2D(#269,$);
#271=IFCRECTANGLEPROFILEDEF(.AREA.,$,#270,0.6,0.21);
#272=IFCCARTESIANPOINT((0.,0.,0.));
#273=IFCAXIS2PLACEMENT3D(#272,$,$);
#274=IFCDIRECTION((0.,0.,1.));
#275=IFCEXTRUDEDAREASOLID(#271,#273,#274,2.);
#276=IFCSHAPEREPRESENTATION(#12,'Body','SweptSolid',(#275));
#277=IFCPRODUCTDEFINITIONSHAPE($,$,(#276));
#278=IFCOPENINGELEMENT('0rdMqKCfkLRUgx0UTazQVn',#5,'Opening (window)',$,$,#268,#277,$,.OPENING.);
#279=IFCRELVOIDSELEMENT('3FLZB8Nzk1LlYkPb9lChvh',#5,$,$,#45,#278);
#280=IFCCARTESIANPOINT((7.748455,0.,0.5));
#281=IFCDIRECTION((0.,0.,1.));
#282=IFCDIRECTION((1.,0.,0.));
#283=IFCAXIS2PLACEMENT3D(#280,#281,#282);
#284=IFCLOCALPLACEMENT(#26,#283);
#285=IFCCARTESIANPOINT((0.0275,0.));
#286=IFCAXIS2PLACEMENT2D(#285,$);
#287=IFCRECTANGLEPROFILEDEF(.AREA.,$,#286,0.055,0.08);
#288=IFCCARTESIANPOINT((0.,0.,0.));
#289=IFCAXIS2PLACEMENT3D(#288,$,$);
#290=IFCDIRECTION((0.,0.,1.));
#291=IFCEXTRUDEDAREASOLID(#287,#289,#290,2.);
#292=IFCCARTESIANPOINT((0.5725,0.));
#293=IFCAXIS2PLACEMENT2D(#292,$);
#294=IFCRECTANGLEPROFILEDEF(.AREA.,$,#293,0.055,0.08);
#295=IFCCARTESIANPOINT((0.,0.,0.));
#296=IFCAXIS2PLACEMENT3D(#295,$,$);
#297=IFCDIRECTION((0.,0.,1.));
#298=IFCEXTRUDEDAREASOLID(#294,#296,#297,2.);
#299=IFCCARTESIANPOINT((0.3,0.));
#300=IFCAXIS2PLACEMENT2D(#299,$);
#301=IFCRECTANGLEPROFILEDEF(.AREA.,$,#300,0.49,0.08);
#302=IFCCARTESIANPOINT((0.,0.,1.945));
#303=IFCAXIS2PLACEMENT3D(#302,$,$);
#304=IFCDIRECTION((0.,0.,1.));
#305=IFCEXTRUDEDAREASOLID(#301,#303,#304,0.055);
#306=IFCCARTESIANPOINT((0.3,0.));
#307=IFCAXIS2PLACEMENT2D(#306,$);
#308=IFCRECTANGLEPROFILEDEF(.AREA.,$,#307,0.49,0.08);
#309=IFCCARTESIANPOINT((0.,0.,0.));
#310=IFCAXIS2PLACEMENT3D(#309,$,$);
#311=IFCDIRECTION((0.,0.,1.));
#312=IFCEXTRUDEDAREASOLID(#308,#310,#311,0.055);
#313=IFCCARTESIANPOINT((0.074,0.));
#314=IFCAXIS2PLACEMENT2D(#313,$);
#315=IFCRECTANGLEPROFILEDEF(.AREA.,$,#314,0.038,0.08);
#316=IFCCARTESIANPOINT((0.,0.,0.055));
#317=IFCAXIS2PLACEMENT3D(#316,$,$);
#318=IFCDIRECTION((0.,0.,1.));
#319=IFCEXTRUDEDAREASOLID(#315,#317,#318,1.89);
#320=IFCCARTESIANPOINT((0.526,0.));
#321=IFCAXIS2PLACEMENT2D(#320,$);
#322=IFCRECTANGLEPROFILEDEF(.AREA.,$,#321,0.038,0.08);
#323=IFCCARTESIANPOINT((0.,0.,0.055));
#324=IFCAXIS2PLACEMENT3D(#323,$,$);
#325=IFCDIRECTION((0.,0.,1.));
#326=IFCEXTRUDEDAREASOLID(#322,#324,#325,1.89);
#327=IFCCARTESIANPOINT((0.3,0.));
#328=IFCAXIS2PLACEMENT2D(#327,$);
#329=IFCRECTANGLEPROFILEDEF(.AREA.,$,#328,0.414,0.08);
#330=IFCCARTESIANPOINT((0.,0.,1.907));
#331=IFCAXIS2PLACEMENT3D(#330,$,$);
#332=IFCDIRECTION((0.,0.,1.));
#333=IFCEXTRUDEDAREASOLID(#329,#331,#332,0.038);
#334=IFCCARTESIANPOINT((0.3,0.));
#335=IFCAXIS2PLACEMENT2D(#334,$);
#336=IFCRECTANGLEPROFILEDEF(.AREA.,$,#335,0.414,0.08);
#337=IFCCARTESIANPOINT((0.,0.,0.055));
#338=IFCAXIS2PLACEMENT3D(#337,$,$);
#339=IFCDIRECTION((0.,0.,1.));
#340=IFCEXTRUDEDAREASOLID(#336,#338,#339,0.038);
#341=IFCCARTESIANPOINT((0.3,0.));
#342=IFCAXIS2PLACEMENT2D(#341,$);
#343=IFCRECTANGLEPROFILEDEF(.AREA.,$,#342,0.414,0.06);
#344=IFCCARTESIANPOINT((0.,0.,0.093));
#345=IFCAXIS2PLACEMENT3D(#344,$,$);
#346=IFCDIRECTION((0.,0.,1.));
#347=IFCEXTRUDEDAREASOLID(#343,#345,#346,1.814);
#348=IFCCOLOURRGB($,0.039216,0.039216,0.039216);
#349=IFCSURFACESTYLESHADING(#348,0.);
#350=IFCSURFACESTYLE('Frame',.BOTH.,(#349));
#351=IFCSTYLEDITEM(#291,(#350),$);
#352=IFCSTYLEDITEM(#298,(#350),$);
#353=IFCSTYLEDITEM(#305,(#350),$);
#354=IFCSTYLEDITEM(#312,(#350),$);
#355=IFCSTYLEDITEM(#319,(#350),$);
#356=IFCSTYLEDITEM(#326,(#350),$);
#357=IFCSTYLEDITEM(#333,(#350),$);
#358=IFCSTYLEDITEM(#340,(#350),$);
#359=IFCCOLOURRGB($,0.611765,0.768627,0.831373);
#360=IFCSURFACESTYLESHADING(#359,0.7);
#361=IFCSURFACESTYLE('Glass',.BOTH.,(#360));
#362=IFCSTYLEDITEM(#347,(#361),$);
#363=IFCSHAPEREPRESENTATION(#12,'Body','SweptSolid',(#291,#298,#305,#312,#319,#326,#333,#340,#347));
#364=IFCPRODUCTDEFINITIONSHAPE($,$,(#363));
#365=IFCWINDOW('1Se7VqogkeiyJKj2Et8eT4',#5,'Window 1','Clear glazing',$,#284,#364,$,2.,0.6,.WINDOW.,.SINGLE_PANEL.,$);
#366=IFCRELFILLSELEMENT('2FTFrU_zwFhM$o$tm5_0bw',#5,$,$,#278,#365);
#367=IFCCARTESIANPOINT((5.462334,0.,0.5));
#368=IFCDIRECTION((0.,0.,1.));
#369=IFCDIRECTION((1.,0.,0.));
#370=IFCAXIS2PLACEMENT3D(#367,#368,#369);
#371=IFCLOCALPLACEMENT(#26,#370);
#372=IFCCARTESIANPOINT((0.3,0.));
#373=IFCAXIS2PLACEMENT2D(#372,$);
#374=IFCRECTANGLEPROFILEDEF(.AREA.,$,#373,0.6,0.21);
#375=IFCCARTESIANPOINT((0.,0.,0.));
#376=IFCAXIS2PLACEMENT3D(#375,$,$);
#377=IFCDIRECTION((0.,0.,1.));
#378=IFCEXTRUDEDAREASOLID(#374,#376,#377,2.);
#379=IFCSHAPEREPRESENTATION(#12,'Body','SweptSolid',(#378));
#380=IFCPRODUCTDEFINITIONSHAPE($,$,(#379));
#381=IFCOPENINGELEMENT('1xlwLuFtTbsUWBRBWhCyJu',#5,'Opening (window)',$,$,#371,#380,$,.OPENING.);
#382=IFCRELVOIDSELEMENT('3P3TWsIl_EKuYiWKt9AGlv',#5,$,$,#45,#381);
#383=IFCCARTESIANPOINT((5.462334,0.,0.5));
#384=IFCDIRECTION((0.,0.,1.));
#385=IFCDIRECTION((1.,0.,0.));
#386=IFCAXIS2PLACEMENT3D(#383,#384,#385);
#387=IFCLOCALPLACEMENT(#26,#386);
#388=IFCCARTESIANPOINT((0.0275,0.));
#389=IFCAXIS2PLACEMENT2D(#388,$);
#390=IFCRECTANGLEPROFILEDEF(.AREA.,$,#389,0.055,0.08);
#391=IFCCARTESIANPOINT((0.,0.,0.));
#392=IFCAXIS2PLACEMENT3D(#391,$,$);
#393=IFCDIRECTION((0.,0.,1.));
#394=IFCEXTRUDEDAREASOLID(#390,#392,#393,2.);
#395=IFCCARTESIANPOINT((0.5725,0.));
#396=IFCAXIS2PLACEMENT2D(#395,$);
#397=IFCRECTANGLEPROFILEDEF(.AREA.,$,#396,0.055,0.08);
#398=IFCCARTESIANPOINT((0.,0.,0.));
#399=IFCAXIS2PLACEMENT3D(#398,$,$);
#400=IFCDIRECTION((0.,0.,1.));
#401=IFCEXTRUDEDAREASOLID(#397,#399,#400,2.);
#402=IFCCARTESIANPOINT((0.3,0.));
#403=IFCAXIS2PLACEMENT2D(#402,$);
#404=IFCRECTANGLEPROFILEDEF(.AREA.,$,#403,0.49,0.08);
#405=IFCCARTESIANPOINT((0.,0.,1.945));
#406=IFCAXIS2PLACEMENT3D(#405,$,$);
#407=IFCDIRECTION((0.,0.,1.));
#408=IFCEXTRUDEDAREASOLID(#404,#406,#407,0.055);
#409=IFCCARTESIANPOINT((0.3,0.));
#410=IFCAXIS2PLACEMENT2D(#409,$);
#411=IFCRECTANGLEPROFILEDEF(.AREA.,$,#410,0.49,0.08);
#412=IFCCARTESIANPOINT((0.,0.,0.));
#413=IFCAXIS2PLACEMENT3D(#412,$,$);
#414=IFCDIRECTION((0.,0.,1.));
#415=IFCEXTRUDEDAREASOLID(#411,#413,#414,0.055);
#416=IFCCARTESIANPOINT((0.074,0.));
#417=IFCAXIS2PLACEMENT2D(#416,$);
#418=IFCRECTANGLEPROFILEDEF(.AREA.,$,#417,0.038,0.08);
#419=IFCCARTESIANPOINT((0.,0.,0.055));
#420=IFCAXIS2PLACEMENT3D(#419,$,$);
#421=IFCDIRECTION((0.,0.,1.));
#422=IFCEXTRUDEDAREASOLID(#418,#420,#421,1.89);
#423=IFCCARTESIANPOINT((0.526,0.));
#424=IFCAXIS2PLACEMENT2D(#423,$);
#425=IFCRECTANGLEPROFILEDEF(.AREA.,$,#424,0.038,0.08);
#426=IFCCARTESIANPOINT((0.,0.,0.055));
#427=IFCAXIS2PLACEMENT3D(#426,$,$);
#428=IFCDIRECTION((0.,0.,1.));
#429=IFCEXTRUDEDAREASOLID(#425,#427,#428,1.89);
#430=IFCCARTESIANPOINT((0.3,0.));
#431=IFCAXIS2PLACEMENT2D(#430,$);
#432=IFCRECTANGLEPROFILEDEF(.AREA.,$,#431,0.414,0.08);
#433=IFCCARTESIANPOINT((0.,0.,1.907));
#434=IFCAXIS2PLACEMENT3D(#433,$,$);
#435=IFCDIRECTION((0.,0.,1.));
#436=IFCEXTRUDEDAREASOLID(#432,#434,#435,0.038);
#437=IFCCARTESIANPOINT((0.3,0.));
#438=IFCAXIS2PLACEMENT2D(#437,$);
#439=IFCRECTANGLEPROFILEDEF(.AREA.,$,#438,0.414,0.08);
#440=IFCCARTESIANPOINT((0.,0.,0.055));
#441=IFCAXIS2PLACEMENT3D(#440,$,$);
#442=IFCDIRECTION((0.,0.,1.));
#443=IFCEXTRUDEDAREASOLID(#439,#441,#442,0.038);
#444=IFCCARTESIANPOINT((0.3,0.));
#445=IFCAXIS2PLACEMENT2D(#444,$);
#446=IFCRECTANGLEPROFILEDEF(.AREA.,$,#445,0.414,0.06);
#447=IFCCARTESIANPOINT((0.,0.,0.093));
#448=IFCAXIS2PLACEMENT3D(#447,$,$);
#449=IFCDIRECTION((0.,0.,1.));
#450=IFCEXTRUDEDAREASOLID(#446,#448,#449,1.814);
#451=IFCSTYLEDITEM(#394,(#350),$);
#452=IFCSTYLEDITEM(#401,(#350),$);
#453=IFCSTYLEDITEM(#408,(#350),$);
#454=IFCSTYLEDITEM(#415,(#350),$);
#455=IFCSTYLEDITEM(#422,(#350),$);
#456=IFCSTYLEDITEM(#429,(#350),$);
#457=IFCSTYLEDITEM(#436,(#350),$);
#458=IFCSTYLEDITEM(#443,(#350),$);
#459=IFCSTYLEDITEM(#450,(#361),$);
#460=IFCSHAPEREPRESENTATION(#12,'Body','SweptSolid',(#394,#401,#408,#415,#422,#429,#436,#443,#450));
#461=IFCPRODUCTDEFINITIONSHAPE($,$,(#460));
#462=IFCWINDOW('1JGDmpdPJOGjY5VRQQlsty',#5,'Window 2','Clear glazing',$,#387,#461,$,2.,0.6,.WINDOW.,.SINGLE_PANEL.,$);
#463=IFCRELFILLSELEMENT('3HpphFNabgc70mF6NC6Uxy',#5,$,$,#381,#462);
#464=IFCCARTESIANPOINT((3.210027,0.,0.5));
#465=IFCDIRECTION((0.,0.,1.));
#466=IFCDIRECTION((1.,0.,0.));
#467=IFCAXIS2PLACEMENT3D(#464,#465,#466);
#468=IFCLOCALPLACEMENT(#26,#467);
#469=IFCCARTESIANPOINT((0.3,0.));
#470=IFCAXIS2PLACEMENT2D(#469,$);
#471=IFCRECTANGLEPROFILEDEF(.AREA.,$,#470,0.6,0.21);
#472=IFCCARTESIANPOINT((0.,0.,0.));
#473=IFCAXIS2PLACEMENT3D(#472,$,$);
#474=IFCDIRECTION((0.,0.,1.));
#475=IFCEXTRUDEDAREASOLID(#471,#473,#474,2.);
#476=IFCSHAPEREPRESENTATION(#12,'Body','SweptSolid',(#475));
#477=IFCPRODUCTDEFINITIONSHAPE($,$,(#476));
#478=IFCOPENINGELEMENT('1a8gtRRomXSue1FLVM2lho',#5,'Opening (window)',$,$,#468,#477,$,.OPENING.);
#479=IFCRELVOIDSELEMENT('1_zs3FemeEiGA$DDZIPgIR',#5,$,$,#45,#478);
#480=IFCCARTESIANPOINT((3.210027,0.,0.5));
#481=IFCDIRECTION((0.,0.,1.));
#482=IFCDIRECTION((1.,0.,0.));
#483=IFCAXIS2PLACEMENT3D(#480,#481,#482);
#484=IFCLOCALPLACEMENT(#26,#483);
#485=IFCCARTESIANPOINT((0.0275,0.));
#486=IFCAXIS2PLACEMENT2D(#485,$);
#487=IFCRECTANGLEPROFILEDEF(.AREA.,$,#486,0.055,0.08);
#488=IFCCARTESIANPOINT((0.,0.,0.));
#489=IFCAXIS2PLACEMENT3D(#488,$,$);
#490=IFCDIRECTION((0.,0.,1.));
#491=IFCEXTRUDEDAREASOLID(#487,#489,#490,2.);
#492=IFCCARTESIANPOINT((0.5725,0.));
#493=IFCAXIS2PLACEMENT2D(#492,$);
#494=IFCRECTANGLEPROFILEDEF(.AREA.,$,#493,0.055,0.08);
#495=IFCCARTESIANPOINT((0.,0.,0.));
#496=IFCAXIS2PLACEMENT3D(#495,$,$);
#497=IFCDIRECTION((0.,0.,1.));
#498=IFCEXTRUDEDAREASOLID(#494,#496,#497,2.);
#499=IFCCARTESIANPOINT((0.3,0.));
#500=IFCAXIS2PLACEMENT2D(#499,$);
#501=IFCRECTANGLEPROFILEDEF(.AREA.,$,#500,0.49,0.08);
#502=IFCCARTESIANPOINT((0.,0.,1.945));
#503=IFCAXIS2PLACEMENT3D(#502,$,$);
#504=IFCDIRECTION((0.,0.,1.));
#505=IFCEXTRUDEDAREASOLID(#501,#503,#504,0.055);
#506=IFCCARTESIANPOINT((0.3,0.));
#507=IFCAXIS2PLACEMENT2D(#506,$);
#508=IFCRECTANGLEPROFILEDEF(.AREA.,$,#507,0.49,0.08);
#509=IFCCARTESIANPOINT((0.,0.,0.));
#510=IFCAXIS2PLACEMENT3D(#509,$,$);
#511=IFCDIRECTION((0.,0.,1.));
#512=IFCEXTRUDEDAREASOLID(#508,#510,#511,0.055);
#513=IFCCARTESIANPOINT((0.074,0.));
#514=IFCAXIS2PLACEMENT2D(#513,$);
#515=IFCRECTANGLEPROFILEDEF(.AREA.,$,#514,0.038,0.08);
#516=IFCCARTESIANPOINT((0.,0.,0.055));
#517=IFCAXIS2PLACEMENT3D(#516,$,$);
#518=IFCDIRECTION((0.,0.,1.));
#519=IFCEXTRUDEDAREASOLID(#515,#517,#518,1.89);
#520=IFCCARTESIANPOINT((0.526,0.));
#521=IFCAXIS2PLACEMENT2D(#520,$);
#522=IFCRECTANGLEPROFILEDEF(.AREA.,$,#521,0.038,0.08);
#523=IFCCARTESIANPOINT((0.,0.,0.055));
#524=IFCAXIS2PLACEMENT3D(#523,$,$);
#525=IFCDIRECTION((0.,0.,1.));
#526=IFCEXTRUDEDAREASOLID(#522,#524,#525,1.89);
#527=IFCCARTESIANPOINT((0.3,0.));
#528=IFCAXIS2PLACEMENT2D(#527,$);
#529=IFCRECTANGLEPROFILEDEF(.AREA.,$,#528,0.414,0.08);
#530=IFCCARTESIANPOINT((0.,0.,1.907));
#531=IFCAXIS2PLACEMENT3D(#530,$,$);
#532=IFCDIRECTION((0.,0.,1.));
#533=IFCEXTRUDEDAREASOLID(#529,#531,#532,0.038);
#534=IFCCARTESIANPOINT((0.3,0.));
#535=IFCAXIS2PLACEMENT2D(#534,$);
#536=IFCRECTANGLEPROFILEDEF(.AREA.,$,#535,0.414,0.08);
#537=IFCCARTESIANPOINT((0.,0.,0.055));
#538=IFCAXIS2PLACEMENT3D(#537,$,$);
#539=IFCDIRECTION((0.,0.,1.));
#540=IFCEXTRUDEDAREASOLID(#536,#538,#539,0.038);
#541=IFCCARTESIANPOINT((0.3,0.));
#542=IFCAXIS2PLACEMENT2D(#541,$);
#543=IFCRECTANGLEPROFILEDEF(.AREA.,$,#542,0.414,0.06);
#544=IFCCARTESIANPOINT((0.,0.,0.093));
#545=IFCAXIS2PLACEMENT3D(#544,$,$);
#546=IFCDIRECTION((0.,0.,1.));
#547=IFCEXTRUDEDAREASOLID(#543,#545,#546,1.814);
#548=IFCSTYLEDITEM(#491,(#350),$);
#549=IFCSTYLEDITEM(#498,(#350),$);
#550=IFCSTYLEDITEM(#505,(#350),$);
#551=IFCSTYLEDITEM(#512,(#350),$);
#552=IFCSTYLEDITEM(#519,(#350),$);
#553=IFCSTYLEDITEM(#526,(#350),$);
#554=IFCSTYLEDITEM(#533,(#350),$);
#555=IFCSTYLEDITEM(#540,(#350),$);
#556=IFCSTYLEDITEM(#547,(#361),$);
#557=IFCSHAPEREPRESENTATION(#12,'Body','SweptSolid',(#491,#498,#505,#512,#519,#526,#533,#540,#547));
#558=IFCPRODUCTDEFINITIONSHAPE($,$,(#557));
#559=IFCWINDOW('0oD$7MY4YgCIzdY5_m7gp0',#5,'Window 3','Clear glazing',$,#484,#558,$,2.,0.6,.WINDOW.,.SINGLE_PANEL.,$);
#560=IFCRELFILLSELEMENT('01nZnxS0GdfAM_OL9jKHSH',#5,$,$,#478,#559);
#561=IFCCARTESIANPOINT((0.,0.,0.));
#562=IFCDIRECTION((0.,0.,1.));
#563=IFCDIRECTION((1.,0.,0.));
#564=IFCAXIS2PLACEMENT3D(#561,#562,#563);
#565=IFCLOCALPLACEMENT(#26,#564);
#566=IFCCARTESIANPOINT((-0.075,-0.075));
#567=IFCCARTESIANPOINT((0.075,0.075));
#568=IFCCARTESIANPOINT((0.075,34.925));
#569=IFCCARTESIANPOINT((-0.075,35.075));
#570=IFCPOLYLINE((#566,#567,#568,#569,#566));
#571=IFCARBITRARYCLOSEDPROFILEDEF(.AREA.,$,#570);
#572=IFCCARTESIANPOINT((0.,0.,0.));
#573=IFCAXIS2PLACEMENT3D(#572,$,$);
#574=IFCDIRECTION((0.,0.,1.));
#575=IFCEXTRUDEDAREASOLID(#571,#573,#574,4.05);
#576=IFCSHAPEREPRESENTATION(#12,'Body','SweptSolid',(#575));
#577=IFCPRODUCTDEFINITIONSHAPE($,$,(#576));
#578=IFCWALL('3Phg2PwaFCXmIHqPu0W6lx',#5,'Wall 2',$,$,#565,#577,$,.POLYGONAL.);
#579=IFCCARTESIANPOINT((0.,0.,0.));
#580=IFCDIRECTION((0.,0.,1.));
#581=IFCDIRECTION((1.,0.,0.));
#582=IFCAXIS2PLACEMENT3D(#579,#580,#581);
#583=IFCLOCALPLACEMENT(#26,#582);
#584=IFCCARTESIANPOINT((28.12581,0.075));
#585=IFCCARTESIANPOINT((28.27419,-0.075));
#586=IFCCARTESIANPOINT((28.655819,35.075));
#587=IFCCARTESIANPOINT((28.504181,34.925));
#588=IFCPOLYLINE((#584,#585,#586,#587,#584));
#589=IFCARBITRARYCLOSEDPROFILEDEF(.AREA.,$,#588);
#590=IFCCARTESIANPOINT((0.,0.,0.));
#591=IFCAXIS2PLACEMENT3D(#590,$,$);
#592=IFCDIRECTION((0.,0.,1.));
#593=IFCEXTRUDEDAREASOLID(#589,#591,#592,4.05);
#594=IFCSHAPEREPRESENTATION(#12,'Body','SweptSolid',(#593));
#595=IFCPRODUCTDEFINITIONSHAPE($,$,(#594));
#596=IFCWALL('2Nx1dxm9vHgnOgiB81kyIp',#5,'Wall 3',$,$,#583,#595,$,.POLYGONAL.);
#597=IFCCARTESIANPOINT((0.,0.,0.));
#598=IFCDIRECTION((0.,0.,1.));
#599=IFCDIRECTION((1.,0.,0.));
#600=IFCAXIS2PLACEMENT3D(#597,#598,#599);
#601=IFCLOCALPLACEMENT(#26,#600);
#602=IFCCARTESIANPOINT((-0.075,35.075));
#603=IFCCARTESIANPOINT((0.075,34.925));
#604=IFCCARTESIANPOINT((28.504181,34.925));
#605=IFCCARTESIANPOINT((28.655819,35.075));
#606=IFCPOLYLINE((#602,#603,#604,#605,#602));
#607=IFCARBITRARYCLOSEDPROFILEDEF(.AREA.,$,#606);
#608=IFCCARTESIANPOINT((0.,0.,0.));
#609=IFCAXIS2PLACEMENT3D(#608,$,$);
#610=IFCDIRECTION((0.,0.,1.));
#611=IFCEXTRUDEDAREASOLID(#607,#609,#610,4.05);
#612=IFCSHAPEREPRESENTATION(#12,'Body','SweptSolid',(#611));
#613=IFCPRODUCTDEFINITIONSHAPE($,$,(#612));
#614=IFCWALL('2e5vCvZy3sUS9yE0cUJ7lq',#5,'Wall 4',$,$,#601,#613,$,.POLYGONAL.);
#615=IFCCARTESIANPOINT((2.4,0.,0.));
#616=IFCDIRECTION((0.,0.,1.));
#617=IFCDIRECTION((0.,1.,0.));
#618=IFCAXIS2PLACEMENT3D(#615,#616,#617);
#619=IFCLOCALPLACEMENT(#26,#618);
#620=IFCCARTESIANPOINT((3.,0.));
#621=IFCAXIS2PLACEMENT2D(#620,$);
#622=IFCRECTANGLEPROFILEDEF(.AREA.,$,#621,6.,0.15);
#623=IFCCARTESIANPOINT((0.,0.,0.));
#624=IFCAXIS2PLACEMENT3D(#623,$,$);
#625=IFCDIRECTION((0.,0.,1.));
#626=IFCEXTRUDEDAREASOLID(#622,#624,#625,3.);
#627=IFCSHAPEREPRESENTATION(#12,'Body','SweptSolid',(#626));
#628=IFCPRODUCTDEFINITIONSHAPE($,$,(#627));
#629=IFCWALL('1kuaXbQjSEbHKV1hpOv0zm',#5,'Wall 5',$,$,#619,#628,$,.STANDARD.);
#630=IFCCARTESIANPOINT((2.4,6.,0.));
#631=IFCDIRECTION((0.,0.,1.));
#632=IFCDIRECTION((1.,0.,0.));
#633=IFCAXIS2PLACEMENT3D(#630,#631,#632);
#634=IFCLOCALPLACEMENT(#26,#633);
#635=IFCCARTESIANPOINT((5.675,0.));
#636=IFCAXIS2PLACEMENT2D(#635,$);
#637=IFCRECTANGLEPROFILEDEF(.AREA.,$,#636,11.35,0.15);
#638=IFCCARTESIANPOINT((0.,0.,0.));
#639=IFCAXIS2PLACEMENT3D(#638,$,$);
#640=IFCDIRECTION((0.,0.,1.));
#641=IFCEXTRUDEDAREASOLID(#637,#639,#640,3.);
#642=IFCSHAPEREPRESENTATION(#12,'Body','SweptSolid',(#641));
#643=IFCPRODUCTDEFINITIONSHAPE($,$,(#642));
#644=IFCWALL('1KO7rZNs23i70byOf5X19E',#5,'Wall 6',$,$,#634,#643,$,.STANDARD.);
#645=IFCCARTESIANPOINT((9.35,0.,0.));
#646=IFCDIRECTION((0.,0.,1.));
#647=IFCDIRECTION((0.,1.,0.));
#648=IFCAXIS2PLACEMENT3D(#645,#646,#647);
#649=IFCLOCALPLACEMENT(#26,#648);
#650=IFCCARTESIANPOINT((4.4,0.));
#651=IFCAXIS2PLACEMENT2D(#650,$);
#652=IFCRECTANGLEPROFILEDEF(.AREA.,$,#651,8.8,0.15);
#653=IFCCARTESIANPOINT((0.,0.,0.));
#654=IFCAXIS2PLACEMENT3D(#653,$,$);
#655=IFCDIRECTION((0.,0.,1.));
#656=IFCEXTRUDEDAREASOLID(#652,#654,#655,3.);
#657=IFCSHAPEREPRESENTATION(#12,'Body','SweptSolid',(#656));
#658=IFCPRODUCTDEFINITIONSHAPE($,$,(#657));
#659=IFCWALL('0V1i4d2SjQ3J0AwnqZH1PR',#5,'Wall 7',$,$,#649,#658,$,.STANDARD.);
#660=IFCCARTESIANPOINT((9.35,8.79,0.));
#661=IFCDIRECTION((0.,0.,1.));
#662=IFCDIRECTION((1.,0.,0.));
#663=IFCAXIS2PLACEMENT3D(#660,#661,#662);
#664=IFCLOCALPLACEMENT(#26,#663);
#665=IFCCARTESIANPOINT((5.29,0.));
#666=IFCAXIS2PLACEMENT2D(#665,$);
#667=IFCRECTANGLEPROFILEDEF(.AREA.,$,#666,10.58,0.15);
#668=IFCCARTESIANPOINT((0.,0.,0.));
#669=IFCAXIS2PLACEMENT3D(#668,$,$);
#670=IFCDIRECTION((0.,0.,1.));
#671=IFCEXTRUDEDAREASOLID(#667,#669,#670,3.);
#672=IFCSHAPEREPRESENTATION(#12,'Body','SweptSolid',(#671));
#673=IFCPRODUCTDEFINITIONSHAPE($,$,(#672));
#674=IFCWALL('1dkzkg6TteED9qoS6ca$Ex',#5,'Wall 8',$,$,#664,#673,$,.STANDARD.);
#675=IFCCARTESIANPOINT((15.35,8.8,0.));
#676=IFCDIRECTION((0.,0.,1.));
#677=IFCDIRECTION((0.,-1.,0.));
#678=IFCAXIS2PLACEMENT3D(#675,#676,#677);
#679=IFCLOCALPLACEMENT(#26,#678);
#680=IFCCARTESIANPOINT((4.4,0.));
#681=IFCAXIS2PLACEMENT2D(#680,$);
#682=IFCRECTANGLEPROFILEDEF(.AREA.,$,#681,8.8,0.15);
#683=IFCCARTESIANPOINT((0.,0.,0.));
#684=IFCAXIS2PLACEMENT3D(#683,$,$);
#685=IFCDIRECTION((0.,0.,1.));
#686=IFCEXTRUDEDAREASOLID(#682,#684,#685,3.);
#687=IFCSHAPEREPRESENTATION(#12,'Body','SweptSolid',(#686));
#688=IFCPRODUCTDEFINITIONSHAPE($,$,(#687));
#689=IFCWALL('1$H2V8WvUIJM4IdiNypRq$',#5,'Wall 9',$,$,#679,#688,$,.STANDARD.);
#690=IFCCARTESIANPOINT((15.35,6.,0.));
#691=IFCDIRECTION((0.,0.,1.));
#692=IFCDIRECTION((-1.,0.,0.));
#693=IFCAXIS2PLACEMENT3D(#690,#691,#692);
#694=IFCLOCALPLACEMENT(#26,#693);
#695=IFCCARTESIANPOINT((0.8,0.));
#696=IFCAXIS2PLACEMENT2D(#695,$);
#697=IFCRECTANGLEPROFILEDEF(.AREA.,$,#696,1.6,0.15);
#698=IFCCARTESIANPOINT((0.,0.,0.));
#699=IFCAXIS2PLACEMENT3D(#698,$,$);
#700=IFCDIRECTION((0.,0.,1.));
#701=IFCEXTRUDEDAREASOLID(#697,#699,#700,3.);
#702=IFCSHAPEREPRESENTATION(#12,'Body','SweptSolid',(#701));
#703=IFCPRODUCTDEFINITIONSHAPE($,$,(#702));
#704=IFCWALL('3hkxTeDb6$nSO488jAExbN',#5,'Wall 10',$,$,#694,#703,$,.STANDARD.);
#705=IFCCARTESIANPOINT((13.75,6.,0.));
#706=IFCDIRECTION((0.,0.,1.));
#707=IFCDIRECTION((0.,1.,0.));
#708=IFCAXIS2PLACEMENT3D(#705,#706,#707);
#709=IFCLOCALPLACEMENT(#26,#708);
#710=IFCCARTESIANPOINT((1.4,0.));
#711=IFCAXIS2PLACEMENT2D(#710,$);
#712=IFCRECTANGLEPROFILEDEF(.AREA.,$,#711,2.8,0.15);
#713=IFCCARTESIANPOINT((0.,0.,0.));
#714=IFCAXIS2PLACEMENT3D(#713,$,$);
#715=IFCDIRECTION((0.,0.,1.));
#716=IFCEXTRUDEDAREASOLID(#712,#714,#715,3.);
#717=IFCSHAPEREPRESENTATION(#12,'Body','SweptSolid',(#716));
#718=IFCPRODUCTDEFINITIONSHAPE($,$,(#717));
#719=IFCWALL('1mOmgsWfcsi8G$n5a7gPb6',#5,'Wall 11',$,$,#709,#718,$,.STANDARD.);
#720=IFCCARTESIANPOINT((26.,35.,0.));
#721=IFCDIRECTION((0.,0.,1.));
#722=IFCDIRECTION((0.,-1.,0.));
#723=IFCAXIS2PLACEMENT3D(#720,#721,#722);
#724=IFCLOCALPLACEMENT(#26,#723);
#725=IFCCARTESIANPOINT((17.5,0.));
#726=IFCAXIS2PLACEMENT2D(#725,$);
#727=IFCRECTANGLEPROFILEDEF(.AREA.,$,#726,35.,0.15);
#728=IFCCARTESIANPOINT((0.,0.,0.));
#729=IFCAXIS2PLACEMENT3D(#728,$,$);
#730=IFCDIRECTION((0.,0.,1.));
#731=IFCEXTRUDEDAREASOLID(#727,#729,#730,4.05);
#732=IFCSHAPEREPRESENTATION(#12,'Body','SweptSolid',(#731));
#733=IFCPRODUCTDEFINITIONSHAPE($,$,(#732));
#734=IFCWALL('2nnviiop1E3GDGqfh3K4uh',#5,'Wall 12',$,$,#724,#733,$,.STANDARD.);
#735=IFCCARTESIANPOINT((26.,35.,0.));
#736=IFCDIRECTION((0.,0.,1.));
#737=IFCDIRECTION((-1.,0.,0.));
#738=IFCAXIS2PLACEMENT3D(#735,#736,#737);
#739=IFCLOCALPLACEMENT(#26,#738);
#740=IFCCARTESIANPOINT((3.,0.));
#741=IFCAXIS2PLACEMENT2D(#740,$);
#742=IFCRECTANGLEPROFILEDEF(.AREA.,$,#741,6.,0.15);
#743=IFCCARTESIANPOINT((0.,0.,0.));
#744=IFCAXIS2PLACEMENT3D(#743,$,$);
#745=IFCDIRECTION((0.,0.,1.));
#746=IFCEXTRUDEDAREASOLID(#742,#744,#745,4.05);
#747=IFCSHAPEREPRESENTATION(#12,'Body','SweptSolid',(#746));
#748=IFCPRODUCTDEFINITIONSHAPE($,$,(#747));
#749=IFCWALL('30uS0P3VOlHHNeESCNVqiO',#5,'Wall 13',$,$,#739,#748,$,.STANDARD.);
#750=IFCCARTESIANPOINT((20.,35.,0.));
#751=IFCDIRECTION((0.,0.,1.));
#752=IFCDIRECTION((0.,-1.,0.));
#753=IFCAXIS2PLACEMENT3D(#750,#751,#752);
#754=IFCLOCALPLACEMENT(#26,#753);
#755=IFCCARTESIANPOINT((17.505,0.));
#756=IFCAXIS2PLACEMENT2D(#755,$);
#757=IFCRECTANGLEPROFILEDEF(.AREA.,$,#756,35.01,0.15);
#758=IFCCARTESIANPOINT((0.,0.,0.));
#759=IFCAXIS2PLACEMENT3D(#758,$,$);
#760=IFCDIRECTION((0.,0.,1.));
#761=IFCEXTRUDEDAREASOLID(#757,#759,#760,4.05);
#762=IFCSHAPEREPRESENTATION(#12,'Body','SweptSolid',(#761));
#763=IFCPRODUCTDEFINITIONSHAPE($,$,(#762));
#764=IFCWALL('3U3FP56TJOD9wDlMiwcYCW',#5,'Wall 14',$,$,#754,#763,$,.STANDARD.);
#765=IFCCARTESIANPOINT((15.35,6.3,0.));
#766=IFCDIRECTION((0.,0.,1.));
#767=IFCDIRECTION((1.,0.,0.));
#768=IFCAXIS2PLACEMENT3D(#765,#766,#767);
#769=IFCLOCALPLACEMENT(#26,#768);
#770=IFCCARTESIANPOINT((2.29,0.));
#771=IFCAXIS2PLACEMENT2D(#770,$);
#772=IFCRECTANGLEPROFILEDEF(.AREA.,$,#771,4.58,0.15);
#773=IFCCARTESIANPOINT((0.,0.,0.));
#774=IFCAXIS2PLACEMENT3D(#773,$,$);
#775=IFCDIRECTION((0.,0.,1.));
#776=IFCEXTRUDEDAREASOLID(#772,#774,#775,3.);
#777=IFCSHAPEREPRESENTATION(#12,'Body','SweptSolid',(#776));
#778=IFCPRODUCTDEFINITIONSHAPE($,$,(#777));
#779=IFCWALL('2f8eLLmALQGTtmd7dZEjc4',#5,'Wall 15',$,$,#769,#778,$,.STANDARD.);
#780=IFCCARTESIANPOINT((6.95,0.05,0.));
#781=IFCDIRECTION((0.,0.,1.));
#782=IFCDIRECTION((0.,1.,0.));
#783=IFCAXIS2PLACEMENT3D(#780,#781,#782);
#784=IFCLOCALPLACEMENT(#26,#783);
#785=IFCCARTESIANPOINT((1.4,0.));
#786=IFCAXIS2PLACEMENT2D(#785,$);
#787=IFCRECTANGLEPROFILEDEF(.AREA.,$,#786,2.8,0.15);
#788=IFCCARTESIANPOINT((0.,0.,0.));
#789=IFCAXIS2PLACEMENT3D(#788,$,$);
#790=IFCDIRECTION((0.,0.,1.));
#791=IFCEXTRUDEDAREASOLID(#787,#789,#790,3.);
#792=IFCSHAPEREPRESENTATION(#12,'Body','SweptSolid',(#791));
#793=IFCPRODUCTDEFINITIONSHAPE($,$,(#792));
#794=IFCWALL('3Ru$gjLDKxjpnbRpRdGkne',#5,'Wall 16',$,$,#784,#793,$,.STANDARD.);
#795=IFCCARTESIANPOINT((4.7,0.05,0.));
#796=IFCDIRECTION((0.,0.,1.));
#797=IFCDIRECTION((0.,1.,0.));
#798=IFCAXIS2PLACEMENT3D(#795,#796,#797);
#799=IFCLOCALPLACEMENT(#26,#798);
#800=IFCCARTESIANPOINT((1.4,0.));
#801=IFCAXIS2PLACEMENT2D(#800,$);
#802=IFCRECTANGLEPROFILEDEF(.AREA.,$,#801,2.8,0.15);
#803=IFCCARTESIANPOINT((0.,0.,0.));
#804=IFCAXIS2PLACEMENT3D(#803,$,$);
#805=IFCDIRECTION((0.,0.,1.));
#806=IFCEXTRUDEDAREASOLID(#802,#804,#805,3.);
#807=IFCSHAPEREPRESENTATION(#12,'Body','SweptSolid',(#806));
#808=IFCPRODUCTDEFINITIONSHAPE($,$,(#807));
#809=IFCWALL('0njdi$qKEgTncjfQrdwfJg',#5,'Wall 17',$,$,#799,#808,$,.STANDARD.);
#810=IFCCARTESIANPOINT((2.4,2.85,0.));
#811=IFCDIRECTION((0.,0.,1.));
#812=IFCDIRECTION((1.,0.,0.));
#813=IFCAXIS2PLACEMENT3D(#810,#811,#812);
#814=IFCLOCALPLACEMENT(#26,#813);
#815=IFCCARTESIANPOINT((2.29,0.));
#816=IFCAXIS2PLACEMENT2D(#815,$);
#817=IFCRECTANGLEPROFILEDEF(.AREA.,$,#816,4.58,0.15);
#818=IFCCARTESIANPOINT((0.,0.,0.));
#819=IFCAXIS2PLACEMENT3D(#818,$,$);
#820=IFCDIRECTION((0.,0.,1.));
#821=IFCEXTRUDEDAREASOLID(#817,#819,#820,3.);
#822=IFCSHAPEREPRESENTATION(#12,'Body','SweptSolid',(#821));
#823=IFCPRODUCTDEFINITIONSHAPE($,$,(#822));
#824=IFCWALL('1XgqCDsm3pzWl8HI4lda1$',#5,'Wall 18',$,$,#814,#823,$,.STANDARD.);
#825=IFCCARTESIANPOINT((0.,0.,-0.2));
#826=IFCDIRECTION((0.,0.,1.));
#827=IFCDIRECTION((1.,0.,0.));
#828=IFCAXIS2PLACEMENT3D(#825,#826,#827);
#829=IFCLOCALPLACEMENT(#26,#828);
#830=IFCCARTESIANPOINT((-30.15,-6.9));
#831=IFCCARTESIANPOINT((69.7,-7.6));
#832=IFCCARTESIANPOINT((70.05,-26.95));
#833=IFCCARTESIANPOINT((-30.15,-26.25));
#834=IFCPOLYLINE((#830,#831,#832,#833,#830));
#835=IFCARBITRARYCLOSEDPROFILEDEF(.AREA.,$,#834);
#836=IFCCARTESIANPOINT((0.,0.,0.));
#837=IFCAXIS2PLACEMENT3D(#836,$,$);
#838=IFCDIRECTION((0.,0.,1.));
#839=IFCEXTRUDEDAREASOLID(#835,#837,#838,0.2);
#840=IFCSHAPEREPRESENTATION(#12,'Body','SweptSolid',(#839));
#841=IFCPRODUCTDEFINITIONSHAPE($,$,(#840));
#842=IFCSLAB('3HHAtTuZadj6vxBStBCbIi',#5,'Floor 1',$,$,#829,#841,$,.FLOOR.);
#843=IFCCARTESIANPOINT((0.,0.,-0.2));
#844=IFCDIRECTION((0.,0.,1.));
#845=IFCDIRECTION((1.,0.,0.));
#846=IFCAXIS2PLACEMENT3D(#843,#844,#845);
#847=IFCLOCALPLACEMENT(#26,#846);
#848=IFCCARTESIANPOINT((0.,0.));
#849=IFCCARTESIANPOINT((0.,35.));
#850=IFCCARTESIANPOINT((28.58,35.));
#851=IFCCARTESIANPOINT((28.2,0.));
#852=IFCPOLYLINE((#848,#849,#850,#851,#848));
#853=IFCARBITRARYCLOSEDPROFILEDEF(.AREA.,$,#852);
#854=IFCCARTESIANPOINT((0.,0.,0.));
#855=IFCAXIS2PLACEMENT3D(#854,$,$);
#856=IFCDIRECTION((0.,0.,1.));
#857=IFCEXTRUDEDAREASOLID(#853,#855,#856,0.2);
#858=IFCSHAPEREPRESENTATION(#12,'Body','SweptSolid',(#857));
#859=IFCPRODUCTDEFINITIONSHAPE($,$,(#858));
#860=IFCSLAB('2ff_0CcDWZDJlsJt1sE7vI',#5,'Floor 2',$,$,#847,#859,$,.FLOOR.);
#861=IFCCARTESIANPOINT((0.,0.,3.));
#862=IFCDIRECTION((0.,0.,1.));
#863=IFCDIRECTION((1.,0.,0.));
#864=IFCAXIS2PLACEMENT3D(#861,#862,#863);
#865=IFCLOCALPLACEMENT(#26,#864);
#866=IFCCARTESIANPOINT((19.9,0.1));
#867=IFCCARTESIANPOINT((2.4,0.));
#868=IFCCARTESIANPOINT((2.4,6.));
#869=IFCCARTESIANPOINT((9.35,6.05));
#870=IFCCARTESIANPOINT((9.35,8.8));
#871=IFCCARTESIANPOINT((19.93,8.79));
#872=IFCPOLYLINE((#866,#867,#868,#869,#870,#871,#866));
#873=IFCARBITRARYCLOSEDPROFILEDEF(.AREA.,$,#872);
#874=IFCCARTESIANPOINT((0.,0.,0.));
#875=IFCAXIS2PLACEMENT3D(#874,$,$);
#876=IFCDIRECTION((0.,0.,1.));
#877=IFCEXTRUDEDAREASOLID(#873,#875,#876,0.05);
#878=IFCSHAPEREPRESENTATION(#12,'Body','SweptSolid',(#877));
#879=IFCPRODUCTDEFINITIONSHAPE($,$,(#878));
#880=IFCCOVERING('1H5MXkhV9ZI23tT8ojTmOV',#5,'Ceiling 1',$,$,#865,#879,$,.CEILING.);
#881=IFCCARTESIANPOINT((23.,-1.4,0.));
#882=IFCDIRECTION((0.,0.,1.));
#883=IFCDIRECTION((0.,1.,0.));
#884=IFCAXIS2PLACEMENT3D(#881,#882,#883);
#885=IFCLOCALPLACEMENT(#26,#884);
#886=IFCCARTESIANPOINT((0.,-0.151327));
#887=IFCCARTESIANPOINT((1.5,0.048673));
#888=IFCCARTESIANPOINT((1.5,0.2));
#889=IFCCARTESIANPOINT((0.,0.));
#890=IFCPOLYLINE((#886,#887,#888,#889,#886));
#891=IFCARBITRARYCLOSEDPROFILEDEF(.AREA.,$,#890);
#892=IFCCARTESIANPOINT((0.,2.9,0.));
#893=IFCDIRECTION((0.,-1.,0.));
#894=IFCDIRECTION((1.,0.,0.));
#895=IFCAXIS2PLACEMENT3D(#892,#893,#894);
#896=IFCDIRECTION((0.,0.,1.));
#897=IFCEXTRUDEDAREASOLID(#891,#895,#896,5.8);
#898=IFCSHAPEREPRESENTATION(#12,'Body','SweptSolid',(#897));
#899=IFCPRODUCTDEFINITIONSHAPE($,$,(#898));
#900=IFCRAMP('0vAVnEEPtJETlZn5rCLB5l',#5,'Ramp 1','200 mm rise over 1.50 m (13%)',$,#885,#899,$,.STRAIGHT_RUN_RAMP.);
#901=IFCCARTESIANPOINT((23.,0.1,0.2));
#902=IFCDIRECTION((0.,0.,1.));
#903=IFCDIRECTION((0.,1.,0.));
#904=IFCAXIS2PLACEMENT3D(#901,#902,#903);
#905=IFCLOCALPLACEMENT(#26,#904);
#906=IFCCARTESIANPOINT((0.,-0.150086));
#907=IFCCARTESIANPOINT((5.9,0.049914));
#908=IFCCARTESIANPOINT((5.9,0.2));
#909=IFCCARTESIANPOINT((0.,0.));
#910=IFCPOLYLINE((#906,#907,#908,#909,#906));
#911=IFCARBITRARYCLOSEDPROFILEDEF(.AREA.,$,#910);
#912=IFCCARTESIANPOINT((0.,2.9,0.));
#913=IFCDIRECTION((0.,-1.,0.));
#914=IFCDIRECTION((1.,0.,0.));
#915=IFCAXIS2PLACEMENT3D(#912,#913,#914);
#916=IFCDIRECTION((0.,0.,1.));
#917=IFCEXTRUDEDAREASOLID(#911,#915,#916,5.8);
#918=IFCSHAPEREPRESENTATION(#12,'Body','SweptSolid',(#917));
#919=IFCPRODUCTDEFINITIONSHAPE($,$,(#918));
#920=IFCRAMP('3Jny90xcvCstFNqYP$zlNE',#5,'Ramp 2','200 mm rise over 5.90 m (3%)',$,#905,#919,$,.STRAIGHT_RUN_RAMP.);
#921=IFCCARTESIANPOINT((23.,6.05,0.4));
#922=IFCDIRECTION((0.,0.,1.));
#923=IFCDIRECTION((0.,1.,0.));
#924=IFCAXIS2PLACEMENT3D(#921,#922,#923);
#925=IFCLOCALPLACEMENT(#26,#924);
#926=IFCCARTESIANPOINT((0.,-0.152893));
#927=IFCCARTESIANPOINT((15.,2.807107));
#928=IFCCARTESIANPOINT((15.,2.96));
#929=IFCCARTESIANPOINT((0.,0.));
#930=IFCPOLYLINE((#926,#927,#928,#929,#926));
#931=IFCARBITRARYCLOSEDPROFILEDEF(.AREA.,$,#930);
#932=IFCCARTESIANPOINT((0.,2.9,0.));
#933=IFCDIRECTION((0.,-1.,0.));
#934=IFCDIRECTION((1.,0.,0.));
#935=IFCAXIS2PLACEMENT3D(#932,#933,#934);
#936=IFCDIRECTION((0.,0.,1.));
#937=IFCEXTRUDEDAREASOLID(#931,#935,#936,5.8);
#938=IFCSHAPEREPRESENTATION(#12,'Body','SweptSolid',(#937));
#939=IFCPRODUCTDEFINITIONSHAPE($,$,(#938));
#940=IFCRAMP('14MZa8VxCrRdd2VcnrkDz_',#5,'Ramp 3','2960 mm rise over 15.00 m (20%)',$,#925,#939,$,.STRAIGHT_RUN_RAMP.);
#941=IFCCARTESIANPOINT((22.99,21.07,3.36));
#942=IFCDIRECTION((0.,0.,1.));
#943=IFCDIRECTION((0.,1.,0.));
#944=IFCAXIS2PLACEMENT3D(#941,#942,#943);
#945=IFCLOCALPLACEMENT(#26,#944);
#946=IFCCARTESIANPOINT((0.,-0.150208));
#947=IFCCARTESIANPOINT((11.2,0.439792));
#948=IFCCARTESIANPOINT((11.2,0.59));
#949=IFCCARTESIANPOINT((0.,0.));
#950=IFCPOLYLINE((#946,#947,#948,#949,#946));
#951=IFCARBITRARYCLOSEDPROFILEDEF(.AREA.,$,#950);
#952=IFCCARTESIANPOINT((0.,2.9,0.));
#953=IFCDIRECTION((0.,-1.,0.));
#954=IFCDIRECTION((1.,0.,0.));
#955=IFCAXIS2PLACEMENT3D(#952,#953,#954);
#956=IFCDIRECTION((0.,0.,1.));
#957=IFCEXTRUDEDAREASOLID(#951,#955,#956,5.8);
#958=IFCSHAPEREPRESENTATION(#12,'Body','SweptSolid',(#957));
#959=IFCPRODUCTDEFINITIONSHAPE($,$,(#958));
#960=IFCRAMP('21eh8HnrQb9YCNuPTECFzx',#5,'Ramp 4','590 mm rise over 11.20 m (5%)',$,#945,#959,$,.STRAIGHT_RUN_RAMP.);
#961=IFCCARTESIANPOINT((0.,0.,0.));
#962=IFCDIRECTION((0.,0.,1.));
#963=IFCDIRECTION((1.,0.,0.));
#964=IFCAXIS2PLACEMENT3D(#961,#962,#963);
#965=IFCLOCALPLACEMENT(#26,#964);
#966=IFCCARTESIANPOINT((17.65,-2.95));
#967=IFCCARTESIANPOINT((17.6,-6.25));
#968=IFCCARTESIANPOINT((19.15,-6.1));
#969=IFCCARTESIANPOINT((18.95,-3.1));
#970=IFCCARTESIANPOINT((21.1,-3.));
#971=IFCCARTESIANPOINT((20.9,-1.8));
#972=IFCCARTESIANPOINT((15.45,-1.85));
#973=IFCCARTESIANPOINT((15.6,-3.35));
#974=IFCPOLYLINE((#966,#967,#968,#969,#970,#971,#972,#973,#966));
#975=IFCARBITRARYCLOSEDPROFILEDEF(.AREA.,$,#974);
#976=IFCCARTESIANPOINT((0.,0.,0.));
#977=IFCAXIS2PLACEMENT3D(#976,$,$);
#978=IFCDIRECTION((0.,0.,1.));
#979=IFCEXTRUDEDAREASOLID(#975,#977,#978,0.012);
#980=IFCCOLOURRGB($,0.92549,0.917647,0.898039);
#981=IFCSURFACESTYLESHADING(#980,0.);
#982=IFCSURFACESTYLE('tile',.BOTH.,(#981));
#983=IFCSTYLEDITEM(#979,(#982),$);
#984=IFCSHAPEREPRESENTATION(#12,'Body','SweptSolid',(#979));
#985=IFCPRODUCTDEFINITIONSHAPE($,$,(#984));
#986=IFCCOVERING('0hFd67iY6YvonVAaiKQ25D',#5,'Floor finish 1 (tile)','#ECEAE5 tile, 12 mm',$,#965,#985,$,.FLOORING.);
#987=IFCPROPERTYSINGLEVALUE('Material',$,IFCTEXT('tile'),$);
#988=IFCPROPERTYSINGLEVALUE('TilePattern',$,IFCTEXT('grid'),$);
#989=IFCPROPERTYSINGLEVALUE('TileWidth',$,IFCTEXT('200 mm'),$);
#990=IFCPROPERTYSINGLEVALUE('TileHeight',$,IFCTEXT('200 mm'),$);
#991=IFCPROPERTYSINGLEVALUE('JointWidth',$,IFCTEXT('3 mm'),$);
#992=IFCPROPERTYSINGLEVALUE('TileStone',$,IFCTEXT('emperador'),$);
#993=IFCPROPERTYSINGLEVALUE('TileColour',$,IFCTEXT('#ECEAE5'),$);
#994=IFCPROPERTYSINGLEVALUE('ReliefDepth',$,IFCTEXT('3 mm'),$);
#995=IFCPROPERTYSET('1zDVQWzDa$6TPW4Hv4eMSq',#5,'Pset_SkannaFinish','Surface finish specification (Skanna)',(#987,#988,#989,#990,#991,#992,#993,#994));
#996=IFCRELDEFINESBYPROPERTIES('3eJMVbNamw4GPWYtHDVuEK',#5,$,$,(#986),#995);
#997=IFCCARTESIANPOINT((0.,0.,0.));
#998=IFCDIRECTION((0.,0.,1.));
#999=IFCDIRECTION((1.,0.,0.));
#1000=IFCAXIS2PLACEMENT3D(#997,#998,#999);
#1001=IFCLOCALPLACEMENT(#26,#1000);
#1002=IFCCARTESIANPOINT((15.53,0.075));
#1003=IFCCARTESIANPOINT((16.08,0.075));
#1004=IFCCARTESIANPOINT((16.08,0.083));
#1005=IFCCARTESIANPOINT((15.53,0.083));
#1006=IFCPOLYLINE((#1002,#1003,#1004,#1005,#1002));
#1007=IFCARBITRARYCLOSEDPROFILEDEF(.AREA.,$,#1006);
#1008=IFCCARTESIANPOINT((0.,0.,0.9));
#1009=IFCAXIS2PLACEMENT3D(#1008,$,$);
#1010=IFCDIRECTION((0.,0.,1.));
#1011=IFCEXTRUDEDAREASOLID(#1007,#1009,#1010,0.6);
#1012=IFCCOLOURRGB($,0.909804,0.901961,0.878431);
#1013=IFCSURFACESTYLESHADING(#1012,0.);
#1014=IFCSURFACESTYLE('tile',.BOTH.,(#1013));
#1015=IFCSTYLEDITEM(#1011,(#1014),$);
#1016=IFCSHAPEREPRESENTATION(#12,'Body','SweptSolid',(#1011));
#1017=IFCPRODUCTDEFINITIONSHAPE($,$,(#1016));
#1018=IFCCOVERING('2HqnqvMtNKb3MZaORPFhuZ',#5,'Wall finish 1 (tile)','tile, 8 mm',$,#1001,#1017,$,.CLADDING.);
#1019=IFCPROPERTYSINGLEVALUE('Material',$,IFCTEXT('tile'),$);
#1020=IFCPROPERTYSINGLEVALUE('TilePattern',$,IFCTEXT('grid'),$);
#1021=IFCPROPERTYSINGLEVALUE('TileWidth',$,IFCTEXT('200 mm'),$);
#1022=IFCPROPERTYSINGLEVALUE('TileHeight',$,IFCTEXT('200 mm'),$);
#1023=IFCPROPERTYSINGLEVALUE('JointWidth',$,IFCTEXT('3 mm'),$);
#1024=IFCPROPERTYSINGLEVALUE('ReliefDepth',$,IFCTEXT('3 mm'),$);
#1025=IFCPROPERTYSET('0zTb8hGfJuLE1HnrJTNAi_',#5,'Pset_SkannaFinish','Surface finish specification (Skanna)',(#1019,#1020,#1021,#1022,#1023,#1024));
#1026=IFCRELDEFINESBYPROPERTIES('3OimLTQOEYh5LeB7aiNope',#5,$,$,(#1018),#1025);
#1027=IFCRELCOVERSBLDGELEMENTS('2_wDrox_I79UH4dOsHXYRy',#5,$,$,#45,(#1018));
#1028=IFCCARTESIANPOINT((0.,0.,0.));
#1029=IFCDIRECTION((0.,0.,1.));
#1030=IFCDIRECTION((1.,0.,0.));
#1031=IFCAXIS2PLACEMENT3D(#1028,#1029,#1030);
#1032=IFCLOCALPLACEMENT(#26,#1031);
#1033=IFCCARTESIANPOINT((8.5,0.075));
#1034=IFCCARTESIANPOINT((9.38,0.075));
#1035=IFCCARTESIANPOINT((9.38,0.083));
#1036=IFCCARTESIANPOINT((8.5,0.083));
#1037=IFCPOLYLINE((#1033,#1034,#1035,#1036,#1033));
#1038=IFCARBITRARYCLOSEDPROFILEDEF(.AREA.,$,#1037);
#1039=IFCCARTESIANPOINT((0.,0.,0.9));
#1040=IFCAXIS2PLACEMENT3D(#1039,$,$);
#1041=IFCDIRECTION((0.,0.,1.));
#1042=IFCEXTRUDEDAREASOLID(#1038,#1040,#1041,0.6);
#1043=IFCCOLOURRGB($,0.290196,0.290196,0.301961);
#1044=IFCSURFACESTYLESHADING(#1043,0.);
#1045=IFCSURFACESTYLE('tile',.BOTH.,(#1044));
#1046=IFCSTYLEDITEM(#1042,(#1045),$);
#1047=IFCSHAPEREPRESENTATION(#12,'Body','SweptSolid',(#1042));
#1048=IFCPRODUCTDEFINITIONSHAPE($,$,(#1047));
#1049=IFCCOVERING('0ZR0w3gcthODP2guw1zTRN',#5,'Wall finish 2 (tile)','#4A4A4D tile, 8 mm',$,#1032,#1048,$,.CLADDING.);
#1050=IFCPROPERTYSINGLEVALUE('Material',$,IFCTEXT('tile'),$);
#1051=IFCPROPERTYSINGLEVALUE('TilePattern',$,IFCTEXT('grid'),$);
#1052=IFCPROPERTYSINGLEVALUE('TileWidth',$,IFCTEXT('160 mm'),$);
#1053=IFCPROPERTYSINGLEVALUE('TileHeight',$,IFCTEXT('200 mm'),$);
#1054=IFCPROPERTYSINGLEVALUE('JointWidth',$,IFCTEXT('3 mm'),$);
#1055=IFCPROPERTYSINGLEVALUE('TileStone',$,IFCTEXT('sandstone'),$);
#1056=IFCPROPERTYSINGLEVALUE('TileColour',$,IFCTEXT('#4A4A4D'),$);
#1057=IFCPROPERTYSINGLEVALUE('ReliefDepth',$,IFCTEXT('3 mm'),$);
#1058=IFCPROPERTYSET('2WF4K6wcoxYRQ_qTO1LsI9',#5,'Pset_SkannaFinish','Surface finish specification (Skanna)',(#1050,#1051,#1052,#1053,#1054,#1055,#1056,#1057));
#1059=IFCRELDEFINESBYPROPERTIES('2jNeiR0nASSfn_44SOq8VJ',#5,$,$,(#1049),#1058);
#1060=IFCRELCOVERSBLDGELEMENTS('0lhnjjVWNbV5wcqtZFJwRq',#5,$,$,#45,(#1049));
#1061=IFCCARTESIANPOINT((0.,0.,0.));
#1062=IFCDIRECTION((0.,0.,1.));
#1063=IFCDIRECTION((1.,0.,0.));
#1064=IFCAXIS2PLACEMENT3D(#1061,#1062,#1063);
#1065=IFCLOCALPLACEMENT(#26,#1064);
#1066=IFCCARTESIANPOINT((0.,0.,0.));
#1067=IFCDIRECTION((0.,0.,1.));
#1068=IFCDIRECTION((1.,0.,0.));
#1069=IFCAXIS2PLACEMENT3D(#1066,#1067,#1068);
#1070=IFCLOCALPLACEMENT(#26,#1069);
#1071=IFCCARTESIANPOINT((0.,0.,0.));
#1072=IFCDIRECTION((0.,0.,1.));
#1073=IFCDIRECTION((1.,0.,0.));
#1074=IFCAXIS2PLACEMENT3D(#1071,#1072,#1073);
#1075=IFCLOCALPLACEMENT(#26,#1074);
#1076=IFCCARTESIANPOINT((0.,0.,0.));
#1077=IFCDIRECTION((0.,0.,1.));
#1078=IFCDIRECTION((1.,0.,0.));
#1079=IFCAXIS2PLACEMENT3D(#1076,#1077,#1078);
#1080=IFCLOCALPLACEMENT(#26,#1079);
#1081=IFCCARTESIANPOINT((0.,0.,0.));
#1082=IFCDIRECTION((0.,0.,1.));
#1083=IFCDIRECTION((1.,0.,0.));
#1084=IFCAXIS2PLACEMENT3D(#1081,#1082,#1083);
#1085=IFCLOCALPLACEMENT(#26,#1084);
#1086=IFCCARTESIANPOINT((0.,0.,0.));
#1087=IFCDIRECTION((0.,0.,1.));
#1088=IFCDIRECTION((1.,0.,0.));
#1089=IFCAXIS2PLACEMENT3D(#1086,#1087,#1088);
#1090=IFCLOCALPLACEMENT(#26,#1089);
#1091=IFCCARTESIANPOINT((0.,0.,0.));
#1092=IFCDIRECTION((0.,0.,1.));
#1093=IFCDIRECTION((1.,0.,0.));
#1094=IFCAXIS2PLACEMENT3D(#1091,#1092,#1093);
#1095=IFCLOCALPLACEMENT(#26,#1094);
#1096=IFCCARTESIANPOINT((0.,0.,0.));
#1097=IFCDIRECTION((0.,0.,1.));
#1098=IFCDIRECTION((1.,0.,0.));
#1099=IFCAXIS2PLACEMENT3D(#1096,#1097,#1098);
#1100=IFCLOCALPLACEMENT(#26,#1099);
#1101=IFCCARTESIANPOINT((0.,0.,0.));
#1102=IFCDIRECTION((0.,0.,1.));
#1103=IFCDIRECTION((1.,0.,0.));
#1104=IFCAXIS2PLACEMENT3D(#1101,#1102,#1103);
#1105=IFCLOCALPLACEMENT(#26,#1104);
#1106=IFCCARTESIANPOINT((0.,0.,0.));
#1107=IFCDIRECTION((0.,0.,1.));
#1108=IFCDIRECTION((1.,0.,0.));
#1109=IFCAXIS2PLACEMENT3D(#1106,#1107,#1108);
#1110=IFCLOCALPLACEMENT(#26,#1109);
#1111=IFCCARTESIANPOINT((0.,0.,0.));
#1112=IFCDIRECTION((0.,0.,1.));
#1113=IFCDIRECTION((1.,0.,0.));
#1114=IFCAXIS2PLACEMENT3D(#1111,#1112,#1113);
#1115=IFCLOCALPLACEMENT(#26,#1114);
#1116=IFCCARTESIANPOINT((0.,0.,0.));
#1117=IFCDIRECTION((0.,0.,1.));
#1118=IFCDIRECTION((1.,0.,0.));
#1119=IFCAXIS2PLACEMENT3D(#1116,#1117,#1118);
#1120=IFCLOCALPLACEMENT(#26,#1119);
#1121=IFCCARTESIANPOINT((0.,0.,0.));
#1122=IFCDIRECTION((0.,0.,1.));
#1123=IFCDIRECTION((1.,0.,0.));
#1124=IFCAXIS2PLACEMENT3D(#1121,#1122,#1123);
#1125=IFCLOCALPLACEMENT(#26,#1124);
#1126=IFCCARTESIANPOINT((0.,0.,0.));
#1127=IFCDIRECTION((0.,0.,1.));
#1128=IFCDIRECTION((1.,0.,0.));
#1129=IFCAXIS2PLACEMENT3D(#1126,#1127,#1128);
#1130=IFCLOCALPLACEMENT(#26,#1129);
#1131=IFCCARTESIANPOINT((0.,0.,0.));
#1132=IFCDIRECTION((0.,0.,1.));
#1133=IFCDIRECTION((1.,0.,0.));
#1134=IFCAXIS2PLACEMENT3D(#1131,#1132,#1133);
#1135=IFCLOCALPLACEMENT(#26,#1134);
#1136=IFCCARTESIANPOINT((0.,0.,0.));
#1137=IFCDIRECTION((0.,0.,1.));
#1138=IFCDIRECTION((1.,0.,0.));
#1139=IFCAXIS2PLACEMENT3D(#1136,#1137,#1138);
#1140=IFCLOCALPLACEMENT(#26,#1139);
#1141=IFCCARTESIANPOINT((0.,0.,0.));
#1142=IFCDIRECTION((0.,0.,1.));
#1143=IFCDIRECTION((1.,0.,0.));
#1144=IFCAXIS2PLACEMENT3D(#1141,#1142,#1143);
#1145=IFCLOCALPLACEMENT(#26,#1144);
#1146=IFCCARTESIANPOINT((0.,0.,0.));
#1147=IFCDIRECTION((0.,0.,1.));
#1148=IFCDIRECTION((1.,0.,0.));
#1149=IFCAXIS2PLACEMENT3D(#1146,#1147,#1148);
#1150=IFCLOCALPLACEMENT(#26,#1149);
#1151=IFCCARTESIANPOINT((27.05,6.05,0.));
#1152=IFCDIRECTION((0.,0.,1.));
#1153=IFCDIRECTION((0.008727,0.999962,0.));
#1154=IFCAXIS2PLACEMENT3D(#1151,#1152,#1153);
#1155=IFCLOCALPLACEMENT(#26,#1154);
#1156=IFCCARTESIANPOINT((0.,-1.15));
#1157=IFCCARTESIANPOINT((1.,-1.15));
#1158=IFCCARTESIANPOINT((1.,1.15));
#1159=IFCCARTESIANPOINT((0.,1.15));
#1160=IFCPOLYLINE((#1156,#1157,#1158,#1159,#1156));
#1161=IFCARBITRARYCLOSEDPROFILEDEF(.AREA.,$,#1160);
#1162=IFCCARTESIANPOINT((0.,0.,0.));
#1163=IFCAXIS2PLACEMENT3D(#1162,$,$);
#1164=IFCDIRECTION((0.,0.,1.));
#1165=IFCEXTRUDEDAREASOLID(#1161,#1163,#1164,0.18);
#1166=IFCCARTESIANPOINT((1.,-1.15));
#1167=IFCCARTESIANPOINT((2.,-1.15));
#1168=IFCCARTESIANPOINT((2.,1.15));
#1169=IFCCARTESIANPOINT((1.,1.15));
#1170=IFCPOLYLINE((#1166,#1167,#1168,#1169,#1166));
#1171=IFCARBITRARYCLOSEDPROFILEDEF(.AREA.,$,#1170);
#1172=IFCCARTESIANPOINT((0.,0.,0.16));
#1173=IFCAXIS2PLACEMENT3D(#1172,$,$);
#1174=IFCDIRECTION((0.,0.,1.));
#1175=IFCEXTRUDEDAREASOLID(#1171,#1173,#1174,0.2);
#1176=IFCCARTESIANPOINT((2.,-1.15));
#1177=IFCCARTESIANPOINT((3.,-1.15));
#1178=IFCCARTESIANPOINT((3.,1.15));
#1179=IFCCARTESIANPOINT((2.,1.15));
#1180=IFCPOLYLINE((#1176,#1177,#1178,#1179,#1176));
#1181=IFCARBITRARYCLOSEDPROFILEDEF(.AREA.,$,#1180);
#1182=IFCCARTESIANPOINT((0.,0.,0.34));
#1183=IFCAXIS2PLACEMENT3D(#1182,$,$);
#1184=IFCDIRECTION((0.,0.,1.));
#1185=IFCEXTRUDEDAREASOLID(#1181,#1183,#1184,0.2);
#1186=IFCCARTESIANPOINT((3.,-1.15));
#1187=IFCCARTESIANPOINT((4.,-1.15));
#1188=IFCCARTESIANPOINT((4.,1.15));
#1189=IFCCARTESIANPOINT((3.,1.15));
#1190=IFCPOLYLINE((#1186,#1187,#1188,#1189,#1186));
#1191=IFCARBITRARYCLOSEDPROFILEDEF(.AREA.,$,#1190);
#1192=IFCCARTESIANPOINT((0.,0.,0.52));
#1193=IFCAXIS2PLACEMENT3D(#1192,$,$);
#1194=IFCDIRECTION((0.,0.,1.));
#1195=IFCEXTRUDEDAREASOLID(#1191,#1193,#1194,0.2);
#1196=IFCCARTESIANPOINT((4.,-1.15));
#1197=IFCCARTESIANPOINT((5.,-1.15));
#1198=IFCCARTESIANPOINT((5.,1.15));
#1199=IFCCARTESIANPOINT((4.,1.15));
#1200=IFCPOLYLINE((#1196,#1197,#1198,#1199,#1196));
#1201=IFCARBITRARYCLOSEDPROFILEDEF(.AREA.,$,#1200);
#1202=IFCCARTESIANPOINT((0.,0.,0.7));
#1203=IFCAXIS2PLACEMENT3D(#1202,$,$);
#1204=IFCDIRECTION((0.,0.,1.));
#1205=IFCEXTRUDEDAREASOLID(#1201,#1203,#1204,0.2);
#1206=IFCCARTESIANPOINT((5.,-1.15));
#1207=IFCCARTESIANPOINT((6.,-1.15));
#1208=IFCCARTESIANPOINT((6.,1.15));
#1209=IFCCARTESIANPOINT((5.,1.15));
#1210=IFCPOLYLINE((#1206,#1207,#1208,#1209,#1206));
#1211=IFCARBITRARYCLOSEDPROFILEDEF(.AREA.,$,#1210);
#1212=IFCCARTESIANPOINT((0.,0.,0.88));
#1213=IFCAXIS2PLACEMENT3D(#1212,$,$);
#1214=IFCDIRECTION((0.,0.,1.));
#1215=IFCEXTRUDEDAREASOLID(#1211,#1213,#1214,0.2);
#1216=IFCCARTESIANPOINT((6.,-1.15));
#1217=IFCCARTESIANPOINT((7.,-1.15));
#1218=IFCCARTESIANPOINT((7.,1.15));
#1219=IFCCARTESIANPOINT((6.,1.15));
#1220=IFCPOLYLINE((#1216,#1217,#1218,#1219,#1216));
#1221=IFCARBITRARYCLOSEDPROFILEDEF(.AREA.,$,#1220);
#1222=IFCCARTESIANPOINT((0.,0.,1.06));
#1223=IFCAXIS2PLACEMENT3D(#1222,$,$);
#1224=IFCDIRECTION((0.,0.,1.));
#1225=IFCEXTRUDEDAREASOLID(#1221,#1223,#1224,0.2);
#1226=IFCCARTESIANPOINT((7.,-1.15));
#1227=IFCCARTESIANPOINT((8.,-1.15));
#1228=IFCCARTESIANPOINT((8.,1.15));
#1229=IFCCARTESIANPOINT((7.,1.15));
#1230=IFCPOLYLINE((#1226,#1227,#1228,#1229,#1226));
#1231=IFCARBITRARYCLOSEDPROFILEDEF(.AREA.,$,#1230);
#1232=IFCCARTESIANPOINT((0.,0.,1.24));
#1233=IFCAXIS2PLACEMENT3D(#1232,$,$);
#1234=IFCDIRECTION((0.,0.,1.));
#1235=IFCEXTRUDEDAREASOLID(#1231,#1233,#1234,0.2);
#1236=IFCCARTESIANPOINT((8.,-1.15));
#1237=IFCCARTESIANPOINT((9.,-1.15));
#1238=IFCCARTESIANPOINT((9.,1.15));
#1239=IFCCARTESIANPOINT((8.,1.15));
#1240=IFCPOLYLINE((#1236,#1237,#1238,#1239,#1236));
#1241=IFCARBITRARYCLOSEDPROFILEDEF(.AREA.,$,#1240);
#1242=IFCCARTESIANPOINT((0.,0.,1.42));
#1243=IFCAXIS2PLACEMENT3D(#1242,$,$);
#1244=IFCDIRECTION((0.,0.,1.));
#1245=IFCEXTRUDEDAREASOLID(#1241,#1243,#1244,0.2);
#1246=IFCCARTESIANPOINT((9.,-1.15));
#1247=IFCCARTESIANPOINT((10.,-1.15));
#1248=IFCCARTESIANPOINT((10.,1.15));
#1249=IFCCARTESIANPOINT((9.,1.15));
#1250=IFCPOLYLINE((#1246,#1247,#1248,#1249,#1246));
#1251=IFCARBITRARYCLOSEDPROFILEDEF(.AREA.,$,#1250);
#1252=IFCCARTESIANPOINT((0.,0.,1.6));
#1253=IFCAXIS2PLACEMENT3D(#1252,$,$);
#1254=IFCDIRECTION((0.,0.,1.));
#1255=IFCEXTRUDEDAREASOLID(#1251,#1253,#1254,0.2);
#1256=IFCCARTESIANPOINT((10.,-1.15));
#1257=IFCCARTESIANPOINT((11.,-1.15));
#1258=IFCCARTESIANPOINT((11.,1.15));
#1259=IFCCARTESIANPOINT((10.,1.15));
#1260=IFCPOLYLINE((#1256,#1257,#1258,#1259,#1256));
#1261=IFCARBITRARYCLOSEDPROFILEDEF(.AREA.,$,#1260);
#1262=IFCCARTESIANPOINT((0.,0.,1.78));
#1263=IFCAXIS2PLACEMENT3D(#1262,$,$);
#1264=IFCDIRECTION((0.,0.,1.));
#1265=IFCEXTRUDEDAREASOLID(#1261,#1263,#1264,0.2);
#1266=IFCCARTESIANPOINT((11.,-1.15));
#1267=IFCCARTESIANPOINT((12.,-1.15));
#1268=IFCCARTESIANPOINT((12.,1.15));
#1269=IFCCARTESIANPOINT((11.,1.15));
#1270=IFCPOLYLINE((#1266,#1267,#1268,#1269,#1266));
#1271=IFCARBITRARYCLOSEDPROFILEDEF(.AREA.,$,#1270);
#1272=IFCCARTESIANPOINT((0.,0.,1.96));
#1273=IFCAXIS2PLACEMENT3D(#1272,$,$);
#1274=IFCDIRECTION((0.,0.,1.));
#1275=IFCEXTRUDEDAREASOLID(#1271,#1273,#1274,0.2);
#1276=IFCCARTESIANPOINT((12.,-1.15));
#1277=IFCCARTESIANPOINT((13.,-1.15));
#1278=IFCCARTESIANPOINT((13.,1.15));
#1279=IFCCARTESIANPOINT((12.,1.15));
#1280=IFCPOLYLINE((#1276,#1277,#1278,#1279,#1276));
#1281=IFCARBITRARYCLOSEDPROFILEDEF(.AREA.,$,#1280);
#1282=IFCCARTESIANPOINT((0.,0.,2.14));
#1283=IFCAXIS2PLACEMENT3D(#1282,$,$);
#1284=IFCDIRECTION((0.,0.,1.));
#1285=IFCEXTRUDEDAREASOLID(#1281,#1283,#1284,0.2);
#1286=IFCCARTESIANPOINT((13.,-1.15));
#1287=IFCCARTESIANPOINT((14.,-1.15));
#1288=IFCCARTESIANPOINT((14.,1.15));
#1289=IFCCARTESIANPOINT((13.,1.15));
#1290=IFCPOLYLINE((#1286,#1287,#1288,#1289,#1286));
#1291=IFCARBITRARYCLOSEDPROFILEDEF(.AREA.,$,#1290);
#1292=IFCCARTESIANPOINT((0.,0.,2.32));
#1293=IFCAXIS2PLACEMENT3D(#1292,$,$);
#1294=IFCDIRECTION((0.,0.,1.));
#1295=IFCEXTRUDEDAREASOLID(#1291,#1293,#1294,0.2);
#1296=IFCCARTESIANPOINT((14.,-1.15));
#1297=IFCCARTESIANPOINT((15.,-1.15));
#1298=IFCCARTESIANPOINT((15.,1.15));
#1299=IFCCARTESIANPOINT((14.,1.15));
#1300=IFCPOLYLINE((#1296,#1297,#1298,#1299,#1296));
#1301=IFCARBITRARYCLOSEDPROFILEDEF(.AREA.,$,#1300);
#1302=IFCCARTESIANPOINT((0.,0.,2.5));
#1303=IFCAXIS2PLACEMENT3D(#1302,$,$);
#1304=IFCDIRECTION((0.,0.,1.));
#1305=IFCEXTRUDEDAREASOLID(#1301,#1303,#1304,0.2);
#1306=IFCSHAPEREPRESENTATION(#12,'Body','SweptSolid',(#1165,#1175,#1185,#1195,#1205,#1215,#1225,#1235,#1245,#1255,#1265,#1275,#1285,#1295,#1305));
#1307=IFCPRODUCTDEFINITIONSHAPE($,$,(#1306));
#1308=IFCSTAIR('07yebzRk1c8kwPqEhpTNIz',#5,'Stair 1','15 risers of 180 mm',$,#1155,#1307,$,.STRAIGHT_RUN_STAIR.);
#1309=IFCRELCONTAINEDINSPATIALSTRUCTURE('0vhe9DhXi6Ry4i7TP2j7p1',#5,$,$,(#45,#107,#170,#246,#365,#462,#559,#578,#596,#614,#629,#644,#659,#674,#689,#704,#719,#734,#749,#764,#779,#794,#809,#824,#842,#860,#880,#900,#920,#940,#960,#986,#1018,#1049,#1308),#27);
#1310=IFCCARTESIANPOINT((0.,0.,4.55));
#1311=IFCAXIS2PLACEMENT3D(#1310,$,$);
#1312=IFCLOCALPLACEMENT(#20,#1311);
#1313=IFCBUILDINGSTOREY('0dLOPG0gvCBtJJOuokHncI',#5,'Storey 2',$,$,#1312,$,$,.ELEMENT.,4.55);
#1314=IFCCARTESIANPOINT((0.,0.45,0.));
#1315=IFCDIRECTION((0.,0.,1.));
#1316=IFCDIRECTION((1.,0.,0.));
#1317=IFCAXIS2PLACEMENT3D(#1314,#1315,#1316);
#1318=IFCLOCALPLACEMENT(#1312,#1317);
#1319=IFCCARTESIANPOINT((14.1,0.));
#1320=IFCAXIS2PLACEMENT2D(#1319,$);
#1321=IFCRECTANGLEPROFILEDEF(.AREA.,$,#1320,28.2,0.15);
#1322=IFCCARTESIANPOINT((0.,0.,0.));
#1323=IFCAXIS2PLACEMENT3D(#1322,$,$);
#1324=IFCDIRECTION((0.,0.,1.));
#1325=IFCEXTRUDEDAREASOLID(#1321,#1323,#1324,0.6);
#1326=IFCSHAPEREPRESENTATION(#12,'Body','SweptSolid',(#1325));
#1327=IFCPRODUCTDEFINITIONSHAPE($,$,(#1326));
#1328=IFCWALL('29b$gbwo7GpLQpFoh5IGIy',#5,'Wall 19',$,$,#1318,#1327,$,.STANDARD.);
#1329=IFCCARTESIANPOINT((0.,0.,0.));
#1330=IFCDIRECTION((0.,0.,1.));
#1331=IFCDIRECTION((0.,1.,0.));
#1332=IFCAXIS2PLACEMENT3D(#1329,#1330,#1331);
#1333=IFCLOCALPLACEMENT(#1312,#1332);
#1334=IFCCARTESIANPOINT((17.5,0.));
#1335=IFCAXIS2PLACEMENT2D(#1334,$);
#1336=IFCRECTANGLEPROFILEDEF(.AREA.,$,#1335,35.,0.15);
#1337=IFCCARTESIANPOINT((0.,0.,0.));
#1338=IFCAXIS2PLACEMENT3D(#1337,$,$);
#1339=IFCDIRECTION((0.,0.,1.));
#1340=IFCEXTRUDEDAREASOLID(#1336,#1338,#1339,4.05);
#1341=IFCSHAPEREPRESENTATION(#12,'Body','SweptSolid',(#1340));
#1342=IFCPRODUCTDEFINITIONSHAPE($,$,(#1341));
#1343=IFCWALL('08bySVlHpQKojaGqPteAf5',#5,'Wall 20',$,$,#1333,#1342,$,.STANDARD.);
#1344=IFCCARTESIANPOINT((28.2,0.,0.));
#1345=IFCDIRECTION((0.,0.,1.));
#1346=IFCDIRECTION((0.010857,0.999941,0.));
#1347=IFCAXIS2PLACEMENT3D(#1344,#1345,#1346);
#1348=IFCLOCALPLACEMENT(#1312,#1347);
#1349=IFCCARTESIANPOINT((17.501031,0.));
#1350=IFCAXIS2PLACEMENT2D(#1349,$);
#1351=IFCRECTANGLEPROFILEDEF(.AREA.,$,#1350,35.002063,0.15);
#1352=IFCCARTESIANPOINT((0.,0.,0.));
#1353=IFCAXIS2PLACEMENT3D(#1352,$,$);
#1354=IFCDIRECTION((0.,0.,1.));
#1355=IFCEXTRUDEDAREASOLID(#1351,#1353,#1354,4.05);
#1356=IFCSHAPEREPRESENTATION(#12,'Body','SweptSolid',(#1355));
#1357=IFCPRODUCTDEFINITIONSHAPE($,$,(#1356));
#1358=IFCWALL('3kDJIaLp2eW_PlAjYYjMd2',#5,'Wall 21',$,$,#1348,#1357,$,.STANDARD.);
#1359=IFCCARTESIANPOINT((0.,35.,0.));
#1360=IFCDIRECTION((0.,0.,1.));
#1361=IFCDIRECTION((1.,0.,0.));
#1362=IFCAXIS2PLACEMENT3D(#1359,#1360,#1361);
#1363=IFCLOCALPLACEMENT(#1312,#1362);
#1364=IFCCARTESIANPOINT((14.29,0.));
#1365=IFCAXIS2PLACEMENT2D(#1364,$);
#1366=IFCRECTANGLEPROFILEDEF(.AREA.,$,#1365,28.58,0.15);
#1367=IFCCARTESIANPOINT((0.,0.,0.));
#1368=IFCAXIS2PLACEMENT3D(#1367,$,$);
#1369=IFCDIRECTION((0.,0.,1.));
#1370=IFCEXTRUDEDAREASOLID(#1366,#1368,#1369,4.05);
#1371=IFCSHAPEREPRESENTATION(#12,'Body','SweptSolid',(#1370));
#1372=IFCPRODUCTDEFINITIONSHAPE($,$,(#1371));
#1373=IFCWALL('0jJR0fyeuMh2DHrZsiS_fz',#5,'Wall 22',$,$,#1363,#1372,$,.STANDARD.);
#1374=IFCCARTESIANPOINT((26.,35.,0.));
#1375=IFCDIRECTION((0.,0.,1.));
#1376=IFCDIRECTION((-1.,0.,0.));
#1377=IFCAXIS2PLACEMENT3D(#1374,#1375,#1376);
#1378=IFCLOCALPLACEMENT(#1312,#1377);
#1379=IFCCARTESIANPOINT((3.,0.));
#1380=IFCAXIS2PLACEMENT2D(#1379,$);
#1381=IFCRECTANGLEPROFILEDEF(.AREA.,$,#1380,6.,0.15);
#1382=IFCCARTESIANPOINT((0.,0.,0.));
#1383=IFCAXIS2PLACEMENT3D(#1382,$,$);
#1384=IFCDIRECTION((0.,0.,1.));
#1385=IFCEXTRUDEDAREASOLID(#1381,#1383,#1384,4.05);
#1386=IFCSHAPEREPRESENTATION(#12,'Body','SweptSolid',(#1385));
#1387=IFCPRODUCTDEFINITIONSHAPE($,$,(#1386));
#1388=IFCWALL('1KS7cA279VLdYt9fgaPokf',#5,'Wall 23',$,$,#1378,#1387,$,.STANDARD.);
#1389=IFCCARTESIANPOINT((2.21,0.32,0.));
#1390=IFCDIRECTION((0.,0.,1.));
#1391=IFCDIRECTION((1.,0.,0.));
#1392=IFCAXIS2PLACEMENT3D(#1389,#1390,#1391);
#1393=IFCLOCALPLACEMENT(#1312,#1392);
#1394=IFCCARTESIANPOINT((0.2,0.));
#1395=IFCAXIS2PLACEMENT2D(#1394,$);
#1396=IFCRECTANGLEPROFILEDEF(.AREA.,$,#1395,0.4,0.4);
#1397=IFCCARTESIANPOINT((0.,0.,0.));
#1398=IFCAXIS2PLACEMENT3D(#1397,$,$);
#1399=IFCDIRECTION((0.,0.,1.));
#1400=IFCEXTRUDEDAREASOLID(#1396,#1398,#1399,0.8);
#1401=IFCSHAPEREPRESENTATION(#12,'Body','SweptSolid',(#1400));
#1402=IFCPRODUCTDEFINITIONSHAPE($,$,(#1401));
#1403=IFCWALL('1O9LVw0dk7_qGS4u4XPST1',#5,'Wall 24',$,$,#1393,#1402,$,.STANDARD.);
#1404=IFCCARTESIANPOINT((5.52,0.32,0.));
#1405=IFCDIRECTION((0.,0.,1.));
#1406=IFCDIRECTION((1.,0.,0.));
#1407=IFCAXIS2PLACEMENT3D(#1404,#1405,#1406);
#1408=IFCLOCALPLACEMENT(#1312,#1407);
#1409=IFCCARTESIANPOINT((0.2,0.));
#1410=IFCAXIS2PLACEMENT2D(#1409,$);
#1411=IFCRECTANGLEPROFILEDEF(.AREA.,$,#1410,0.4,0.4);
#1412=IFCCARTESIANPOINT((0.,0.,0.));
#1413=IFCAXIS2PLACEMENT3D(#1412,$,$);
#1414=IFCDIRECTION((0.,0.,1.));
#1415=IFCEXTRUDEDAREASOLID(#1411,#1413,#1414,0.8);
#1416=IFCSHAPEREPRESENTATION(#12,'Body','SweptSolid',(#1415));
#1417=IFCPRODUCTDEFINITIONSHAPE($,$,(#1416));
#1418=IFCWALL('0e3OSzVfApsaKTu5I_VGDa',#5,'Wall 25',$,$,#1408,#1417,$,.STANDARD.);
#1419=IFCCARTESIANPOINT((8.93,0.32,0.));
#1420=IFCDIRECTION((0.,0.,1.));
#1421=IFCDIRECTION((1.,0.,0.));
#1422=IFCAXIS2PLACEMENT3D(#1419,#1420,#1421);
#1423=IFCLOCALPLACEMENT(#1312,#1422);
#1424=IFCCARTESIANPOINT((0.2,0.));
#1425=IFCAXIS2PLACEMENT2D(#1424,$);
#1426=IFCRECTANGLEPROFILEDEF(.AREA.,$,#1425,0.4,0.4);
#1427=IFCCARTESIANPOINT((0.,0.,0.));
#1428=IFCAXIS2PLACEMENT3D(#1427,$,$);
#1429=IFCDIRECTION((0.,0.,1.));
#1430=IFCEXTRUDEDAREASOLID(#1426,#1428,#1429,0.8);
#1431=IFCSHAPEREPRESENTATION(#12,'Body','SweptSolid',(#1430));
#1432=IFCPRODUCTDEFINITIONSHAPE($,$,(#1431));
#1433=IFCWALL('3ooS$q2RfLW4rJRy9bWl48',#5,'Wall 26',$,$,#1423,#1432,$,.STANDARD.);
#1434=IFCCARTESIANPOINT((15.38,0.32,0.));
#1435=IFCDIRECTION((0.,0.,1.));
#1436=IFCDIRECTION((1.,0.,0.));
#1437=IFCAXIS2PLACEMENT3D(#1434,#1435,#1436);
#1438=IFCLOCALPLACEMENT(#1312,#1437);
#1439=IFCCARTESIANPOINT((0.2,0.));
#1440=IFCAXIS2PLACEMENT2D(#1439,$);
#1441=IFCRECTANGLEPROFILEDEF(.AREA.,$,#1440,0.4,0.4);
#1442=IFCCARTESIANPOINT((0.,0.,0.));
#1443=IFCAXIS2PLACEMENT3D(#1442,$,$);
#1444=IFCDIRECTION((0.,0.,1.));
#1445=IFCEXTRUDEDAREASOLID(#1441,#1443,#1444,0.8);
#1446=IFCSHAPEREPRESENTATION(#12,'Body','SweptSolid',(#1445));
#1447=IFCPRODUCTDEFINITIONSHAPE($,$,(#1446));
#1448=IFCWALL('37aUsMBJ0WhbsBUxtp_bBe',#5,'Wall 27',$,$,#1438,#1447,$,.STANDARD.);
#1449=IFCCARTESIANPOINT((18.82,0.32,0.));
#1450=IFCDIRECTION((0.,0.,1.));
#1451=IFCDIRECTION((1.,0.,0.));
#1452=IFCAXIS2PLACEMENT3D(#1449,#1450,#1451);
#1453=IFCLOCALPLACEMENT(#1312,#1452);
#1454=IFCCARTESIANPOINT((0.2,0.));
#1455=IFCAXIS2PLACEMENT2D(#1454,$);
#1456=IFCRECTANGLEPROFILEDEF(.AREA.,$,#1455,0.4,0.4);
#1457=IFCCARTESIANPOINT((0.,0.,0.));
#1458=IFCAXIS2PLACEMENT3D(#1457,$,$);
#1459=IFCDIRECTION((0.,0.,1.));
#1460=IFCEXTRUDEDAREASOLID(#1456,#1458,#1459,0.8);
#1461=IFCSHAPEREPRESENTATION(#12,'Body','SweptSolid',(#1460));
#1462=IFCPRODUCTDEFINITIONSHAPE($,$,(#1461));
#1463=IFCWALL('2jBdPJLhzV8lz375t6SU_H',#5,'Wall 28',$,$,#1453,#1462,$,.STANDARD.);
#1464=IFCCARTESIANPOINT((22.84,0.32,0.));
#1465=IFCDIRECTION((0.,0.,1.));
#1466=IFCDIRECTION((1.,0.,0.));
#1467=IFCAXIS2PLACEMENT3D(#1464,#1465,#1466);
#1468=IFCLOCALPLACEMENT(#1312,#1467);
#1469=IFCCARTESIANPOINT((0.2,0.));
#1470=IFCAXIS2PLACEMENT2D(#1469,$);
#1471=IFCRECTANGLEPROFILEDEF(.AREA.,$,#1470,0.4,0.4);
#1472=IFCCARTESIANPOINT((0.,0.,0.));
#1473=IFCAXIS2PLACEMENT3D(#1472,$,$);
#1474=IFCDIRECTION((0.,0.,1.));
#1475=IFCEXTRUDEDAREASOLID(#1471,#1473,#1474,0.8);
#1476=IFCSHAPEREPRESENTATION(#12,'Body','SweptSolid',(#1475));
#1477=IFCPRODUCTDEFINITIONSHAPE($,$,(#1476));
#1478=IFCWALL('3wZbcGy2_T6XVkhAErJfsm',#5,'Wall 29',$,$,#1468,#1477,$,.STANDARD.);
#1479=IFCCARTESIANPOINT((0.,0.,-0.6));
#1480=IFCDIRECTION((0.,0.,1.));
#1481=IFCDIRECTION((1.,0.,0.));
#1482=IFCAXIS2PLACEMENT3D(#1479,#1480,#1481);
#1483=IFCLOCALPLACEMENT(#1312,#1482);
#1484=IFCCARTESIANPOINT((0.,0.));
#1485=IFCCARTESIANPOINT((0.,35.));
#1486=IFCCARTESIANPOINT((28.58,35.));
#1487=IFCCARTESIANPOINT((28.2,0.));
#1488=IFCPOLYLINE((#1484,#1485,#1486,#1487,#1484));
#1489=IFCCARTESIANPOINT((9.35,0.5));
#1490=IFCCARTESIANPOINT((15.35,0.5));
#1491=IFCCARTESIANPOINT((15.35,16.5));
#1492=IFCCARTESIANPOINT((9.35,16.5));
#1493=IFCPOLYLINE((#1489,#1490,#1491,#1492,#1489));
#1494=IFCARBITRARYPROFILEDEFWITHVOIDS(.AREA.,$,#1488,(#1493));
#1495=IFCCARTESIANPOINT((0.,0.,0.));
#1496=IFCAXIS2PLACEMENT3D(#1495,$,$);
#1497=IFCDIRECTION((0.,0.,1.));
#1498=IFCEXTRUDEDAREASOLID(#1494,#1496,#1497,0.6);
#1499=IFCSHAPEREPRESENTATION(#12,'Body','SweptSolid',(#1498));
#1500=IFCPRODUCTDEFINITIONSHAPE($,$,(#1499));
#1501=IFCSLAB('1jX7XW2FJ5V_9KE7X4f$3J',#5,'Floor 3',$,$,#1483,#1500,$,.FLOOR.);
#1502=IFCCARTESIANPOINT((0.,0.,0.));
#1503=IFCDIRECTION((0.,0.,1.));
#1504=IFCDIRECTION((1.,0.,0.));
#1505=IFCAXIS2PLACEMENT3D(#1502,#1503,#1504);
#1506=IFCLOCALPLACEMENT(#1312,#1505);
#1507=IFCCARTESIANPOINT((0.,0.,0.));
#1508=IFCDIRECTION((0.,0.,1.));
#1509=IFCDIRECTION((1.,0.,0.));
#1510=IFCAXIS2PLACEMENT3D(#1507,#1508,#1509);
#1511=IFCLOCALPLACEMENT(#1312,#1510);
#1512=IFCCARTESIANPOINT((0.,0.,0.));
#1513=IFCDIRECTION((0.,0.,1.));
#1514=IFCDIRECTION((1.,0.,0.));
#1515=IFCAXIS2PLACEMENT3D(#1512,#1513,#1514);
#1516=IFCLOCALPLACEMENT(#1312,#1515);
#1517=IFCCARTESIANPOINT((0.,0.,0.));
#1518=IFCDIRECTION((0.,0.,1.));
#1519=IFCDIRECTION((1.,0.,0.));
#1520=IFCAXIS2PLACEMENT3D(#1517,#1518,#1519);
#1521=IFCLOCALPLACEMENT(#1312,#1520);
#1522=IFCCARTESIANPOINT((0.,0.,0.));
#1523=IFCDIRECTION((0.,0.,1.));
#1524=IFCDIRECTION((1.,0.,0.));
#1525=IFCAXIS2PLACEMENT3D(#1522,#1523,#1524);
#1526=IFCLOCALPLACEMENT(#1312,#1525);
#1527=IFCCARTESIANPOINT((0.,0.,0.));
#1528=IFCDIRECTION((0.,0.,1.));
#1529=IFCDIRECTION((1.,0.,0.));
#1530=IFCAXIS2PLACEMENT3D(#1527,#1528,#1529);
#1531=IFCLOCALPLACEMENT(#1312,#1530);
#1532=IFCCARTESIANPOINT((0.,0.,0.));
#1533=IFCDIRECTION((0.,0.,1.));
#1534=IFCDIRECTION((1.,0.,0.));
#1535=IFCAXIS2PLACEMENT3D(#1532,#1533,#1534);
#1536=IFCLOCALPLACEMENT(#1312,#1535);
#1537=IFCCARTESIANPOINT((0.,0.,0.));
#1538=IFCDIRECTION((0.,0.,1.));
#1539=IFCDIRECTION((1.,0.,0.));
#1540=IFCAXIS2PLACEMENT3D(#1537,#1538,#1539);
#1541=IFCLOCALPLACEMENT(#1312,#1540);
#1542=IFCCARTESIANPOINT((0.,0.,0.));
#1543=IFCDIRECTION((0.,0.,1.));
#1544=IFCDIRECTION((1.,0.,0.));
#1545=IFCAXIS2PLACEMENT3D(#1542,#1543,#1544);
#1546=IFCLOCALPLACEMENT(#1312,#1545);
#1547=IFCCARTESIANPOINT((0.,0.,0.));
#1548=IFCDIRECTION((0.,0.,1.));
#1549=IFCDIRECTION((1.,0.,0.));
#1550=IFCAXIS2PLACEMENT3D(#1547,#1548,#1549);
#1551=IFCLOCALPLACEMENT(#1312,#1550);
#1552=IFCCARTESIANPOINT((0.,0.,0.));
#1553=IFCDIRECTION((0.,0.,1.));
#1554=IFCDIRECTION((1.,0.,0.));
#1555=IFCAXIS2PLACEMENT3D(#1552,#1553,#1554);
#1556=IFCLOCALPLACEMENT(#1312,#1555);
#1557=IFCCARTESIANPOINT((0.,0.,0.));
#1558=IFCDIRECTION((0.,0.,1.));
#1559=IFCDIRECTION((1.,0.,0.));
#1560=IFCAXIS2PLACEMENT3D(#1557,#1558,#1559);
#1561=IFCLOCALPLACEMENT(#1312,#1560);
#1562=IFCCARTESIANPOINT((12.35,8.5,-1.34));
#1563=IFCDIRECTION((0.,0.,1.));
#1564=IFCDIRECTION((-1.,0.,0.));
#1565=IFCAXIS2PLACEMENT3D(#1562,#1563,#1564);
#1566=IFCLOCALPLACEMENT(#1312,#1565);
#1567=IFCCARTESIANPOINT((0.,0.));
#1568=IFCAXIS2PLACEMENT2D(#1567,$);
#1569=IFCRECTANGLEPROFILEDEF(.AREA.,$,#1568,6.,16.);
#1570=IFCCARTESIANPOINT((0.,0.,0.));
#1571=IFCAXIS2PLACEMENT3D(#1570,$,$);
#1572=IFCDIRECTION((0.,0.,1.));
#1573=IFCEXTRUDEDAREASOLID(#1569,#1571,#1572,0.18);
#1574=IFCCOLOURRGB($,0.498039,0.72549,0.811765);
#1575=IFCSURFACESTYLESHADING(#1574,0.);
#1576=IFCSURFACESTYLE('tile',.BOTH.,(#1575));
#1577=IFCSTYLEDITEM(#1573,(#1576),$);
#1578=IFCCARTESIANPOINT((-3.,-8.));
#1579=IFCCARTESIANPOINT((3.,-8.));
#1580=IFCCARTESIANPOINT((3.,8.));
#1581=IFCCARTESIANPOINT((-3.,8.));
#1582=IFCPOLYLINE((#1578,#1579,#1580,#1581,#1578));
#1583=IFCCARTESIANPOINT((-2.8,-7.8));
#1584=IFCCARTESIANPOINT((2.8,-7.8));
#1585=IFCCARTESIANPOINT((2.8,7.8));
#1586=IFCCARTESIANPOINT((-2.8,7.8));
#1587=IFCPOLYLINE((#1583,#1584,#1585,#1586,#1583));
#1588=IFCARBITRARYPROFILEDEFWITHVOIDS(.AREA.,$,#1582,(#1587));
#1589=IFCCARTESIANPOINT((0.,0.,0.18));
#1590=IFCAXIS2PLACEMENT3D(#1589,$,$);
#1591=IFCDIRECTION((0.,0.,1.));
#1592=IFCEXTRUDEDAREASOLID(#1588,#1590,#1591,1.16);
#1593=IFCSTYLEDITEM(#1592,(#1576),$);
#1594=IFCCARTESIANPOINT((-3.,-8.));
#1595=IFCCARTESIANPOINT((3.,-8.));
#1596=IFCCARTESIANPOINT((3.,8.));
#1597=IFCCARTESIANPOINT((-3.,8.));
#1598=IFCPOLYLINE((#1594,#1595,#1596,#1597,#1594));
#1599=IFCCARTESIANPOINT((-2.74,-7.74));
#1600=IFCCARTESIANPOINT((2.74,-7.74));
#1601=IFCCARTESIANPOINT((2.74,7.74));
#1602=IFCCARTESIANPOINT((-2.74,7.74));
#1603=IFCPOLYLINE((#1599,#1600,#1601,#1602,#1599));
#1604=IFCARBITRARYPROFILEDEFWITHVOIDS(.AREA.,$,#1598,(#1603));
#1605=IFCCARTESIANPOINT((0.,0.,1.34));
#1606=IFCAXIS2PLACEMENT3D(#1605,$,$);
#1607=IFCDIRECTION((0.,0.,1.));
#1608=IFCEXTRUDEDAREASOLID(#1604,#1606,#1607,0.06);
#1609=IFCCOLOURRGB($,0.85098,0.835294,0.784314);
#1610=IFCSURFACESTYLESHADING(#1609,0.);
#1611=IFCSURFACESTYLE('#d9d5c8',.BOTH.,(#1610));
#1612=IFCSTYLEDITEM(#1608,(#1611),$);
#1613=IFCCARTESIANPOINT((0.,0.));
#1614=IFCAXIS2PLACEMENT2D(#1613,$);
#1615=IFCRECTANGLEPROFILEDEF(.AREA.,$,#1614,5.6,15.6);
#1616=IFCCARTESIANPOINT((0.,0.,0.18));
#1617=IFCAXIS2PLACEMENT3D(#1616,$,$);
#1618=IFCDIRECTION((0.,0.,1.));
#1619=IFCEXTRUDEDAREASOLID(#1615,#1617,#1618,1.11);
#1620=IFCCOLOURRGB($,0.121569,0.478431,0.580392);
#1621=IFCSURFACESTYLESHADING(#1620,0.65);
#1622=IFCSURFACESTYLE('water',.BOTH.,(#1621));
#1623=IFCSTYLEDITEM(#1619,(#1622),$);
#1624=IFCCARTESIANPOINT((-1.12,-7.625));
#1625=IFCAXIS2PLACEMENT2D(#1624,$);
#1626=IFCRECTANGLEPROFILEDEF(.AREA.,$,#1625,3.36,0.35);
#1627=IFCCARTESIANPOINT((0.,0.,0.18));
#1628=IFCAXIS2PLACEMENT3D(#1627,$,$);
#1629=IFCDIRECTION((0.,0.,1.));
#1630=IFCEXTRUDEDAREASOLID(#1626,#1628,#1629,0.8325);
#1631=IFCSTYLEDITEM(#1630,(#1576),$);
#1632=IFCCARTESIANPOINT((-1.12,-7.275));
#1633=IFCAXIS2PLACEMENT2D(#1632,$);
#1634=IFCRECTANGLEPROFILEDEF(.AREA.,$,#1633,3.36,0.35);
#1635=IFCCARTESIANPOINT((0.,0.,0.18));
#1636=IFCAXIS2PLACEMENT3D(#1635,$,$);
#1637=IFCDIRECTION((0.,0.,1.));
#1638=IFCEXTRUDEDAREASOLID(#1634,#1636,#1637,0.555);
#1639=IFCSTYLEDITEM(#1638,(#1576),$);
#1640=IFCCARTESIANPOINT((-1.12,-6.925));
#1641=IFCAXIS2PLACEMENT2D(#1640,$);
#1642=IFCRECTANGLEPROFILEDEF(.AREA.,$,#1641,3.36,0.35);
#1643=IFCCARTESIANPOINT((0.,0.,0.18));
#1644=IFCAXIS2PLACEMENT3D(#1643,$,$);
#1645=IFCDIRECTION((0.,0.,1.));
#1646=IFCEXTRUDEDAREASOLID(#1642,#1644,#1645,0.2775);
#1647=IFCSTYLEDITEM(#1646,(#1576),$);
#1648=IFCSHAPEREPRESENTATION(#12,'Body','SweptSolid',(#1573,#1592,#1608,#1619,#1630,#1638,#1646));
#1649=IFCPRODUCTDEFINITIONSHAPE($,$,(#1648));
#1650=IFCBUILDINGELEMENTPROXY('3ZeO5J9Ojche2MfQXkGm9Z',#5,'Swimming pool','Skanna asset library',$,#1566,#1649,$,.NOTDEFINED.);
#1651=IFCRELCONTAINEDINSPATIALSTRUCTURE('3PDjNC33mAtb3xn2ER2M$1',#5,$,$,(#1328,#1343,#1358,#1373,#1388,#1403,#1418,#1433,#1448,#1463,#1478,#1501,#1650),#1313);
#1652=IFCRELAGGREGATES('1vh829NoINgHAmqPbbZZ9W',#5,$,$,#21,(#27,#1313));
#1653=IFCDOORTYPE('0NomtsTmtI7J0QQ5le$lWk',#5,'Door — single swing',$,$,$,$,$,$,.DOOR.,.SINGLE_SWING_RIGHT.,.F.,$);
#1654=IFCRELDEFINESBYTYPE('0XGf60cJl3djf$w3KTxGJw',#5,$,$,(#107),#1653);
#1655=IFCDOORTYPE('3P8r1pVpjkGFxuMFXsvf9_',#5,'Door — garage sectional',$,$,$,$,$,$,.DOOR.,.ROLLINGUP.,.F.,$);
#1656=IFCRELDEFINESBYTYPE('173CR491LYDi9azigi6MG_',#5,$,$,(#170,#246),#1655);
#1657=IFCWINDOWTYPE('1gk7B05t_kW9quTD7tFPu2',#5,'Window — single panel',$,$,$,$,$,$,.WINDOW.,.SINGLE_PANEL.,.F.,$);
#1658=IFCRELDEFINESBYTYPE('018HQyDAHDwY7aUoK3jZZN',#5,$,$,(#365,#462,#559),#1657);
#1659=IFCMATERIAL('tile',$,$);
#1660=IFCRELASSOCIATESMATERIAL('2dgSrqoEESakM3_RTD2ahp',#5,'Material: tile',$,(#986,#1018,#1049),#1659);
ENDSEC;
END-ISO-10303-21;
